<svg class="animated" id="freepik_stories-college-project" xmlns="http://www.w3.org/2000/svg" viewBox="0 0 750 500" version="1.1" xmlns:xlink="http://www.w3.org/1999/xlink" xmlns:svgjs="http://svgjs.com/svgjs"><style>svg#freepik_stories-college-project:not(.animated) .animable {opacity: 0;}svg#freepik_stories-college-project.animated #freepik--Light_Bulb--inject-364 {animation: 6s Infinite  linear floating;animation-delay: 0s;}svg#freepik_stories-college-project.animated #freepik--Character_3--inject-364 {animation: 1s 1 forwards cubic-bezier(.36,-0.01,.5,1.38) slideDown;animation-delay: 0s;}svg#freepik_stories-college-project.animated #freepik--Character_2--inject-364 {animation: 1.2s 1 forwards cubic-bezier(.36,-0.01,.5,1.38) slideLeft;animation-delay: 0s;}svg#freepik_stories-college-project.animated #freepik--Character_1--inject-364 {animation: 1s 1 forwards cubic-bezier(.36,-0.01,.5,1.38) fadeIn;animation-delay: 0s;}            @keyframes floating {                0% {                    opacity: 1;                    transform: translateY(0px);                }                50% {                    transform: translateY(-10px);                }                100% {                    opacity: 1;                    transform: translateY(0px);                }            }                    @keyframes slideDown {                0% {                    opacity: 0;                    transform: translateY(-30px);                }                100% {                    opacity: 1;                    transform: translateY(0);                }            }                    @keyframes slideLeft {                0% {                    opacity: 0;                    transform: translateX(-30px);                }                100% {                    opacity: 1;                    transform: translateX(0);                }            }                    @keyframes fadeIn {                0% {                    opacity: 0;                }                100% {                    opacity: 1;                }            }        </style><g id="freepik--background-complete--inject-364" class="animable" style="transform-origin: 375px 234.235px;"><path d="M248.71,207.51c-1.38,2.1-2.31,4.41-2.81,6.8l-3.8,.36v7.35l3.8,.36c.49,2.38,1.42,4.69,2.81,6.8l-2.42,2.93,5.2,5.2,2.93-2.42c2.1,1.38,4.41,2.31,6.8,2.81l.36,3.8h7.35l.36-3.8c2.38-.5,4.69-1.42,6.8-2.81l2.93,2.42,5.2-5.2-2.42-2.93c1.38-2.1,2.31-4.41,2.81-6.8l3.8-.36v-7.35l-3.8-.36c-.49-2.38-1.42-4.69-2.81-6.8l2.42-2.93-5.2-5.2-2.93,2.42c-2.1-1.38-4.42-2.31-6.8-2.81l-.36-3.8h-7.35l-.36,3.8c-2.38,.49-4.69,1.42-6.8,2.81l-2.93-2.42-5.2,5.2,2.42,2.93Zm23.57,3.79c3.89,3.89,3.89,10.19,0,14.07-3.89,3.89-10.19,3.89-14.08,0s-3.89-10.19,0-14.08c3.89-3.89,10.19-3.89,14.07,0Z" style="fill: rgb(245, 245, 245); transform-origin: 265.255px 218.345px;" id="el99x9ato2cp5" class="animable"></path><path d="M433.04,222.78c-.9,1.37-1.51,2.88-1.83,4.43l-2.47,.23v4.79l2.47,.23c.32,1.55,.93,3.06,1.83,4.43l-1.58,1.91,3.39,3.39,1.91-1.58c1.37,.9,2.88,1.51,4.43,1.83l.23,2.47h4.79l.23-2.47c1.55-.32,3.06-.93,4.43-1.83l1.91,1.58,3.39-3.39-1.58-1.91c.9-1.37,1.51-2.88,1.83-4.43l2.47-.23v-4.79l-2.47-.23c-.32-1.55-.93-3.06-1.83-4.43l1.58-1.91-3.39-3.39-1.91,1.58c-1.37-.9-2.88-1.51-4.43-1.83l-.23-2.47h-4.79l-.23,2.47c-1.55,.32-3.06,.93-4.43,1.83l-1.91-1.58-3.39,3.39,1.58,1.91Zm15.36,2.47c2.53,2.53,2.53,6.64,0,9.17-2.53,2.53-6.64,2.53-9.17,0-2.53-2.53-2.53-6.64,0-9.17,2.53-2.53,6.64-2.53,9.17,0Z" style="fill: rgb(245, 245, 245); transform-origin: 443.815px 229.835px;" id="eli3so94mfue9" class="animable"></path><path d="M462.78,258.71c-.93,1.41-1.55,2.96-1.88,4.56l-2.55,.24v4.93l2.55,.24c.33,1.6,.96,3.15,1.88,4.56l-1.63,1.97,3.49,3.49,1.97-1.63c1.41,.93,2.96,1.55,4.56,1.88l.24,2.55h4.93l.24-2.55c1.6-.33,3.15-.96,4.56-1.88l1.97,1.63,3.49-3.49-1.63-1.97c.93-1.41,1.55-2.96,1.88-4.56l2.55-.24v-4.93l-2.55-.24c-.33-1.6-.96-3.15-1.88-4.56l1.63-1.97-3.49-3.49-1.97,1.63c-1.41-.93-2.96-1.55-4.56-1.88l-.24-2.55h-4.93l-.24,2.55c-1.6,.33-3.15,.96-4.56,1.88l-1.97-1.63-3.49,3.49,1.63,1.97Zm15.82,2.55c2.61,2.61,2.61,6.84,0,9.45s-6.84,2.61-9.45,0c-2.61-2.61-2.61-6.84,0-9.45,2.61-2.61,6.84-2.61,9.45,0Z" style="fill: rgb(224, 224, 224); transform-origin: 473.875px 265.975px;" id="elikp8b9xolng" class="animable"></path><path d="M100.38,279.72c-2.18,3.32-3.65,6.98-4.43,10.74l-6,.56v11.62l6,.57c.78,3.77,2.25,7.42,4.43,10.74l-3.83,4.63,8.21,8.21,4.63-3.83c3.32,2.18,6.98,3.65,10.74,4.43l.56,6h11.62l.57-6c3.77-.78,7.42-2.25,10.74-4.43l4.63,3.83,8.21-8.21-3.83-4.63c2.18-3.32,3.65-6.98,4.43-10.74l6-.57v-11.62l-6-.57c-.78-3.77-2.25-7.42-4.43-10.74l3.83-4.63-8.21-8.21-4.63,3.83c-3.33-2.18-6.98-3.65-10.74-4.43l-.57-6h-11.62l-.56,6c-3.77,.78-7.42,2.25-10.74,4.43l-4.63-3.83-8.21,8.21,3.83,4.63Zm37.25,6c6.14,6.14,6.14,16.1,0,22.24-6.14,6.14-16.1,6.14-22.24,0-6.14-6.14-6.14-16.1,0-22.24,6.14-6.14,16.1-6.14,22.24,0Z" style="fill: rgb(245, 245, 245); transform-origin: 126.505px 296.83px;" id="elaec5u9ikmv" class="animable"></path><path d="M584.88,285.95c-1.4,2.14-2.35,4.49-2.85,6.91l-3.86,.36v7.47l3.86,.36c.5,2.42,1.45,4.77,2.85,6.91l-2.46,2.98,5.28,5.28,2.98-2.46c2.14,1.4,4.49,2.35,6.91,2.85l.36,3.86h7.47l.36-3.86c2.42-.5,4.77-1.45,6.91-2.85l2.98,2.46,5.28-5.28-2.46-2.98c1.4-2.14,2.35-4.49,2.85-6.91l3.86-.36v-7.47l-3.86-.36c-.5-2.42-1.45-4.77-2.85-6.91l2.46-2.98-5.28-5.28-2.98,2.46c-2.14-1.4-4.49-2.35-6.91-2.85l-.36-3.86h-7.47l-.36,3.86c-2.42,.5-4.77,1.45-6.91,2.85l-2.98-2.46-5.28,5.28,2.46,2.98Zm23.96,3.86c3.95,3.95,3.95,10.36,0,14.31s-10.36,3.95-14.31,0-3.95-10.36,0-14.31c3.95-3.95,10.35-3.95,14.31,0Z" style="fill: rgb(245, 245, 245); transform-origin: 601.685px 296.955px;" id="elvxt75c1talf" class="animable"></path><path d="M90.07,346.2c-1.11,1.69-1.85,3.54-2.25,5.45l-3.05,.29v5.9l3.05,.29c.4,1.91,1.14,3.77,2.25,5.45l-1.95,2.35,4.17,4.17,2.35-1.95c1.69,1.11,3.54,1.85,5.45,2.25l.29,3.05h5.9l.29-3.05c1.91-.4,3.77-1.14,5.45-2.25l2.35,1.95,4.17-4.17-1.95-2.35c1.11-1.69,1.85-3.54,2.25-5.45l3.05-.29v-5.9l-3.05-.29c-.4-1.91-1.14-3.77-2.25-5.45l1.95-2.35-4.17-4.17-2.35,1.95c-1.69-1.11-3.54-1.85-5.45-2.25l-.29-3.05h-5.9l-.29,3.05c-1.91,.4-3.77,1.14-5.45,2.25l-2.35-1.95-4.17,4.17,1.95,2.35Zm18.91,3.04c3.12,3.12,3.12,8.17,0,11.29-3.12,3.12-8.18,3.12-11.29,0s-3.12-8.17,0-11.29c3.12-3.12,8.17-3.12,11.29,0Z" style="fill: rgb(224, 224, 224); transform-origin: 103.33px 354.89px;" id="el2b74cwd327m" class="animable"></path><path d="M470.62,212.12c-1.34,2.05-2.25,4.3-2.73,6.62l-3.7,.35v7.16l3.7,.35c.48,2.32,1.39,4.57,2.73,6.62l-2.36,2.85,5.06,5.06,2.85-2.36c2.05,1.34,4.3,2.25,6.62,2.73l.35,3.7h7.16l.35-3.7c2.32-.48,4.57-1.39,6.62-2.73l2.85,2.36,5.06-5.06-2.36-2.85c1.34-2.05,2.25-4.3,2.73-6.62l3.7-.35v-7.16l-3.69-.35c-.48-2.32-1.39-4.57-2.73-6.62l2.36-2.85-5.06-5.06-2.85,2.36c-2.05-1.34-4.3-2.25-6.62-2.73l-.35-3.7h-7.16l-.35,3.7c-2.32,.48-4.57,1.39-6.62,2.73l-2.85-2.36-5.06,5.06,2.36,2.85Zm22.95,3.69c3.78,3.78,3.78,9.92,0,13.7-3.78,3.78-9.92,3.78-13.7,0s-3.78-9.92,0-13.7c3.78-3.78,9.92-3.78,13.7,0Z" style="fill: rgb(224, 224, 224); transform-origin: 486.72px 222.67px;" id="el7of6eoow29k" class="animable"></path><g id="elu3e1t6j3mc" class="animable" style="transform-origin: 126.515px 176.455px;"><g id="elba0b7n9dysl"><rect x="78.09" y="141.79" width="96.85" height="69.33" style="fill: rgb(224, 224, 224); transform-origin: 126.515px 176.455px; transform: rotate(-13.37deg);" class="animable" id="elbbn1oyvshfc"></rect></g><g id="elgjy2whk43yf"><rect x="81.87" y="144.5" width="89.28" height="63.92" style="fill: rgb(250, 250, 250); transform-origin: 126.51px 176.46px; transform: rotate(-13.37deg);" class="animable" id="elxva8rou2yl"></rect></g><path d="M90.47,217.87l-2.23-9.38c3.16-10.57,13.48-26.59,17.94-27.86,7.4-2.11,22.27,8.61,22.27,8.61,0,0,14.69-25.64,19.42-27.89,7.55-3.58,24.22,13.83,24.22,13.83l5.24,22.04-86.86,20.65Z" style="fill: rgb(235, 235, 235); transform-origin: 132.785px 189.367px;" id="elxrhg2pk0zeq" class="animable"></path><path d="M129.63,163.88c.65,4.29-2.3,8.3-6.59,8.95-4.29,.65-8.3-2.3-8.95-6.59-.65-4.29,2.3-8.3,6.59-8.95,4.29-.65,8.3,2.3,8.95,6.59Z" style="fill: rgb(235, 235, 235); transform-origin: 121.86px 165.06px;" id="elyna52si2pld" class="animable"></path></g><g id="elztviubfr3c" class="animable" style="transform-origin: 555.485px 128.975px;"><g id="el40e7hc32qti"><rect x="496.07" y="86.44" width="118.83" height="85.07" style="fill: rgb(224, 224, 224); transform-origin: 555.485px 128.975px; transform: rotate(2.35deg);" class="animable" id="el7wyrglossuw"></rect></g><g id="el2q2pcidi7f"><rect x="500.71" y="89.76" width="109.55" height="78.43" style="fill: rgb(250, 250, 250); transform-origin: 555.485px 128.975px; transform: rotate(2.35deg);" class="animable" id="el0j66kz9786ge"></rect></g><path d="M499.15,165.91l.49-11.82c7.25-11.43,24.76-26.92,30.45-26.94,9.45-.03,23.44,17.57,23.44,17.57,0,0,25.87-25.4,32.21-26.48,10.11-1.72,24,24.39,24,24.39l-1.14,27.77-109.46-4.5Z" style="fill: rgb(235, 235, 235); transform-origin: 554.44px 144.279px;" id="elhr6o7cj1ke" class="animable"></path><path d="M563.35,115.16c-.66,5.28-5.47,9.04-10.76,8.38-5.28-.66-9.04-5.47-8.38-10.76,.66-5.28,5.47-9.04,10.76-8.38,5.28,.66,9.04,5.47,8.38,10.76Z" style="fill: rgb(235, 235, 235); transform-origin: 553.78px 113.97px;" id="elegoki780vw" class="animable"></path></g><g id="eltjz5sx30qvg" class="animable" style="transform-origin: 644.825px 246.965px;"><g id="elyq7fihvu4kf"><rect x="611.92" y="223.41" width="65.81" height="47.11" style="fill: rgb(224, 224, 224); transform-origin: 644.825px 246.965px; transform: rotate(10.55deg);" class="animable" id="el4qsg2hw0icq"></rect></g><g id="elv4tdbn624bo"><rect x="614.49" y="225.25" width="60.67" height="43.43" style="fill: rgb(250, 250, 250); transform-origin: 644.825px 246.965px; transform: rotate(10.55deg);" class="animable" id="el7305yka52af"></rect></g><path d="M611.03,262.77l1.2-6.44c4.87-5.7,15.7-12.8,18.82-12.36,5.18,.73,11.46,11.48,11.46,11.48,0,0,16.19-11.88,19.75-11.97,5.68-.15,11.23,15.27,11.23,15.27l-2.82,15.13-59.64-11.11Z" style="fill: rgb(235, 235, 235); transform-origin: 642.26px 258.679px;" id="elcnedcxnypn" class="animable"></path><path d="M650.23,240.02c-.78,2.85-3.71,4.52-6.56,3.74-2.84-.78-4.52-3.71-3.74-6.56s3.71-4.52,6.56-3.74c2.85,.78,4.52,3.71,3.74,6.56Z" style="fill: rgb(235, 235, 235); transform-origin: 645.08px 238.61px;" id="el4q50trf6fb5" class="animable"></path></g><g id="el7ud808g7jwd" class="animable" style="transform-origin: 312.755px 88.3241px;"><path d="M351.12,71c.15,0,.27,.12,.26,.27,0,.09-.05,.18-.13,.23l-23.14,12.19-1.1,.59-11.85,6.23-40.77,1.37c-.15,0-.27-.12-.26-.27,0-.09,.05-.18,.13-.23l35.59-18.74c.33-.18,.69-.27,1.07-.28l12.8-.44,1.25-.04,26.15-.87Z" style="fill: rgb(230, 230, 230); transform-origin: 312.755px 81.44px;" id="elnep04m3ozc" class="animable"></path><path d="M334.27,75.74c-.81-1.32-10.57,.05-22.2,3.13-11.63,3.08-20.78,6.73-20.84,8.28h0l4.78,18.03c.09,.34,.43,.53,.77,.45h0l41.84-11.09c.34-.08,.54-.42,.46-.76h0l-4.78-18.04h-.04Z" style="fill: rgb(235, 235, 235); transform-origin: 315.164px 90.4434px;" id="el0mlvka1k6m1" class="animable"></path><path d="M330.75,89.96l1.01,3.81-.3,.08-.84-2.29,.39,2.4-.5,.13-.85-2.28,.39,2.4-.5,.13-.85-2.28,.4,2.4-.3,.08-1.01-3.81c-.15-.6,.07-1.22,.56-1.59l-4.57-17.24,1.25-.04,4.5,16.97c.59,.1,1.07,.54,1.22,1.12Z" style="fill: rgb(224, 224, 224); transform-origin: 327.77px 83.2px;" id="el7p1j2rwcob5" class="animable"></path></g><g id="elywm0l01h7l" class="animable" style="transform-origin: 375px 234.235px;"><g id="elh463td7t6cs" class="animable" style="transform-origin: 375px 217.115px;"><g id="elkkcm08dsj8" class="animable" style="transform-origin: 375px 186.52px;"><g id="elj3850t2ral9" class="animable" style="transform-origin: 479.145px 186.52px;"><path d="M673.73,324.02h-180.75c-3.23,0-5.86-2.63-5.86-5.86V54.88c0-3.23,2.63-5.86,5.86-5.86h180.75c3.23,0,5.86,2.63,5.86,5.86V318.15c0,3.23-2.63,5.86-5.86,5.86ZM492.99,49.27c-3.09,0-5.61,2.52-5.61,5.61V318.15c0,3.09,2.52,5.61,5.61,5.61h180.75c3.09,0,5.61-2.52,5.61-5.61V54.88c0-3.09-2.52-5.61-5.61-5.61h-180.75Z" style="fill: rgb(224, 224, 224); transform-origin: 583.355px 186.52px;" id="ellc2rmdh484p" class="animable"></path><path d="M465.31,324.02h-180.75c-3.23,0-5.86-2.63-5.86-5.86V54.88c0-3.23,2.63-5.86,5.86-5.86h180.75c3.23,0,5.86,2.63,5.86,5.86V318.15c0,3.23-2.63,5.86-5.86,5.86ZM284.56,49.27c-3.09,0-5.61,2.52-5.61,5.61V318.15c0,3.09,2.52,5.61,5.61,5.61h180.75c3.09,0,5.61-2.52,5.61-5.61V54.88c0-3.09-2.52-5.61-5.61-5.61h-180.75Z" style="fill: rgb(224, 224, 224); transform-origin: 374.935px 186.52px;" id="elk6z0k7ewxp" class="animable"></path></g><path d="M257.01,324.02H76.27c-3.23,0-5.86-2.63-5.86-5.86V54.88c0-3.23,2.63-5.86,5.86-5.86h180.75c3.23,0,5.86,2.63,5.86,5.86V318.15c0,3.23-2.63,5.86-5.86,5.86ZM76.27,49.27c-3.09,0-5.61,2.52-5.61,5.61V318.15c0,3.09,2.52,5.61,5.61,5.61h180.75c3.09,0,5.61-2.52,5.61-5.61V54.88c0-3.09-2.52-5.61-5.61-5.61H76.27Z" style="fill: rgb(224, 224, 224); transform-origin: 166.645px 186.52px;" id="el9co26sapoqg" class="animable"></path></g><rect y="385.09" width="750" height=".12" style="fill: rgb(224, 224, 224); transform-origin: 375px 385.15px;" id="elg4wjvglvqi6" class="animable"></rect></g><g id="el55ji87bpeul" class="animable" style="transform-origin: 375px 410.555px;"><rect x="653.63" y="414.46" width="55.73" height=".42" style="fill: rgb(235, 235, 235); transform-origin: 681.495px 414.67px;" id="elnjx1tble7e" class="animable"></rect><rect x="495.04" y="419.03" width="14.63" height=".42" style="fill: rgb(235, 235, 235); transform-origin: 502.355px 419.24px;" id="eligl37ujd5b7" class="animable"></rect><rect x="40.64" y="401.66" width="72.67" height=".42" style="fill: rgb(235, 235, 235); transform-origin: 76.975px 401.87px;" id="ellf2595jvox" class="animable"></rect><rect x="128.3" y="401.66" width="10.66" height=".42" style="fill: rgb(235, 235, 235); transform-origin: 133.63px 401.87px;" id="eljtkbctbocpk" class="animable"></rect><rect x="173.59" y="408.77" width="157.61" height=".42" style="fill: rgb(235, 235, 235); transform-origin: 252.395px 408.98px;" id="elufgk0w99pi" class="animable"></rect></g></g></g><g id="freepik--Shadow--inject-364" class="animable" style="transform-origin: 371px 447.6px;"><path d="M719.97,447.6c0,3.69-156.24,6.68-348.97,6.68s-348.97-2.99-348.97-6.68,156.24-6.68,348.97-6.68,348.97,2.99,348.97,6.68Z" style="fill: rgb(245, 245, 245); transform-origin: 371px 447.6px;" id="elh8qysw2u8rb" class="animable"></path></g><g id="freepik--Computer_case--inject-364" class="animable" style="transform-origin: 132.715px 414.89px;"><g id="el6kne0z7wd88" class="animable" style="transform-origin: 132.715px 414.89px;"><path d="M105.3,399.07l-4.41-.62c.78-5.5,5.38-15.91,17.15-15.91,13.93,0,20.87,8.04,21.56,16.03l-4.41,.38c-.51-5.97-6.03-12-17.16-12s-12.62,11.63-12.72,12.12Z" style="fill: rgb(38, 50, 56); transform-origin: 120.245px 390.805px;" id="elo2wrl457mwm" class="animable"></path><rect x="78.15" y="395.19" width="85.86" height="51.26" rx="7.1" ry="7.1" style="fill: rgb(38, 50, 56); transform-origin: 121.08px 420.82px;" id="eljo6ozit8coe" class="animable"></rect><g id="elw8r3nr090po"><rect x="78.15" y="395.19" width="85.86" height="51.26" rx="7.1" ry="7.1" style="fill: rgb(255, 255, 255); opacity: 0.2; transform-origin: 121.08px 420.82px;" class="animable" id="elzcw506oip7"></rect></g><path d="M139.63,447.24c-60.7,0-63.64-41.63-63.64-42.07l2.47-4.82c.1,1.54,4.88,42.45,61.22,42.45,23.19,0,43.2,0,45.23-4.41,1.78-3.9-6.91-13.91-20.85-29.95v-6.21c17.76,20.45,27.82,31.45,24.87,37.94-3.12,6.81-16.53,7.07-49.29,7.07Z" style="fill: rgb(38, 50, 56); transform-origin: 132.715px 423.795px;" id="el8wi2cmcofe" class="animable"></path></g></g><g id="freepik--Globe--inject-364" class="animable" style="transform-origin: 657.848px 378.539px;"><g id="freepik--freepik--Globe--inject-2--inject-364" class="animable" style="transform-origin: 657.848px 378.539px;"><rect x="648.98" y="414.11" width="5.6" height="18.41" style="fill: rgb(38, 50, 56); transform-origin: 651.78px 423.315px;" id="elr43alnomxj" class="animable"></rect><path d="M651.71,417.07c-8.71,0-17.28-2.15-24.96-6.27l2.65-4.93c23.12,12.35,51.87,3.63,64.22-19.49,6.01-11.25,7.24-24.45,3.41-36.62-1.5-4.82-3.78-9.37-6.73-13.46-4.23-5.88-9.75-10.71-16.14-14.14l2.64-4.93c2.94,1.58,5.74,3.43,8.34,5.53,3.68,2.97,6.94,6.42,9.7,10.26,3.31,4.58,5.85,9.66,7.53,15.05,8.81,27.95-6.7,57.75-34.65,66.56-5.18,1.63-10.58,2.46-16.01,2.46v-.02Z" style="fill: rgb(38, 50, 56); transform-origin: 665.795px 367.16px;" id="elv9on2kj5qn" class="animable"></path><g id="ele9y0jkybfak"><g style="opacity: 0.3; transform-origin: 665.795px 367.16px;" class="animable" id="elwkbmurgoloi"><path d="M651.71,417.07c-8.71,0-17.28-2.15-24.96-6.27l2.65-4.93c23.12,12.35,51.87,3.63,64.22-19.49,6.01-11.25,7.24-24.45,3.41-36.62-1.5-4.82-3.78-9.37-6.73-13.46-4.23-5.88-9.75-10.71-16.14-14.14l2.64-4.93c2.94,1.58,5.74,3.43,8.34,5.53,3.68,2.97,6.94,6.42,9.7,10.26,3.31,4.58,5.85,9.66,7.53,15.05,8.81,27.95-6.7,57.75-34.65,66.56-5.18,1.63-10.58,2.46-16.01,2.46v-.02Z" style="fill: rgb(255, 255, 255); transform-origin: 665.795px 367.16px;" id="elsnptdlkwzl" class="animable"></path></g></g><path d="M624.95,415.47c-.23,0-.46-.05-.66-.17-.66-.37-.92-1.19-.57-1.87l53.67-100.12c.36-.68,1.21-.94,1.89-.58,.68,.36,.94,1.21,.58,1.89h0l-53.68,100.08c-.24,.46-.71,.75-1.23,.76Z" style="fill: rgb(38, 50, 56); transform-origin: 651.793px 364.019px;" id="el81frsqg0m0p" class="animable"></path><g id="elgld73cuadf5"><g style="opacity: 0.4; transform-origin: 651.793px 364.019px;" class="animable" id="elyfmzzvqw13e"><path d="M624.95,415.47c-.23,0-.46-.05-.66-.17-.66-.37-.92-1.19-.57-1.87l53.67-100.12c.36-.68,1.21-.94,1.89-.58,.68,.36,.94,1.21,.58,1.89h0l-53.68,100.08c-.24,.46-.71,.75-1.23,.76Z" style="fill: rgb(255, 255, 255); transform-origin: 651.793px 364.019px;" id="el2b8lcers7ur" class="animable"></path></g></g><path d="M641.55,431.16h20.46c1.37,0,2.48,1.11,2.48,2.48h0v4.57h-25.42v-4.57c0-1.37,1.11-2.48,2.47-2.48Z" style="fill: rgb(38, 50, 56); transform-origin: 651.78px 434.685px;" id="elpx40xghpwm" class="animable"></path><path d="M653.88,323.14c22.57,1.16,39.93,20.4,38.78,42.97-1.16,22.57-20.4,39.93-42.97,38.78-22.57-1.16-39.93-20.4-38.78-42.97h0c1.16-22.58,20.4-39.93,42.97-38.78Z" style="fill: #1A9E54; transform-origin: 651.785px 364.015px;" id="eloo18vcz1b5" class="animable"></path><g id="elb2yi8m3nvow"><path d="M664.57,325.17c.59,12.31-3.36,25.6-12.01,37.02-9.58,12.64-22.93,20.34-36.24,22.28-11.26-19.61-4.49-44.64,15.11-55.9,10.07-5.78,22.11-7.02,33.14-3.4Z" style="fill: rgb(255, 255, 255); isolation: isolate; opacity: 0.2; transform-origin: 637.752px 353.8px;" class="animable" id="elo4g86lt2e3s"></path></g><g id="elf6tv86a9sq"><g style="opacity: 0.3; transform-origin: 651.78px 434.685px;" class="animable" id="elrkucdyt6kj"><path d="M641.55,431.16h20.46c1.37,0,2.48,1.11,2.48,2.48h0v4.57h-25.42v-4.57c0-1.37,1.11-2.48,2.47-2.48Z" style="fill: rgb(255, 255, 255); transform-origin: 651.78px 434.685px;" id="el01geydyn22qw" class="animable"></path></g></g><path d="M630.51,436.87h42.55c1.6,0,2.89,1.29,2.89,2.89h0v4.75h-48.33v-4.75c0-1.6,1.29-2.89,2.89-2.89Z" style="fill: rgb(38, 50, 56); transform-origin: 651.785px 440.69px;" id="el8pkftbxaoul" class="animable"></path><g id="elc2a3a4rml1"><g style="opacity: 0.4; transform-origin: 651.785px 440.69px;" class="animable" id="el49ybbrj946j"><path d="M630.51,436.87h42.55c1.6,0,2.89,1.29,2.89,2.89h0v4.75h-48.33v-4.75c0-1.6,1.29-2.89,2.89-2.89Z" style="fill: rgb(255, 255, 255); transform-origin: 651.785px 440.69px;" id="elttgl1za46mh" class="animable"></path></g></g></g></g><g id="freepik--Speech_Bubble_2--inject-364" class="animable" style="transform-origin: 611.02px 182.666px;"><g id="el6n8u8xvin0m" class="animable" style="transform-origin: 611.02px 182.666px;"><g id="elmy65wnjpgfm" class="animable" style="transform-origin: 611.02px 182.666px;"><path d="M631.05,169.61c8.15,11.07,5.79,26.65-5.27,34.8-8.54,6.3-19.76,6.3-28.19,.89l-7.2,2.01,.86-7.85c-.08-.11-.18-.21-.26-.32-8.15-11.07-5.79-26.65,5.27-34.8,11.07-8.15,26.65-5.79,34.8,5.27Z" style="fill: #1A9E54; transform-origin: 611.02px 184.371px;" id="elk2p7skvo97" class="animable"></path><g id="elkji13kp1gfg"><path d="M631.05,169.61c8.15,11.07,5.79,26.65-5.27,34.8-8.54,6.3-19.76,6.3-28.19,.89l-7.2,2.01,.86-7.85c-.08-.11-.18-.21-.26-.32-8.15-11.07-5.79-26.65,5.27-34.8,11.07-8.15,26.65-5.79,34.8,5.27Z" style="fill: rgb(255, 255, 255); opacity: 0.7; transform-origin: 611.02px 184.371px;" class="animable" id="elg2fgu6nowhs"></path></g><path d="M632.66,167.19c-.08,0-.16-.04-.21-.11-4.37-6.42-12.11-10.49-19.87-10.49-.21,0-.42,0-.64,0-.12,.01-.25-.11-.26-.24,0-.14,.1-.25,.24-.26,8.13-.24,16.36,3.96,20.94,10.7,.08,.11,.05,.27-.07,.35-.04,.03-.09,.04-.14,.04Zm-27.97-9.78c1.12-.43,2.34-.62,3.53-.57,.14,.01,.26-.1,.26-.24,0-.14-.1-.25-.24-.26-1.27-.06-2.55,.15-3.73,.61-.13,.05-.19,.19-.14,.32,.04,.1,.13,.16,.23,.16,.03,0,.06,0,.09-.02Z" style="fill: #1A9E54; transform-origin: 618.629px 161.635px;" id="el12rmoszhcje" class="animable"></path><g id="elqniyzz249r"><path d="M632.66,167.19c-.08,0-.16-.04-.21-.11-4.37-6.42-12.11-10.49-19.87-10.49-.21,0-.42,0-.64,0-.12,.01-.25-.11-.26-.24,0-.14,.1-.25,.24-.26,8.13-.24,16.36,3.96,20.94,10.7,.08,.11,.05,.27-.07,.35-.04,.03-.09,.04-.14,.04Zm-27.97-9.78c1.12-.43,2.34-.62,3.53-.57,.14,.01,.26-.1,.26-.24,0-.14-.1-.25-.24-.26-1.27-.06-2.55,.15-3.73,.61-.13,.05-.19,.19-.14,.32,.04,.1,.13,.16,.23,.16,.03,0,.06,0,.09-.02Z" style="fill: rgb(255, 255, 255); opacity: 0.7; transform-origin: 618.629px 161.635px;" class="animable" id="el88cm1um0stg"></path></g></g><path d="M605.39,183.6c0,1.85-1.5,3.34-3.34,3.34s-3.34-1.5-3.34-3.34,1.5-3.34,3.34-3.34,3.34,1.5,3.34,3.34Z" style="fill: #1A9E54; transform-origin: 602.05px 183.6px;" id="el3ff6xpcnkaw" class="animable"></path><circle cx="612.28" cy="183.6" r="3.34" style="fill: #1A9E54; transform-origin: 612.28px 183.6px;" id="elg7zfzsxun2l" class="animable"></circle><circle cx="622.51" cy="183.6" r="3.34" style="fill: #1A9E54; transform-origin: 622.51px 183.6px;" id="el30gmfuoevfu" class="animable"></circle></g></g><g id="freepik--Speech_Bubble_1--inject-364" class="animable" style="transform-origin: 236.508px 162.2px;"><g id="elpvetmuut25" class="animable" style="transform-origin: 236.508px 162.2px;"><g id="el7m8ssc1vo4r" class="animable" style="transform-origin: 236.508px 162.2px;"><path d="M254.47,148.71c-7.7-9.78-22.15-11.66-32.26-4.21-7.81,5.75-10.72,15.38-8.11,23.97l-3.65,5.68,7.19,1.24c.08,.1,.14,.21,.22,.3,7.7,9.78,22.14,11.66,32.26,4.21,10.11-7.45,12.06-21.41,4.36-31.19Z" style="fill: #1A9E54; transform-origin: 234.819px 162.2px;" id="elbtdhy6u4wk" class="animable"></path><g id="elxyls8cnm4oa"><path d="M254.47,148.71c-7.7-9.78-22.15-11.66-32.26-4.21-7.81,5.75-10.72,15.38-8.11,23.97l-3.65,5.68,7.19,1.24c.08,.1,.14,.21,.22,.3,7.7,9.78,22.14,11.66,32.26,4.21,10.11-7.45,12.06-21.41,4.36-31.19Z" style="fill: rgb(255, 255, 255); opacity: 0.7; transform-origin: 234.819px 162.2px;" class="animable" id="el6mqbn3629k"></path></g><path d="M261.28,168.69s-.05,0-.08-.01c-.13-.04-.2-.19-.16-.32,2.27-6.77,.71-14.7-3.97-20.2-.09-.1-.08-.26,.03-.35,.1-.09,.26-.08,.35,.03,4.79,5.63,6.39,13.75,4.06,20.68-.03,.1-.13,.17-.24,.17Zm-2.44,5.99c.71-.9,1.23-1.96,1.51-3.06,.03-.13-.05-.27-.18-.3-.14-.04-.27,.05-.3,.18-.26,1.03-.75,2.03-1.42,2.87-.09,.11-.07,.27,.04,.35,.05,.04,.1,.05,.15,.05,.07,0,.15-.03,.2-.1Z" style="fill: #1A9E54; transform-origin: 259.788px 161.26px;" id="ele4ze5948o5a" class="animable"></path><g id="elcgkw9hcaf4g"><path d="M261.28,168.69s-.05,0-.08-.01c-.13-.04-.2-.19-.16-.32,2.27-6.77,.71-14.7-3.97-20.2-.09-.1-.08-.26,.03-.35,.1-.09,.26-.08,.35,.03,4.79,5.63,6.39,13.75,4.06,20.68-.03,.1-.13,.17-.24,.17Zm-2.44,5.99c.71-.9,1.23-1.96,1.51-3.06,.03-.13-.05-.27-.18-.3-.14-.04-.27,.05-.3,.18-.26,1.03-.75,2.03-1.42,2.87-.09,.11-.07,.27,.04,.35,.05,.04,.1,.05,.15,.05,.07,0,.15-.03,.2-.1Z" style="fill: rgb(255, 255, 255); opacity: 0.7; transform-origin: 259.788px 161.26px;" class="animable" id="elgccnopp33d5"></path></g></g><path d="M241.65,161.7c0,1.65,1.38,2.99,3.09,2.99s3.09-1.34,3.09-2.99-1.38-2.99-3.09-2.99-3.09,1.34-3.09,2.99Z" style="fill: #1A9E54; transform-origin: 244.74px 161.7px;" id="elp5xe4qnw2v" class="animable"></path><path d="M232.19,161.7c0,1.65,1.38,2.99,3.09,2.99s3.09-1.34,3.09-2.99-1.38-2.99-3.09-2.99-3.09,1.34-3.09,2.99Z" style="fill: #1A9E54; transform-origin: 235.28px 161.7px;" id="el30clz7fq506" class="animable"></path><path d="M222.73,161.7c0,1.65,1.38,2.99,3.09,2.99s3.09-1.34,3.09-2.99-1.38-2.99-3.09-2.99-3.09,1.34-3.09,2.99Z" style="fill: #1A9E54; transform-origin: 225.82px 161.7px;" id="elqcoabs4we4" class="animable"></path></g></g><g id="freepik--Light_Bulb--inject-364" class="animable" style="transform-origin: 425.565px 87.8617px;"><g id="elpjkkdv1kdgf" class="animable" style="transform-origin: 425.565px 87.8617px;"><g id="ells3c8vcl04" class="animable" style="transform-origin: 425.565px 98.3157px;"><g id="elk8oc1v83j0o" class="animable" style="transform-origin: 425.565px 88.3289px;"><g id="elrpk048tptvt" class="animable" style="transform-origin: 425.565px 88.3289px;"><path d="M425.93,54.65c-17.31-.2-31.51,13.67-31.71,30.98-.11,9.39,4,18.34,11.2,24.38,1.32,1.09,3.35,2.41,3.3,5.15,0,.08,.14,6.85,.14,6.85h32.97s.14-7.03,.14-7.11c0-2.41,1.87-3.45,3.24-4.54,7.29-5.85,11.59-14.65,11.7-24,.2-17.31-13.67-31.51-30.98-31.71Z" style="fill: #1A9E54; transform-origin: 425.565px 88.3289px;" id="el9y5vchg3uxk" class="animable"></path><g id="el5xt52ap4xll"><path d="M425.93,54.65c-17.31-.2-31.51,13.67-31.71,30.98-.11,9.39,4,18.34,11.2,24.38,1.32,1.09,3.35,2.41,3.3,5.15,0,.08,.14,6.85,.14,6.85h32.97s.14-7.03,.14-7.11c0-2.41,1.87-3.45,3.24-4.54,7.29-5.85,11.59-14.65,11.7-24,.2-17.31-13.67-31.51-30.98-31.71Z" style="fill: rgb(255, 255, 255); opacity: 0.4; transform-origin: 425.565px 88.3289px;" class="animable" id="elk2sb31cmy5"></path></g><g id="elkvgwn04qc2"><path d="M441.51,68.15c0,6.1-7.14,11.06-16,11.06s-16-4.96-16-11.06,7.14-11.07,16-11.07,16,4.96,16,11.07Z" style="fill: rgb(255, 255, 255); isolation: isolate; opacity: 0.2; transform-origin: 425.51px 68.145px;" class="animable" id="el3xksx9r9cf9"></path></g></g><path d="M401.46,98.03c-2.77-4.75-3.86-10.37-3.05-15.81,.8-5.44,3.46-10.51,7.49-14.26l.34,.37c-3.94,3.67-6.55,8.63-7.34,13.96-.79,5.33,.27,10.83,2.99,15.49l-.43,.25Z" style="fill: rgb(255, 255, 255); transform-origin: 402.194px 82.995px;" id="el3ynonjktz9h" class="animable"></path><path d="M434.67,115.31c-1.6-4.22-2.93-8.55-3.99-12.98-1.62,1.42-3.39,2.15-5.1,2.06-1.38-.07-2.77-.65-4.19-1.76-.21,4.29-.93,8.55-2.13,12.67l-.96-.28c1.26-4.29,1.97-8.74,2.13-13.21-.23-.22-.46-.44-.69-.69-3.51-3.65-5.15-8.18-4.39-12.1,.29-1.49,1.19-2.94,2.55-2.94,1.24,.03,2.16,1.25,2.58,3.44,.75,3.91,1.07,7.89,.96,11.86,1.46,1.29,2.84,1.95,4.19,2.02,2.03,.1,3.75-1.17,4.79-2.18-.77-3.37-1.37-6.79-1.81-10.25-.16-1.25-.28-2.47,0-3.66,.33-1.45,1.27-2.55,2.39-2.79,1.93-.42,3.5,1.65,4.04,3.9,1.07,4.48-.28,9.59-3.42,13.01-.03,.03-.05,.06-.08,.09,1.07,4.58,2.43,9.08,4.09,13.44l-.94,.35Zm-16.82-28.24c-.73,0-1.32,1.07-1.53,2.13-.7,3.61,.84,7.8,4.12,11.22h0c.04-3.58-.28-7.18-.96-10.72-.12-.61-.58-2.6-1.62-2.63h-.02Zm13.61-1.61c-.09,0-.18,0-.27,.03-.84,.18-1.42,1.15-1.62,2.03-.24,1.03-.12,2.15,.02,3.3,.41,3.19,.96,6.36,1.65,9.48,2.61-3.14,3.74-7.75,2.81-11.67-.39-1.63-1.44-3.18-2.59-3.18Z" style="fill: rgb(38, 50, 56); transform-origin: 425.399px 99.8877px;" id="elrmtk7v164nh" class="animable"></path></g><rect x="405.25" y="120.02" width="40.35" height="3.98" rx="1.6" ry="1.6" style="fill: rgb(38, 50, 56); transform-origin: 425.425px 122.01px;" id="elb5jh2922enf" class="animable"></rect><g id="el6rqsu28obbg"><rect x="405.25" y="120.02" width="40.35" height="3.98" rx="1.6" ry="1.6" style="fill: rgb(255, 255, 255); opacity: 0.3; transform-origin: 425.425px 122.01px;" class="animable" id="elgc6kc6zs34f"></rect></g><rect x="405.9" y="123.64" width="39.04" height="3.85" rx="1.6" ry="1.6" style="fill: rgb(38, 50, 56); transform-origin: 425.42px 125.565px;" id="elrg57cggz6ye" class="animable"></rect><g id="el0vjc38y0wisl"><rect x="405.9" y="123.64" width="39.04" height="3.85" rx="1.6" ry="1.6" style="fill: rgb(255, 255, 255); opacity: 0.3; transform-origin: 425.42px 125.565px;" class="animable" id="eljmv4f7hcgc"></rect></g><path d="M413.04,132.98c2.47,4.52,7.68,9.29,12.82,8.99,5.15-.3,9.98-4.68,11.9-9.46l-24.72,.47Z" style="fill: rgb(38, 50, 56); transform-origin: 425.4px 137.247px;" id="elbpfsy2xkc3c" class="animable"></path><rect x="408.28" y="130.58" width="34.27" height="3.85" rx="1.6" ry="1.6" style="fill: rgb(38, 50, 56); transform-origin: 425.415px 132.505px;" id="elcebu7zk3jxn" class="animable"></rect><g id="el5xyiz51mtrt"><rect x="408.28" y="130.58" width="34.27" height="3.85" rx="1.6" ry="1.6" style="fill: rgb(255, 255, 255); opacity: 0.3; transform-origin: 425.415px 132.505px;" class="animable" id="el1cc3n9vx3r6"></rect></g><rect x="406.43" y="127.05" width="37.99" height="3.85" rx="1.6" ry="1.6" style="fill: rgb(38, 50, 56); transform-origin: 425.425px 128.975px;" id="el2jyfag5tdep" class="animable"></rect><g id="el16tm165sopo"><rect x="406.43" y="127.05" width="37.99" height="3.85" rx="1.6" ry="1.6" style="fill: rgb(255, 255, 255); opacity: 0.3; transform-origin: 425.425px 128.975px;" class="animable" id="el06nh0xxgylp3"></rect></g></g><path d="M408.16,43.28c2.38,2.38,4.77,4.77,7.15,7.15,.34,.34,.87-.19,.53-.53-2.38-2.38-4.77-4.77-7.15-7.15-.34-.34-.87,.19-.53,.53h0Z" style="fill: rgb(38, 50, 56); transform-origin: 412px 46.59px;" id="elw1oqdecbbc" class="animable"></path><path d="M426.8,47.62v-13.52c0-.48-.75-.48-.75,0v13.52c0,.48,.75,.48,.75,0h0Z" style="fill: rgb(38, 50, 56); transform-origin: 426.425px 40.86px;" id="elxg31ndv349" class="animable"></path><path d="M436.71,51.01c2.58-2.58,5.15-5.15,7.73-7.73,.34-.34-.19-.87-.53-.53-2.58,2.58-5.15,5.15-7.73,7.73-.34,.34,.19,.87,.53,.53h0Z" style="fill: rgb(38, 50, 56); transform-origin: 440.31px 46.88px;" id="elr7trehzg4h" class="animable"></path></g></g><g id="freepik--Books--inject-364" class="animable" style="transform-origin: 361.64px 372.465px;"><g id="el5hnqjs15y6" class="animable" style="transform-origin: 374.925px 421.605px;"><rect x="157.43" y="398.32" width="434.99" height="46.57" style="fill: #1A9E54; transform-origin: 374.925px 421.605px;" id="elkopd41kjn69" class="animable"></rect><rect x="157.43" y="403.19" width="149.45" height="36.83" style="fill: rgb(255, 255, 255); transform-origin: 232.155px 421.605px;" id="elkw8usyxsy3k" class="animable"></rect><g id="el6tiewxncnz5" class="animable" style="transform-origin: 228.385px 421.005px;"><path d="M157.43,412.27c45.46-.49,96.45-.49,141.91,0-45.46,.49-96.45,.49-141.91,0h0Z" style="fill: rgb(38, 50, 56); transform-origin: 228.385px 412.27px;" id="elo0btmhgb7ja" class="animable"></path><path d="M157.43,416.64c45.46-.49,96.45-.49,141.91,0-45.46,.49-96.45,.49-141.91,0h0Z" style="fill: rgb(38, 50, 56); transform-origin: 228.385px 416.64px;" id="el29ei3i42zog" class="animable"></path><path d="M157.43,421c45.46-.49,96.45-.49,141.91,0-45.46,.49-96.45,.49-141.91,0h0Z" style="fill: rgb(38, 50, 56); transform-origin: 228.385px 421px;" id="el02qbc580mbhe" class="animable"></path><path d="M157.43,425.37c45.46-.49,96.45-.49,141.91,0-45.46,.49-96.45,.49-141.91,0h0Z" style="fill: rgb(38, 50, 56); transform-origin: 228.385px 425.37px;" id="elsu26xpbqsjo" class="animable"></path><path d="M157.43,429.74c45.46-.49,96.45-.49,141.91,0-45.46,.49-96.45,.49-141.91,0h0Z" style="fill: rgb(38, 50, 56); transform-origin: 228.385px 429.74px;" id="elmaoqdicx86l" class="animable"></path><path d="M157.43,434.11c45.46-.49,96.45-.49,141.91,0-45.46,.49-96.45,.49-141.91,0h0Z" style="fill: rgb(38, 50, 56); transform-origin: 228.385px 434.11px;" id="elz5e9lk4ydt" class="animable"></path><path d="M157.43,407.9c45.46-.49,96.45-.49,141.91,0-45.46,.49-96.45,.49-141.91,0h0Z" style="fill: rgb(38, 50, 56); transform-origin: 228.385px 407.9px;" id="el1020kuw3bg19" class="animable"></path></g><g id="ele4vdyb9231u"><rect x="345.07" y="398.32" width="13.34" height="46.57" style="fill: rgb(255, 255, 255); opacity: 0.3; transform-origin: 351.74px 421.605px;" class="animable" id="elu8ll7mp62do"></rect></g><g id="eljjmhov2gpad"><rect x="548.54" y="398.32" width="13.34" height="46.57" style="fill: rgb(255, 255, 255); opacity: 0.3; transform-origin: 555.21px 421.605px;" class="animable" id="elnzqgudj2rt"></rect></g><g id="el5z9ttondlag"><rect x="157.43" y="398.32" width="157.92" height="46.57" style="opacity: 0.2; transform-origin: 236.39px 421.605px;" class="animable" id="el7btqp6q2ea4"></rect></g></g><g id="eljjth84v7ija" class="animable" style="transform-origin: 349.47px 316.625px;"><rect x="223.09" y="300.04" width="252.76" height="33.17" style="fill: #1A9E54; transform-origin: 349.47px 316.625px;" id="elu3g97e0aga" class="animable"></rect><rect x="223.09" y="303.51" width="106.47" height="26.24" style="fill: rgb(255, 255, 255); transform-origin: 276.325px 316.63px;" id="ellp1un2ek9hq" class="animable"></rect><g id="elkdlihqp17a" class="animable" style="transform-origin: 273.64px 316.195px;"><path d="M223.09,309.97c32.38-.49,68.72-.49,101.1,0-32.38,.49-68.72,.49-101.1,0h0Z" style="fill: rgb(38, 50, 56); transform-origin: 273.64px 309.97px;" id="eln3lnifpmq69" class="animable"></path><path d="M223.09,313.08c32.38-.49,68.72-.49,101.1,0-32.38,.49-68.72,.49-101.1,0h0Z" style="fill: rgb(38, 50, 56); transform-origin: 273.64px 313.08px;" id="el4b3ijkcsx1c" class="animable"></path><path d="M223.09,316.2c32.38-.49,68.72-.49,101.1,0-32.38,.49-68.72,.49-101.1,0h0Z" style="fill: rgb(38, 50, 56); transform-origin: 273.64px 316.2px;" id="el5u9ko0a6unn" class="animable"></path><path d="M223.09,319.31c32.38-.49,68.72-.49,101.1,0-32.38,.49-68.72,.49-101.1,0h0Z" style="fill: rgb(38, 50, 56); transform-origin: 273.64px 319.31px;" id="elenz78g4g5hk" class="animable"></path><path d="M223.09,322.42c32.38-.49,68.72-.49,101.1,0-32.38,.49-68.72,.49-101.1,0h0Z" style="fill: rgb(38, 50, 56); transform-origin: 273.64px 322.42px;" id="elqk8zrwrm55d" class="animable"></path><path d="M223.09,325.53c32.38-.49,68.72-.49,101.1,0-32.38,.49-68.72,.49-101.1,0h0Z" style="fill: rgb(38, 50, 56); transform-origin: 273.64px 325.53px;" id="elg8g6myeuo0d" class="animable"></path><path d="M223.09,306.86c32.38-.49,68.72-.49,101.1,0-32.38,.49-68.72,.49-101.1,0h0Z" style="fill: rgb(38, 50, 56); transform-origin: 273.64px 306.86px;" id="el0dc7gi4snly" class="animable"></path></g><g id="elxzln9tvgjfa"><rect x="456.07" y="300.04" width="9.51" height="33.17" style="opacity: 0.3; transform-origin: 460.825px 316.625px;" class="animable" id="elvzf8rlnx6g8"></rect></g><g id="elfine47stfs6"><rect x="354.98" y="300.04" width="9.51" height="33.17" style="opacity: 0.3; transform-origin: 359.735px 316.625px;" class="animable" id="elme4ie4zp52"></rect></g><g id="ellr4rj45gj3"><rect x="223.09" y="300.04" width="112.51" height="33.17" style="opacity: 0.2; transform-origin: 279.345px 316.625px;" class="animable" id="elcao2p11zuzi"></rect></g><g id="el7ycpqai73bd"><rect x="372.94" y="311.75" width="73.53" height="9.71" style="opacity: 0.3; transform-origin: 409.705px 316.605px;" class="animable" id="elyvl4kbtriv"></rect></g></g><g id="ell97yl4lo91f" class="animable" style="transform-origin: 308.26px 388.565px;"><rect x="130.88" y="378.81" width="354.78" height="19.52" style="fill: rgb(38, 50, 56); transform-origin: 308.27px 388.57px;" id="el8j7jrsleab" class="animable"></rect><rect x="130.88" y="381.33" width="149.07" height="14.48" style="fill: rgb(255, 255, 255); transform-origin: 205.415px 388.57px;" id="elt3aaxdlio8" class="animable"></rect><g id="elrbvk74rwzee" class="animable" style="transform-origin: 202.855px 388.565px;"><path d="M131.9,384.2c45.46-.49,96.45-.49,141.91,0-45.46,.49-96.45,.49-141.91,0h0Z" style="fill: rgb(38, 50, 56); transform-origin: 202.855px 384.2px;" id="elgmn258whcq" class="animable"></path><path d="M131.9,388.57c45.46-.49,96.45-.49,141.91,0-45.46,.49-96.45,.49-141.91,0h0Z" style="fill: rgb(38, 50, 56); transform-origin: 202.855px 388.57px;" id="el7jwijsvdx0n" class="animable"></path><path d="M131.9,392.93c45.46-.49,96.45-.49,141.91,0-45.46,.49-96.45,.49-141.91,0h0Z" style="fill: rgb(38, 50, 56); transform-origin: 202.855px 392.93px;" id="elggdij8sshh5" class="animable"></path></g><g id="eltbtrn7od6gg"><rect x="318.56" y="378.81" width="3.75" height="19.52" style="fill: rgb(255, 255, 255); opacity: 0.3; transform-origin: 320.435px 388.57px;" class="animable" id="el7vatfe1ps77"></rect></g><g id="elkz173anrzm"><rect x="325.54" y="378.81" width="3.75" height="19.52" style="fill: rgb(255, 255, 255); opacity: 0.3; transform-origin: 327.415px 388.57px;" class="animable" id="ell88f66vus7f"></rect></g><g id="elgs0xk7vin5k"><rect x="458.03" y="378.81" width="3.75" height="19.52" style="fill: rgb(255, 255, 255); opacity: 0.3; transform-origin: 459.905px 388.57px;" class="animable" id="elwbkeo7lc89"></rect></g><g id="el8eym0mj6qsv"><rect x="465.01" y="378.81" width="3.75" height="19.52" style="fill: rgb(255, 255, 255); opacity: 0.3; transform-origin: 466.885px 388.57px;" class="animable" id="el8qijlg7ug7s"></rect></g><g id="elc4j3pk9w4ud"><rect x="130.86" y="378.8" width="152.71" height="19.52" style="opacity: 0.2; transform-origin: 207.215px 388.56px;" class="animable" id="elekqmrvcajdm"></rect></g></g><g id="el2ch6zbngbui" class="animable" style="transform-origin: 377.13px 342.795px;"><rect x="199.75" y="333.04" width="354.78" height="19.52" style="fill: rgb(38, 50, 56); transform-origin: 377.14px 342.8px;" id="el2p79js8ihen" class="animable"></rect><rect x="199.75" y="335.56" width="149.07" height="14.48" style="fill: rgb(255, 255, 255); transform-origin: 274.285px 342.8px;" id="elcdh7173i3wt" class="animable"></rect><g id="elk57hez3yyve" class="animable" style="transform-origin: 271.725px 342.8px;"><path d="M200.77,338.43c45.46-.49,96.45-.49,141.91,0-45.46,.49-96.45,.49-141.91,0h0Z" style="fill: rgb(38, 50, 56); transform-origin: 271.725px 338.43px;" id="elmzpll2t48qb" class="animable"></path><path d="M200.77,342.8c45.46-.49,96.45-.49,141.91,0-45.46,.49-96.45,.49-141.91,0h0Z" style="fill: rgb(38, 50, 56); transform-origin: 271.725px 342.8px;" id="elkm59rk0tss8" class="animable"></path><path d="M200.77,347.17c45.46-.49,96.45-.49,141.91,0-45.46,.49-96.45,.49-141.91,0h0Z" style="fill: rgb(38, 50, 56); transform-origin: 271.725px 347.17px;" id="elhrhnf8q6jj6" class="animable"></path></g><g id="el3pqeoajt3xk"><rect x="387.43" y="333.04" width="3.75" height="19.52" style="fill: rgb(255, 255, 255); opacity: 0.3; transform-origin: 389.305px 342.8px;" class="animable" id="eluf2fe4r68d9"></rect></g><g id="eltov2bw2yel"><rect x="394.41" y="333.04" width="3.75" height="19.52" style="fill: rgb(255, 255, 255); opacity: 0.3; transform-origin: 396.285px 342.8px;" class="animable" id="el8b6qu1k5o6r"></rect></g><g id="elyiy33j8ya5"><rect x="526.91" y="333.04" width="3.75" height="19.52" style="fill: rgb(255, 255, 255); opacity: 0.3; transform-origin: 528.785px 342.8px;" class="animable" id="elxrcpqbssjts"></rect></g><g id="elds62imild7h"><rect x="533.89" y="333.04" width="3.75" height="19.52" style="fill: rgb(255, 255, 255); opacity: 0.3; transform-origin: 535.765px 342.8px;" class="animable" id="el8k0df5sfk3n"></rect></g><g id="elh2yaa2yujc"><rect x="199.73" y="333.03" width="152.71" height="19.52" style="opacity: 0.2; transform-origin: 276.085px 342.79px;" class="animable" id="el7jsnvxpzh3t"></rect></g></g><g id="el1u1vrneiig7" class="animable" style="transform-origin: 322.935px 365.68px;"><g id="eliajwtggc52s" class="animable" style="transform-origin: 322.935px 365.68px;"><g id="el2fn8fqwsvsd"><rect x="145.54" y="352.37" width="354.78" height="26.63" style="fill: #1A9E54; transform-origin: 322.93px 365.685px; transform: rotate(180deg);" class="animable" id="el51nnd6puxs4"></rect></g><g id="elzw64hij3qe"><rect x="145.54" y="352.37" width="354.78" height="26.63" style="fill: rgb(255, 255, 255); opacity: 0.4; transform-origin: 322.93px 365.685px; transform: rotate(180deg);" class="animable" id="elvph3ip6lgao"></rect></g><g id="el8lrvkk5r4hp"><rect x="351.25" y="355.43" width="149.07" height="21.05" style="fill: rgb(255, 255, 255); transform-origin: 425.785px 365.955px; transform: rotate(180deg);" class="animable" id="el2feo8zp9m4i"></rect></g><g id="elh07q1cfgzp5" class="animable" style="transform-origin: 428.345px 369.24px;"><path d="M499.3,364.87c-45.46,.49-96.45,.49-141.91,0,45.46-.49,96.45-.49,141.91,0h0Z" style="fill: rgb(38, 50, 56); transform-origin: 428.345px 364.87px;" id="el996e7v0xr9" class="animable"></path><path d="M499.3,369.24c-45.46,.49-96.45,.49-141.91,0,45.46-.49,96.45-.49,141.91,0h0Z" style="fill: rgb(38, 50, 56); transform-origin: 428.345px 369.24px;" id="elj00zes9yzbr" class="animable"></path><path d="M499.3,373.61c-45.46,.49-96.45,.49-141.91,0,45.46-.49,96.45-.49,141.91,0h0Z" style="fill: rgb(38, 50, 56); transform-origin: 428.345px 373.61px;" id="eltssbc7emvbp" class="animable"></path></g><path d="M499.3,360.34c-45.46,.49-96.45,.49-141.91,0,45.46-.49,96.45-.49,141.91,0h0Z" style="fill: rgb(38, 50, 56); transform-origin: 428.345px 360.34px;" id="elln6mprtbjsa" class="animable"></path><g id="elrmanp9ujko8"><rect x="347.62" y="352.36" width="152.71" height="26.63" style="opacity: 0.2; transform-origin: 423.975px 365.675px; transform: rotate(180deg);" class="animable" id="el6vbvxog8cg"></rect></g></g><g id="elw6hkcby8ch"><rect x="177.25" y="360.34" width="139.97" height="8.9" style="fill: rgb(255, 255, 255); opacity: 0.4; transform-origin: 247.235px 364.79px;" class="animable" id="ell26z0ibmtee"></rect></g></g></g><g id="freepik--Character_3--inject-364" class="animable" style="transform-origin: 522.102px 314.145px;"><g id="elmaueynnrwn" class="animable" style="transform-origin: 522.102px 314.145px;"><g id="el0xkbrcvhc0v" class="animable" style="transform-origin: 512.425px 387.198px;"><path d="M557.83,353.24s-104.12-21.18-108.4,.51c-6.11,30.95,69.1,49.43,108.8,47,39.7-2.44-.4-47.5-.4-47.5Z" style="fill: rgb(38, 50, 56); isolation: isolate; transform-origin: 512.425px 372.47px;" id="elc7bvqqrrt3k" class="animable"></path><g id="elohl38k1rc8"><path d="M557.83,353.24s-104.12-21.18-108.4,.51c-6.11,30.95,69.1,49.43,108.8,47,39.7-2.44-.4-47.5-.4-47.5Z" style="isolation: isolate; opacity: 0.2; transform-origin: 512.425px 372.47px;" class="animable" id="el1x1zo6t98im"></path></g><g id="el3vxuby5sv9i"><path d="M483.55,359.39l49.47,29.43-6.21,9.4s3.56,4.96,9.6-10.77l-30.63-18.97s9.38-1.22,9.1-2.68c-.47-2.4-21.26-6.39-30.75-8.18-.49-.16-1.02,.11-1.18,.6-.16,.49,.11,1.02,.6,1.18Z" style="isolation: isolate; opacity: 0.2; transform-origin: 509.657px 378.268px;" class="animable" id="elyijhjjx4bw7"></path></g><g id="el39kcdiihro3"><path d="M534.68,385.29l-8.02,13.9c10.44,1.51,21.02,2.03,31.57,1.55,3.47-.12,6.89-.85,10.09-2.14l2.8-5.5-6.75-12.63-29.69,4.82Z" style="isolation: isolate; opacity: 0.2; transform-origin: 548.89px 390.691px;" class="animable" id="elk5zshzv4qy"></path></g><g id="el25diayq7x0u" class="animable" style="transform-origin: 531.82px 405.38px;"><polygon points="518.44 380.34 540.45 393.4 536.89 404 511.19 393.35 518.44 380.34" style="fill: rgb(235, 179, 115); transform-origin: 525.82px 392.17px;" id="ele7ulhenj8rs" class="animable"></polygon><g id="elchl40gktko" class="animable" style="transform-origin: 541.484px 410.527px;"><path d="M552.44,396.56l-1.9,7.6s-1.58,.38-2.03,1.98c-.25,.9,.48,3.34,.48,3.34l-5.06,20.94s-1.44-.34-2-.73c-.69-.47-1.25-.95-1.7-1.44-1.59-1.73-1.83-4.29-1.94-6.19-.19-3.19-2.3-12.44-2.3-12.44,0,0-.77-2.41-3.4-4.47-1.46-1.15-2.17-2.64-2.06-3.57,.21-1.91,1.56-2.66,3.34-2.5l2.07,.19c1.44-1.14,1.84-3.01,.85-4.78,0,0-1.35-4.49,.57-3.78,1.1,.4,5.93,2.39,9.79,3.84,.9,.34,1.75,.66,2.5,.94h0c1.66,.63,2.8,1.06,2.8,1.06Z" style="fill: rgb(38, 50, 56); transform-origin: 541.484px 410.527px;" id="el8l8dtcc19xx" class="animable"></path><path d="M536.92,414.57c-.06-.11-.04-.26,.06-.35,.43-.42,.98-.73,1.59-.88,.33-.08,.49,.44,.16,.52-.55,.13-1.03,.4-1.41,.77-.13,.12-.32,.1-.41-.05h0Z" style="fill: #1A9E54; transform-origin: 537.899px 414.02px;" id="el4pjrvzp0cfy" class="animable"></path><path d="M536.44,412.74c-.06-.11-.03-.26,.06-.35,.43-.42,.98-.73,1.59-.88,.33-.08,.49,.44,.16,.52-.55,.13-1.03,.4-1.41,.77-.13,.12-.32,.1-.41-.05h0Z" style="fill: #1A9E54; transform-origin: 537.42px 412.19px;" id="elvwmvzq6mnen" class="animable"></path><path d="M536.03,410.88c-.06-.11-.04-.26,.06-.35,.43-.42,.98-.73,1.59-.88,.33-.08,.49,.44,.16,.52-.55,.13-1.03,.4-1.41,.77-.13,.12-.32,.1-.41-.05h0Z" style="fill: #1A9E54; transform-origin: 537.009px 410.33px;" id="elq0x50oqwb5g" class="animable"></path></g><g id="elopz3w55b70b"><path d="M549.64,395.5h0c1.66,.63,2.8,1.06,2.8,1.06l-1.9,7.6s-1.58,.38-2.03,1.98c-.25,.9,.48,3.34,.48,3.34l-5.06,20.94s-1.44-.34-2-.73c-.32-.21-.6-.43-.86-.65l8.17-33.7c.14,.05,.29,.11,.42,.16Z" style="fill: rgb(255, 255, 255); isolation: isolate; opacity: 0.2; transform-origin: 546.755px 412.88px;" class="animable" id="elbbrh9t5kru"></path></g><path d="M533.1,412.46c-.53,0-1.04-.14-1.44-.41-.32-.21-.64-.6-.56-1.03,.08-.42,.47-.66,.8-.79,.65-.26,1.42-.33,2.28-.2,.75,.11,1.48,.36,2.19,.59l.22,.08-.18,.14c-.42,.32-1.85,1.38-2.61,1.54-.23,.05-.46,.08-.69,.08Zm.25-2.25c-.5,0-.96,.08-1.37,.24-.21,.08-.58,.28-.64,.6-.06,.31,.2,.61,.45,.78,.52,.35,1.23,.46,1.94,.3,.63-.14,1.82-.98,2.32-1.36-.63-.21-1.27-.41-1.92-.51-.27-.04-.53-.06-.79-.06Z" style="fill: #1A9E54; transform-origin: 533.839px 411.213px;" id="elgi05r172ep" class="animable"></path><path d="M536.46,410.9l-.19-.14,.08-.1-.08,.1c-.6-.45-1.21-.91-1.73-1.46-.6-.63-.98-1.3-1.14-1.99-.08-.34-.11-.8,.2-1.1,.31-.31,.81-.27,1.17-.13,.64,.25,1.19,.82,1.49,1.56,.3,.73,.24,2.5,.22,3.03v.24Zm-2.25-4.68c-.17,0-.33,.04-.45,.16-.23,.23-.18,.64-.13,.87,.15,.64,.51,1.27,1.07,1.87,.45,.48,.99,.89,1.51,1.29,.03-1.01,0-2.19-.21-2.68-.28-.67-.77-1.19-1.35-1.42-.14-.05-.3-.09-.45-.09Z" style="fill: #1A9E54; transform-origin: 534.922px 408.442px;" id="el0wwbgkbnpkmb" class="animable"></path></g></g><path d="M513.17,288.71s-2.79,33.73-3.74,35.56c-3.23,6.2-25.53,17.32-25.53,17.32l-11.6-2.07-8.06,7.14,5.57,4.11,6.32-2.6c3.51,.52,7.05,.72,10.59,.61,5.95-.18,35.63-7.6,40.18-15.74s4.49-45.99,4.49-45.99l-18.23,1.66Z" style="fill: rgb(235, 179, 115); transform-origin: 497.815px 318.91px;" id="elzeai6b3w18" class="animable"></path><g id="elp3n3jgzxce" class="animable" style="transform-origin: 554.48px 308.641px;"><path d="M532.31,301.37s7.99-29.79-3.29-37.66c-11.28-7.87-18.86,32.98-18.86,32.98l22.15,4.68Z" style="fill: #1A9E54; transform-origin: 522.608px 282.037px;" id="elihlb9tyviv" class="animable"></path><g id="elphpac261c9m"><path d="M532.31,301.37s7.99-29.79-3.29-37.66c-11.28-7.87-18.86,32.98-18.86,32.98l22.15,4.68Z" style="fill: rgb(255, 255, 255); opacity: 0.5; transform-origin: 522.608px 282.037px;" class="animable" id="elh3j6o6wzd5u"></path></g><path d="M526.91,355.58l-1.07-39.14-.74-53.61,22.97-5.7,16.09-.15,27.21,8.47,.92,13.13s-.84,60.45-.64,62.27c.25,2.23,7.15,16.04,7.15,16.04-28.73,7.44-72.3,.69-71.91-1.32Z" style="fill: #1A9E54; transform-origin: 561.95px 308.641px;" id="elmulpqksvuyp" class="animable"></path><g id="elhqfnat25wv"><polygon points="525.68 299.97 525.29 276.63 521.19 299.02 525.68 299.97" style="opacity: 0.2; transform-origin: 523.435px 288.3px;" class="animable" id="el8fjtiu4dlu6"></polygon></g><g id="eln91qfjl50u9"><path d="M574.74,302.21c-.72-.12-3.64-.98-3.64-.98l6.64-22.75-10.28,24.99,6.69,2.44,.58-3.7Z" style="opacity: 0.2; transform-origin: 572.6px 292.195px;" class="animable" id="eltsx3fhpsr3h"></path></g></g><g id="elvwb5k8hngbp" class="animable" style="transform-origin: 555.254px 310.164px;"><path d="M577.29,283.62s-4.51,37.49-7.65,41.07c-5.3,6.06-31.96,22.5-31.96,22.5l-13.68-4.35c-.96-.28-2-.08-2.76,.53l-9.05,7.34,.91,.72c.39,.31,.95,.36,1.39,.12l1.42-.76-1.56,1.62,.52,.41c.52,.41,1.23,.55,1.87,.35l4.11-1.23-3.74,2.65c.87,.69,2.07,.91,3.15,.57l6-1.9c4.16,.82,8.38,1.3,12.62,1.43,7.14,.23,40.46-12.53,46.48-21.32,6.02-8.8,11.44-44.75,11.44-44.75l-19.51-5.01Z" style="fill: rgb(235, 179, 115); transform-origin: 554.495px 319.464px;" id="el3xicir4igfn" class="animable"></path><g id="elyk0etef6ph" class="animable" style="transform-origin: 584.709px 286.465px;"><path d="M595.94,307.92s7.39-34.07-3.89-41.95c-11.28-7.87-20.95,35.25-20.95,35.25l24.84,6.7Z" style="fill: #1A9E54; transform-origin: 584.709px 286.465px;" id="el6bnd42nr33d" class="animable"></path><g id="elwe5sgjsdmxa"><path d="M595.94,307.92s7.39-34.07-3.89-41.95c-11.28-7.87-20.95,35.25-20.95,35.25l24.84,6.7Z" style="fill: rgb(255, 255, 255); opacity: 0.5; transform-origin: 584.709px 286.465px;" class="animable" id="elid2w03x0wxi"></path></g></g></g><g id="eldg8ycu3puhi" class="animable" style="transform-origin: 501.505px 335.505px;"><path d="M506.86,353.59l20.82-.61,22.09-.65h0c.04,1.65-1.75,3.03-4,3.09l-22.07,.65-12.63,.37h-.06l-35.14,1.04c-2.23,.05-4.06-1.22-4.1-2.85l35.09-1.03Z" style="fill: rgb(38, 50, 56); transform-origin: 510.77px 354.906px;" id="elmp3ztabumnm" class="animable"></path><path d="M475.23,357.32l39.2-1.16c.68-.02,1.21-.48,1.19-1.03,0-.1-.03-.2-.07-.3l-18.62-39.47c-.47-1.13-1.81-1.87-3.3-1.83l-39.23,1.16c-.66,.02-1.19,.47-1.17,1,0,.11,.03,.22,.08,.33l18.62,39.47c.48,1.12,1.81,1.86,3.3,1.83Z" style="fill: rgb(38, 50, 56); transform-origin: 484.425px 335.425px;" id="elsnv2y1c1v5" class="animable"></path><g id="elzby8re4iqgh"><path d="M454.4,314.69l39.23-1.16c1.49-.04,2.83,.7,3.3,1.83l17.92,37.98,12.84-.38,22.09-.65h0c.04,1.65-1.75,3.03-4,3.09l-22.07,.65-12.63,.37h-.06l-35.14,1.04c-.71,.02-1.36-.11-1.95-.33-.92-.28-1.67-.87-2-1.65l-18.62-39.47c-.05-.1-.08-.21-.08-.33-.02-.53,.51-.98,1.17-1Z" style="fill: rgb(255, 255, 255); isolation: isolate; opacity: 0.7; transform-origin: 501.505px 335.495px;" class="animable" id="eltse0n6rmhz9"></path></g><path d="M478.59,335.29c.9,1.89,2.66,3.16,3.93,2.85,1.27-.31,1.56-2.06,.68-3.96-.88-1.9-2.65-3.14-3.93-2.83-1.27,.31-1.61,2-.69,3.94Z" style="fill: rgb(255, 255, 255); transform-origin: 480.883px 334.745px;" id="elw4301nojb7e" class="animable"></path><g id="elr6f15jybble"><g style="opacity: 0.3; transform-origin: 504.595px 333.464px;" class="animable" id="el0t0ovuex9skr"><line x1="515.56" y1="353.33" x2="514.84" y2="353.35" style="fill: none; stroke: rgb(0, 0, 0); stroke-linecap: round; stroke-linejoin: round; stroke-width: 0px; transform-origin: 515.2px 353.34px;" id="el1s9mrvh1yt2" class="animable"></line><path d="M496.93,315.37l17.92,37.98-1.82,.05-19.4-39.87c1.49-.04,2.83,.7,3.3,1.83Z" id="elpvgug58dzkn" class="animable" style="transform-origin: 504.24px 333.464px;"></path></g></g></g><g id="el0m61jwdkml7j" class="animable" style="transform-origin: 557.8px 232.63px;"><g id="elgy6hoct4pw6" class="animable" style="transform-origin: 555.98px 235.337px;"><g id="eluqo9sc7lb8q" class="animable" style="transform-origin: 555.98px 235.337px;"><g id="el3k856ez5806" class="animable" style="transform-origin: 555.43px 249.895px;"><path d="M564.85,259.83s-4.16-8.24-1.47-21.88c-1.65-.77,.53-4.18,.46-5.55l-17.21,12.84c.8,4.22-.01,12.57-.62,16.12l6.64,6.03,12.19-7.56Z" style="fill: rgb(235, 179, 115); transform-origin: 555.43px 249.895px;" id="elyrkavys8zs" class="animable"></path><g id="eljyduk75eyji"><path d="M547.09,247.77l9.98-.8c-1.68,2.96-2.87,5.56-10.17,5.86,0,0-.06-3.65,.19-5.07Z" style="opacity: 0.2; transform-origin: 551.982px 249.9px;" class="animable" id="el4aig7n4h92n"></path></g></g><g id="el7ylqdzj2iof" class="animable" style="transform-origin: 555.98px 226.532px;"><path d="M540.21,207.14c-3.07,3.62-4.4,14.06,2.59,13.72,7-.33,2.68-19.94-2.59-13.72Z" style="fill: rgb(38, 50, 56); transform-origin: 542.082px 213.395px;" id="el6tor16wqp8l" class="animable"></path><path d="M569,226.56c-3.87,10.98-5.83,17.26-13.11,21.33-30.46,12.36-27.15-39.81-3.59-42.8,12.02-1.2,20.57,10.48,16.7,21.47Z" style="fill: rgb(235, 179, 115); transform-origin: 551.889px 227.393px;" id="el64dwkm4dsdn" class="animable"></path><path d="M578.02,212.63c-1.58-10.71-18.98-10.17-24.19-8.25-.78,.29,7.06,7.49,6.56,7.12l3.88,2.72c5.47,2.77-4.4,11.59,.31,21.15,10.41-1.35,14.24-14.93,13.44-22.74Z" style="fill: rgb(38, 50, 56); transform-origin: 565.949px 219.327px;" id="eludwy5ql75s" class="animable"></path><path d="M570.76,237.14c-3.01,5.61-13.93,7.09-11.09-1.57,2.23-8.52,15.46-8.47,11.09,1.57Z" style="fill: rgb(235, 179, 115); transform-origin: 565.421px 235.544px;" id="elhl9dysqjto8" class="animable"></path><path d="M552.33,225.27c-.75,2.71-3.5,1.87-2.7-.8,.75-2.71,3.5-1.87,2.7,.8Z" style="fill: rgb(38, 50, 56); transform-origin: 550.98px 224.87px;" id="eljkeup1woz4" class="animable"></path><path d="M540.73,222.25c-.75,2.71-3.5,1.87-2.7-.8,.75-2.71,3.5-1.87,2.7,.8Z" style="fill: rgb(38, 50, 56); transform-origin: 539.38px 221.85px;" id="elisxqdz9q6pi" class="animable"></path><path d="M544.63,222.66s-5.24,4.65-7.06,6.64c1.18,1.89,4.11,2.01,4.11,2.01l2.95-8.65Z" style="fill: rgb(228, 135, 62); transform-origin: 541.1px 226.985px;" id="elfsfpzyz975j" class="animable"></path><path d="M556.41,220.64c-.19,.02-.39-.06-.52-.23-1.47-2.01-3.52-1.94-3.54-1.94-2.22-1.47,2.4-1.79,4.44,1.29,.26,.33,.03,.84-.38,.88Z" style="fill: rgb(38, 50, 56); transform-origin: 554.33px 219.016px;" id="el2spn6z8pgw7" class="animable"></path></g><g id="eljef4a79wu9q"><path d="M563.03,235.46s-.05,0-.08-.01c-.13-.04-.2-.18-.16-.31,.53-1.66,2.49-3.28,4.12-3.4,.76-.05,1.76,.16,2.4,1.47,.06,.12,0,.27-.11,.33-.12,.06-.27,.01-.33-.11-.42-.85-1.06-1.25-1.92-1.19-1.42,.1-3.21,1.59-3.68,3.05-.03,.11-.13,.17-.24,.17Z" style="opacity: 0.2; transform-origin: 566.056px 233.597px;" class="animable" id="eltpm81of3dv"></path></g></g><path d="M537.22,216.02c-.38-.19-.39-.79,0-.99,2.69-1.47,4.94-.25,5.05-.21,.63,.33,.11,1.33-.52,.99-.3-.48-2.47-.43-4.52,.21Z" style="fill: rgb(38, 50, 56); transform-origin: 539.743px 215.164px;" id="elbj630qq2l4" class="animable"></path></g><path d="M573.53,229.77s-7.72-11.03-17.15-16.17c-10.44-5.69-18.08-4-18.08-4,0,0-1.79-1.75-.64-2.74,1.15-.99,2.22-.12,2.22-.12,0,0,11.2-11.93,24.56-8.12,13.37,3.81,17.82,12.07,17.28,12.67-2.75,3.05-4.33-1.68-4.33-1.68,0,0,3.25,4.33-.5,13.19l-1.11,3.47s.92,4.05-2.26,3.51Z" style="fill: rgb(38, 50, 56); transform-origin: 559.519px 213.849px;" id="el4iqoohmgk48" class="animable"></path><g id="eljidbguymwyg"><path d="M573.53,229.77s-7.72-11.03-17.15-16.17c-10.44-5.69-18.08-4-18.08-4,0,0-1.79-1.75-.64-2.74,1.15-.99,2.22-.12,2.22-.12,0,0,11.2-11.93,24.56-8.12,13.37,3.81,17.82,12.07,17.28,12.67-2.75,3.05-4.33-1.68-4.33-1.68,0,0,3.25,4.33-.5,13.19l-1.11,3.47s.92,4.05-2.26,3.51Z" style="fill: rgb(255, 255, 255); opacity: 0.7; transform-origin: 559.519px 213.849px;" class="animable" id="el1hsary6srcjh"></path></g><path d="M556.16,213.11c-1.43-.48-2.49-1.91-2.53-3.42-.03-.99,.33-1.94,.59-2.9,.25-.96,.39-2.02-.06-2.91-.39-.75-1.2-1.27-2.05-1.3-.85-.03-1.69,.43-2.13,1.15,.32-.6,.1-1.36-.34-1.87-.44-.51-1.07-.82-1.68-1.11-1.09-.53-2.32-1.08-3.49-.73-1.17,.35-1.9,1.5-2.31,2.65-.52,1.48-.66,3.14-.13,4.61,.71,1.98,2.54,3.38,4.51,4.1,1.97,.72,4.1,.84,6.2,.96" style="fill: rgb(38, 50, 56); transform-origin: 548.927px 206.51px;" id="eljeicgiu68rk" class="animable"></path><g id="elo3i96vn5z2"><path d="M577.82,210.38s-1.52-5.07-7.79-7.61l7.79,7.61Z" style="opacity: 0.2; transform-origin: 573.925px 206.575px;" class="animable" id="elxhuq9v9rw7p"></path></g><g id="elvzhjwvxieen"><path d="M575.05,226.05c-3.77-7.4-11.65-14.87-19.62-18.59l.11-.23c8.01,3.74,15.94,11.25,19.74,18.7l-.22,.11Z" style="opacity: 0.3; transform-origin: 565.355px 216.64px;" class="animable" id="elpvdow1nj7r"></path></g><g id="elea42j206g0m" class="animable" style="transform-origin: 547.104px 235.905px;"><path d="M542.57,235.48c.82,1.44,1.53,2.95,2.14,4.49,.28-.06,.58-.11,.86-.19,3.88-.87,5.4-2.55,5.88-4.16,.22-.79,.26-1.62,.1-2.43-.08-.46-.22-.9-.42-1.32-1.78,1.69-5.33,2.78-7.25,3.28-.84,.18-1.32,.32-1.32,.32Z" style="fill: rgb(38, 50, 56); transform-origin: 547.104px 235.92px;" id="el6wnttii5e0g" class="animable"></path><path d="M543.84,235.12l.67,1.31c3.64-.83,6.1-1.88,7-3.27-.08-.46-.22-.9-.42-1.32-1.79,1.71-5.33,2.78-7.25,3.28Z" style="fill: rgb(255, 255, 255); transform-origin: 547.675px 234.135px;" id="eliwbn0ggnx" class="animable"></path><path d="M545.52,239.75c3.88-.87,5.4-2.55,5.88-4.16-1.47,.36-2.86,.97-4.11,1.81-.82,.58-1.44,1.4-1.77,2.34Z" style="fill: rgb(193, 88, 84); transform-origin: 548.46px 237.67px;" id="elhck6hwmkit6" class="animable"></path></g></g><g id="elhh73ezmjgk" class="animable" style="transform-origin: 522.102px 377.896px;"><g id="elxrdw6s9x8vn" class="animable" style="transform-origin: 471.205px 392.703px;"><polygon points="497.34 398.25 472.21 403.06 467.85 392.76 494.15 383.7 497.34 398.25" style="fill: rgb(235, 179, 115); transform-origin: 482.595px 393.38px;" id="el96e7kzpn16j" class="animable"></polygon><g id="elmvt2ljlwpee" class="animable" style="transform-origin: 460.951px 392.703px;"><path d="M461.14,408.64l-3.62-6.95s.93-1.34,.21-2.83c-.41-.84-2.57-2.18-2.57-2.18l-10.09-19.04s1.3-.7,1.98-.78c.82-.11,1.56-.12,2.23-.05,2.33,.24,4.21,2,5.56,3.35,2.25,2.26,9.97,7.79,9.97,7.79,0,0,2.17,1.29,5.5,1.09,1.86-.11,3.37,.54,3.91,1.31,1.11,1.57,.6,3.03-.84,4.09l-1.68,1.23c-.32,1.81,.62,3.48,2.53,4.14,0,0,3.99,2.46,2.09,3.21-1.09,.42-6.02,2.14-9.88,3.61-.9,.34-1.75,.67-2.5,.95h0c-1.66,.63-2.79,1.06-2.79,1.06Z" style="fill: rgb(38, 50, 56); transform-origin: 460.951px 392.703px;" id="elrxp8agnopvh" class="animable"></path><path d="M460.82,384.87c.12,.05,.2,.17,.19,.3-.04,.6-.24,1.2-.61,1.72-.19,.27-.66,0-.47-.28,.32-.46,.5-.98,.54-1.51,.01-.18,.18-.29,.34-.23h0Z" style="fill: #1A9E54; transform-origin: 460.448px 385.928px;" id="elmh5wdhczg9j" class="animable"></path><path d="M462.39,385.92c.12,.05,.2,.17,.19,.3-.04,.6-.24,1.2-.61,1.72-.19,.27-.66,0-.47-.28,.32-.46,.5-.98,.54-1.51,.01-.18,.18-.29,.34-.23h0Z" style="fill: #1A9E54; transform-origin: 462.018px 386.978px;" id="el2va8mtpomu1" class="animable"></path><path d="M463.93,387.05c.12,.04,.2,.17,.19,.3-.04,.6-.24,1.2-.61,1.72-.19,.27-.66,0-.47-.28,.32-.46,.5-.98,.54-1.51,.01-.18,.18-.29,.34-.23h0Z" style="fill: #1A9E54; transform-origin: 463.558px 388.108px;" id="elxyz6k0m44v" class="animable"></path></g><g id="el49iadt6e68j"><path d="M457.73,398.86c-.41-.84-2.57-2.18-2.57-2.18l-10.09-19.04s1.3-.7,1.98-.78c.38-.05,.74-.07,1.08-.08l16.23,30.64c-.14,.05-.29,.11-.42,.16h0c-1.66,.63-2.8,1.06-2.8,1.06l-3.62-6.95s.93-1.34,.21-2.83Z" style="fill: rgb(255, 255, 255); isolation: isolate; opacity: 0.2; transform-origin: 454.715px 392.71px;" class="animable" id="elp9xan9haoej"></path></g><path d="M463.64,387.55l.04-.23c.1-.52,.47-2.25,.93-2.89,.47-.65,1.13-1.07,1.82-1.16,.38-.05,.88,.03,1.1,.4,.17,.28,.15,.68-.07,1.12-.32,.63-.85,1.19-1.58,1.66-.64,.42-1.35,.71-2.03,1l-.22,.09Zm3.01-4.04c-.06,0-.12,0-.18,.01-.62,.08-1.22,.47-1.65,1.06-.32,.44-.63,1.57-.84,2.56,.61-.26,1.22-.53,1.78-.89,.69-.45,1.19-.97,1.49-1.56,.1-.21,.25-.6,.08-.88-.13-.22-.41-.3-.67-.3Z" style="fill: #1A9E54; transform-origin: 465.637px 385.403px;" id="eln5fybr137dg" class="animable"></path><path d="M467.24,389.94c-.44,0-.89-.11-1.33-.32-.7-.34-1.84-1.71-2.17-2.12l-.15-.18,.23-.02v0c.75-.06,1.51-.13,2.27-.06,.87,.08,1.59,.33,2.17,.74,.4,.28,.61,.62,.58,.96-.03,.44-.43,.74-.79,.87-.26,.09-.54,.14-.82,.14Zm-3.15-2.42c.65,.78,1.45,1.63,1.93,1.87,.65,.32,1.37,.38,1.95,.17,.29-.11,.61-.33,.63-.65,.02-.33-.29-.6-.48-.74-.54-.38-1.22-.62-2.05-.69-.66-.06-1.33-.02-1.99,.04Z" style="fill: #1A9E54; transform-origin: 466.216px 388.58px;" id="elkk2p0qahrq" class="animable"></path></g><path d="M591.89,383.94c5.19-8.83,16.81-32.7-8.31-36.54-25.11-3.84-107.4,38.28-107.4,38.28l5.76,15.77,77.32-14.54s-10.21,14.5,2.66,13.48c18.7-2.41,23.07-7.03,29.97-16.45Z" style="fill: rgb(38, 50, 56); transform-origin: 537.657px 374.301px;" id="el04p9wytfvpw6" class="animable"></path><g id="elztcydmpb0p8"><path d="M557.43,387.39l21.11-7.33s-17.56,11.46-24.08,12.96l2.96-5.63Z" style="isolation: isolate; opacity: 0.2; transform-origin: 566.5px 386.54px;" class="animable" id="elm514yolm5bs"></path></g></g></g></g><g id="freepik--Character_2--inject-364" class="animable animator-active" style="transform-origin: 378.535px 222.641px;"><g id="el6ks9vn2bq19" class="animable" style="transform-origin: 378.535px 222.641px;"><g id="elhgv9635bgo" class="animable" style="transform-origin: 420.558px 166.169px;"><polygon points="403.49 176.02 411.05 167.27 418.75 169.99 413.5 180.23 403.49 176.02" style="fill: rgb(238, 193, 187); transform-origin: 411.12px 173.75px;" id="el535w10mysyh" class="animable"></polygon><g id="elxrgvm72p0j" class="animable" style="transform-origin: 423.715px 162.895px;"><path d="M409.91,166.54s-.66-3.96,1.31-6.64c1.96-2.68,2.82-5.34,4.41-7.23,1.6-1.89,1.63,1.45,1.29,3.23-.34,1.78-.71,3.8,.67,3.84,1.38,.04,11.83-5.57,13.74-5.29,1.91,.27,.5,1.71,.5,1.71,0,0,2.58-1.29,3.37-.41,.21,.23,.31,1.09-.77,1.87-2.43,1.74-7.73,5.13-7.73,5.13,.3-.2,7.13-3.92,8.23-4.34,1.43-.55,2.39-.08,2.68,.76,.42,1.2-7.9,6.09-8.1,6.54,0,0,4.69-2.98,6.12-2.19,1.43,.79-1.42,2.83-4.27,4.14-2.62,1.21-7.44,4.26-10.22,5.23-3.43,1.19-5.99,1.23-8.34-1.23-2.35-2.46-2.89-5.11-2.89-5.11Z" style="fill: rgb(238, 193, 187); transform-origin: 423.715px 162.895px;" id="el66zojo65msm" class="animable"></path><g id="el0x2awg4dha"><path d="M425.56,159.98s-.08-.02-.1-.06c-.04-.06-.02-.14,.04-.17,1.93-1.27,3.94-2.46,5.97-3.54,.06-.03,.14,0,.17,.05,.03,.06,0,.14-.05,.17-2.02,1.08-4.03,2.27-5.95,3.53-.02,.01-.04,.02-.07,.02Z" style="opacity: 0.3; transform-origin: 428.546px 158.089px;" class="animable" id="elpgbbbocf58c"></path></g><g id="eloehu86p5isf"><path d="M427.78,167.1c-.06,0-.11-.04-.12-.1-.66-2.87-2.2-5.57-4.33-7.6-.05-.05-.05-.13,0-.18,.05-.05,.13-.05,.18,0,2.17,2.06,3.74,4.81,4.41,7.73,.02,.07-.03,.13-.09,.15,0,0-.02,0-.03,0Z" style="opacity: 0.3; transform-origin: 425.609px 163.141px;" class="animable" id="el5t9u3nkdc6t"></path></g><g id="elgjk247d1uov"><path d="M415.13,167.72s-.08-.02-.11-.06c-.03-.06-.01-.14,.05-.17,1.02-.59,1.83-1.57,2.24-2.68,.41-1.11,.41-2.38,.02-3.49-.02-.07,.01-.14,.08-.16,.07-.02,.14,.01,.16,.08,.41,1.17,.41,2.5-.02,3.66-.42,1.16-1.28,2.19-2.35,2.81-.02,.01-.04,.02-.06,.02Z" style="opacity: 0.3; transform-origin: 416.441px 164.442px;" class="animable" id="elx1jjvqncne"></path></g></g></g><g id="el38my95ifrew" class="animable" style="transform-origin: 381.983px 287.762px;"><polygon points="436.45 318.21 440.36 306.5 412.07 290.72 405.93 308.48 436.45 318.21" style="fill: rgb(238, 193, 187); transform-origin: 423.145px 304.465px;" id="elzm17b4vl2lj" class="animable"></polygon><g id="elyp2b7qjoj4k" class="animable" style="transform-origin: 445.286px 307.741px;"><path d="M436.87,302.42l-2.08,3.86c-.47,.87-.46,1.92-.03,2.82,1.84,3.86-.2,4.92-4.37,5.8-1.01,1.44,.54,2.81,.94,3.19l8.95,8.53c.74,.72,1.93,.71,2.65-.04,.13-.13,.24-.28,.32-.45,2.52-4.69,3.71-6.91,6.85-12.75l9.6-17.85c2.62-4.87-1.75-8.51-3.28-6.75-6.84,7.94-12.92,12.9-17.04,14.28-.74,.27-.8-.45-2.52-.65Z" style="fill: rgb(38, 50, 56); transform-origin: 445.286px 307.741px;" id="elf6y4dbl7ul" class="animable"></path><path d="M444.36,295.64c-.07-.56-.41-1.06-.91-1.33-.25-.18-.58-.2-.85-.05-1.51,.75-1.85,6.79-1.87,7.48-.01,.07,.01,.14,.06,.2,.09,.1,.24,.11,.34,.02,.92-1.04,1.73-2.16,2.41-3.37,.58-.87,.87-1.9,.82-2.94Zm-1.56-.89c.11-.07,.26-.05,.36,.03,.35,.21,.59,.57,.66,.97,.23,1.54-1.55,4-2.58,5.28,.19-2.48,.73-5.86,1.56-6.28Z" style="fill: #1A9E54; transform-origin: 442.546px 298.091px;" id="el59gboghjhes" class="animable"></path><path d="M441.27,301.81c.17-1.78-.58-6.09-1.92-6.61-.28-.12-.7-.1-1.14,.51-1.73,2.49,2.42,6.17,2.62,6.28,.07,.07,.17,.09,.26,.06,.04-.04,.07-.09,.08-.15l.1-.09Zm-2.72-5.8c.31-.46,.49-.37,.55-.34,.84,.27,1.64,3.55,1.62,5.57-.93-.92-3.19-3.39-2.28-5.06l.11-.17Z" style="fill: #1A9E54; transform-origin: 439.541px 298.603px;" id="eluzpqdzeta7l" class="animable"></path><path d="M441.65,306c-.09,0-.17-.05-.22-.13-.79-1.39-.93-3.12-.37-4.63,.05-.13,.19-.2,.32-.15,.13,.05,.19,.19,.15,.32-.51,1.37-.38,2.94,.33,4.21,.07,.12,.03,.27-.09,.34-.04,.02-.08,.03-.12,.03Z" style="fill: #1A9E54; transform-origin: 441.308px 303.537px;" id="elxmcq846i6dn" class="animable"></path><path d="M444.74,304.57c-.09,0-.17-.05-.22-.13-.79-1.39-.93-3.12-.37-4.63,.05-.13,.19-.19,.32-.15,.13,.05,.19,.19,.15,.32-.51,1.37-.39,2.94,.33,4.21,.07,.12,.03,.27-.09,.34-.04,.02-.08,.03-.12,.03Z" style="fill: #1A9E54; transform-origin: 444.398px 302.109px;" id="elhp33ianqb6i" class="animable"></path><path d="M447.87,302.4c-.09,0-.17-.05-.22-.13-.79-1.39-.93-3.12-.37-4.63,.05-.13,.19-.2,.32-.15,.13,.05,.19,.19,.15,.32-.51,1.37-.38,2.94,.33,4.21,.07,.12,.03,.27-.09,.34-.04,.02-.08,.03-.12,.03Z" style="fill: #1A9E54; transform-origin: 447.528px 299.937px;" id="elmjdj90zsoe" class="animable"></path></g><g id="ellnmpgptl9go"><polygon points="427.02 299.06 430.49 301 425.11 314.59 421.05 313.3 427.02 299.06" style="opacity: 0.3; transform-origin: 425.77px 306.825px;" class="animable" id="elsbs1ujxfl"></polygon></g><path d="M348.4,239.68l14.11,8.63c18.12,.9,79.36,1.4,79.54,23.19,6.01,25.68-49.44,23.23-86.31,23.59-.25,0-.46,.15-.61,.39-.33,.51-3.9,2.34-8.47,3.07-5.63,.89-18.5,1.68-26.77,.37-14.27-2.26-18.38-15.81-15.65-34.87,1.12-7.83,5.45-14.19,6.76-23.95l37.4-.41Z" style="fill: rgb(38, 50, 56); transform-origin: 372.974px 269.647px;" id="el75sxg1hahx2" class="animable"></path><g id="elm8ips9z1o6"><path d="M309.73,268.66l.09,.89s46.64-7.72,75.05,10.95c0,0,30.79-7.55,37.05-13.3-34.1,17.94-64.64-2.83-64.64-2.83l-15.04-6.72c-12.29-5.49-24.67-1.3-32.5,11.01Z" style="isolation: isolate; opacity: 0.2; transform-origin: 365.825px 267.889px;" class="animable" id="elk39srgqzlb"></path></g><polygon points="362.53 298.87 367.92 309.97 399.18 301.48 391.16 284.48 362.53 298.87" style="fill: rgb(238, 193, 187); transform-origin: 380.855px 297.225px;" id="eldtdj6uh58m8" class="animable"></polygon><g id="elefc9utjne2d" class="animable" style="transform-origin: 365.39px 316.703px;"><path d="M374.82,309.73l-2.58-3.55c-.58-.8-1.53-1.25-2.52-1.25-4.28-.01-4.34-2.32-3.34-6.45-.86-1.53-2.76-.73-3.28-.53l-11.57,4.37c-.97,.36-1.47,1.43-1.12,2.41,.06,.17,.15,.34,.26,.48,3.13,4.31,4.62,6.34,8.52,11.7l11.93,16.39c3.25,4.47,8.43,2.12,7.5-.03-4.19-9.61-6.02-17.24-5.48-21.55,.08-.78,.75-.52,1.68-1.99Z" style="fill: rgb(38, 50, 56); transform-origin: 364.514px 316.703px;" id="elzoyqnxj5qmt" class="animable"></path><path d="M377.67,319.42c.54,.18,1.13,.09,1.6-.24,.27-.15,.43-.44,.41-.74-.02-1.68-5.32-4.61-5.92-4.93-.06-.04-.14-.05-.21-.03-.13,.04-.2,.17-.17,.3,.53,1.28,1.2,2.49,1.99,3.63,.53,.9,1.34,1.6,2.3,2.01Zm1.47-1.02c0,.13-.06,.25-.18,.31-.35,.22-.77,.29-1.16,.18-1.49-.46-2.93-3.13-3.64-4.61,2.15,1.25,4.97,3.2,4.99,4.13Z" style="fill: #1A9E54; transform-origin: 376.527px 316.491px;" id="el8mati6ab5qr" class="animable"></path><path d="M373.45,313.96c1.52,.93,5.74,2.12,6.79,1.13,.23-.2,.39-.58,.03-1.24-1.49-2.63-6.61-.5-6.8-.36-.09,.03-.16,.11-.17,.21,.02,.06,.05,.1,.1,.14l.04,.13Zm6.4,.07c.28,.48,.12,.6,.06,.64-.61,.64-3.9-.06-5.72-.95,1.24-.44,4.43-1.4,5.55,.14l.11,.17Z" style="fill: #1A9E54; transform-origin: 376.891px 314.003px;" id="elc9095flfhaq" class="animable"></path><path d="M373.87,314.44c-.07,0-.13-.03-.18-.08-1.01-1.05-2.48-1.62-3.93-1.52-.14,.02-.26-.1-.27-.23,0-.14,.09-.26,.23-.27,1.6-.12,3.22,.52,4.33,1.68,.1,.1,.09,.26,0,.35-.05,.05-.11,.07-.17,.07Z" style="fill: #1A9E54; transform-origin: 371.806px 313.383px;" id="elbkmnn523khd" class="animable"></path><path d="M373.82,317.85c-.07,0-.13-.03-.18-.08-1.01-1.05-2.48-1.62-3.93-1.52-.12,.02-.26-.09-.27-.23s.1-.26,.23-.27c1.6-.11,3.22,.52,4.33,1.68,.1,.1,.09,.26,0,.35-.05,.05-.11,.07-.17,.07Z" style="fill: #1A9E54; transform-origin: 371.755px 316.794px;" id="elttn4xr07rek" class="animable"></path><path d="M374.42,321.6c-.07,0-.13-.03-.18-.08-1.01-1.05-2.48-1.62-3.93-1.52-.12,.02-.26-.09-.27-.23,0-.14,.09-.26,.23-.27,1.6-.12,3.22,.52,4.33,1.68,.1,.1,.09,.26,0,.35-.05,.05-.11,.07-.17,.07Z" style="fill: #1A9E54; transform-origin: 372.356px 320.543px;" id="elvk35j4n2pvn" class="animable"></path></g><path d="M428.01,298.06s-71.79-40.19-96.45-40.95c-24.66-.76-27.45,17.84-18.38,32.17,9.07,14.32,31.83,7.38,31.83,7.38,0,0-18-4.56-15.77-9.44,2.23-4.88,8.88,2.69,8.88,2.69,0,0,43.62,17.91,82.54,24.26l7.36-16.11Z" style="fill: rgb(38, 50, 56); transform-origin: 368.227px 285.629px;" id="eltxr2ct93dae" class="animable"></path><g id="el6nfm7ip6mt8"><polygon points="391.02 278.16 414.13 291.5 416.57 291.24 394.69 277.46 391.02 278.16" style="isolation: isolate; opacity: 0.2; transform-origin: 403.795px 284.48px;" class="animable" id="elhj20h849439"></polygon></g><g id="ell8sqeu46wq9"><path d="M354.35,296.05s-23.29-9.24-23.03-9.24,14.68,10.81,19.4,10.76l3.63-1.52Z" style="isolation: isolate; opacity: 0.2; transform-origin: 342.834px 292.19px;" class="animable" id="ellz50x0vl1d"></path></g></g><path d="M359.29,170.25s2.81-.65,13.11,11.36c6.99,8.15,17.61,14.15,17.61,14.15,.91-1.96,16.96-25.51,16.96-25.51l10.21,5.8s-14.99,38.76-24.74,40.29c-9.75,1.52-32.47-18.07-32.47-18.07l-.69-28.01Z" style="fill: #1A9E54; transform-origin: 388.23px 193.334px;" id="el4pqctlwz7fk" class="animable"></path><path d="M303.25,184.5c4.44,13.34,4.65,43.48,3.08,60.13h54.93c8.66-33.22,1.16-56.84,.42-64.62-.92-9.47-2.38-9.83-2.38-9.83,0,0-10.27-1-19.21-.93-6.92,.26-13.82,1.01-20.63,2.24-5.07,.85-10.09,1.98-15.04,3.38-2.12,.6-3.35,2.81-2.75,4.94,.02,.07,.04,.13,.06,.2,.53,1.49,1.04,3.02,1.52,4.5Z" style="fill: #1A9E54; transform-origin: 333.459px 206.938px;" id="elmdi3npsr87g" class="animable"></path><g id="el0zwdtj6n69ik"><path d="M306.32,244.63c1.31-15.51,11.37-33.4,9.79-48.88,4.67,6.64,6.22,19.67,8.12,34.22,.62,4.74,17.82,9.53,18.63,14.43l-36.54,.23Z" style="isolation: isolate; opacity: 0.2; transform-origin: 324.59px 220.19px;" class="animable" id="eldv4najtywd5"></path></g><path d="M315.01,173.26c-2.56,3.66,28.93,9.55,28.93,9.55,0,0,18.43-11.96-3.09-13.82-4.39-.39-21.79-1.48-25.84,4.27Z" style="fill: rgb(205, 135, 123); transform-origin: 333.074px 175.728px;" id="elm7abjlvub0k" class="animable"></path><path d="M344.97,189.59s16.97-14,8.19-22.39c-8.78-8.38-50.12-12.13-46.62,6.96,0,0,5.32-1.57,10.69,3.55,11.32,10.83,27.75,11.88,27.75,11.88Z" style="fill: #1A9E54; transform-origin: 331.006px 174.967px;" id="el038x9ngc1za4" class="animable"></path><g id="el39beskm3z9o"><path d="M343.55,185.56s9.61-7.46,6.22-14.19c-3.38-6.72-23.37-14.09-37.7-4.82,3.43,1.76,6.63,3.96,9.49,6.54,5.68,4.86,21.98,12.46,21.98,12.46Z" style="isolation: isolate; opacity: 0.2; transform-origin: 331.282px 173.873px;" class="animable" id="elpc8y492or5i"></path></g><g id="eljdl17a9iq2e"><path d="M339.9,186.51c0,.53-.42,.97-.95,.97-.53,0-.97-.42-.97-.95,0-.53,.42-.97,.95-.97,0,0,.02,0,.03,0,.52,0,.94,.43,.95,.95Z" style="isolation: isolate; opacity: 0.2; transform-origin: 338.945px 186.52px;" class="animable" id="elfz6foorswhg"></path></g><g id="elsd8v1wfa9u"><path d="M349.48,183.75c0,.52-.41,.95-.93,.96h-.01c-.53,.06-1.01-.31-1.07-.84-.06-.53,.31-1.01,.84-1.07,.08,0,.15,0,.23,0,.52,0,.95,.42,.95,.95Z" style="isolation: isolate; opacity: 0.2; transform-origin: 348.477px 183.758px;" class="animable" id="eltyr929ds3jl"></path></g><path d="M358.4,193.36c0,.53-.42,.97-.95,.97-.53,0-.97-.42-.97-.95,0-.53,.42-.97,.95-.97h.01c.53,0,.95,.42,.96,.95Z" style="fill: rgb(38, 50, 56); transform-origin: 357.44px 193.37px;" id="elh69xea9kb3" class="animable"></path><path d="M337.73,198.26c0,.52-.42,.95-.95,.95-.52,0-.95-.42-.95-.95s.42-.95,.95-.95h0c.52,0,.95,.42,.95,.95Z" style="fill: rgb(38, 50, 56); transform-origin: 336.78px 198.26px;" id="elkd1aiyzo9wj" class="animable"></path><path d="M357.22,193.76h0s-3.72-.5-4.36-5.25c-.08-2.3-1.96-4.12-4.26-4.11-.19,0-.36-.14-.36-.33-.02-.18,.12-.35,.31-.36h.03c2.64,0,4.83,2.06,4.98,4.7,.56,4.18,3.72,4.65,3.74,4.66,.19,.02,.32,.19,.31,.38-.03,.19-.2,.32-.39,.31Z" style="fill: rgb(38, 50, 56); transform-origin: 352.924px 188.735px;" id="eldj26gigw3hf" class="animable"></path><path d="M336.78,198.26c-.19,0-.34-.15-.35-.33-.08-2.44,.82-4.82,2.49-6.6,.66-.58,1.04-1.4,1.07-2.27-.07-.87-.45-1.7-1.06-2.32-.16-.11-.19-.33-.08-.49,.11-.16,.33-.19,.49-.08,.03,.02,.05,.04,.07,.07,.75,.74,1.21,1.73,1.28,2.78-.02,1.06-.48,2.07-1.27,2.78-1.52,1.64-2.35,3.82-2.3,6.06,0,.19-.13,.35-.32,.38l-.03,.03Z" style="fill: rgb(38, 50, 56); transform-origin: 338.558px 192.187px;" id="el3m3bji5drm2" class="animable"></path><g id="elq8ju89iyhm" class="animable" style="transform-origin: 386.79px 257.083px;"><path d="M373.7,270.23l2.76,.5s-.77-2.48,9.02-5.73,19.53-5.01,19.53-5.01c0,0-17.69-.89-18.15-.89s-16.83,5.81-16.83,5.81l3.67,5.31Z" style="fill: #1A9E54; transform-origin: 387.52px 264.915px;" id="elr073rknmw0k" class="animable"></path><path d="M366.7,252.17c.49,0,38.32,7.82,38.32,7.82,0,0-26.3-.96-31.31,10.24l-30.62-12.57s8.58-5.71,23.61-5.48Z" style="fill: rgb(235, 235, 235); transform-origin: 374.055px 261.2px;" id="el6rekg6w2i4u" class="animable"></path><path d="M430.49,252.17v1.65s-16.99-1.97-25.48,6.18l-.46-3.91,11.26-5.17,14.68,1.25Z" style="fill: #1A9E54; transform-origin: 417.52px 255.46px;" id="el9rz7frq5s89" class="animable"></path><path d="M396.12,244.53s-20.52-5.43-28.07,7.9l36.96,7.57s1.71-10.16,25.48-7.83l-34.37-7.64Z" style="fill: rgb(235, 235, 235); transform-origin: 399.27px 251.718px;" id="elgxg2nmcq2zn" class="animable"></path></g><path d="M302.79,175.72c-.87,.31-6.5,5.02-6.23,16.06,.4,16.18,4.38,49.7,6.23,52.85s50.82,16.87,51.55,17.67c.73,.8,3.27-8.55,3.27-8.55l-37.71-23.92s-2.23-33.7-3.12-38.75c-.89-5.05-3.46-19.14-13.99-15.36Z" style="fill: #1A9E54; transform-origin: 327.08px 218.716px;" id="elijibgqzaes8" class="animable"></path><path d="M357.18,255.28l2.11,.95s9.98-.79,12.51,1.73c2.53,2.52,3.95,14.03,3.95,14.03l-21.41-9.69,2.84-7.02Z" style="fill: rgb(238, 193, 187); transform-origin: 365.045px 263.635px;" id="elf3ommqopix8" class="animable"></path><g id="el7wrkm3c3ttu" class="animable" style="transform-origin: 330.09px 147.499px;"><g id="eldr9661f1s8i" class="animable" style="transform-origin: 335.339px 152.485px;"><path d="M322.64,174.34s4.55,3.01,10.97,6.91c1.34,.81,8.16,3.82,9.65,4.31l2.76-2.37c.14-.42,.22-.87,.26-1.33,.28-3.1-.73-7.22-3.45-8.73-3.07-1.7-4.68-3.33-4.67-6.33-.02-1.7,.3-3.5,.72-5.28l-3.44-1.36-13.01-9.39c2.42,6.68,5.4,18.51,.21,23.56Z" style="fill: rgb(238, 193, 187); transform-origin: 334.378px 168.165px;" id="elfgr9rjuiiz7" class="animable"></path><g id="el7mzpic812pr"><path d="M338.17,167.46c-3.37-1.31-7.25-3.9-7.45-7.58-.07-1.55,.01-3.04,.23-4.02l7.59,7.2c-.29,1.41-.33,2.32-.37,4.39Z" style="opacity: 0.2; transform-origin: 334.618px 161.66px;" class="animable" id="el74of40bh5v"></path></g><path d="M318.16,138.46c2.95,11.27,3.96,16.09,10.87,21.11,10.39,7.55,23.55,2.24,24.01-9.5,.42-10.56-4.48-27.22-16.52-30.16-11.86-2.9-21.32,7.28-18.36,18.55Z" style="fill: rgb(238, 193, 187); transform-origin: 335.339px 141.244px;" id="ely5cbp3dlspk" class="animable"></path><path d="M334.21,139.65c.26,1.2,1.08,2.09,1.83,1.98,.76-.11,1.16-1.17,.9-2.37-.26-1.2-1.08-2.09-1.83-1.98-.76,.11-1.16,1.17-.9,2.37Z" style="fill: rgb(38, 50, 56); transform-origin: 335.575px 139.455px;" id="elg0p1ii9okg" class="animable"></path><path d="M345.82,137.65c.25,1.16,1.07,2.02,1.82,1.91,.75-.11,1.16-1.14,.91-2.31-.25-1.16-1.07-2.02-1.82-1.91-.75,.11-1.16,1.14-.91,2.31Z" style="fill: rgb(38, 50, 56); transform-origin: 347.185px 137.45px;" id="elhu6mhw3c3v" class="animable"></path><path d="M330.51,135.9c.15,0,.29-.07,.39-.2,1.49-1.93,3.57-1.68,3.6-1.68,.31,.04,.58-.18,.6-.49,.02-.31-.22-.59-.54-.64-.11-.01-2.72-.32-4.57,2.07-.18,.24-.13,.6,.12,.8,.12,.1,.27,.14,.41,.13Z" style="fill: rgb(38, 50, 56); transform-origin: 332.492px 134.386px;" id="eljtiggq9zrzp" class="animable"></path><path d="M347.73,131.43c.11-.06,.19-.16,.22-.29,.06-.28-.12-.58-.41-.69-2.86-1.04-4.61,.41-4.69,.47-.21,.18-.21,.51,0,.75,.21,.24,.54,.29,.75,.11,.07-.06,1.45-1.15,3.72-.33,.15,.05,.29,.04,.41-.02Z" style="fill: rgb(38, 50, 56); transform-origin: 345.327px 130.982px;" id="el7j9go2lj0x4" class="animable"></path><path d="M341.72,137.76s2.5,3.99,4.97,6.32c.43,.41,.33,1.13-.19,1.42-1.33,.76-3.06,.56-3.06,.56l-1.72-8.3Z" style="fill: rgb(212, 130, 125); transform-origin: 344.34px 141.922px;" id="elgzq24ildpxv" class="animable"></path></g><path d="M334.69,137.4l2.52-1.06s-1.11,2.2-2.52,1.06Z" style="fill: rgb(38, 50, 56); transform-origin: 335.95px 137.034px;" id="elum4lizz3b9" class="animable"></path><path d="M346.34,135.46l2.52-1.06s-1.11,2.2-2.52,1.06Z" style="fill: rgb(38, 50, 56); transform-origin: 347.6px 135.094px;" id="elpmrmgbgrtr" class="animable"></path><path d="M323.07,153.45c-38.37-23.76,4.52-39.9,4.52-39.9,17.23-12.07,17.83,6.28,17.83,6.28,8.63,9.01-3.59,16.89-3.59,16.89,5.15-7.41-2.82-11.83-2.82-11.83,1.22,9.85-8.38,13.71-8.38,13.71,3.76-8.88,1.36-13.48,1.36-13.48-2.75,15.83-10.67,19.01-10.67,19.01l1.75,9.32Z" style="fill: rgb(38, 50, 56); transform-origin: 327.809px 131.444px;" id="el6qjml2jjmk" class="animable"></path><path d="M316.25,148.37c1.74,2.12,4.18,3.23,6.28,3.4,3.16,.26,3.91-4.88,2.37-7.74-1.39-2.58-4.66-3.89-7.51-2.8-2.81,1.07-3.13,4.72-1.14,7.14Z" style="fill: rgb(238, 193, 187); transform-origin: 320.325px 146.312px;" id="elraurxs71bwk" class="animable"></path></g><g id="elg0xtun5h0ai"><path d="M323.82,146.8c-.11,0-.21-.08-.24-.19-.23-.9-.7-1.74-1.37-2.41-.43-.44-1.13-.98-1.99-1.07-.78-.08-1.56,.28-1.86,.87-.06,.12-.21,.17-.34,.11-.12-.06-.17-.21-.11-.34,.4-.77,1.37-1.25,2.36-1.14,1.01,.11,1.81,.72,2.3,1.22,.73,.74,1.24,1.65,1.49,2.64,.03,.13-.05,.27-.18,.3-.02,0-.04,0-.06,0Z" style="opacity: 0.2; transform-origin: 320.975px 144.707px;" class="animable" id="elkji81rr1yw"></path></g><g id="elbie3i5w70ss" class="animable" style="transform-origin: 339.481px 149.925px;"><path d="M343.24,150.21c-.86,1.11-1.65,2.29-2.34,3.52-.23-.08-.47-.17-.7-.26-3.15-1.2-4.23-2.8-4.44-4.21-.09-.69-.02-1.4,.21-2.06,.12-.37,.29-.73,.51-1.06,1.29,1.64,4.14,2.98,5.69,3.64,.68,.25,1.07,.43,1.07,.43Z" style="fill: rgb(38, 50, 56); transform-origin: 339.481px 149.935px;" id="el7s1ek4vua4a" class="animable"></path><path d="M342.22,149.76l-.72,1.02c-2.96-1.14-4.89-2.32-5.48-3.6,.12-.37,.29-.73,.51-1.06,1.3,1.65,4.14,2.98,5.69,3.64Z" style="fill: rgb(255, 255, 255); transform-origin: 339.12px 148.45px;" id="el140y6m61wu5j" class="animable"></path><path d="M340.24,153.45c-3.15-1.2-4.23-2.8-4.44-4.21,1.19,.48,2.29,1.16,3.24,2.02,.62,.59,1.04,1.35,1.2,2.18Z" style="fill: rgb(193, 88, 84); transform-origin: 338.02px 151.345px;" id="elsfm4n4jro2k" class="animable"></path></g></g></g><g id="freepik--Character_1--inject-364" class="animable" style="transform-origin: 221.701px 302.306px;"><g id="el3jclpu2cp08" class="animable" style="transform-origin: 221.701px 302.306px;"><g id="eljt2bs52ov9k" class="animable" style="transform-origin: 284.96px 403.965px;"><polygon points="259.23 389.44 272.08 412.94 283.3 409.6 273.11 382.33 259.23 389.44" style="fill: rgb(137, 85, 85); transform-origin: 271.265px 397.635px;" id="elhp6vzcpn5gh" class="animable"></polygon><g id="el19q2tw9w3wp" class="animable" style="transform-origin: 289.997px 414.217px;"><path d="M274.95,425.6l8.02-1.71s.46-1.64,2.15-2.05c.95-.23,3.47,.62,3.47,.62l22.1-4.53s-.31-1.52-.69-2.12c-.46-.74-.95-1.34-1.45-1.84-1.75-1.72-4.42-2.07-6.41-2.26-3.33-.32-12.93-2.86-12.93-2.86,0,0-2.49-.89-4.55-3.72-1.15-1.57-2.68-2.37-3.66-2.29-2,.15-2.84,1.53-2.74,3.4l.12,2.17c-1.25,1.47-3.22,1.81-5.03,.72,0,0-4.65-1.58-3.98,.45,.38,1.16,2.28,6.29,3.66,10.38,.32,.95,.63,1.86,.89,2.65h0c.59,1.76,1,2.97,1,2.97Z" style="fill: rgb(38, 50, 56); transform-origin: 289.997px 414.217px;" id="elpuaueel0pn" class="animable"></path><path d="M294.36,410.03c-.12-.07-.27-.05-.37,.05-.46,.44-.8,.99-.98,1.64-.09,.34,.45,.53,.54,.19,.16-.57,.46-1.06,.86-1.44,.13-.13,.12-.33-.04-.43h0Z" style="fill: #1A9E54; transform-origin: 293.75px 411.039px;" id="el33s9qc8clk3" class="animable"></path><path d="M292.47,409.46c-.12-.07-.27-.05-.37,.05-.46,.44-.8,.99-.98,1.64-.09,.34,.45,.53,.54,.19,.16-.57,.46-1.06,.86-1.44,.13-.13,.12-.33-.04-.43h0Z" style="fill: #1A9E54; transform-origin: 291.86px 410.469px;" id="elmvo0s3icthq" class="animable"></path><path d="M290.53,408.97c-.12-.07-.27-.05-.37,.05-.46,.44-.8,.99-.98,1.64-.09,.34,.45,.53,.54,.19,.16-.57,.46-1.06,.86-1.44,.13-.13,.12-.33-.04-.43h0Z" style="fill: #1A9E54; transform-origin: 289.92px 409.979px;" id="eljx6e5vsy0zm" class="animable"></path></g><g id="elpao4ob424o8"><path d="M285.12,421.84c.95-.23,3.47,.62,3.47,.62l22.1-4.53s-.31-1.52-.69-2.12c-.21-.34-.43-.64-.65-.93l-35.56,7.3c.05,.14,.1,.3,.15,.44h0c.59,1.76,1,2.97,1,2.97l8.02-1.71s.46-1.64,2.15-2.05Z" style="fill: rgb(255, 255, 255); isolation: isolate; opacity: 0.2; transform-origin: 292.24px 420.235px;" class="animable" id="elf07xm2wd4sf"></path></g><path d="M290.33,409.53l-.07-.23c-.22-.75-.45-1.52-.54-2.31-.1-.9,0-1.7,.29-2.38,.21-.47,.51-.75,.85-.8,.45-.06,.84,.28,1.05,.62,.38,.62,.48,1.43,.27,2.24-.2,.79-1.36,2.25-1.71,2.67l-.15,.18Zm.64-5.47s-.05,0-.07,0c-.35,.05-.56,.43-.66,.65-.28,.63-.37,1.39-.27,2.25,.08,.69,.27,1.38,.47,2.04,.66-.83,1.37-1.84,1.51-2.39,.19-.74,.1-1.49-.24-2.04-.16-.26-.43-.51-.73-.51Z" style="fill: #1A9E54; transform-origin: 290.985px 406.667px;" id="elcjfrcyt9gth" class="animable"></path><path d="M290.08,409.41c-.71,0-2.28-.04-2.95-.34-.76-.34-1.33-.93-1.57-1.61-.13-.38-.16-.9,.17-1.21,.25-.24,.66-.3,1.16-.17,.71,.19,1.39,.61,2.04,1.26,.56,.57,1.02,1.23,1.46,1.87l.13,.19h-.24c-.06,0-.13,0-.21,0Zm-3.68-3.15c-.18,0-.36,.04-.5,.17-.25,.23-.22,.64-.11,.95,.22,.62,.74,1.15,1.44,1.47,.52,.23,1.75,.32,2.81,.32-.4-.57-.81-1.15-1.3-1.64-.61-.61-1.26-1.02-1.92-1.19-.11-.03-.26-.06-.42-.06Z" style="fill: #1A9E54; transform-origin: 287.994px 407.711px;" id="elgjluxuw48tm" class="animable"></path></g><g id="eltozcregnujp" class="animable" style="transform-origin: 210.495px 434.365px;"><polygon points="206.11 406.67 200.24 432.81 210.87 437.71 221.22 410.5 206.11 406.67" style="fill: rgb(137, 85, 85); transform-origin: 210.73px 422.19px;" id="el2jioptefgfd" class="animable"></polygon><g id="elp8lr0s8zg7q" class="animable" style="transform-origin: 210.5px 445.025px;"><path d="M194.03,444.21l7.15,4.02s1.43-.93,2.97-.12c.87,.45,2.2,2.76,2.2,2.76l19.58,11.19s.77-1.34,.89-2.05c.14-.86,.18-1.63,.13-2.33-.18-2.45-1.95-4.48-3.32-5.93-2.29-2.43-7.82-10.69-7.82-10.69,0,0-1.28-2.32-.96-5.8,.18-1.94-.45-3.54-1.24-4.14-1.61-1.21-3.15-.73-4.3,.75l-1.34,1.71c-1.91,.28-3.62-.76-4.25-2.78,0,0-2.45-4.26-3.29-2.29-.48,1.12-2.44,6.23-4.11,10.22-.39,.93-.76,1.81-1.08,2.58h0c-.72,1.71-1.21,2.89-1.21,2.89Z" style="fill: rgb(38, 50, 56); transform-origin: 210.5px 445.025px;" id="elsdivh0qteb" class="animable"></path><path d="M218.89,445.33c-.04-.13-.17-.21-.31-.21-.63,.03-1.26,.22-1.82,.58-.29,.19-.01,.69,.28,.5,.5-.32,1.05-.49,1.6-.52,.19,0,.31-.17,.25-.35h0Z" style="fill: #1A9E54; transform-origin: 217.772px 445.681px;" id="elzkcwfvq12t" class="animable"></path><path d="M217.84,443.66c-.04-.13-.17-.21-.31-.21-.63,.03-1.26,.22-1.82,.58-.29,.19-.01,.69,.28,.5,.5-.32,1.04-.49,1.6-.52,.19,0,.31-.17,.25-.35h0Z" style="fill: #1A9E54; transform-origin: 216.722px 444.011px;" id="ellnpnv5dhn6" class="animable"></path><path d="M216.72,442.01c-.04-.13-.17-.21-.31-.21-.63,.03-1.26,.22-1.82,.58-.29,.19-.01,.69,.28,.5,.5-.32,1.04-.49,1.6-.52,.19,0,.31-.17,.25-.35h0Z" style="fill: #1A9E54; transform-origin: 215.602px 442.361px;" id="ell5g6mbylyop" class="animable"></path></g><g id="elthb6irbz7ps"><path d="M204.15,448.11c.87,.45,2.2,2.76,2.2,2.76l19.58,11.19s.77-1.34,.89-2.05c.06-.4,.1-.77,.12-1.13l-31.53-18c-.06,.14-.12,.3-.18,.43h0c-.72,1.71-1.21,2.89-1.21,2.89l7.15,4.02s1.43-.93,2.97-.12Z" style="fill: rgb(255, 255, 255); isolation: isolate; opacity: 0.2; transform-origin: 210.48px 451.47px;" class="animable" id="ela0xqqpy5ejp"></path></g><path d="M216.19,442.29l.1-.21c.33-.71,.66-1.44,1.12-2.09,.52-.75,1.12-1.28,1.79-1.59,.46-.21,.88-.23,1.17-.04,.38,.25,.45,.77,.38,1.16-.12,.71-.58,1.39-1.27,1.86-.68,.46-2.51,.79-3.05,.88l-.23,.04Zm3.69-3.82c-.22,0-.44,.08-.58,.15-.63,.29-1.19,.8-1.69,1.51-.4,.57-.71,1.21-1,1.84,1.05-.19,2.25-.48,2.72-.8,.63-.43,1.06-1.05,1.17-1.69,.05-.32,.01-.73-.27-.91-.1-.07-.22-.09-.34-.09Z" style="fill: #1A9E54; transform-origin: 218.482px 440.265px;" id="elkqsg64tmkc" class="animable"></path><path d="M216.42,442.33l-.18-.15c-.42-.36-1.81-1.59-2.15-2.34-.34-.76-.39-1.58-.12-2.25,.15-.37,.47-.78,.93-.79h.03c.34,0,.68,.23,.95,.64,.41,.61,.64,1.38,.7,2.29,.05,.8-.04,1.6-.14,2.37l-.03,.23Zm-1.49-5.29h-.02c-.34,.01-.59,.34-.71,.64-.24,.61-.2,1.36,.11,2.05,.23,.52,1.11,1.39,1.9,2.1,.08-.69,.15-1.4,.11-2.09-.05-.86-.27-1.59-.65-2.17-.13-.2-.4-.53-.74-.53Z" style="fill: #1A9E54; transform-origin: 215.196px 439.565px;" id="el2xxoilull2w" class="animable"></path></g><g id="elymimyiprqp" class="animable" style="transform-origin: 204.346px 258.768px;"><path d="M216.37,235.91s3.71,33.02,4.7,34.79c3.35,5.99,25.56,16.26,25.56,16.26l11.32-2.37,8.11,6.77-5.35,4.19-6.28-2.37c-3.42,.61-6.9,.92-10.38,.91-5.85,0-34.05-7.15-38.75-15.01-4.71-7.86-6.87-44.27-6.87-44.27l17.94,1.1Z" style="fill: rgb(137, 85, 85); transform-origin: 232.245px 265.18px;" id="el1rp6ap6ufib" class="animable"></path><g id="eltl51dktjw4m" class="animable" style="transform-origin: 178.995px 258.768px;"><path d="M197.96,248.89s-8.7-29,2.14-37.05c10.84-8.05,19.46,31.82,19.46,31.82l-21.6,5.23Z" style="fill: #1A9E54; transform-origin: 207.109px 229.828px;" id="elqysx4k9fkdn" class="animable"></path><path d="M204.82,301.93l-.08-38.43-.83-52.62-21.62-3.09-18.42-.17-24.92,7.75-.52,12.91s2.57,59.29,2.43,61.08c-.18,2.19-.73,18.46-.73,18.46,28.41,6.47,65.14-3.92,64.69-5.88Z" style="fill: #1A9E54; transform-origin: 171.627px 258.768px;" id="eldlzm8phokij" class="animable"></path><g id="el8k34pttvjil"><polygon points="204.42 247.33 203.26 222.54 208.8 246.27 204.42 247.33" style="opacity: 0.2; transform-origin: 206.03px 234.935px;" class="animable" id="elslqvsg45lor"></polygon></g><g id="elbms5r9hhrj"><path d="M156.35,250.94c.7-.14,4.24-1.3,4.24-1.3l-7.87-21.9,10.81,24.22-6.5,2.59-.68-3.62Z" style="opacity: 0.2; transform-origin: 158.125px 241.145px;" class="animable" id="el5d1lwtl37fq"></path></g></g><g id="el98xvwnf8m0i" class="animable" style="transform-origin: 175.906px 258.171px;"><path d="M153.3,232.78s5.51,36.66,8.69,40.08c5.38,5.79,32.01,21.15,32.01,21.15l13.29-4.66c.93-.31,1.96-.14,2.72,.44l9.09,6.94-.87,.73c-.37,.32-.92,.38-1.36,.16l-1.41-.7,1.58,1.55-.5,.42c-.5,.42-1.19,.57-1.83,.4l-4.06-1.09,3.75,2.5c-.84,.71-2,.95-3.07,.65l-5.95-1.69c-4.06,.93-8.19,1.52-12.35,1.77-7,.43-40.06-11.12-46.23-19.58-6.16-8.46-12.52-43.58-12.52-43.58l19-5.48Z" style="fill: rgb(137, 85, 85); transform-origin: 176.69px 267.128px;" id="elkpjfodd1bxc" class="animable"></path><path d="M135.71,257.16s-8.24-33.22,2.6-41.27c10.84-8.05,21.58,33.98,21.58,33.98l-24.18,7.29Z" style="fill: #1A9E54; transform-origin: 146.301px 236.013px;" id="elnd9cs8tiujr" class="animable"></path></g><g id="elwh37nmfendf" class="animable" style="transform-origin: 229.14px 281px;"><path d="M224.44,299.39h-42.14c.01,1.62,1.81,2.92,4.01,2.91h68.65c2.19-.02,3.95-1.32,3.94-2.91h-34.46Z" style="fill: rgb(38, 50, 56); transform-origin: 220.6px 300.845px;" id="el4z5l5jpiou8" class="animable"></path><path d="M255.59,302.14h-38.5c-.66,0-1.2-.44-1.19-.97,0-.1,.02-.2,.06-.29l17.13-39.27c.43-1.12,1.72-1.89,3.18-1.89h38.52c.65,0,1.18,.42,1.18,.95,0,.11-.02,.22-.07,.32l-17.13,39.27c-.44,1.12-1.72,1.88-3.18,1.89Z" style="fill: rgb(38, 50, 56); transform-origin: 245.935px 280.935px;" id="elbz7tu378sws" class="animable"></path><g id="el27dnixvls3e"><path d="M274.79,259.71h-38.52c-1.46,0-2.75,.77-3.18,1.89l-16.48,37.79h-34.31c.01,1.62,1.81,2.92,4.01,2.91h68.65c.69,0,1.33-.15,1.9-.38,.9-.3,1.61-.9,1.92-1.68l17.13-39.27c.05-.1,.07-.21,.07-.32,0-.52-.53-.95-1.18-.95Z" style="fill: rgb(255, 255, 255); isolation: isolate; opacity: 0.7; transform-origin: 229.14px 281px;" class="animable" id="elnoxk7jc8ks"></path></g><path d="M251.65,280.62c-.83,1.88-2.52,3.18-3.78,2.91s-1.59-1.98-.79-3.87c.81-1.89,2.51-3.15,3.77-2.89s1.63,1.91,.79,3.85Z" style="fill: rgb(255, 255, 255); transform-origin: 249.369px 280.151px;" id="elz8m4w8iz67" class="animable"></path><g id="eloq0lflty85c"><g style="opacity: 0.3; transform-origin: 226.43px 279.56px;" class="animable" id="elk04rfrsmk9h"><path d="M233.08,261.61l-16.48,37.79h1.78l17.88-39.68c-1.46,0-2.75,.77-3.18,1.89Z" id="elt0tirin6cwf" class="animable" style="transform-origin: 226.43px 279.56px;"></path></g></g></g></g><g id="elbpujgtyjuig" class="animable" style="transform-origin: 175.948px 178.19px;"><path d="M193.55,162.02l1.22,.71c1.42,.03,2.76,1.1,3.09,2.49,.33,1.38-.37,2.95-1.62,3.63-.19,.1-.41,.21-.47,.41-.11,.33,.24,.6,.49,.83,1.28,1.11,1.12,3.3-.03,4.54-1.15,1.24-2.98,1.64-4.66,1.5-.44-4.76,2.39-9.36,1.98-14.11Z" style="fill: rgb(38, 50, 56); transform-origin: 194.732px 169.088px;" id="elvsfor4r0ui" class="animable"></path><path d="M157.34,175.41c-1.81,.09-3.62-1.03-4.35-2.69-.2-.46-.33-.97-.25-1.46,.23-1.34,1.76-1.95,3.07-2.32-1.46-.36-2.44-1.81-2.72-3.28-.13-.67-.14-1.39,.08-2.04,.37-1.1,1.35-1.9,2.42-2.33,1.07-.43,2.24-.55,3.39-.66l6.63,21.04c-1.48,.33-3.02,.53-4.51,.28-1.5-.25-2.96-1.02-3.79-2.28-.83-1.27-.91-3.07,.03-4.26Z" style="fill: rgb(38, 50, 56); transform-origin: 159.163px 171.346px;" id="elen4joo1kmhk" class="animable"></path><path d="M161.05,208.5c6.12-5.22,5.83-19.7,4.73-27.57l17.45,15.12c-.42,.89-.78,1.81-1.07,2.75-.59,1.68-.74,3.48-.43,5.23,.31,1.45,1.93,5.48,1.93,5.48,0,0,.87,4.51-10.99,4.29-5.22,.47-11.6-5.3-11.6-5.3Z" style="fill: rgb(137, 85, 85); transform-origin: 172.362px 197.379px;" id="eljm5n0ddyej" class="animable"></path><g id="elmylxxflv1wn"><path d="M168.91,188.94c-1.04,9.19,8.16,13.64,12.82,15.11-.31-1.75-.16-3.55,.43-5.23l-13.25-9.88Z" style="isolation: isolate; opacity: 0.2; transform-origin: 175.494px 196.495px;" class="animable" id="elvzqja4lt3hk"></path></g><g id="elhrmr8hrr0i" class="animable" style="transform-origin: 177.163px 170.758px;"><g id="elvzdl1shedc" class="animable" style="transform-origin: 175.796px 176.612px;"><path d="M162.79,174.06c2.15,10.86,3.14,17.02,9.59,21.86,9.69,7.27,22.64,.64,23.88-10.67,1.11-10.18-2.6-26.22-14.22-29.05-11.45-2.79-21.4,7.01-19.25,17.87Z" style="fill: rgb(137, 85, 85); transform-origin: 179.471px 177.341px;" id="elgagomxhg4ge" class="animable"></path><path d="M159.61,161.08c.74-6.23,16.29-8.29,21.05-5.77,.71,.38-7.9,6.06-7.37,5.79l-4.14,2.02c-.69-.06-1.9,.87-2.31,2.97,0,0,2.74,16.72-1.51,22.21-4.18-1.36-5.3-7.98-7.07-11.78-2.64-5.66-6.02-14.02,1.36-15.43Z" style="fill: rgb(38, 50, 56); transform-origin: 167.924px 171.281px;" id="elm2gmaonbeh" class="animable"></path><path d="M159.56,183.76c1.28,2.7,3.72,4.56,6.1,5.36,3.58,1.19,4.36-2.54,3.58-5.95-.7-3.07-2.14-6.73-5.83-6.44-3.64,.28-5.31,3.95-3.85,7.04Z" style="fill: rgb(137, 85, 85); transform-origin: 164.275px 183.03px;" id="el5ilx5x7k5m8" class="animable"></path><path d="M177.95,174.61c.15,1.12,.88,1.94,1.64,1.84,.75-.1,1.24-1.1,1.09-2.22-.15-1.12-.88-1.94-1.64-1.84-.75,.1-1.24,1.1-1.09,2.22Z" style="fill: rgb(38, 50, 56); transform-origin: 179.315px 174.42px;" id="el7sx9n71w2o4" class="animable"></path><path d="M189.29,173.96c.15,1.12,.88,1.94,1.64,1.84s1.24-1.1,1.09-2.22c-.15-1.12-.88-1.94-1.64-1.84-.75,.1-1.24,1.1-1.09,2.22Z" style="fill: rgb(38, 50, 56); transform-origin: 190.655px 173.77px;" id="elhrk0cce66e5" class="animable"></path><path d="M186.92,173.77s4.39,5.1,5.87,7.21c-1.42,1.61-4.27,1.32-4.27,1.32l-1.6-8.53Z" style="fill: rgb(109, 57, 57); transform-origin: 189.855px 178.045px;" id="el5xux2wy7wv" class="animable"></path><path d="M175.82,170.23c.18,.05,.39,0,.53-.14,1.71-1.69,3.68-1.34,3.7-1.34,.29,.06,.58-.13,.64-.42,.06-.29-.13-.56-.42-.62-.1-.02-2.57-.46-4.7,1.64-.21,.21-.21,.54,0,.75,.07,.07,.15,.11,.24,.13Z" style="fill: rgb(38, 50, 56); transform-origin: 178.057px 168.954px;" id="elrbusna99rc" class="animable"></path><g id="el1rec9003c03"><path d="M167.31,183.27c-.11,0-.21-.08-.24-.19-.23-.89-.69-1.7-1.34-2.36-.42-.43-1.11-.96-1.95-1.05-.76-.08-1.53,.28-1.82,.85-.06,.12-.21,.17-.34,.11-.12-.06-.17-.21-.11-.34,.39-.76,1.35-1.22,2.32-1.12,1,.11,1.78,.71,2.26,1.2,.71,.72,1.22,1.62,1.47,2.59,.03,.13-.05,.27-.18,.3-.02,0-.04,0-.06,0Z" style="opacity: 0.2; transform-origin: 164.525px 181.213px;" class="animable" id="elxmoqzxu121"></path></g><path d="M195.04,168.55c.1-.03,.19-.1,.25-.18,.18-.23,.14-.57-.1-.74-2.39-1.76-4.74-.92-4.85-.9-.28,.1-.43,.41-.33,.68,.1,.27,.41,.41,.69,.32,.1-.04,1.92-.66,3.84,.75,.15,.11,.34,.13,.51,.07Z" style="fill: rgb(38, 50, 56); transform-origin: 192.69px 167.548px;" id="eltji3dh8v0ao" class="animable"></path></g><path d="M155.96,156.12c.57-2.64,3.89-3.58,6.52-3.35-.48-3.09,3.47-5.34,6.09-5.55,2.74-.22,3.84,.73,3.84,.73-.21,.07,.65-1.63,1.22-2.33,2.1-2.58,5.76-3.69,8.9-2.72,3.14,.98,5.58,3.99,5.94,7.33,1.5-1.86,4.53-2.14,6.33-.57,1.8,1.57,2.02,4.68,.46,6.49,2.01-.1,3.92,1.76,3.92,3.82,0,2.07-1.92,3.91-3.93,3.79,.14,2.31,.22,5.2,.36,7.51l-4.12-8.08c-1.69-.38-2.08-1.07-2.61-2.75-.94,2.3-2.84,2.33-5.27,2.51-2.43,.18-4.91-1.14-6.17-3.28-.99,2.4-3.17,4.38-5.71,4.6-2.54,.22-5.23-1.67-5.52-4.27-1.24,2.38-4.31,3.56-6.78,2.62-2.47-.94-4.04-3.89-3.47-6.53Z" style="fill: rgb(38, 50, 56); transform-origin: 177.512px 156.911px;" id="el4ir73puuigc" class="animable"></path><g id="el1ss4owv1nwe" class="animable" style="transform-origin: 184.029px 185.71px;"><path d="M188.1,186.02c-.94,1.21-1.78,2.48-2.53,3.81-.25-.09-.51-.18-.76-.28-3.41-1.3-4.57-3.03-4.81-4.55-.1-.75-.02-1.51,.22-2.23,.13-.41,.32-.79,.55-1.15,1.4,1.77,4.48,3.23,6.16,3.94,.74,.27,1.15,.47,1.15,.47Z" style="fill: rgb(38, 50, 56); transform-origin: 184.029px 185.725px;" id="el6m76dw0l46h" class="animable"></path><path d="M186.98,185.53l-.78,1.1c-3.2-1.23-5.3-2.52-5.94-3.89,.13-.41,.32-.79,.55-1.15,1.41,1.79,4.48,3.23,6.16,3.94Z" style="fill: rgb(255, 255, 255); transform-origin: 183.62px 184.11px;" id="el7plr75d110s" class="animable"></path><path d="M184.85,189.52c-3.41-1.3-4.57-3.03-4.81-4.55,1.29,.52,2.47,1.26,3.5,2.19,.67,.63,1.12,1.46,1.3,2.36Z" style="fill: rgb(193, 88, 84); transform-origin: 182.445px 187.245px;" id="el8kd9s38qp4f" class="animable"></path></g></g></g><g id="el517xq7cjoyt" class="animable" style="transform-origin: 208.741px 365.363px;"><g id="freepik--freepik--Character--inject-281--inject-364" class="animable" style="transform-origin: 208.741px 365.363px;"><path d="M247.56,339.32c-.42,4.19-1.33,9.92-2.42,13.98-2.97,11.48-6.36,22.52-10.63,33.93-8.25,22.53-14.91,43.44-14.91,43.44l-20.95-6.28s13.85-65.19,23.19-71.86h-57.28c-1.07,0-2.14-.07-3.2-.22,9.87-1.28,25.24-7.36,39.51-13.44,12.6-5.39,24.39-10.77,30.78-12.8h0c7.82,3.34,16.52,6.68,15.92,13.25Z" style="fill: rgb(38, 50, 56); transform-origin: 204.48px 378.37px;" id="el03mqxlu6r7uh" class="animable"></path><g id="eldbm0rdbp7qh"><path d="M231.66,326.13c-6.4,2.08-18.19,7.42-30.78,12.8-14.27,6.08-29.64,12.16-39.51,13.44-16.62-2.22-22.87-22.02-5.49-44.86,11.28,0,22.62,10.77,22.62,10.77,0,0,34.11-.17,53.16,7.85Z" style="isolation: isolate; opacity: 0.6; transform-origin: 188.582px 329.94px;" class="animable" id="ele7p3n7x19h"></path></g><path d="M278.3,396.28l-13.85,8.39s-11.56-24.27-22.61-51.65c1.09-4.07,1.86-8.21,2.28-12.4,.6-6.57-4.62-11.2-12.44-14.47h0c-6.4,2.08-18.19,7.42-30.78,12.8-14.27,6.08-29.64,12.16-39.51,13.44-1.13,.15-2.27,.23-3.42,.25-18.96,0-25.5-16.62-17.85-44.82,11.28,0,30.6-1.22,30.6-1.22,0,0,37.28-8.96,64.1-5.91,13.06,1.54,23.63,11.33,26.16,24.24,6.91,34.23,17.31,71.35,17.31,71.35Z" style="fill: rgb(38, 50, 56); transform-origin: 207.646px 352.363px;" id="eleevwij6jfi" class="animable"></path><path d="M280.49,397.3l-16.04,7.37s-11.56-24.27-22.61-51.65c1.09-4.07,1.86-8.21,2.28-12.4,.6-6.57-4.62-11.2-12.44-14.47h0c-6.4,2.08-18.19,7.42-30.78,12.8-14.27,6.08-29.64,12.16-39.51,13.44-1.13,.15-2.27,.23-3.42,.25-18.96,0-25.5-16.62-17.85-44.82,11.28,0,30.6-1.22,30.6-1.22,0,0,37.28-8.96,64.1-5.91,13.06,1.54,23.63,11.33,26.16,24.24,6.91,34.23,19.5,72.37,19.5,72.37Z" style="fill: rgb(38, 50, 56); transform-origin: 208.741px 352.363px;" id="elqrcq9l9z7ml" class="animable"></path></g><g id="el18kawj65bdl"><path d="M247.56,339.32c-.42,4.19-1.33,9.92-2.42,13.98-2.97,11.48-6.36,22.52-10.63,33.93-8.25,22.53-14.91,43.44-14.91,43.44l-20.95-6.28s13.85-65.19,23.19-71.86h-57.28c-1.07,0-2.14-.07-3.2-.22,9.87-1.28,25.24-7.36,39.51-13.44,12.6-5.39,24.39-10.77,30.78-12.8h0c7.82,3.34,16.52,6.68,15.92,13.25Z" style="isolation: isolate; opacity: 0.2; transform-origin: 204.48px 378.37px;" class="animable" id="el1wn48pxn1d5"></path></g></g><ellipse cx="183.66" cy="254.17" rx="5.09" ry="16.23" style="fill: rgb(255, 255, 255); transform-origin: 183.66px 254.17px;" id="elh744c4zisak" class="animable"></ellipse></g></g><defs>     <filter id="active" height="200%">         <feMorphology in="SourceAlpha" result="DILATED" operator="dilate" radius="2"></feMorphology>                <feFlood flood-color="#32DFEC" flood-opacity="1" result="PINK"></feFlood>        <feComposite in="PINK" in2="DILATED" operator="in" result="OUTLINE"></feComposite>        <feMerge>            <feMergeNode in="OUTLINE"></feMergeNode>            <feMergeNode in="SourceGraphic"></feMergeNode>        </feMerge>    </filter>    <filter id="hover" height="200%">        <feMorphology in="SourceAlpha" result="DILATED" operator="dilate" radius="2"></feMorphology>                <feFlood flood-color="#ff0000" flood-opacity="0.5" result="PINK"></feFlood>        <feComposite in="PINK" in2="DILATED" operator="in" result="OUTLINE"></feComposite>        <feMerge>            <feMergeNode in="OUTLINE"></feMergeNode>            <feMergeNode in="SourceGraphic"></feMergeNode>        </feMerge>            <feColorMatrix type="matrix" values="0   0   0   0   0                0   1   0   0   0                0   0   0   0   0                0   0   0   1   0 "></feColorMatrix>    </filter></defs></svg>