<svg xmlns="http://www.w3.org/2000/svg" viewBox="0 0 500 500"><g id="freepik--background-complete--inject-77"><rect x="29.7" y="71.64" width="174.97" height="290.23" style="fill:#ebebeb"></rect><rect x="42.84" y="86.09" width="148.7" height="185.49" style="fill:#fff"></rect><polygon points="50.96 391.07 40.82 391.07 40.82 361.87 58.86 361.87 50.96 391.07" style="fill:#ebebeb"></polygon><polygon points="58.86 361.86 55.95 372.63 40.82 372.63 40.82 361.86 58.86 361.86" style="fill:#c7c7c7"></polygon><polygon points="183.42 391.07 193.56 391.07 193.56 361.87 175.52 361.87 183.42 391.07" style="fill:#ebebeb"></polygon><polygon points="175.52 361.86 178.44 372.63 193.56 372.63 193.56 361.86 175.52 361.86" style="fill:#c7c7c7"></polygon><path d="M191.54,283.5q-17,.27-34,.35c-11.32.11-22.64.09-34,.13l.48-.48c0,4.79,0,9.58,0,14.37L124,312.23c-.1,9.58-.19,19.16-.41,28.74-.23-9.58-.32-19.16-.42-28.74l0-14.36c0-4.79,0-9.58,0-14.37V283h.48c11.32,0,22.64,0,34,.13S180.22,283.32,191.54,283.5Z" style="fill:#c7c7c7"></path><path d="M123.62,349.17q17-.27,34-.36c11.32-.11,22.64-.08,34-.12l-.48.48c0-4.7,0-9.39,0-14.09l.06-14.1c.09-9.39.18-18.79.4-28.18.23,9.39.32,18.79.41,28.18l.06,14.1c0,4.7.05,9.39,0,14.09v.49h-.48c-11.32-.05-22.64,0-34-.13S134.94,349.36,123.62,349.17Z" style="fill:#c7c7c7"></path><rect x="130.02" y="307.03" width="4.32" height="16.58" transform="translate(264.36 630.65) rotate(180)" style="fill:#c7c7c7"></rect><path d="M42.84,283.5q17-.27,34-.35c11.32-.11,22.64-.09,34-.13h.48v.48c0,4.79,0,9.58,0,14.37l0,14.36c-.1,9.58-.19,19.16-.42,28.74-.22-9.58-.31-19.16-.41-28.74l0-14.36c0-4.79,0-9.58,0-14.37l.48.48c-11.32,0-22.64,0-34-.13S54.16,283.68,42.84,283.5Z" style="fill:#c7c7c7"></path><path d="M110.76,349.17c-11.32.19-22.64.29-34,.36s-22.64.08-34,.13h-.48v-.49c0-4.7,0-9.39,0-14.09l.06-14.1c.09-9.39.18-18.79.41-28.18.22,9.39.31,18.79.4,28.18l.06,14.1c0,4.7.05,9.39,0,14.09l-.48-.48c11.32,0,22.64,0,34,.12S99.44,349,110.76,349.17Z" style="fill:#c7c7c7"></path><rect x="100.04" y="307.03" width="4.32" height="16.58" style="fill:#c7c7c7"></rect><rect x="42.84" y="81.61" width="148.7" height="4.48" style="fill:#ebebeb"></rect><rect x="42.84" y="144.93" width="148.7" height="4.48" style="fill:#ebebeb"></rect><rect x="42.84" y="208.25" width="148.7" height="4.48" style="fill:#ebebeb"></rect><rect x="37.83" y="112.06" width="50.42" height="15.3" transform="translate(182.75 56.67) rotate(90)" style="fill:#c7c7c7"></rect><rect x="60.27" y="120.21" width="5.54" height="15.3" transform="translate(190.9 64.82) rotate(90)" style="fill:#dbdbdb"></rect><rect x="62.01" y="97.82" width="2.06" height="15.3" transform="translate(168.51 42.43) rotate(90)" style="fill:#dbdbdb"></rect><rect x="152.23" y="112.07" width="50.42" height="15.3" transform="translate(57.72 297.16) rotate(-90)" style="fill:#c7c7c7"></rect><rect x="174.67" y="103.92" width="5.54" height="15.3" transform="translate(65.87 289.01) rotate(-90)" style="fill:#dbdbdb"></rect><rect x="176.41" y="133.24" width="2.06" height="15.3" transform="translate(318.34 -36.55) rotate(90)" style="fill:#dbdbdb"></rect><rect x="176.41" y="123.77" width="2.06" height="15.3" transform="translate(308.86 -46.02) rotate(90)" style="fill:#dbdbdb"></rect><rect x="111.23" y="113.91" width="50.42" height="11.61" transform="translate(256.15 -16.73) rotate(90)" style="fill:#c7c7c7"></rect><rect x="133.67" y="122.06" width="5.54" height="11.61" transform="translate(264.31 -8.58) rotate(90)" style="fill:#dbdbdb"></rect><rect x="135.42" y="99.67" width="2.06" height="11.61" transform="translate(241.92 -30.97) rotate(90)" style="fill:#dbdbdb"></rect><rect x="46.63" y="110.16" width="58.82" height="10.7" transform="translate(191.55 39.47) rotate(90)" style="fill:#dbdbdb"></rect><rect x="64.68" y="99.74" width="22.62" height="6.42" transform="translate(178.94 26.95) rotate(90)" style="fill:#ebebeb"></rect><rect x="160.67" y="114.05" width="55.31" height="6.45" transform="translate(71.05 305.59) rotate(-90)" style="fill:#a6a6a6"></rect><rect x="177.71" y="102.14" width="21.27" height="3.87" transform="translate(84.27 292.42) rotate(-90)" style="fill:#ebebeb"></rect><rect x="120.71" y="112.69" width="53.78" height="10.7" transform="translate(29.56 265.63) rotate(-90)" style="fill:#dbdbdb"></rect><rect x="137.3" y="126.32" width="20.68" height="6.42" transform="translate(18.12 277.17) rotate(-90)" style="fill:#ebebeb"></rect><rect x="68.12" y="113.51" width="44.68" height="18.16" transform="translate(213.05 32.13) rotate(90)" style="fill:#a6a6a6"></rect><rect x="88.38" y="129.03" width="4.16" height="18.16" transform="translate(228.57 47.65) rotate(90)" style="fill:#c7c7c7"></rect><rect x="89.65" y="123.41" width="1.61" height="18.16" transform="translate(222.95 42.03) rotate(90)" style="fill:#c7c7c7"></rect><rect x="28.12" y="117.66" width="41.99" height="12.55" transform="translate(173.05 74.83) rotate(90)" style="fill:#a6a6a6"></rect><rect x="47.15" y="132.25" width="3.91" height="12.55" transform="translate(187.64 89.41) rotate(90)" style="fill:#c7c7c7"></rect><rect x="47.15" y="107.28" width="3.91" height="12.55" transform="translate(162.67 64.44) rotate(90)" style="fill:#c7c7c7"></rect><rect x="48.35" y="112.68" width="1.52" height="12.55" transform="translate(168.06 69.84) rotate(90)" style="fill:#c7c7c7"></rect><rect x="131.95" y="107.09" width="58.83" height="16.85" transform="translate(276.88 -45.85) rotate(90)" style="fill:#a6a6a6"></rect><rect x="158.62" y="127.53" width="5.48" height="16.85" transform="translate(297.32 -25.41) rotate(90)" style="fill:#c7c7c7"></rect><rect x="158.62" y="92.55" width="5.48" height="16.85" transform="translate(262.34 -60.39) rotate(90)" style="fill:#c7c7c7"></rect><rect x="160.3" y="100.11" width="2.13" height="16.85" transform="translate(269.9 -52.83) rotate(90)" style="fill:#c7c7c7"></rect><rect x="94.39" y="116.8" width="50.59" height="6.27" transform="translate(195.97 -31.36) rotate(71.7)" style="fill:#a6a6a6"></rect><rect x="122.85" y="133.48" width="4.72" height="6.27" transform="translate(215.6 -25.16) rotate(71.7)" style="fill:#c7c7c7"></rect><rect x="113.4" y="104.92" width="4.72" height="6.27" transform="translate(182 -35.78) rotate(71.7)" style="fill:#c7c7c7"></rect><rect x="75.86" y="112.03" width="56.59" height="9.22" transform="translate(-12.48 220.79) rotate(-90)" style="fill:#c7c7c7"></rect><rect x="101.52" y="92.37" width="5.27" height="9.22" transform="translate(7.18 201.13) rotate(-90)" style="fill:#ebebeb"></rect><rect x="101.52" y="126.02" width="5.27" height="9.22" transform="translate(-26.48 234.79) rotate(-90)" style="fill:#ebebeb"></rect><rect x="103.13" y="118.75" width="2.05" height="9.22" transform="translate(-19.2 227.51) rotate(-90)" style="fill:#ebebeb"></rect><rect x="124.26" y="175.37" width="50.42" height="15.3" transform="translate(332.49 33.56) rotate(90)" style="fill:#c7c7c7"></rect><rect x="146.7" y="183.52" width="5.54" height="15.3" transform="translate(340.64 41.71) rotate(90)" style="fill:#dbdbdb"></rect><rect x="148.44" y="161.13" width="2.06" height="15.3" transform="translate(318.25 19.32) rotate(90)" style="fill:#dbdbdb"></rect><rect x="31.73" y="175.38" width="50.42" height="15.3" transform="translate(-126.1 239.97) rotate(-90)" style="fill:#c7c7c7"></rect><rect x="54.17" y="167.23" width="5.54" height="15.3" transform="translate(-117.94 231.82) rotate(-90)" style="fill:#dbdbdb"></rect><rect x="55.91" y="196.56" width="2.06" height="15.3" transform="translate(261.15 147.27) rotate(90)" style="fill:#dbdbdb"></rect><rect x="55.91" y="187.08" width="2.06" height="15.3" transform="translate(251.67 137.79) rotate(90)" style="fill:#dbdbdb"></rect><rect x="72.72" y="177.22" width="50.42" height="11.61" transform="translate(280.96 85.09) rotate(90)" style="fill:#c7c7c7"></rect><rect x="95.17" y="185.37" width="5.54" height="11.61" transform="translate(289.11 93.24) rotate(90)" style="fill:#dbdbdb"></rect><rect x="96.91" y="162.98" width="2.06" height="11.61" transform="translate(266.72 70.85) rotate(90)" style="fill:#dbdbdb"></rect><rect x="107.06" y="173.48" width="58.82" height="10.7" transform="translate(315.29 42.36) rotate(90)" style="fill:#dbdbdb"></rect><rect x="125.2" y="163.05" width="22.62" height="6.42" transform="translate(302.77 29.74) rotate(90)" style="fill:#ebebeb"></rect><rect x="24.54" y="183.49" width="43.05" height="6.45" transform="translate(-140.65 232.77) rotate(-90)" style="fill:#a6a6a6"></rect><rect x="37.76" y="174.5" width="16.56" height="3.87" transform="translate(-130.41 222.47) rotate(-90)" style="fill:#ebebeb"></rect><rect x="59.9" y="176" width="53.78" height="10.7" transform="translate(-94.56 268.13) rotate(-90)" style="fill:#dbdbdb"></rect><rect x="76.4" y="189.63" width="20.68" height="6.42" transform="translate(-106.1 279.58) rotate(-90)" style="fill:#ebebeb"></rect><rect x="99.71" y="176.83" width="44.68" height="18.16" transform="translate(307.95 63.86) rotate(90)" style="fill:#a6a6a6"></rect><rect x="119.96" y="192.35" width="4.16" height="18.16" transform="translate(323.47 79.38) rotate(90)" style="fill:#c7c7c7"></rect><rect x="121.24" y="186.72" width="1.61" height="18.16" transform="translate(317.85 73.76) rotate(90)" style="fill:#c7c7c7"></rect><rect x="158.37" y="175.08" width="53.79" height="12.55" transform="translate(366.62 -3.92) rotate(90)" style="fill:#a6a6a6"></rect><rect x="182.76" y="193.76" width="5.01" height="12.55" transform="translate(385.31 14.77) rotate(90)" style="fill:#c7c7c7"></rect><rect x="182.76" y="161.78" width="5.01" height="12.55" transform="translate(353.32 -17.22) rotate(90)" style="fill:#c7c7c7"></rect><rect x="184.3" y="168.69" width="1.94" height="12.55" transform="translate(360.23 -10.3) rotate(90)" style="fill:#c7c7c7"></rect><rect x="43.6" y="170.41" width="58.83" height="16.85" transform="translate(251.85 105.82) rotate(90)" style="fill:#a6a6a6"></rect><rect x="70.27" y="190.84" width="5.48" height="16.85" transform="translate(272.28 126.25) rotate(90)" style="fill:#c7c7c7"></rect><rect x="70.27" y="155.86" width="5.48" height="16.85" transform="translate(237.3 91.27) rotate(90)" style="fill:#c7c7c7"></rect><rect x="71.95" y="163.42" width="2.13" height="16.85" transform="translate(244.86 98.83) rotate(90)" style="fill:#c7c7c7"></rect><rect x="142.75" y="180.11" width="50.59" height="6.27" transform="translate(394.79 81.24) rotate(108.3)" style="fill:#dbdbdb"></rect><rect x="160.17" y="196.79" width="4.72" height="6.27" transform="translate(403.38 108.41) rotate(108.3)" style="fill:#c7c7c7"></rect><rect x="169.61" y="168.23" width="4.72" height="6.27" transform="translate(388.67 61.91) rotate(108.3)" style="fill:#c7c7c7"></rect><rect x="80.06" y="175.34" width="56.59" height="9.22" transform="translate(-71.6 288.3) rotate(-90)" style="fill:#dbdbdb"></rect><rect x="105.71" y="155.68" width="5.27" height="9.22" transform="translate(-51.94 268.64) rotate(-90)" style="fill:#ebebeb"></rect><rect x="105.71" y="189.33" width="5.27" height="9.22" transform="translate(-85.59 302.3) rotate(-90)" style="fill:#ebebeb"></rect><rect x="107.33" y="182.06" width="2.05" height="9.22" transform="translate(-78.32 295.02) rotate(-90)" style="fill:#ebebeb"></rect><rect x="34.12" y="240.56" width="50.42" height="11.61" transform="translate(305.7 187.03) rotate(90)" style="fill:#c7c7c7"></rect><rect x="56.57" y="248.71" width="5.54" height="11.61" transform="translate(313.85 195.18) rotate(90)" style="fill:#dbdbdb"></rect><rect x="58.31" y="226.32" width="2.06" height="11.61" transform="translate(291.46 172.79) rotate(90)" style="fill:#dbdbdb"></rect><rect x="18.78" y="236.82" width="58.82" height="10.7" transform="translate(290.35 193.98) rotate(90)" style="fill:#dbdbdb"></rect><rect x="36.92" y="226.39" width="22.62" height="6.42" transform="translate(277.83 181.36) rotate(90)" style="fill:#ebebeb"></rect><rect x="51.88" y="240.15" width="44.68" height="18.16" transform="translate(-175.01 323.46) rotate(-90)" style="fill:#a6a6a6"></rect><rect x="72.14" y="224.63" width="4.16" height="18.16" transform="translate(-159.49 307.94) rotate(-90)" style="fill:#c7c7c7"></rect><rect x="73.41" y="230.26" width="1.61" height="18.16" transform="translate(-165.12 313.56) rotate(-90)" style="fill:#c7c7c7"></rect><rect x="151.19" y="241.64" width="50.42" height="9.42" transform="translate(422.75 69.96) rotate(90)" style="fill:#c7c7c7"></rect><rect x="173.63" y="249.79" width="5.54" height="9.42" transform="translate(430.9 78.11) rotate(90)" style="fill:#dbdbdb"></rect><rect x="175.37" y="227.4" width="2.06" height="9.42" transform="translate(408.51 55.72) rotate(90)" style="fill:#dbdbdb"></rect><rect x="61.98" y="238.08" width="54.82" height="12.18" transform="translate(-154.77 333.56) rotate(-90)" style="fill:#c7c7c7"></rect><rect x="86.38" y="229.21" width="6.02" height="12.18" transform="translate(-145.91 324.69) rotate(-90)" style="fill:#dbdbdb"></rect><rect x="88.27" y="261.1" width="2.24" height="12.18" transform="translate(356.58 177.79) rotate(90)" style="fill:#dbdbdb"></rect><rect x="88.27" y="250.79" width="2.24" height="12.18" transform="translate(346.28 167.49) rotate(90)" style="fill:#dbdbdb"></rect><rect x="89.97" y="237.33" width="56.87" height="11.61" transform="translate(361.54 124.72) rotate(90)" style="fill:#c7c7c7"></rect><rect x="115.28" y="246.52" width="6.25" height="11.61" transform="translate(370.73 133.91) rotate(90)" style="fill:#dbdbdb"></rect><rect x="117.25" y="221.27" width="2.32" height="11.61" transform="translate(345.48 108.66) rotate(90)" style="fill:#dbdbdb"></rect><rect x="70.28" y="240.19" width="56.58" height="6.18" transform="translate(341.85 144.7) rotate(90)" style="fill:#dbdbdb"></rect><rect x="87.72" y="229.33" width="21.76" height="3.71" transform="translate(329.78 132.59) rotate(90)" style="fill:#ebebeb"></rect><rect x="134.75" y="234.63" width="53.78" height="20.09" transform="translate(-83.03 406.32) rotate(-90)" style="fill:#dbdbdb"></rect><rect x="151.21" y="250.14" width="20.68" height="12.05" transform="translate(-94.61 417.72) rotate(-90)" style="fill:#ebebeb"></rect><rect x="118.49" y="238.47" width="48.05" height="18.16" transform="translate(390.07 105.03) rotate(90)" style="fill:#a6a6a6"></rect><rect x="140.28" y="255.16" width="4.48" height="18.16" transform="translate(406.76 121.72) rotate(90)" style="fill:#c7c7c7"></rect><rect x="141.65" y="249.11" width="1.74" height="18.16" transform="translate(400.71 115.68) rotate(90)" style="fill:#c7c7c7"></rect><rect x="159.43" y="239.46" width="53.79" height="10.43" transform="translate(431.01 58.35) rotate(90)" style="fill:#a6a6a6"></rect><rect x="183.82" y="258.15" width="5.01" height="10.43" transform="translate(449.69 77.04) rotate(90)" style="fill:#c7c7c7"></rect><rect x="183.82" y="226.16" width="5.01" height="10.43" transform="translate(417.71 45.05) rotate(90)" style="fill:#c7c7c7"></rect><rect x="185.35" y="233.08" width="1.94" height="10.43" transform="translate(424.62 51.97) rotate(90)" style="fill:#c7c7c7"></rect><rect x="81.66" y="240.63" width="50.94" height="10.95" transform="translate(353.24 138.97) rotate(90)" style="fill:#a6a6a6"></rect><rect x="104.76" y="258.33" width="4.75" height="10.95" transform="translate(370.93 156.67) rotate(90)" style="fill:#c7c7c7"></rect><rect x="104.76" y="228.04" width="4.75" height="10.95" transform="translate(340.64 126.38) rotate(90)" style="fill:#c7c7c7"></rect><rect x="106.21" y="234.58" width="1.84" height="10.95" transform="translate(347.19 132.92) rotate(90)" style="fill:#c7c7c7"></rect><rect x="101.76" y="239.89" width="54.14" height="9.22" transform="translate(-115.68 373.33) rotate(-90)" style="fill:#dbdbdb"></rect><rect x="126.3" y="221.09" width="5.05" height="9.22" transform="translate(-96.87 354.52) rotate(-90)" style="fill:#ebebeb"></rect><rect x="126.3" y="253.28" width="5.05" height="9.22" transform="translate(-129.07 386.72) rotate(-90)" style="fill:#ebebeb"></rect><rect x="127.85" y="246.32" width="1.96" height="9.22" transform="translate(-122.11 379.76) rotate(-90)" style="fill:#ebebeb"></rect><polygon points="337.83 364.43 465.94 364.43 470.06 283.14 333.71 283.14 337.83 364.43" style="fill:#ebebeb"></polygon><path d="M456.55,320.35H343.73l-1.56-28.22H458.36Zm-111.87-1H455.61l1.69-26.22H343.23Z" style="fill:#dbdbdb"></path><path d="M455,352.81H347l-1.26-25.47H456.62Zm-107.1-1H454.08l1.47-23.47H346.76Z" style="fill:#dbdbdb"></path><path d="M413.12,309.3H389.2l-.88-6.81H414Zm-23-1h22.16l.62-4.81h-23.4Z" style="fill:#dbdbdb"></path><path d="M413.12,343.48H389.2l-.88-6.81H414Zm-23-1h22.16l.62-4.81h-23.4Z" style="fill:#dbdbdb"></path><polygon points="355.6 364.43 354.36 373.28 351.85 391.07 346.96 391.07 346.96 364.43 355.6 364.43" style="fill:#ebebeb"></polygon><polygon points="355.6 364.43 354.36 373.28 346.96 373.28 346.96 364.43 355.6 364.43" style="fill:#dbdbdb"></polygon><polygon points="448.18 364.43 449.42 373.28 451.92 391.07 456.81 391.07 456.81 364.43 448.18 364.43" style="fill:#ebebeb"></polygon><polygon points="448.18 364.43 449.42 373.28 456.81 373.28 456.81 364.43 448.18 364.43" style="fill:#dbdbdb"></polygon><rect x="409.55" y="244.23" width="50.42" height="9.42" style="fill:#c7c7c7"></rect><rect x="440.14" y="244.23" width="5.54" height="9.42" style="fill:#dbdbdb"></rect><rect x="419.5" y="244.23" width="2.06" height="9.42" style="fill:#dbdbdb"></rect><rect x="397.83" y="233.79" width="63.83" height="10.43" style="fill:#a6a6a6"></rect><rect x="448.94" y="233.79" width="5.95" height="10.43" style="fill:#c7c7c7"></rect><rect x="410.98" y="233.79" width="5.95" height="10.43" style="fill:#c7c7c7"></rect><rect x="421.01" y="233.79" width="2.31" height="10.43" style="fill:#c7c7c7"></rect><rect x="410.35" y="260.7" width="54.14" height="9.22" transform="translate(874.84 530.62) rotate(180)" style="fill:#a6a6a6"></rect><rect x="416.09" y="260.7" width="5.05" height="9.22" transform="translate(837.23 530.62) rotate(180)" style="fill:#ebebeb"></rect><rect x="448.29" y="260.7" width="5.05" height="9.22" transform="translate(901.62 530.62) rotate(180)" style="fill:#ebebeb"></rect><rect x="442.87" y="260.7" width="1.96" height="9.22" transform="translate(887.7 530.62) rotate(180)" style="fill:#ebebeb"></rect><rect x="394.77" y="269.92" width="66.98" height="13.22" style="fill:#c7c7c7"></rect><rect x="394.77" y="271.29" width="42.66" height="10.48" style="fill:#fff"></rect><path d="M397.53,273.44q5-.1,10-.15l10-.05,10,.05c3.33,0,6.65.08,10,.15-3.33.08-6.65.13-10,.16l-10,0-10,0Q402.52,273.55,397.53,273.44Z" style="fill:#dbdbdb"></path><path d="M397.53,275.5c3.33-.07,6.65-.13,10-.16l10,0,10,0c3.33,0,6.65.08,10,.16-3.33.07-6.65.13-10,.15l-10,.05-10-.05C404.18,275.63,400.86,275.57,397.53,275.5Z" style="fill:#dbdbdb"></path><path d="M397.53,277.55q5-.1,10-.15l10,0,10,0c3.33,0,6.65.08,10,.15-3.33.08-6.65.13-10,.16l-10,.05-10-.05Q402.52,277.67,397.53,277.55Z" style="fill:#dbdbdb"></path><path d="M397.53,279.61c3.33-.07,6.65-.13,10-.15l10,0,10,0c3.33,0,6.65.09,10,.16-3.33.07-6.65.13-10,.16l-10,0-10-.05C404.18,279.74,400.86,279.68,397.53,279.61Z" style="fill:#dbdbdb"></path><rect x="395.51" y="253.65" width="60.83" height="7.05" style="fill:#ebebeb"></rect><rect x="420.61" y="254.38" width="35.74" height="5.59" transform="translate(876.96 514.35) rotate(180)" style="fill:#fff"></rect><path d="M454,258.82c-2.78,0-5.57.05-8.35.06l-8.36,0-8.35,0c-2.79,0-5.57,0-8.36-.06,2.79,0,5.57-.05,8.36-.06l8.35,0,8.36,0C448.46,258.77,451.25,258.79,454,258.82Z" style="fill:#dbdbdb"></path><path d="M454,257.72c-2.78,0-5.57,0-8.35.06l-8.36,0-8.35,0c-2.79,0-5.57,0-8.36-.06,2.79,0,5.57-.05,8.36-.06h16.71Z" style="fill:#dbdbdb"></path><path d="M454,256.63c-2.78,0-5.57.05-8.35.06l-8.36,0-8.35,0c-2.79,0-5.57,0-8.36-.06,2.79,0,5.57-.05,8.36-.06l8.35,0,8.36,0C448.46,256.58,451.25,256.6,454,256.63Z" style="fill:#dbdbdb"></path><path d="M454,255.53c-2.78,0-5.57.05-8.35.06l-8.36,0-8.35,0c-2.79,0-5.57,0-8.36-.06,2.79,0,5.57-.05,8.36-.06l8.35,0,8.36,0C448.46,255.48,451.25,255.5,454,255.53Z" style="fill:#dbdbdb"></path><rect x="342.73" y="112.51" width="33.23" height="33.23" transform="translate(718.7 258.25) rotate(180)" style="fill:#dbdbdb"></rect><rect x="347.88" y="117.66" width="22.93" height="22.93" transform="translate(718.7 258.25) rotate(180)" style="fill:#fff"></rect><polygon points="370.81 117.66 370.81 140.59 347.88 140.59 370.81 117.66" style="fill:#ebebeb"></polygon><rect x="342.73" y="71.64" width="33.23" height="33.23" transform="translate(718.7 176.52) rotate(180)" style="fill:#dbdbdb"></rect><rect x="347.88" y="76.8" width="22.93" height="22.93" transform="translate(718.7 176.52) rotate(180)" style="fill:#fff"></rect><polygon points="370.81 83.53 370.81 99.72 354.62 99.72 370.81 83.53" style="fill:#ebebeb"></polygon><rect x="291.34" y="71.64" width="43.43" height="74.37" transform="translate(626.12 217.66) rotate(180)" style="fill:#dbdbdb"></rect><rect x="296.71" y="77.07" width="32.69" height="63.52" transform="translate(626.12 217.66) rotate(180)" style="fill:#fff"></rect><polygon points="329.41 98.95 329.41 140.59 307.98 140.59 329.41 98.95" style="fill:#ebebeb"></polygon><rect x="383.71" y="71.64" width="74.37" height="74.37" transform="translate(841.8 217.66) rotate(180)" style="fill:#dbdbdb"></rect><rect x="389.15" y="77.07" width="63.51" height="63.52" style="fill:#fff"></rect><path d="M406.93,140.59c9.6-9.66,36.83-37,45.73-45.81v45.81Z" style="fill:#ebebeb"></path></g><g id="freepik--Floor--inject-77"><polygon points="29.7 391.07 84.78 390.83 139.85 390.74 250 390.58 360.15 390.74 415.22 390.83 470.3 391.07 415.22 391.32 360.15 391.41 250 391.57 139.85 391.41 84.78 391.32 29.7 391.07" style="fill:#263238"></polygon></g><g id="freepik--Shadow--inject-77"><ellipse cx="250" cy="440.28" rx="204.27" ry="25.43" style="fill:#ebebeb"></ellipse></g><g id="freepik--Books--inject-77"><rect x="198.52" y="338.38" width="205.71" height="40.59" transform="translate(602.75 717.34) rotate(180)" style="fill:#2B9B52"></rect><rect x="365.82" y="338.38" width="20.1" height="40.59" transform="translate(751.75 717.34) rotate(180)" style="fill:#37474f"></rect><rect x="349.98" y="338.38" width="8.39" height="40.59" transform="translate(708.35 717.34) rotate(180)" style="fill:#37474f"></rect><rect x="217.22" y="338.38" width="20.1" height="40.59" transform="translate(454.54 717.34) rotate(180)" style="fill:#37474f"></rect><rect x="50.84" y="323.4" width="205.71" height="30.17" transform="translate(-212.91 400.08) rotate(-75.12)" style="fill:#37474f"></rect><rect x="124.51" y="395.4" width="20.1" height="30.17" transform="translate(-296.72 435.1) rotate(-75.12)" style="fill:#2B9B52"></rect><rect x="162.68" y="251.78" width="20.1" height="30.17" transform="translate(-129.55 365.26) rotate(-75.12)" style="fill:#2B9B52"></rect><rect x="154.97" y="420.58" width="238.25" height="20.29" transform="translate(548.2 861.46) rotate(180)" style="fill:#2B9B52"></rect><rect x="330.4" y="420.58" width="9.71" height="20.29" transform="translate(670.51 861.46) rotate(180)" style="fill:#a6a6a6"></rect><rect x="346.52" y="420.58" width="9.71" height="20.29" transform="translate(702.76 861.46) rotate(180)" style="fill:#a6a6a6"></rect><rect x="178.74" y="420.58" width="9.71" height="20.29" transform="translate(367.2 861.46) rotate(180)" style="fill:#a6a6a6"></rect><rect x="194.87" y="420.58" width="9.71" height="20.29" transform="translate(399.45 861.46) rotate(180)" style="fill:#a6a6a6"></rect><rect x="177.44" y="308.09" width="142.7" height="30.28" style="fill:#455a64"></rect><rect x="320.13" y="308.09" width="81.35" height="30.28" style="fill:#455a64"></rect><rect x="177.44" y="311.23" width="142.7" height="24" style="fill:#fff"></rect><path d="M186.67,316.17q16.68-.26,33.37-.35l33.36-.11,33.37.11q16.68.09,33.36.35-16.68.25-33.36.36l-33.37.1L220,316.52Q203.36,316.43,186.67,316.17Z" style="fill:#dbdbdb"></path><path d="M186.67,320.88q16.68-.25,33.37-.36l33.36-.1,33.37.1q16.68.11,33.36.36-16.68.25-33.36.35l-33.37.11L220,321.23Q203.36,321.14,186.67,320.88Z" style="fill:#dbdbdb"></path><path d="M186.67,325.59q16.68-.25,33.37-.36l33.36-.1,33.37.1q16.68.09,33.36.36-16.68.26-33.36.35l-33.37.11L220,325.94Q203.36,325.85,186.67,325.59Z" style="fill:#dbdbdb"></path><path d="M186.67,330.3q16.68-.26,33.37-.36l33.36-.11,33.37.11q16.68.09,33.36.36-16.68.26-33.36.35l-33.37.11L220,330.65Q203.36,330.56,186.67,330.3Z" style="fill:#dbdbdb"></path><rect x="191.34" y="219.01" width="116.79" height="21.74" style="fill:#a6a6a6"></rect><rect x="308.13" y="219.01" width="66.58" height="21.74" style="fill:#a6a6a6"></rect><rect x="191.34" y="221.27" width="116.79" height="17.23" style="fill:#fff"></rect><path d="M198.9,224.81q13.66-.18,27.31-.25l27.31-.08,27.31.08q13.65.06,27.3.25-13.65.18-27.3.26l-27.31.07-27.31-.07Q212.56,225,198.9,224.81Z" style="fill:#dbdbdb"></path><path d="M198.9,228.19q13.66-.18,27.31-.25l27.31-.08,27.31.08q13.65.06,27.3.25-13.65.18-27.3.26l-27.31.07-27.31-.07Q212.56,228.38,198.9,228.19Z" style="fill:#dbdbdb"></path><path d="M198.9,231.57q13.66-.18,27.31-.25l27.31-.08,27.31.08q13.65.06,27.3.25-13.65.19-27.3.26l-27.31.07-27.31-.07Q212.56,231.76,198.9,231.57Z" style="fill:#dbdbdb"></path><path d="M198.9,235q13.66-.18,27.31-.25l27.31-.08,27.31.08q13.65.06,27.3.25-13.65.2-27.3.26l-27.31.07-27.31-.07Q212.56,235.14,198.9,235Z" style="fill:#dbdbdb"></path><polygon points="155.64 273.99 127.2 380.84 110.98 441.76 95.33 437.59 111.55 376.67 139.99 269.82 155.64 273.99" style="fill:#2B9B52"></polygon><polygon points="155.64 273.99 127.2 380.84 110.98 441.76 95.33 437.59 111.55 376.67 139.99 269.82 155.64 273.99" style="opacity:0.1"></polygon><rect x="78.31" y="318.91" width="110.57" height="12.84" transform="translate(482.34 279.92) rotate(104.91)" style="fill:#fff"></rect><path d="M149.62,279.79q-3.18,12.52-6.46,25l-6.6,25-6.7,25q-3.38,12.48-6.84,24.94,3.2-12.53,6.47-25l6.59-25,6.71-25Q146.17,292.25,149.62,279.79Z" style="fill:#dbdbdb"></path><path d="M147.19,279.14q-3.19,12.54-6.47,25l-6.59,25-6.71,25q-3.37,12.48-6.83,24.94,3.19-12.52,6.47-25l6.59-25,6.71-25Q143.74,291.6,147.19,279.14Z" style="fill:#dbdbdb"></path><path d="M144.76,278.5q-3.19,12.53-6.47,25l-6.59,25-6.71,25q-3.37,12.48-6.83,24.93,3.18-12.53,6.46-25l6.6-25,6.7-25Q141.29,291,144.76,278.5Z" style="fill:#dbdbdb"></path><path d="M142.32,277.85q-3.18,12.52-6.46,25l-6.6,25-6.7,25q-3.37,12.48-6.84,24.93,3.19-12.52,6.47-25l6.59-25,6.71-25Q138.87,290.3,142.32,277.85Z" style="fill:#dbdbdb"></path><rect x="257.27" y="378.96" width="119.55" height="41.62" transform="translate(634.09 799.54) rotate(180)" style="fill:#263238"></rect><rect x="173.3" y="378.96" width="83.97" height="41.62" transform="translate(430.57 799.54) rotate(180)" style="fill:#263238"></rect><rect x="257.27" y="383.28" width="119.55" height="32.98" transform="translate(634.09 799.54) rotate(180)" style="fill:#fff"></rect><path d="M369.08,409.48q-14,.25-27.95.35l-27.95.11-28-.11q-14-.09-28-.35,14-.25,28-.36l28-.1,27.95.1Q355.11,409.23,369.08,409.48Z" style="fill:#dbdbdb"></path><path d="M369.08,403q-14,.25-27.95.35l-27.95.11-28-.11q-14-.09-28-.35,14-.25,28-.36l28-.1,27.95.1Q355.11,402.74,369.08,403Z" style="fill:#dbdbdb"></path><path d="M369.08,396.54q-14,.25-27.95.35l-27.95.11-28-.11q-14-.09-28-.35,14-.26,28-.36l28-.11,27.95.11Q355.11,396.27,369.08,396.54Z" style="fill:#dbdbdb"></path><path d="M369.08,390.07q-14,.26-27.95.35l-27.95.11-28-.11q-14-.09-28-.35,14-.27,28-.36l28-.11,27.95.11Q355.11,389.8,369.08,390.07Z" style="fill:#dbdbdb"></path><rect x="185.43" y="279.85" width="219.42" height="28.36" style="fill:#c7c7c7"></rect><rect x="206.06" y="285.64" width="84.39" height="17.02" style="fill:#fff"></rect><rect x="310.82" y="285.64" width="79.22" height="2.63" style="fill:#fff"></rect><rect x="310.82" y="292.72" width="79.22" height="2.63" style="fill:#fff"></rect><rect x="310.82" y="299.79" width="79.22" height="2.63" style="fill:#fff"></rect><rect x="200.6" y="240.75" width="161.8" height="38.97" style="fill:#2B9B52"></rect><rect x="330.16" y="240.75" width="15.08" height="38.97" style="fill:#263238"></rect><rect x="314.42" y="240.75" width="5.85" height="38.97" style="fill:#263238"></rect></g><g id="freepik--Plant--inject-77"><path d="M78.08,364.13c6.35-13.06,17.46-19.76,30-16.05s14.46,21.16,5.12,25.57-18.7-8.47-23.64-11.11S78.08,364.13,78.08,364.13Z" style="fill:#2B9B52"></path><path d="M71.93,398.87c0-1.58.1-3.15.15-4.72.11-3.14.22-6.29.34-9.43.21-5.74.83-11.38,3.21-16.68A25.83,25.83,0,0,1,85.7,356.43a21.39,21.39,0,0,1,5.3-2.28,12.28,12.28,0,0,1,6.17-3.39,25.08,25.08,0,0,1,8.81-.22c.11,0,.1.17,0,.16a21.35,21.35,0,0,0-8.34.59,17.77,17.77,0,0,0-3.35,1.31,16.76,16.76,0,0,0-1.94,1.23,18,18,0,0,1,7.65.08,17.48,17.48,0,0,1,2.65.87,8.21,8.21,0,0,1,2.09-.18,12.39,12.39,0,0,1,2.71.39,20.55,20.55,0,0,1,5.15,2.25c.1.05,0,.19-.08.14a19.22,19.22,0,0,0-5-1.89,16.06,16.06,0,0,0-2.58-.38,13.79,13.79,0,0,0-1.44,0,16.58,16.58,0,0,1,8.09,8.07c0,.1-.1.18-.14.08A15.2,15.2,0,0,0,101.1,355c-.28-.07-.56-.11-.84-.17.1.41.08.87.14,1.27.08.63.19,1.26.31,1.89a33.6,33.6,0,0,0,1,3.82,30.72,30.72,0,0,0,1.52,3.71,17.61,17.61,0,0,0,2.12,3.57c.07.09-.07.2-.13.1-.76-1.18-1.63-2.27-2.32-3.49a27.35,27.35,0,0,1-1.7-3.64,25.37,25.37,0,0,1-1.11-3.92c-.14-.7-.25-1.41-.33-2.12a4.67,4.67,0,0,1-.08-1.29,17,17,0,0,0-4.45-.1c.56,3.12,1.16,6.36,2.9,9.07.06.09-.1.17-.15.08a38.12,38.12,0,0,1-2.15-4.46,17.13,17.13,0,0,1-1.07-4.63,20.42,20.42,0,0,0-7.35,2.46,24.22,24.22,0,0,0-9.79,10.71A40.25,40.25,0,0,0,74,383.21c-.42,6.67-.5,13.38-1.17,20,0,.43-.73.58-.81.09A22.92,22.92,0,0,1,71.93,398.87Z" style="fill:#263238"></path><path d="M86.61,355.39a7,7,0,0,1,1.44-1.33c.52-.43,1-.85,1.61-1.23a12,12,0,0,1,3.61-1.67c.1,0,.14.14,0,.16a9.41,9.41,0,0,0-3.56,1.75c-.53.39-1,.81-1.54,1.24a9.5,9.5,0,0,1-1.45,1.24C86.66,355.6,86.54,355.48,86.61,355.39Z" style="fill:#263238"></path><path d="M106.87,360.12a37.37,37.37,0,0,1,2.91,3.85,23.12,23.12,0,0,1,2.17,4.3s0,.07-.08,0a50.94,50.94,0,0,0-5.12-8.07C106.68,360.15,106.8,360,106.87,360.12Z" style="fill:#263238"></path><path d="M93.21,358.83a9.33,9.33,0,0,0,.72,2.36,15.54,15.54,0,0,0,1.21,2.09s0,.09-.07.05a8.49,8.49,0,0,1-2-4.46C93,358.76,93.19,358.72,93.21,358.83Z" style="fill:#263238"></path><path d="M72.82,364.45s-9-11.3-26.34-7.3C30,361,22.37,391.2,39,394.82s13.73-24.37,19.8-29.12C63.3,362.22,69.71,363,72.82,364.45Z" style="fill:#2B9B52"></path><path d="M33.07,373.67a33.91,33.91,0,0,1,3.58-2.74,15.25,15.25,0,0,1,3.81-1.9,22,22,0,0,1,2.26-2.91A22.37,22.37,0,0,1,48,361.94l-.52,0c-.92,0-1.84,0-2.76,0a15.27,15.27,0,0,0-5.35,1.34c-.1,0-.17-.11-.07-.15a23.82,23.82,0,0,1,5.34-1.61,14.53,14.53,0,0,1,2.71-.24c.49,0,1,0,1.46.09l.28,0a23.24,23.24,0,0,1,5-1.84l-.48-.13A22.55,22.55,0,0,0,51,359a19.69,19.69,0,0,0-5.2.08c-.1,0-.13-.15,0-.17a32.94,32.94,0,0,1,5.25-.21,22.47,22.47,0,0,1,4.37.57,22.15,22.15,0,0,1,3.16-.36c6-.26,12.65,2,16.37,7s4.46,11.62,5.12,17.63a134.55,134.55,0,0,1,.66,25.22c0,.5-.74.4-.75-.07-.23-7.13-.48-14.26-1.16-21.37-.32-3.29-.67-6.59-1.22-9.85a28.75,28.75,0,0,0-2.39-8.12A14.82,14.82,0,0,0,69.33,363,19.68,19.68,0,0,0,61,360.47a22.44,22.44,0,0,0-7.79.72,5.3,5.3,0,0,1,0,1.54,9.55,9.55,0,0,1-.38,1.9,10.41,10.41,0,0,1-.73,1.68c-.32.6-.72,1.13-1.08,1.7-.06.09-.2,0-.14-.1a7.91,7.91,0,0,0,1.35-3.42,13.15,13.15,0,0,0,.21-1.77c0-.44,0-.9,0-1.34a22.89,22.89,0,0,0-7.57,4c-.43.34-.83.7-1.23,1.06a8.65,8.65,0,0,1,1.47,1.81A17.61,17.61,0,0,1,46.74,371a23.27,23.27,0,0,1,1.61,6,.09.09,0,0,1-.17,0,17.43,17.43,0,0,0-2-5.72,23.52,23.52,0,0,0-1.54-2.54c-.29-.42-.59-.83-.91-1.23-.17-.21-.36-.43-.52-.66a23.89,23.89,0,0,0-4.92,6.93h0a11.88,11.88,0,0,1,2,2.92A28.16,28.16,0,0,1,42,380.25a57.82,57.82,0,0,1,2.07,7.07c0,.11-.14.14-.16,0a30,30,0,0,0-2.46-7c-.52-1.08-1.07-2.15-1.64-3.21a27.78,27.78,0,0,1-1.63-3,22.06,22.06,0,0,0-2,8c0,.11-.18.09-.17,0a28,28,0,0,1,3.9-12.34c-1.06.45-2.13.89-3.15,1.44a17.42,17.42,0,0,0-3.61,2.54C33.1,373.87,33,373.74,33.07,373.67Z" style="fill:#263238"></path><path d="M45.8,374.31c.52,1.71,1.18,3.38,1.65,5.11a19.55,19.55,0,0,1,.76,5.1c0,.05-.07.05-.08,0a49.29,49.29,0,0,0-2.49-10.16A.08.08,0,1,1,45.8,374.31Z" style="fill:#263238"></path><path d="M34.81,370.06a9.35,9.35,0,0,1,2.3-1.64,15.56,15.56,0,0,1,2.66-.94c.1,0,.13.14,0,.16a10.22,10.22,0,0,0-2.56,1.05,20.15,20.15,0,0,0-2.36,1.45A.05.05,0,1,1,34.81,370.06Z" style="fill:#263238"></path><path d="M64.27,349.36s-1.65-20.3-16.75-26.88c-12.6-5.5-19.81,8.66-10.9,17.33C43.82,346.82,55.38,343.66,64.27,349.36Z" style="fill:#2B9B52"></path><path d="M39.41,326.41a62.28,62.28,0,0,1,6.71,3.18,48.51,48.51,0,0,1,5.21,3.46c-.25-.52-.47-1.06-.72-1.56-.4-.78-.82-1.55-1.28-2.29A21.51,21.51,0,0,0,46,325c-.07-.07,0-.19.12-.11a32.26,32.26,0,0,1,3.5,4.07,24.65,24.65,0,0,1,1.44,2.3,9.45,9.45,0,0,1,1,2.33c0,.05.11.08.17.13a49,49,0,0,1,7.2,7.05c0-.2-.08-.4-.13-.58-.28-1-.59-2-.92-2.95a25,25,0,0,0-2.72-5.92.08.08,0,1,1,.14-.08A45.48,45.48,0,0,1,59,337a21.29,21.29,0,0,1,1,3,12.42,12.42,0,0,1,.5,2c.65.83,1.3,1.67,1.91,2.54,6.48,9.22,9.73,20.38,10.51,31.54a98.1,98.1,0,0,1,.17,10,62.55,62.55,0,0,1-.89,10c0,.21-.37.14-.36-.06.07-2.94.38-5.86.43-8.79A86.34,86.34,0,0,0,72,378.5a81.9,81.9,0,0,0-3.29-17.28A62,62,0,0,0,61,345c-.64-.13-1.27-.3-1.9-.46l-2.25-.6a23.32,23.32,0,0,1-4.21-1.54c-.1-.05,0-.2.09-.15A13.41,13.41,0,0,0,57,343.72c1.18.23,2.41.39,3.59.66a54.35,54.35,0,0,0-3.51-4.61,26.38,26.38,0,0,1-8.58-.65,33.29,33.29,0,0,1-4.39-1.36c-1.52-.59-3-1.33-4.44-2-.11,0,0-.21.07-.15a25.1,25.1,0,0,0,8.7,2.85,52.89,52.89,0,0,0,8.14.67c-1.07-1.23-2.18-2.42-3.36-3.55-4-3.78-8.67-7.24-13.89-9.05C39.26,326.53,39.31,326.37,39.41,326.41Z" style="fill:#263238"></path><path d="M51.69,326.47a24,24,0,0,1,1.85,2.71,14.32,14.32,0,0,1,1.33,3.15s0,.05-.06,0c-.5-1-.93-2-1.44-3a15.06,15.06,0,0,0-1.8-2.74C51.5,326.5,51.62,326.39,51.69,326.47Z" style="fill:#263238"></path><path d="M37.66,333.23a15.52,15.52,0,0,0,3.09,1.29,30.45,30.45,0,0,0,3.15.85,0,0,0,0,1,0,.09,15.92,15.92,0,0,1-3.27-.72,28.7,28.7,0,0,1-3-1.37C37.47,333.32,37.56,333.17,37.66,333.23Z" style="fill:#263238"></path><path d="M76,345.7c.09.88,2.28-7.37,15-14.69,11.59-6.65,25.42-23.94,14.06-34.87C95.94,287.33,71.77,306.55,76,345.7Z" style="fill:#2B9B52"></path><path d="M67.22,393a224.62,224.62,0,0,1,2-25.65,115.34,115.34,0,0,1,5.39-23c1-2.68,2-5.32,3.21-7.92a19.23,19.23,0,0,1,.05-3c.06-1.3.18-2.59.3-3.89s.25-2.59.41-3.88.43-2.58.48-3.87a.08.08,0,1,1,.16,0,28.4,28.4,0,0,0-.46,4.11c-.09,1.25-.17,2.51-.2,3.76s0,2.51,0,3.77c0,.45,0,.93,0,1.42,1.2-2.54,2.49-5,3.88-7.47-.86-5.29.26-10.82,1.34-16,0-.1.18-.06.16.05a45.08,45.08,0,0,0-.84,8.2c0,2.17.05,4.34.06,6.51.31-.52.61-1,.92-1.55q2.49-4.06,5.3-7.92a12.54,12.54,0,0,1,.13-3.77,28.86,28.86,0,0,1,.92-4.12c.41-1.35.88-2.68,1.42-4s1.28-2.62,1.82-4a.08.08,0,1,1,.15.07,19,19,0,0,0-1.6,4,34.07,34.07,0,0,0-1,4c-.27,1.34-.49,2.69-.68,4-.13.9-.21,1.83-.36,2.74a97.34,97.34,0,0,1,8.93-10.4.09.09,0,0,1,.12.12,117.89,117.89,0,0,0-13,17.65l-.41.71c.71-.44,1.51-.79,2.17-1.16,1.24-.68,2.48-1.37,3.73-2s2.41-1.31,3.61-2c.62-.34,1.23-.7,1.86-1a15.66,15.66,0,0,0,2.16-1.2c.1-.07.2.08.1.13-1.23.68-2.31,1.68-3.5,2.44s-2.41,1.49-3.64,2.18c-2.27,1.27-4.74,2.18-7,3.49-1.55,2.71-3,5.49-4.29,8.32,1.35-.87,2.74-1.69,4.14-2.48.91-.5,1.81-1,2.73-1.49a12.92,12.92,0,0,0,2.57-1.55c.08-.07.19.05.11.12a23.48,23.48,0,0,1-4.9,3.41c-1.64,1-3.29,1.89-5,2.72-1.36,3-2.6,6-3.69,9.13-5.37,15.21-7.35,31.35-8.29,47.39-.28,4.78-.42,9.56-.48,14.34s.19,9.56.18,14.34c0,.14-.23.17-.25,0-.58-4.24-.68-8.55-.86-12.82S67.13,397.33,67.22,393Z" style="fill:#263238"></path><path d="M90.41,324.14a64.92,64.92,0,0,0,6.78-3.51,74.28,74.28,0,0,0,6.43-4.09s.08,0,0,.06a53.86,53.86,0,0,1-6.18,4.32,61.57,61.57,0,0,1-7,3.36C90.39,324.32,90.31,324.18,90.41,324.14Z" style="fill:#263238"></path><path d="M86.71,306.94c.19-.74.42-1.47.67-2.19,0,0,0-.05,0-.08.16-.42.33-.82.5-1.23l.06-.15.09-.23s0,0,0,0l-.12.42a2.17,2.17,0,0,1-.07.24A60.75,60.75,0,0,0,86,312.39c0,.09-.16.1-.15,0A28.84,28.84,0,0,1,86.71,306.94Z" style="fill:#263238"></path><polygon points="53.74 396.07 54.65 406.86 57.44 439.77 87.3 439.77 90.08 406.86 90.99 396.07 53.74 396.07" style="fill:#455a64"></polygon><polygon points="53.74 396.07 54.65 406.86 90.08 406.86 90.99 396.07 53.74 396.07" style="fill:#263238"></polygon><rect x="50.81" y="391.74" width="43.11" height="10.35" transform="translate(144.73 793.82) rotate(180)" style="fill:#455a64"></rect></g></svg>