<svg xmlns="http://www.w3.org/2000/svg" viewBox="0 0 750 500"><g id="freepik--Arrow--inject-129"><path d="M129.52,465.72c33.34-5.56,120.16-23.7,144.81-35.79,136.7-65.88,202-294,202.81-296.23H587.2c-.82,2.18-13.79,39.52-68.69,143.76-33.94,61.94-83.06,103.23-141,137.15C278,472.82,129.52,465.72,129.52,465.72Z" style="fill:#65C7E8"></path><g style="opacity:0.1"><path d="M129.52,465.72c33.34-5.56,120.16-23.7,144.81-35.79,136.7-65.88,202-294,202.81-296.23H587.2c-.82,2.18-13.79,39.52-68.69,143.76-33.94,61.94-83.06,103.23-141,137.15C278,472.82,129.52,465.72,129.52,465.72Z"></path></g><path d="M451.57,122.27l25.57,11.43c-.7,1.86-34.77,177.4-139,261.66C265,454.48,218.19,468.36,59.29,466V435.12c89.67,0,153.64-2.9,212-33.35C403,333.06,451.37,122.78,451.57,122.27Z" style="fill:#65C7E8"></path><polygon points="451.57 122.27 570.19 122.27 587.2 133.7 477.14 133.7 451.57 122.27" style="fill:#65C7E8"></polygon><polygon points="541.92 48.77 619.05 146.3 437.27 145.81 541.92 48.77" style="fill:#65C7E8"></polygon><g style="opacity:0.1"><polygon points="541.92 48.77 619.05 146.3 437.27 145.81 541.92 48.77"></polygon></g><polygon points="437.27 145.81 410.83 133.7 515.48 36.66 541.92 48.77 437.27 145.81" style="fill:#65C7E8"></polygon></g></svg>
