<svg xmlns="http://www.w3.org/2000/svg" viewBox="0 0 500 500"><path d="M417.41 315.74h26.48v11.19h-26.48z" style="fill:#ebebeb" transform="rotate(180 430.645 321.335)"/><path d="M432.18 329.85h26.48v11.19h-26.48z" style="fill:#ebebeb" transform="rotate(180 445.42 335.445)"/><path d="M206.42 192.16h26.48v11.19h-26.48z" style="fill:#ebebeb" transform="rotate(180 219.655 197.76)"/><path d="M221.19 206.27h26.48v11.19h-26.48z" style="fill:#ebebeb" transform="rotate(180 234.43 211.87)"/><path d="M235.9 192.16h26.48v11.19H235.9z" style="fill:#ebebeb" transform="rotate(180 249.14 197.76)"/><path d="M41.34 329.85h26.48v11.19H41.34z" style="fill:#ebebeb" transform="rotate(180 54.58 335.44)"/><path d="M56.11 46.74h26.48v11.19H56.11z" style="fill:#ebebeb" transform="rotate(180 69.355 52.33)"/><path d="M41.34 60.85h26.48v11.19H41.34z" style="fill:#ebebeb" transform="rotate(180 54.58 66.44)"/><path d="M417.41 46.74h26.48v11.19h-26.48z" style="fill:#ebebeb" transform="rotate(180 430.645 52.33)"/><path d="M307.84 71.26h142.8v159.32h-142.8z" style="fill:#dbdbdb"/><path d="M317.25 80.67h123.99v140.59H317.25z" style="fill:#ebebeb"/><path d="M328.46 105.53h43.7v51.79h-43.7z" style="fill:#fff"/><path d="M351.88 109.05a1.57 1.57 0 1 1-1.57-1.57 1.57 1.57 0 0 1 1.57 1.57" style="fill:#a6a6a6"/><path d="M336.78 115.9c4.42-.34 8.84-.36 13.25-.41s8.84.07 13.26.41c-4.42.34-8.84.36-13.26.41s-8.83-.07-13.25-.41M336.78 120a63.5 63.5 0 0 1 14.41 0 54 54 0 0 1-7.21.41 56 56 0 0 1-7.2-.41M336.78 124.09a92 92 0 0 1 9.21-.41 89 89 0 0 1 9.2.41c-3.07.32-6.13.39-9.2.41s-6.14-.09-9.21-.41M336.78 128.18c3.84-.32 7.68-.4 11.52-.41s7.68.09 11.52.41c-3.84.32-7.68.4-11.52.41s-7.68-.09-11.52-.41M336.78 132.27c3.33-.32 6.67-.39 10-.41s6.67.09 10 .41c-3.34.32-6.68.4-10 .41s-6.67-.09-10-.41M336.78 136.36c4.27-.34 8.54-.36 12.81-.41s8.54.07 12.81.41c-4.27.35-8.54.37-12.81.42s-8.54-.08-12.81-.42M336.78 140.46a74 74 0 0 1 8.27-.41 72 72 0 0 1 8.28.41 83.7 83.7 0 0 1-16.55 0M336.78 144.55c4.42-.34 8.84-.36 13.25-.41s8.84.07 13.26.41c-4.42.34-8.84.36-13.26.41s-8.83-.07-13.25-.41M336.78 148.64c4.42-.34 8.84-.36 13.25-.41s8.84.07 13.26.41c-4.42.34-8.84.37-13.26.41s-8.83-.05-13.25-.41" style="fill:#ebebeb"/><path d="M378.82 137.82h51.71v61.28h-51.71z" style="fill:#fff"/><path d="M385.13 142.28a1.57 1.57 0 1 1-1.57-1.57 1.57 1.57 0 0 1 1.57 1.57" style="fill:#a6a6a6"/><path d="M386.05 153.11a37 37 0 0 1 5.74-.42 35.7 35.7 0 0 1 5.73.42 40.3 40.3 0 0 1-11.47 0M386.05 157.73a62 62 0 0 1 7.43-.42 60 60 0 0 1 7.42.42 67.4 67.4 0 0 1-14.85 0M386.05 162.35a51 51 0 0 1 6.88-.41 49.5 49.5 0 0 1 6.88.41 58 58 0 0 1-13.76 0M386.05 167a51 51 0 0 1 6.88-.41 49.5 49.5 0 0 1 6.88.41 58 58 0 0 1-13.76 0M386.05 171.59a39 39 0 0 1 6-.41 37.7 37.7 0 0 1 6 .41 43.8 43.8 0 0 1-12 0M386.05 176.21a63 63 0 0 1 7.65-.41 61 61 0 0 1 7.65.41 71.6 71.6 0 0 1-15.3 0M386.05 180.83a48.8 48.8 0 0 1 12.63 0 48.8 48.8 0 0 1-12.63 0M386.05 185.45a76.6 76.6 0 0 1 15.83 0 76.6 76.6 0 0 1-15.83 0M386.05 190.07a76.6 76.6 0 0 1 15.83 0 76.6 76.6 0 0 1-15.83 0M408.65 153.11a63 63 0 0 1 7.52-.42 61 61 0 0 1 7.51.42 69 69 0 0 1-15 0ZM408.65 157.73a27.5 27.5 0 0 1 4.94-.42 26.5 26.5 0 0 1 4.94.42 30 30 0 0 1-9.88 0M408.65 162.35a54 54 0 0 1 7.07-.41 52 52 0 0 1 7.07.41 61.2 61.2 0 0 1-14.14 0M408.65 167a51 51 0 0 1 6.88-.41 50 50 0 0 1 6.88.41 58 58 0 0 1-13.76 0M408.65 171.59a61 61 0 0 1 7.52-.41 59 59 0 0 1 7.51.41 69 69 0 0 1-15 0ZM408.65 176.21a39 39 0 0 1 6-.41 37.5 37.5 0 0 1 6 .41 43.7 43.7 0 0 1-12 0M408.65 180.83a61.2 61.2 0 0 1 14.14 0 61.2 61.2 0 0 1-14.14 0M408.65 185.45a36.7 36.7 0 0 1 10.94 0 36.7 36.7 0 0 1-10.94 0M408.65 190.07a33.8 33.8 0 0 1 10.49 0 33.8 33.8 0 0 1-10.49 0" style="fill:#ebebeb"/><path d="M368.14 91.29h26.3v26.3h-26.3z" style="fill:#a6a6a6"/><path d="M382.86 94a1.57 1.57 0 1 1-1.57-1.57 1.57 1.57 0 0 1 1.57 1.57" style="fill:#ebebeb"/><path d="M437.58 80.67h3.55v140.75h-3.55z" style="fill:#c7c7c7"/><circle cx="121.49" cy="94.19" r="43.18" style="fill:#ebebeb" transform="rotate(-54.47 121.489 94.184)"/><circle cx="123.47" cy="95.15" r="41.2" style="fill:#dbdbdb" transform="rotate(-53.13 123.45 95.15)"/><circle cx="123.46" cy="95.15" r="38.6" style="fill:#fff" transform="rotate(-35.45 123.453 95.149)"/><path d="M161.19 87c-17.58 10.65-46.47 28.12-62.61 37.7A38.64 38.64 0 0 1 88 110.47L141.43 61a38.62 38.62 0 0 1 19.76 26M162 96.5a38.4 38.4 0 0 1-2.51 12.5l-48.15 22.77a39.5 39.5 0 0 1-6.08-2.61c14.55-8.37 41.12-23.66 56.74-32.66" style="fill:#ebebeb;opacity:.5"/><path d="M123.09 59.35h.75v5.85h-.75z" style="fill:#c7c7c7"/><path d="M106.66 63.75h.75v5.85h-.75z" style="fill:#c7c7c7" transform="rotate(-30 107.015 66.674)"/><path d="M94.62 75.79h.75v5.85h-.75z" style="fill:#c7c7c7" transform="rotate(-60.1 94.425 78.4)"/><path d="M87.67 94.78h5.85v.75h-5.85z" style="fill:#c7c7c7"/><path d="M92.07 111.21h5.85v.75h-5.85z" style="fill:#c7c7c7" transform="rotate(-30.01 95.009 111.6)"/><path d="M104.1 123.24h5.85v.75h-5.85z" style="fill:#c7c7c7" transform="rotate(-60.02 107.043 123.625)"/><path d="M123.09 125.1h.75v5.85h-.75z" style="fill:#c7c7c7"/><path d="M139.53 120.69h.75v5.85h-.75z" style="fill:#c7c7c7" transform="rotate(-30 139.895 123.625)"/><path d="M151.56 108.66h.75v5.85h-.75z" style="fill:#c7c7c7" transform="rotate(-59.99 151.943 111.588)"/><path d="M153.41 94.78h5.85v.75h-5.85z" style="fill:#c7c7c7"/><path d="M149.01 78.34h5.85v.75h-5.85z" style="fill:#c7c7c7" transform="rotate(-30.02 151.93 78.715)"/><path d="M136.98 66.31h5.85v.75h-5.85z" style="fill:#c7c7c7" transform="rotate(-60.03 139.897 66.678)"/><path d="m124.03 62 1.27 35.75-3.67-.04 1.4-35.72z" style="fill:#c7c7c7"/><path d="m146.3 82.68-24.06 15.35-1.75-3.21 25.33-13.01z" style="fill:#a6a6a6"/><path d="M124.71 95.15a1.25 1.25 0 1 1-1.25-1.25 1.24 1.24 0 0 1 1.25 1.25" style="fill:#c7c7c7"/><path d="m465.97 433-53.99.25-53.99.08-107.99.17-107.99-.16-53.99-.09-54-.25 54-.24 53.99-.09L250 432.5l107.99.17 53.99.09zM417.46 141.23a74 74 0 0 1 .35-9.17 75.5 75.5 0 0 1 1.35-9.07 74 74 0 0 1-.35 9.17 75.5 75.5 0 0 1-1.35 9.07M412.06 142.28a75 75 0 0 1-4.27-8.12 73 73 0 0 1-3.37-8.53 83.6 83.6 0 0 1 7.64 16.65M407.92 145.89a76 76 0 0 1-7.76-4.89 73 73 0 0 1-7.19-5.71 84.3 84.3 0 0 1 14.95 10.6M406.13 151.08a83.7 83.7 0 0 1-18.24-1.7 74 74 0 0 1 9.16.35 76 76 0 0 1 9.08 1.35M425.52 157.75a84.7 84.7 0 0 1 15 10.6 72 72 0 0 1-7.76-4.89 75 75 0 0 1-7.24-5.71M427.31 152.56a84 84 0 0 1 18.25 1.7 74 74 0 0 1-9.17-.35 76 76 0 0 1-9.08-1.35M426.26 147.16a75 75 0 0 1 8.12-4.27 73 73 0 0 1 8.53-3.37 76 76 0 0 1-8.11 4.28 74 74 0 0 1-8.54 3.36M422.65 143a74 74 0 0 1 4.9-7.76 71 71 0 0 1 5.7-7.19 84.3 84.3 0 0 1-10.6 15Z" style="fill:#263238"/><path d="M195 368.79c-1.11 1.41-94.48 5.6-98.92 4.32a3 3 0 0 1-.62-.26c-5.5-2.58-29.1-20.4-32.86-27.91-3-6 14.79-38.84 21-44.47 4.13-3.73 11.79-5.2 11.79-5.2s21.62-62.4 34.95-75.46c3.35-3.28 61.25-4.56 71.59.16 4.43 2 15.2 13 15.5 15 .25 2.89-21.34 132.39-22.43 133.82" style="fill:#37474f"/><path d="M195.64 368.79c-1.11 1.41-94.47 5.6-98.92 4.32a3.5 3.5 0 0 1-.62-.26c9-24.19 51-137.69 52.2-138.42s56.52-.4 69.77.56c.28 2.87-21.31 132.37-22.43 133.8" style="fill:#263238"/><path d="M161.35 224.41c-.93-.88-1.55-13.56.17-16.09 1.92-2.83 24.12-1.43 25.43 1s1.94 15.09 1.27 15.55-4.37.89-4.87.08-.47-11.29-.86-11.85-15.94-1.56-16.48-.76.77 11.4.15 11.86-3.9 1.07-4.81.21" style="fill:#37474f"/><path d="M106.43 280.01H114v8.71h-7.57z" style="fill:#dbdbdb" transform="rotate(25.11 110.229 284.39)"/><path d="M101.29 285.28h12.34v9.94h-12.34z" style="fill:#c7c7c7" transform="rotate(25.11 107.464 290.284)"/><path d="m113.41 312.12-19.31 41.2-26.56-12.46 19.3-41.19c3.83-8.15 11.9-12 20-8.22s10.39 12.55 6.57 20.67" style="fill:#054b8b"/><path d="m113.41 312.12-19.31 41.2-26.56-12.46 19.3-41.19c3.83-8.15 11.9-12 20-8.22s10.39 12.55 6.57 20.67" style="opacity:.1"/><path d="M104 293.86a1.14 1.14 0 1 1-2.07-1 1.14 1.14 0 0 1 2.07 1M112.85 309.35a1.14 1.14 0 1 1-.55-1.52 1.14 1.14 0 0 1 .55 1.52M100.61 304.88a1.14 1.14 0 0 1-1.52.54 1.14 1.14 0 1 1 1-2.06 1.15 1.15 0 0 1 .52 1.52M97 315.25a1.13 1.13 0 0 1-1.52.55 1.14 1.14 0 1 1 1.52-.55M81.46 320.57a1.13 1.13 0 0 1-1.52.55 1.14 1.14 0 1 1 1-2.06 1.12 1.12 0 0 1 .52 1.51M84.74 310.89a1.14 1.14 0 0 1-2.07-1 1.14 1.14 0 1 1 2.07 1M89.57 301.26a1.14 1.14 0 0 1-2.07-1 1.14 1.14 0 1 1 2.07 1M96.85 297.4a1.14 1.14 0 1 1-.55-1.51 1.14 1.14 0 0 1 .55 1.51M93.08 308.15a1.14 1.14 0 1 1-.55-1.52 1.14 1.14 0 0 1 .55 1.52M108.44 301.73a1.14 1.14 0 1 1-.55-1.52 1.14 1.14 0 0 1 .55 1.52M105 312.37a1.14 1.14 0 1 1-.55-1.52 1.14 1.14 0 0 1 .55 1.52M89.12 318a1.14 1.14 0 1 1-.55-1.52 1.14 1.14 0 0 1 .55 1.52M96.44 331.44a1.14 1.14 0 1 1-.55-1.52 1.14 1.14 0 0 1 .55 1.52M92.63 339.15a1.14 1.14 0 1 1-.55-1.52 1.14 1.14 0 0 1 .55 1.52M85.82 326.69a1.14 1.14 0 0 1-1.52.55 1.14 1.14 0 1 1 1.52-.55M75.09 336.46a1.14 1.14 0 0 1-2.07-1 1.14 1.14 0 1 1 2.07 1M93.36 324.54a1.14 1.14 0 1 1-.55-1.52 1.14 1.14 0 0 1 .55 1.52M89.55 333a1.14 1.14 0 1 1-.55-1.52 1.14 1.14 0 0 1 .55 1.52M85.62 341.39a1.14 1.14 0 1 1-.55-1.52 1.14 1.14 0 0 1 .55 1.52M89.07 347.74a1.15 1.15 0 0 1-1.52.55 1.14 1.14 0 0 1 1-2.07 1.15 1.15 0 0 1 .52 1.52M78.66 328.51a1.14 1.14 0 0 1-2.07-1 1.14 1.14 0 1 1 2.07 1M82.09 334.66a1.14 1.14 0 1 1-.55-1.52 1.14 1.14 0 0 1 .55 1.52M95.81 346.17a1.14 1.14 0 1 1-.55-1.52 1.15 1.15 0 0 1 .55 1.52M78.51 342.89a1.14 1.14 0 1 1-.55-1.52 1.14 1.14 0 0 1 .55 1.52M103.7 329.74a1.14 1.14 0 1 1-.55-1.52 1.14 1.14 0 0 1 .55 1.52M99.9 337.86a1.14 1.14 0 1 1-.55-1.52 1.14 1.14 0 0 1 .55 1.52M100.63 323.06a1.14 1.14 0 1 1-.55-1.52 1.14 1.14 0 0 1 .55 1.52M108.65 320.53a1.14 1.14 0 1 1-.55-1.52 1.14 1.14 0 0 1 .55 1.52" style="fill:#fff"/><path d="M64.43 341.45c2.24 11 26.68 22.86 28.35 22.81s17.89-40.2 17.89-40.2S90.9 317.56 82 306c0 0-18.27 32-17.57 35.45M253.09 432.6H158.5c-5.76-22-11.05-41.41-14.42-53.67-2.12-7.71-3.48-12.6-3.74-13.52a2 2 0 0 0-.05-.16h98.37l3 13.79c1.19 5.58 2.7 12.62 4.44 20.67.14.7.3 1.41.45 2.15 1.98 9.22 4.21 19.67 6.54 30.74" style="fill:#455a64"/><path d="M172.84 432.6h-1.78q-7.26-26.75-14.17-53.6l-.38-1.51c-.09-.41.52-.6.64-.19.17.57.34 1.13.5 1.7 5.22 17.82 10.24 35.7 15.19 53.6" style="fill:#263238"/><path d="M231 365.41a94 94 0 0 1-3.36 13.79c-1.1 3.58-2.43 7.45-3.93 11.44-.32.91-.68 1.79-1 2.69-4.77 12.15-11 24.53-17.44 30.41h-.05a16 16 0 0 1-2.46 1.93l-5.48 3.39a.2.2 0 0 1 0 .08c0 .33-.25 1.52-.56 3.44h-92.33c-2.36-21.38 2.56-41.38 6.85-53.92a112 112 0 0 1 5.36-13.27Z" style="fill:#455a64"/><path d="M220 418.53a177 177 0 0 1-17.9 8.56c-1.63.7-3.26 1.39-4.92 2.06-.1 0-.2.09-.3.12q-2.14.89-4.29 1.71c-1.4.54-2.79 1.1-4.21 1.62h-3.12c2.15-1.08 4.4-2 6.59-3q4.56-2 9.15-4c1.39-.6 2.78-1.21 4.16-1.83h.05c4.77-2.12 9.52-4.24 14.43-6 .49-.24.81.5.36.76" style="fill:#263238"/><path d="M197.23 429.22c0 .72-.06 1.91-.2 3.38h-1c.32-1.38.61-2.51.89-3.33a.5.5 0 0 1 0-.09c.05-.13.23-.14.27 0s.04.01.04.04M125.53 371.16c-1.25 2.5-2.38 5-3.43 7.62a102.7 102.7 0 0 0-7 49.46c.17 1.46.38 2.91.6 4.36h-1.6a103 103 0 0 1-1.1-12.75 97.2 97.2 0 0 1 8.06-41.09 94 94 0 0 1 3.92-7.9.31.31 0 0 1 .55.3M194.91 403.48c.09-3.56.34-7.11.52-10.66.41-8.38.74-16.81 1.52-25.16a.26.26 0 0 1 .52 0c.1 6.48-.15 13-.28 19.47-.07 3.24-.16 6.49-.25 9.73a93 93 0 0 0-.06 9.29c.17 2.34.68 6.88 3.73 7.16 2.88.27 5.15-2.83 5.87-5.1 1.82-5.78 2.47-12 3.06-18 .35-3.55.76-18 .57-21.62 0-.23.34-.22.36 0 .2 3.66.7 7.3.82 11s.13 7.32-.1 11c-.23 3.5-.52 7-1.05 10.49a37.8 37.8 0 0 1-2.25 9.27c-1.06 2.46-2.88 4.72-5.64 5.26a7 7 0 0 1-1 .1c0 .75-.14 1.51-.19 2.25-.08 1.18-.23 2.34-.39 3.51a26 26 0 0 1-.71 3.4 12.8 12.8 0 0 1-1.2 3.24.18.18 0 0 1-.33-.09 15.7 15.7 0 0 1 .28-3.35c.16-1.14.32-2.3.55-3.42s.44-2.23.67-3.34c.15-.74.25-1.51.39-2.26a5.47 5.47 0 0 1-4.07-3.21c-1.31-2.77-1.41-6-1.34-8.96" style="fill:#263238"/><path d="M193.21 242.7c11.93 14.95 58.71 68 84.71 72.95C295.43 319 351.68 290.37 364 280c5-4.24-23.13-46.21-30-44.52-7.44 1.83-47.92 28.74-53.18 28.43S234.13 240.31 209 230c-15.1-6.24-22.51 4.29-15.79 12.7" style="fill:#f7a9a0"/><path d="M348.55 290c10.82-4.17 43.63-27.18 49.08-33.16s19.89-24.29 15.73-28.93-8.8.39-8.8.39 5.47-9.45.27-13c-4.15-2.83-11.08 3.9-11.08 3.9s5.45-10.67-.16-13.52c-5.11-2.6-10.74 6.54-10.74 6.54s3.65-9.39-1.75-10.94c-6.5-1.88-12.83 14.37-19.34 20.52-1.48 1.39-45.15 22.82-45.15 22.82Z" style="fill:#f7a9a0"/><path d="M382.61 211.75c-6 11.69-8.8 16.35-19 23.83-.2.14 0 .47.2.34 10.62-6.42 14.36-11.71 19.36-24 .27-.57-.28-.71-.56-.17M393.63 219.2c-5.95 12-10.5 16.51-20.57 25.12-.15.12 0 .38.2.27 10.59-7.63 16.43-12.54 20.8-25.29.2-.57-.16-.64-.43-.1M404.06 228.73c-6.6 11.18-11.21 16.68-22.07 23.78a.24.24 0 0 0 .24.42c11.77-6.17 17.59-13 22.15-24 .31-.71.09-.93-.32-.2" style="fill:#263238"/><path d="M447.63 261.74c-28.71 8.38-57 16.77-84.5 25.15-16.47-37-18.9-74-30.18-111 28.75-8.39 57-16.77 84.61-25.16 16.44 36.99 18.82 74 30.07 111.01" style="fill:#fff"/><path d="M447.63 261.74q-21.47 6.38-42.54 12.74t-41.83 12.71l-.28.09-.14-.3c-16.54-37-19-74-30.37-111-.05-.16-.09-.32-.14-.48l.47-.14c28.75-8.34 57-16.68 84.61-25l.33-.1.15.34c8.2 18.55 12.87 37.1 16.9 55.65s7.3 37 12.84 55.49m0 0c-5.71-18.51-9.21-37-13.35-55.54s-8.82-36.93-17-55.39l.47.24c-27.57 8.43-55.86 16.87-84.61 25.3l.33-.62c11.23 37 13.6 74.05 30 111.07l-.41-.21q20.64-6.22 41.79-12.44t42.78-12.41" style="fill:#263238"/><path d="M346.54 192q24.33-7 48.37-14c.28.95.56 1.9.83 2.85q-24.09 7-48.51 14c-.23-.91-.46-1.85-.69-2.85M348.26 199.24q24.45-7 48.68-14l.75 2.85q-24.26 7-48.78 14c-.21-.95-.43-1.9-.65-2.85M349.88 206.44q24.54-7 48.91-14c.23 1 .47 1.9.69 2.85q-24.39 7-49 14c-.18-.95-.39-1.9-.6-2.85M351.44 213.63q36-10.24 71.78-20.49l.69 2.86c-23.84 6.82-47.85 13.65-71.86 20.48-.21-.95-.41-1.9-.61-2.85M353 220.83q36-10.25 71.95-20.49c.22.95.44 1.9.65 2.85q-35.91 10.25-72 20.49-.345-1.425-.6-2.85M354.51 228l72-20.48c.21 1 .42 1.9.62 2.85-24 6.83-48 13.65-72 20.48-.21-.93-.41-1.85-.62-2.85M356.1 235.22q35.89-10.25 72-20.49c.21 1 .41 1.9.61 2.85q-36 10.24-71.94 20.49c-.24-.95-.46-1.9-.67-2.85M357.77 242.41c23.83-6.83 47.83-13.65 71.84-20.48.21.95.41 1.9.61 2.85q-36 10.25-71.75 20.48c-.24-.95-.47-1.9-.7-2.85M359.57 249.61q35.55-10.25 71.59-20.49c.21.95.41 1.9.62 2.85q-35.94 10.25-71.45 20.49c-.26-.95-.51-1.9-.76-2.85M361.53 256.8q35.28-10.23 71.23-20.48c.22 1 .43 1.9.66 2.85-23.88 6.83-47.62 13.66-71.06 20.49-.28-.96-.56-1.91-.83-2.86M363.68 264q35-10.24 70.77-20.49c.23 1 .46 1.9.7 2.85q-35.64 10.25-70.55 20.49c-.31-.95-.6-1.85-.92-2.85M366.07 271.2q34.62-10.24 70.2-20.49c.25.95.5 1.9.76 2.85q-35.4 10.24-69.94 20.49Z" style="fill:#dbdbdb"/><path d="M403.17 192.9c-1.07-7.77-2.38-15.54-4.13-23.31 5.47 5.57 10.7 11.14 15.79 16.71l-1.5 1.37c-3.56-3.92-7.19-7.84-10.93-11.76 1.09 5.55 2 11.09 2.75 16.64Z" style="fill:#054b8b"/><path d="m401.74 188.86-1.16-1.59q5.34-4 10.58-8l1.2 1.59q-5.25 4.02-10.62 8" style="fill:#054b8b"/><path d="M398.62 166.54a21 21 0 0 0-4.33 4.31 18.83 18.83 0 0 0-3.6 11.45 14.2 14.2 0 0 0 1.28 5.77 12.84 12.84 0 0 0 8.83 6.93c3.82.75 7.91-.62 11.33-2.88a17.4 17.4 0 0 0 7.5-9.2 13.23 13.23 0 0 0-1.46-11.41 13.85 13.85 0 0 0-4.53-4 14.4 14.4 0 0 0-5.82-1.87 12.8 12.8 0 0 0-6 .83 17.8 17.8 0 0 0-5.15 3.25 21.5 21.5 0 0 1 2.26-2.11 16 16 0 0 1 2.67-1.61 13.2 13.2 0 0 1 6.21-1.32 15.8 15.8 0 0 1 11.64 6 13.7 13.7 0 0 1 2.51 6.22 15.35 15.35 0 0 1-.51 6.63 19.27 19.27 0 0 1-8.29 10.32 21.8 21.8 0 0 1-6.12 2.79 14.5 14.5 0 0 1-6.7.29 13.2 13.2 0 0 1-5.88-2.9 15 15 0 0 1-3.92-5.18 17.46 17.46 0 0 1 .07-12.82 18.65 18.65 0 0 1 8.01-9.49" style="fill:#054b8b"/><path d="M409.59 174q-1.72-2.36-3.51-4.71l1.57-1.16q1.8 2.35 3.54 4.71Z" style="fill:#054b8b"/><path d="m407 173.51-1.19-1.64 4.5-3.24c.41.55.81 1.1 1.22 1.64Z" style="fill:#054b8b"/><path d="M316.61 244.63s10.63-10.89 15.41-16.3 16.2-22.58 22.4-22.17c7 .46 1.94 18.55-6.53 28.27 0 0 11.25 17.94 3.56 27.67-1.67 2.1-13.79 8.76-16.8 8.14Z" style="fill:#f7a9a0"/><path d="M347.38 235.73c4.63 6.82 7.85 17.21 4.53 24.74a.19.19 0 0 0 .33.18c4.65-7.59 1-19.65-3.46-25.5-.87-1.15-2.6-1.15-1.4.58" style="fill:#263238"/><path d="M316.61 244.63 348.55 290a14.12 14.12 0 0 1-8.77 13.53c-9.53 4.17-48.95 18.39-64.56 13.12s-60.14-43.65-79.35-69.16 9.18-20.44 14.59-18 68.92 32.37 71.18 32.32 17-11.26 24-14.74 10.97-2.44 10.97-2.44" style="fill:#054b8b"/><path d="M298 316.3c-9 1.65-17.33 2.19-22.76.35-15.62-5.28-60.15-43.64-79.36-69.17a64 64 0 0 1-3.1-4.47Z" style="opacity:.1"/><path d="M336.11 299.37c-2.93-3.59-5.37-7.58-7.92-11.42s-5-7.58-7.47-11.4c-5-7.69-10.17-15.33-14.64-23.31a.17.17 0 0 1 .28-.18c5.77 7.27 10.8 15.13 15.86 22.86q3.81 5.81 7.45 11.72a120 120 0 0 1 6.75 11.59c.09.19-.19.29-.31.14" style="fill:#263238"/><g style="opacity:.1"><path d="m325.87 308.77-3.61 1.23a27 27 0 0 1-.27-4c0-2.53.2-5 .17-7.41a36 36 0 0 0-.7-7.18 24.9 24.9 0 0 0-2.41-6.64c-.27-.52-.58-1-.87-1.5s-.62-.92-.95-1.38c-.71-.91-1.45-1.85-2.22-2.77l-4.6-5.59c-1.56-1.88-3.1-3.77-4.62-5.7s-3-3.93-4.37-6a43 43 0 0 1-3.67-6.76 24 24 0 0 1-.9-2.64c1.29-.85 2.56-1.67 3.76-2.43a30 30 0 0 0 1.37 3.16 60 60 0 0 0 3.65 5.86c2.68 3.9 5.5 7.83 8.33 11.8 1.41 2 2.86 4 4.18 6.07.66 1.05 1.32 2.11 1.91 3.26.29.58.58 1.15.84 1.79s.45 1.22.63 1.84c1.48 4.92 1.7 9.88 2.27 14.73a58.6 58.6 0 0 0 2.08 10.26M313.25 312.68c-1 .28-1.94.55-2.93.81-1.2-4.14-1.27-8.22-1.36-12.25V295c0-1 0-2.05-.08-3.06a19 19 0 0 0-.29-2.92 3.4 3.4 0 0 0-.17-.64l-.25-.68-.3-.66c-.11-.22-.24-.43-.35-.65a13.3 13.3 0 0 0-1.8-2.39 22.3 22.3 0 0 0-4.85-3.73c-.89-.54-1.81-1-2.74-1.49l-2.81-1.43a17.6 17.6 0 0 1-5.35-3.86 9.5 9.5 0 0 1-1-1.45c-.15-.26-.28-.54-.41-.81l-.31-.8a20 20 0 0 1-.81-3.24 32.5 32.5 0 0 1-.38-6.44c0-.63.06-1.26.11-1.89l2-1.32c0 1.07 0 2.13.09 3.19a42 42 0 0 0 .68 6 20.6 20.6 0 0 0 .78 2.8l.26.66c.1.19.17.39.28.59a9 9 0 0 0 .71 1.13 21.7 21.7 0 0 0 4.24 4.06c1.63 1.25 3.4 2.38 5.15 3.53a41.6 41.6 0 0 1 5.15 3.7 17 17 0 0 1 2.27 2.35 15 15 0 0 1 .95 1.37l.41.73a7 7 0 0 1 .35.83 17 17 0 0 1 .73 3.24c.17 1.06.26 2.12.35 3.17.17 2.1.27 4.18.41 6.24s.29 4.12.49 6.14a40 40 0 0 0 .78 5.41"/></g><path d="M106.46 385.26c.1.13 136.57-6.25 137.46-7.09.41-.39 2.18-8.16.09-18.95-6.27-32.35-25.06-98.43-41.63-126.39-4.14-7-22.8-17.29-36.34-4.07-27.45 26.8-49 95-57.49 132.46-4.16 18.31-2.65 23.26-2.09 24.04" style="fill:#054b8b"/><g style="opacity:.1"><path d="M243.4 356.13c-.41 0-.82 0-1.22.06a97 97 0 0 0-11.54 1.81c-7.85 1.6-15.84 3.4-23.89 5.19-4 .89-8.06 1.83-12.21 2.51-2.08.33-4.17.66-6.34.82-1.1.07-2.18.15-3.36.13s-2.18-.11-3.27-.24c-8.65-.93-16.52-3.86-24.47-6.17s-16.15-3.89-23.45-3.86c-1.8 0-3.74.15-5.69.33s-3.9.47-5.87.76c-3.93.63-7.9 1.42-11.86 2.28l-1.43.32c.48-2.1 1-4.3 1.57-6.57a99 99 0 0 1 10.46-2.83q3.12-.68 6.34-1.08c1.08-.13 2.16-.24 3.25-.3a26 26 0 0 1 3.4 0 37 37 0 0 1 12.78 3.22c3.94 1.64 7.62 3.58 11.42 5.15a60 60 0 0 0 11.66 3.64 42.2 42.2 0 0 0 11.95.63c1-.07 2-.22 2.91-.35s1.83-.37 2.77-.59c1.9-.51 3.84-1 5.77-1.62l11.77-3.49c3.94-1.19 7.92-2.35 11.93-3.44s8.09-2.06 12.26-2.83a72 72 0 0 1 12.67-1.26c.62 2.72 1.18 5.33 1.69 7.78M237.45 330.76a69 69 0 0 0-8.5-2.42 33 33 0 0 0-4.88-.64h-1.19c-.37 0-.73 0-1.1.05a18 18 0 0 0-2.24.36 36.8 36.8 0 0 0-9.12 3.93c-3 1.72-6 3.72-8.9 5.71a71 71 0 0 1-9.17 5.58 30 30 0 0 1-5.15 2 26 26 0 0 1-2.76.58L183 346a11 11 0 0 1-1.53 0 28.4 28.4 0 0 1-5.53-1c-1.76-.44-3.47-1-5.16-1.55-3.39-1.12-6.7-2.33-10-3.48s-6.61-2.27-9.89-3.29a66.4 66.4 0 0 0-9.76-2.4 18.3 18.3 0 0 0-4.67-.1 34 34 0 0 0-4.85.91 80 80 0 0 0-9.74 3.28q-4.29 1.74-8.54 3.72c.31-1.15.63-2.31 1-3.49q3-1.83 6.09-3.46a70 70 0 0 1 10-4.34 38 38 0 0 1 5.46-1.37 21.8 21.8 0 0 1 5.87-.22c7.6.76 14.29 3.44 20.87 6.07l9.76 4c1.61.67 3.23 1.3 4.83 1.91a33.6 33.6 0 0 0 4.73 1.47 9 9 0 0 0 1.12.16l1.22.05h1.23c.42 0 .83-.08 1.24-.12a22.5 22.5 0 0 0 4.91-1.22 38.5 38.5 0 0 0 9-5.1c1.41-1 2.75-2.17 4.12-3.28l4.08-3.45c2.77-2.26 5.75-4.56 9.55-5.78a15 15 0 0 1 2.94-.66c.51-.07 1-.08 1.54-.11h1.45a33 33 0 0 1 5.58.88 46 46 0 0 1 6.34 2Z"/></g><path d="M151.71 232c-44.55 18.89-79.14 35.34-74.12 52.46 2 6.72 13.6 24.85 28.54 24.83 11.74 0 32.67-18.84 56.52-51.79 12.35-17.05 17.19-37.44-10.94-25.5" style="fill:#054b8b"/><path d="M159.61 266.54c-1.9 1.57-3.79 3.18-5.64 4.82l1.19-1.38c3.19-3.78 6.34-7.59 9.49-11.4.06-.08-.07-.18-.14-.1-6 6.38-12 12.7-18.07 19.06s-21.9 22.47-25.75 25.63c-.08.07 0 .2.1.14 3.48-2.72 13.25-10.9 16.37-13.95q7.07-6.92 13.59-14.28a114 114 0 0 0 9.07-8.34c.11-.11-.08-.31-.21-.2" style="fill:#263238"/><path d="M93.52 298.93c-19.48-8-32.1-67.09-36.88-106.86-.91-7.57 58.93-14.86 59-6.71.24 46.52-.78 122.31-22.12 113.57" style="fill:#f7a9a0"/><path d="M49.12 161.07c.35 12.69 11.22 44.46 16.23 49.65s43-13 45.09-20 3.89-48.62-4.48-58.5-57.21 15.71-56.84 28.85" style="fill:#f7a9a0"/><path d="M115.79 150c-3.32 5.85-8.31-1.41-8.31-1.41s4.67 12.18-1.08 16.89c-5.56 4.52-11.29-4.46-11.7-5.1.24.65 4.24 12-2 16.09-6.52 4.29-10.72-5.71-11-6.36 0 .69.37 9.71-5.11 11.77-9.41 3.54-10.89-19.52-17.22-24.64 0 0-9.89 4.6-10.24 4.82 0 0-1.85-16.76 5.52-24.92a7 7 0 0 1 8.66-1.52s-1.37-7 3.46-10.41c2.48-1.75 7.49.68 7.49.68s-.87-5.65 3.61-8.42c3.58-2.22 8 .56 8 .56s1.68-5.81 6.07-6.9c8.87-2.23 30.94 26.31 23.85 38.87" style="fill:#f7a9a0"/><path d="M86.66 118.33a.1.1 0 0 1 .13-.14c9.55 7.61 17.71 18.9 21 30.73.11.39-.48.74-.68.33-5.72-11.55-11.72-21.35-20.45-30.92M74.18 125.67c-.09-.1.08-.26.2-.17 9.8 7.9 18.64 20.87 20.82 35 .08.48-.34 1-.47.44-2.16-9.3-12.65-26.69-20.55-35.27M81.5 171.12c-2.62-13.43-9.28-24.67-17.78-35.23-.11-.14.1-.28.22-.19 5.57 4 10.28 11.33 13.47 17.32A36.1 36.1 0 0 1 82 171c0 .28-.45.41-.5.12" style="fill:#263238"/><path d="M107.48 148.56a41 41 0 0 1 1.36 7.39 13.7 13.7 0 0 1-1 7.13 4.5 4.5 0 0 1-2.37 2.22 6.6 6.6 0 0 1-3.31.39 8 8 0 0 1-5.26-3.9L94 157.1l1.1 5.41a22.7 22.7 0 0 1 .33 7.3c-.31 2.37-1.25 4.65-3.06 5.85a4.62 4.62 0 0 1-5.8-.14 13.9 13.9 0 0 1-3.9-5.79l-2.39-6.08.26 6.5a20.8 20.8 0 0 1-.46 5.39 8.74 8.74 0 0 1-2.27 4.5 4.16 4.16 0 0 1-4.28.92 9.2 9.2 0 0 1-3.67-3.59 72 72 0 0 1-4.86-10.2c-.75-1.76-1.51-3.52-2.35-5.25a13.75 13.75 0 0 0-3.28-4.71 14.7 14.7 0 0 1 2.79 4.92c.7 1.77 1.32 3.58 1.94 5.39a61 61 0 0 0 4.49 10.68 10.84 10.84 0 0 0 4.27 4.45 5.89 5.89 0 0 0 6.36-1.12 10.67 10.67 0 0 0 3-5.51 23.2 23.2 0 0 0 .6-6l-2.12.42a16 16 0 0 0 4.55 6.89 6.68 6.68 0 0 0 4.24 1.57 7.6 7.6 0 0 0 4.24-1.42c2.53-1.76 3.57-4.75 3.87-7.4a24.3 24.3 0 0 0-.49-8l-1.81.73a9.61 9.61 0 0 0 6.76 4.48 8.1 8.1 0 0 0 4.07-.69 5.9 5.9 0 0 0 2.9-3c1.1-2.55.87-5.23.52-7.73a34 34 0 0 0-2.07-7.31" style="fill:#263238"/><path d="M111.62 193.4s30.86-56.5 2-57.25c-7-.18-34.81 11.1-32.8 16.73 2.6 7.28 15 5.05 22.64 2.41 0 0-9.13 16.08.17 25.78a36.8 36.8 0 0 1 7.99 12.33" style="fill:#f7a9a0"/><path d="M115.62 136.12a28.1 28.1 0 0 0-8.16.88 60 60 0 0 0-7.89 2.39 95 95 0 0 0-15 6.93 15.7 15.7 0 0 0-3.44 2.68 5.7 5.7 0 0 0-1.28 2.14 4 4 0 0 0-.21 1.37 4.4 4.4 0 0 0 .25 1.34 7 7 0 0 0 3.11 3.66 13.1 13.1 0 0 0 4.28 1.38 25.1 25.1 0 0 0 8.49-.43 57 57 0 0 0 8-2.27l-1.13-1.39a33.5 33.5 0 0 0-2.37 5.86 30.7 30.7 0 0 0-1.23 6.14 21.8 21.8 0 0 0 .38 6.25 16.4 16.4 0 0 0 2.39 5.69 18.3 18.3 0 0 1-1.73-5.81 22.3 22.3 0 0 1 .16-6 29.7 29.7 0 0 1 1.5-5.79 32.4 32.4 0 0 1 2.54-5.38l1.27-2.09-2.4.71a61 61 0 0 1-7.77 1.94 24.3 24.3 0 0 1-7.77.31c-2.43-.37-4.93-1.51-5.61-3.5-.76-1.7 1.55-3.61 3.7-5a75 75 0 0 1 7-3.92c2.41-1.24 4.84-2.44 7.32-3.51 5.06-2.03 10.15-4.15 15.6-4.58" style="fill:#263238"/><path d="m118 196.85-62.23 13.6s-4.1 11.8-.48 24.05c6.87 23.24 27.36 73.13 43.89 72 17.9-1.25 22.25-63.61 22-94.15-.18-10.35-3.18-15.5-3.18-15.5" style="fill:#054b8b"/><g style="opacity:.1"><path d="M121.11 221.12c0 1.31 0 2.66-.09 4-1.5.75-3 1.46-4.62 2.07-1.17.46-2.37.88-3.59 1.24-.62.18-1.24.36-1.87.5a17 17 0 0 1-2 .35 22 22 0 0 1-7.77-.64c-2.45-.57-4.79-1.35-7.16-1.89a35.5 35.5 0 0 0-7.14-1 25 25 0 0 0-7 .79c-.56.14-1.13.32-1.66.49s-1 .39-1.56.61c-1.05.48-2.13 1-3.21 1.51l-6.51 3.18a269 269 0 0 1-6.62 3.16c-1.35.64-2.73 1.23-4.13 1.8-.31-1-.6-1.93-.87-2.84-.21-.69-.39-1.38-.53-2.07 3.41-1.34 6.86-2.74 10.32-4.15 2.27-.9 4.52-1.85 6.88-2.65 1.18-.39 2.36-.79 3.61-1.09.63-.15 1.26-.3 2-.4s1.28-.15 1.92-.18c5.14-.3 10 .64 14.86 1.21a50.8 50.8 0 0 0 14.05 0c1-.18 2.16-.45 3.28-.75s2.23-.65 3.35-1c1.95-.68 4.02-1.44 6.06-2.25M120.77 232c0 .72-.06 1.44-.1 2.17-.82.69-1.65 1.36-2.51 2a43 43 0 0 1-5.38 3.5 23 23 0 0 1-3 1.33 13.4 13.4 0 0 1-3.4.7c-4.51.29-8.66-.62-12.76-1.51l-6.08-1.4c-1-.23-2-.44-3-.64a20 20 0 0 0-2.9-.4 5 5 0 0 0-.66 0l-.72.09-.72.14c-.23 0-.47.13-.71.19a13.2 13.2 0 0 0-2.83 1.26 22 22 0 0 0-4.76 3.85c-.73.74-1.4 1.53-2.09 2.31l-2 2.41a17.3 17.3 0 0 1-5 4.3 4.5 4.5 0 0 1-.63.29c-.31-.81-.61-1.61-.91-2.41.15-.06.31-.11.46-.18a21.8 21.8 0 0 0 4.93-3.18c1.6-1.3 3.11-2.75 4.63-4.19a42 42 0 0 1 4.81-4.15 17.4 17.4 0 0 1 2.8-1.66c.51-.23 1-.42 1.56-.6l.81-.23c.28-.06.61-.12.89-.15a17.5 17.5 0 0 1 3.32 0c1.07.09 2.12.24 3.16.4 2.08.33 4.13.71 6.17 1.06s4.07.68 6.08.95a39 39 0 0 0 5.92.45 11 11 0 0 0 2.74-.4 20 20 0 0 0 2.73-1 46 46 0 0 0 5.36-2.86q1.92-1.13 3.79-2.44"/></g><path d="M117.23 213.6c-30.78 8.64-53 12.65-57.33 13.32a.09.09 0 0 1 0-.18c21.39-6.56 55.23-13.34 57.31-13.51a.19.19 0 0 1 .02.37M120.26 250.6c-.73 5.83-2.39 15.08-3.73 20.8-.09.36-.18.72-.26 1.08a34 34 0 0 1 .57 6.22c0 2.44-.21 4.85-.46 7.27 0 .1-.17.09-.16 0a48.5 48.5 0 0 0-.06-7.23c-.11-1.43-.23-2.87-.35-4.31-1.31 5.46-2.69 10.92-4.39 16.27 0 .1-.18 0-.15-.06 1.28-5.81 2.65-11.61 3.72-17.46s3.52-19.58 4.54-25.39c.81-4.61.96.98.73 2.81" style="fill:#263238"/><path d="M177 226.31c.73 2.13 12.52 15.28 22.44 13.84 3.24-.48 1.43-18.23 1.43-18.23l.17-1.34 2.32-18.78-26.23-13.27s-.44 36.87-.13 37.78" style="fill:#f7a9a0"/><path d="M203.34 201.81 201 220.57l-.16 1.35s.32 3.22.45 6.94c-13.78-.69-21-10.29-24.4-17.07.06-10.65.21-23.26.21-23.26Z" style="fill:#263238"/><path d="M232.59 169.8c9.58 39.38-12.93 49.56-21.43 51.62-7.71 1.86-34.2 7.23-47.79-30.95s1.69-55.08 19.1-60.28 40.53.22 50.12 39.61" style="fill:#f7a9a0"/><path d="M221.28 170.93a26 26 0 0 1-2.8-.11 4.5 4.5 0 0 1-2.83-.65 1.44 1.44 0 0 1-.29-1.74 3.54 3.54 0 0 1 3.33-1.41 5.23 5.23 0 0 1 3.56 1.27 1.54 1.54 0 0 1-.97 2.64M193.26 176.93a28 28 0 0 0 2.61-1 4.5 4.5 0 0 0 2.45-1.55 1.43 1.43 0 0 0-.3-1.74 3.56 3.56 0 0 0-3.61-.23 5.26 5.26 0 0 0-2.94 2.38 1.54 1.54 0 0 0 1.79 2.14M205.12 204.13c.73.57 1.48 1.38 2.48 1.36a7.3 7.3 0 0 0 2.88-1 .1.1 0 0 1 .13.13 3.71 3.71 0 0 1-3.32 1.86 2.92 2.92 0 0 1-2.42-2.19c-.06-.16.13-.29.25-.16" style="fill:#263238"/><path d="M215.06 197.58a11.36 11.36 0 0 1-3.39 4.62 5.06 5.06 0 0 1-2.92 1c-2.31.06-2.93-1.9-3-3.7a11.8 11.8 0 0 1 .23-2.86 14.64 14.64 0 0 0 9.08.94" style="fill:#fff"/><path d="M213.68 200.13c-.11.15-.23.32-.36.47a9.4 9.4 0 0 1-2.19 0c.87-.16 1.72-.31 2.55-.47M208.81 200.41a7.2 7.2 0 0 1-1.67-.18 8 8 0 0 1-1.39-.5v-.5a26 26 0 0 0 3.06 1.18" style="fill:#dbdbdb"/><path d="M214.87 192.4s1.23 4 1.55 5.89c0 .18-.42.34-1.06.48h-.08a9.25 9.25 0 0 1-9.42-1.93.2.2 0 0 1 .24-.32 13.9 13.9 0 0 0 8.73 1c0-.55-2.36-6.8-2.05-6.8 1.31 0 3.65.19 4.52.26-.75-2.6-3.23-9.87-4.58-14.61-.08-.29.37-.47.48-.2a131 131 0 0 1 6.34 16.12c.13.46-3.85.3-4.67.11M195.45 184.3a3.93 3.93 0 0 1 .59-2 2.82 2.82 0 0 1 1.9-1.17 2.51 2.51 0 0 1 2.12.77 4.5 4.5 0 0 1 1 1.77 10 10 0 0 1 .24 1.2 5.6 5.6 0 0 1-.22 2.51 8.3 8.3 0 0 0-.34-1.81 12 12 0 0 0-.57-1.55c-.49-1-1.23-1.83-2.08-1.67s-1.46.92-1.68 2a18.3 18.3 0 0 0-.22 3.52 8.1 8.1 0 0 1-.74-3.57M222.69 179a3.84 3.84 0 0 0-1.29-1.6 2.8 2.8 0 0 0-2.2-.37 2.48 2.48 0 0 0-1.67 1.51 4.3 4.3 0 0 0-.25 2 8 8 0 0 0 .23 1.2 5.3 5.3 0 0 0 1.15 2.24 7.7 7.7 0 0 1-.37-1.8 10.3 10.3 0 0 1 0-1.66c.06-1.13.44-2.15 1.29-2.32s1.7.29 2.32 1.25a18.4 18.4 0 0 1 1.53 3.18 7.85 7.85 0 0 0-.74-3.63M159.47 194c12.05.13 17.47-14.55 14-25.89 0 0 32.16 2.34 32.17-23.36A25.18 25.18 0 0 0 227 155l4.13 9.23c3.22-1.14 6.15-10.64-2.29-17.47 0 0-1.3-12.73-11.17-19.84a17.47 17.47 0 0 0-18.92-1.52 26.44 26.44 0 0 0-19.52-3.6C167.61 124 163.4 135 163.4 135s-15.63 4-17.65 15.34A23.32 23.32 0 0 0 150 169s-3.7 4.65-1.12 14.11c1.62 6.03 6.98 10.89 10.59 10.89" style="fill:#263238"/><path d="M204.78 142.54a30 30 0 0 1 .44 6.25 25 25 0 0 1-.8 6.12 16.2 16.2 0 0 1-6.84 9.63c-3.31 2.41-7.55 3-11.59 3.64-2.07.06-4.15.27-6.24.21s-4.18-.22-6.3-.26c2.07.37 4.16.66 6.26 1s4.23.13 6.37.2c4.2-.42 8.62-1 12.31-3.55a16.93 16.93 0 0 0 7.14-10.6 25.46 25.46 0 0 0-.75-12.64M163.4 135a29.5 29.5 0 0 0-11.61 3.25 17.8 17.8 0 0 0-8.43 8.82 19.5 19.5 0 0 0-1.15 6.09 18.1 18.1 0 0 0 .66 6.12A16.53 16.53 0 0 0 150 169a18.13 18.13 0 0 1-6-9.91 20.25 20.25 0 0 1 .76-11.39 15.3 15.3 0 0 1 3-4.8 23.5 23.5 0 0 1 4.57-3.58A37.6 37.6 0 0 1 163.4 135M198.79 125.44a30.1 30.1 0 0 1 9.27-2.36 18.26 18.26 0 0 1 9.12 1.46 18.5 18.5 0 0 1 7 6 33 33 0 0 1 4.32 8.55 23.8 23.8 0 0 0-3.38-9.18 16.47 16.47 0 0 0-17.22-8 22.8 22.8 0 0 0-9.11 3.53" style="fill:#263238"/><path d="M222.11 156.37a33.4 33.4 0 0 1-10-4.64 20.4 20.4 0 0 1-4-3.68 24.5 24.5 0 0 1-3-4.69 13.6 13.6 0 0 0 2 5.36 14.8 14.8 0 0 0 4 4.21 18.5 18.5 0 0 0 5.19 2.57 17.1 17.1 0 0 0 5.81.87" style="fill:#263238"/><path d="M196.76 199.28a14.16 14.16 0 1 1 12.45-18.57 14.19 14.19 0 0 1-9 17.89 14.5 14.5 0 0 1-3.45.68m-1.85-26.36a12.6 12.6 0 0 0-3 .59 12.26 12.26 0 1 0 3-.59M227.42 193.16c-5.41.38-10.69-4.81-12.07-12.07a17 17 0 0 1 1.1-10.28 8.82 8.82 0 0 1 14.84-2.8 16.92 16.92 0 0 1 4.77 9.16c1.45 7.67-2 14.79-7.72 15.87a7 7 0 0 1-.92.12M224.14 167c-.24 0-.47 0-.71.09a7.57 7.57 0 0 0-5.27 4.54 15 15 0 0 0-.95 9.12c1.26 6.64 6.08 11.33 10.78 10.44s7.47-7 6.21-13.65a15 15 0 0 0-4.21-8.15 7.8 7.8 0 0 0-5.85-2.39" style="fill:#054b8b"/><path d="m209.18 182.38-1.24-1c1.5-1.83 5.23-4.61 8.68-2.09l-1 1.28c-3.03-2.27-6.3 1.65-6.44 1.81M153.16 196.12l-1.53-.46c.22-.71 2.18-7 5.57-8.23 3.18-1.14 24.56-3.14 25.47-3.23l.15 1.59c-6.13.57-22.62 2.25-25.07 3.14-2.24.82-4.07 5.47-4.59 7.19" style="fill:#054b8b"/><path d="M171.73 192.28s-10.66-11.16-15.85-7.18 4.15 21.11 11.19 22.57a6.85 6.85 0 0 0 8.52-5Z" style="fill:#f7a9a0"/><path d="M158.68 189.94a.1.1 0 0 0 0 .19c5 1.17 8.08 5.13 10.49 9.36-1.65-1.52-3.69-2.18-5.75-.17-.11.11 0 .28.17.23a4.23 4.23 0 0 1 4.81.75 20.5 20.5 0 0 1 2.76 3.38c.28.38 1 0 .77-.41l-.06-.11c-.8-5.97-6.7-13.6-13.19-13.22" style="fill:#263238"/><path d="M160.62 229c-1.64-2 8.91-8 11.65-5.74s16.61 37.44 12.11 75.61-78.38 79.3-81.13 73.59c-1.14-2.4.32-9.09 2.12-11.23 2.53-3 55.88-36.12 61.15-59.79 4.68-21.05-1.74-67.24-5.9-72.44M202.21 228.2c-2.22-4.21 9.21-.82 10.46 1.45s16.53 38.74 19.17 62.58c1 9.55 4.75 35.26 4.75 35.26s-11.16-34.49-20.36-63.37a305 305 0 0 0-14.02-35.92" style="fill:#455a64"/><path d="M418.51 378.76s11.7-42.21 21-56.54 26.76-30.08 26.76-30.08-.37 65.07-47.76 86.62" style="fill:#054b8b"/><path d="M419.35 378A201 201 0 0 0 430 357.59a144 144 0 0 1 5.81-22.2c.05-.13.24-.06.21.08-1.55 6.66-3.36 13.27-5 19.92 4.72-10.27 9.21-20.67 14.83-30.38a65 65 0 0 1 5.43-13.51c.06-.12.26-.06.2.07a88 88 0 0 0-3.65 10.14 101.5 101.5 0 0 1 8.89-12.35c.21-.24.62 0 .41.29-7.52 9.65-12.71 20.62-17.65 31.73a169 169 0 0 0 14.68-18.44c0-.06.14 0 .1.07a151 151 0 0 1-15.72 20.49c-3.6 8.14-7.14 16.31-11.43 24.06 8.58-7.29 15.18-16.72 21.71-25.82a.19.19 0 0 1 .32.22c-6.54 10-13.3 19.39-22.7 26.78a103 103 0 0 1-6.28 9.86.5.5 0 0 1-.81-.6" style="fill:#263238"/><path d="M414.88 382.56s21-38.92 14.92-76.65-12.65-51.17-12.65-51.17-33.05 58.69-2.27 127.82" style="fill:#054b8b"/><path d="M406.25 321.38a185 185 0 0 0 8.12 31.42c.06-13.85.32-27.69.69-41.54a107.6 107.6 0 0 1-4-25.79c0-.25.37-.24.39 0a148 148 0 0 0 3.69 22.19q.48-17.13 1.1-34.26a.15.15 0 0 1 .3 0c0 17.84 0 35.68-.12 53.53a142.4 142.4 0 0 0 6.06-21.2.07.07 0 0 1 .13 0c-.64 8.33-3.16 16.39-6.21 24.12-.08 11.41-.2 22.81-.46 34.22 3.56-12.13 7.36-23.87 8.39-36.69a.13.13 0 1 1 .26 0c-.27 14.13-3.9 28.47-8.53 41.76a.9.9 0 0 1-.24.34q-.15 6.24-.36 12.5a.46.46 0 0 1-.92 0q-.26-12.79-.21-25.58c-4.72-11-7.24-23.19-8.29-35 .02-.11.2-.13.21-.02" style="fill:#263238"/><path d="M407.69 315.36a71 71 0 0 1 1.47 10.28c0 .12-.17.13-.2 0a74 74 0 0 1-1.73-10.25c-.03-.24.41-.29.46-.03M420 286.91c0-.12.2-.08.2 0a26.2 26.2 0 0 1-1.06 7.09c-.05.19-.32.1-.28-.08.45-2.31.73-4.66 1.14-7.01" style="fill:#263238"/><path d="M407.22 385.54s.85-40.63-10.74-60.82-30.82-30.48-30.82-30.48 7.75 71.61 41.56 91.3" style="fill:#054b8b"/><path d="M386.09 350.8c4.87 7.05 9.72 13.85 15.69 20q-3.48-12.46-8-24.5c-6.5-5.73-12.94-11.67-16.93-19.51-.06-.12.12-.23.19-.11 4.29 6.94 10 12.5 16.05 17.84a316 316 0 0 0-16.13-35.33.26.26 0 0 1 .44-.26 195 195 0 0 1 10.12 18.55c-1.09-4.35-2-8.79-3.07-13.1a.09.09 0 0 1 .18-.05c2.06 5.43 4.1 11.43 4.76 17.23a208 208 0 0 1 10.21 27.8c-.3-6.09-.68-12.15-1.3-18.23 0-.11.18-.14.2 0a99.6 99.6 0 0 1 1.75 20.46c1.67 6.05 3.08 12.18 4.21 18.35 0 .17-.21.24-.25.07-.63-2.59-1.32-5.15-2-7.71h-.13c-6.22-6.27-12.12-13.4-16-21.39-.08-.12-.02-.15.01-.11" style="fill:#263238"/><path d="M372.66 317.74c1.29 1.4 2.47 2.88 3.72 4.32a33.6 33.6 0 0 1 3.34 3.92c0 .06 0 .13-.09.09a19.4 19.4 0 0 1-3.86-3.82 33 33 0 0 1-3.3-4.37c-.07-.11.1-.24.19-.14" style="fill:#263238"/><path d="m441.66 380.58-1.46 13-4.41 39.42h-38.4L393 393.6l-1.47-13h50.14Z" style="fill:#455a64"/><path d="m441.66 380.58-1.46 13H393l-1.47-13h50.14Z" style="fill:#37474f"/><path d="M388.11 371.14h56.96v14.75h-56.96z" style="fill:#455a64" transform="rotate(180 416.59 378.51)"/><path d="M274.75 419.41h114.9v13.6h-114.9z" style="fill:#37474f"/><path d="M297.29 419.41h4.68v13.6h-4.68zM364.9 419.41h11.23v13.6H364.9z" style="fill:#455a64"/><path d="M264.02 379.65h117.36v17.97H264.02z" style="fill:#37474f"/><path d="M332.43 385.48h28.19v6.31h-28.19zM374.75 388.63a3.73 3.73 0 1 1-3.72-3.49 3.61 3.61 0 0 1 3.72 3.49" style="fill:#054b8b"/><path d="M258.36 363.75h59.29v15.86h-59.29z" style="fill:#263238"/><path d="M317.65 363.75h54.8v15.86h-54.8z" style="fill:#263238"/><path d="M258.36 365.4h59.29v12.57h-59.29z" style="fill:#fff"/><path d="M263.52 368q9.32-.12 18.64-.18l8.43-.06 18.63.06c6.21 0 2.22.09 8.43.18-6.21.09-2.22.15-8.43.19l-18.63.05-8.43-.05q-9.32-.08-18.64-.19M263.52 370.45q9.32-.13 18.64-.18l8.43-.06 18.63.05c6.21 0 2.22.1 8.43.19-6.21.09-2.22.15-8.43.18l-18.63.06-8.43-.06q-9.32-.04-18.64-.18M263.52 372.91q9.32-.12 18.64-.18l8.43-.05 18.63.05c6.21 0 2.22.1 8.43.18-6.21.09-2.22.16-8.43.19h-27.06q-9.32-.05-18.64-.19M263.52 375.38q9.32-.13 18.64-.18l8.43-.06 18.63.06c6.21 0 2.22.09 8.43.18-6.21.09-2.22.15-8.43.18l-18.63.06-8.43-.06q-9.32-.04-18.64-.18" style="fill:#dbdbdb"/><path d="M329.79 363.75h7.72v15.86h-7.72zM364.43 363.75h5.19v15.86h-5.19z" style="fill:#455a64"/><path d="M309.77 397.61h66.77v21.8h-66.77z" style="fill:#054b8b" transform="rotate(180 343.16 408.505)"/><path d="M259.07 397.61h50.7v21.8h-50.7z" style="fill:#054b8b" transform="rotate(180 284.425 408.505)"/><path d="M309.77 399.87h66.77v17.27h-66.77z" style="fill:#fff" transform="rotate(180 343.16 408.505)"/><path d="M372.22 413.59q-7.8.14-15.61.18l-15.61.06-15.61-.06q-7.81 0-15.62-.18 7.82-.13 15.62-.18l15.61-.06 15.61.06q7.81.05 15.61.18M372.22 410.2q-7.8.14-15.61.18l-15.61.06-15.61-.05q-7.81-.06-15.62-.19 7.82-.13 15.62-.18L341 410l15.61.06q7.81.01 15.61.14M372.22 406.81q-7.8.13-15.61.19l-15.61.05-15.61-.05q-7.81-.06-15.62-.19 7.82-.13 15.62-.18l15.61-.06 15.61.06q7.81.05 15.61.18M372.22 403.42q-7.8.13-15.61.19l-15.61.05-15.61-.05q-7.81 0-15.62-.19 7.82-.14 15.62-.18l15.61-.06 15.61.06c5.21.03 10.39.1 15.61.18" style="fill:#dbdbdb"/><path d="M267.15 397.61h9.49v21.8h-9.49z" style="fill:#455a64"/></svg>