<svg xmlns="http://www.w3.org/2000/svg" viewBox="0 0 500 500"><g id="freepik--background-complete--inject-126"><path d="M92.59,312.42l-13.12.28-6.66.11c-2.23.05-4.47,0-6.7.05h-.44v-.45l-.06-11.19v-.5h.5l13.24.06c4.42,0,8.83.11,13.24.17h.28v.27c0,1.9-.09,3.79-.13,5.65Zm0,0-.14-5.65c0-1.87-.11-3.71-.13-5.54l.27.27c-4.41.05-8.82.16-13.24.17l-13.24.06.5-.5,0,11.19-.45-.45c2.18,0,4.36,0,6.55.06l6.58.11Z" style="fill:#ebebeb"></path><path d="M77.82,326.53l-13.12.28-6.66.11c-2.23.05-4.47,0-6.7.05H50.9v-.45l-.06-11.19v-.5h.5l13.24.06c4.41,0,8.83.11,13.24.17h.28v.27c0,1.9-.08,3.79-.13,5.65Zm0,0-.14-5.66c-.05-1.86-.11-3.7-.13-5.53l.27.27c-4.41.05-8.83.16-13.24.17l-13.24.06.5-.5-.05,11.19-.45-.45c2.18,0,4.36,0,6.55.06l6.58.11Z" style="fill:#ebebeb"></path><path d="M233.13,84.07,220,84.35l-6.66.11c-2.22.05-4.46,0-6.69.05h-.45v-.45l0-11.19v-.5h.5l13.24.06c4.41,0,8.82.12,13.24.17h.27v.27c0,1.9-.09,3.79-.13,5.65Zm0,0L233,78.42c-.05-1.87-.12-3.71-.14-5.54l.28.27c-4.42,0-8.83.16-13.24.17l-13.24.06.5-.5-.06,11.19-.44-.45c2.18,0,4.35,0,6.54.06l6.58.11Z" style="fill:#ebebeb"></path><path d="M218.36,98.18l-13.13.28-6.66.11c-2.23.05-4.46,0-6.69.05h-.45v-.45L191.38,87v-.5h.51l13.24.06c4.41,0,8.82.12,13.24.17h.27V87c0,1.9-.09,3.79-.13,5.65Zm0,0-.15-5.65c0-1.87-.11-3.71-.13-5.54l.28.27c-4.42,0-8.83.16-13.24.17l-13.24.06.49-.5-.05,11.19-.44-.45c2.18,0,4.35,0,6.54.06l6.58.11Z" style="fill:#ebebeb"></path><path d="M203.64,84.07l-13.12.28-6.66.11c-2.23.05-4.47,0-6.7.05h-.44v-.45l-.06-11.19v-.5h.5l13.24.06c4.42,0,8.83.12,13.24.17h.28v.27c0,1.9-.09,3.79-.14,5.65Zm0,0-.14-5.65c0-1.87-.11-3.71-.13-5.54l.27.27c-4.41,0-8.82.16-13.24.17l-13.24.06.5-.5,0,11.19-.45-.45c2.18,0,4.36,0,6.55.06l6.58.11Z" style="fill:#ebebeb"></path><path d="M448.66,326.53l-13.13.28-6.66.11c-2.22.05-4.46,0-6.69.05h-.45v-.45l-.05-11.19v-.5h.5l13.24.06c4.41,0,8.83.11,13.24.17h.27v.27c0,1.9-.08,3.79-.13,5.65Zm0,0-.14-5.66c0-1.86-.12-3.7-.13-5.53l.27.27c-4.41.05-8.83.16-13.24.17l-13.24.06.5-.5-.06,11.19-.44-.45c2.18,0,4.36,0,6.54.06l6.58.11Z" style="fill:#ebebeb"></path><path d="M400.5,220.45l-13.13.28-6.66.11c-2.22,0-4.46,0-6.69.06h-.45v-.45l-.05-11.19v-.5h.5l13.24.06c4.41,0,8.82.12,13.24.17h.27v.27c0,1.9-.09,3.79-.13,5.65Zm0,0-.14-5.65c-.05-1.87-.12-3.71-.14-5.54l.28.27c-4.42.06-8.83.16-13.24.17l-13.24.06.5-.5-.06,11.19L374,220c2.18,0,4.36,0,6.54.05l6.58.11Z" style="fill:#ebebeb"></path><path d="M433.89,52.85l-13.13.28-6.66.11c-2.22,0-4.46,0-6.69.06H407v-.45l0-11.19v-.5h.51l13.24.06c4.41,0,8.82.12,13.24.17h.27v.27c0,1.9-.09,3.79-.13,5.65Zm0,0-.14-5.65c-.05-1.87-.12-3.71-.14-5.54l.28.27c-4.42,0-8.83.16-13.24.17l-13.24.06.5-.5-.06,11.19-.44-.45c2.18,0,4.35,0,6.54.06l6.58.11Z" style="fill:#ebebeb"></path><path d="M448.66,67l-13.13.28-6.66.11c-2.22.05-4.46,0-6.69.05h-.45V67l-.05-11.19v-.5h.5l13.24.06c4.41,0,8.83.12,13.24.17h.27v.27c0,1.9-.08,3.79-.13,5.65Zm0,0-.14-5.65c0-1.87-.12-3.71-.13-5.54l.27.27c-4.41.05-8.83.16-13.24.17l-13.24.06.5-.5L422.62,67l-.44-.45c2.18,0,4.36,0,6.54.06l6.58.11Z" style="fill:#ebebeb"></path><path d="M92.59,52.85l-13.12.28-6.66.11c-2.23,0-4.47,0-6.7.06h-.44v-.45l-.06-11.19v-.5h.5l13.24.06c4.42,0,8.83.12,13.24.17h.28v.27c0,1.9-.09,3.79-.13,5.65Zm0,0-.14-5.65c0-1.87-.11-3.71-.13-5.54l.27.27c-4.41,0-8.82.16-13.24.17l-13.24.06.5-.5,0,11.19-.45-.45c2.18,0,4.36,0,6.55.06l6.58.11Z" style="fill:#ebebeb"></path><rect x="129.69" y="87.48" width="9.32" height="368.32" style="fill:#dbdbdb"></rect><rect x="360.99" y="87.48" width="9.32" height="368.32" style="fill:#dbdbdb"></rect><rect x="112.01" y="84.43" width="275.98" height="112.2" style="fill:#ebebeb"></rect><circle cx="134.05" cy="107.36" r="14.84" transform="translate(6.51 222.38) rotate(-80.74)" style="fill:#fff"></circle><circle cx="167.18" cy="107.36" r="14.84" transform="matrix(0.66, -0.75, 0.75, 0.66, -23.75, 162.35)" style="fill:#fff"></circle><circle cx="200.31" cy="107.36" r="14.84" transform="translate(49.54 277.42) rotate(-76.63)" style="fill:#fff"></circle><circle cx="233.43" cy="107.36" r="14.84" transform="translate(91.76 321.71) rotate(-81.24)" style="fill:#fff"></circle><circle cx="266.56" cy="107.36" r="14.84" transform="translate(120.03 354.57) rotate(-81.28)" style="fill:#fff"></circle><circle cx="299.69" cy="107.36" r="14.84" transform="translate(11.86 243.36) rotate(-45)" style="fill:#fff"></circle><circle cx="332.82" cy="107.36" r="14.84" transform="translate(176.7 420.29) rotate(-81.36)" style="fill:#fff"></circle><circle cx="365.95" cy="107.36" r="14.84" transform="translate(201.1 451.27) rotate(-80.74)" style="fill:#fff"></circle><circle cx="134.05" cy="140.53" r="14.84" style="fill:#fff"></circle><circle cx="167.18" cy="140.53" r="14.84" style="fill:#fff"></circle><circle cx="200.31" cy="140.53" r="14.84" style="fill:#fff"></circle><circle cx="233.43" cy="140.53" r="14.84" style="fill:#fff"></circle><circle cx="266.56" cy="140.53" r="14.84" style="fill:#fff"></circle><circle cx="299.69" cy="140.53" r="14.84" style="fill:#fff"></circle><circle cx="332.82" cy="140.53" r="14.84" style="fill:#fff"></circle><circle cx="365.95" cy="140.53" r="14.84" style="fill:#fff"></circle><circle cx="134.05" cy="173.69" r="14.84" style="fill:#fff"></circle><circle cx="167.18" cy="173.69" r="14.84" style="fill:#fff"></circle><circle cx="200.31" cy="173.69" r="14.84" style="fill:#fff"></circle><circle cx="233.43" cy="173.69" r="14.84" style="fill:#fff"></circle><circle cx="266.56" cy="173.69" r="14.84" style="fill:#fff"></circle><circle cx="299.69" cy="173.69" r="14.84" style="fill:#fff"></circle><circle cx="332.82" cy="173.69" r="14.84" style="fill:#fff"></circle><circle cx="365.95" cy="173.69" r="14.84" style="fill:#fff"></circle><rect x="112.01" y="214.2" width="275.98" height="112.2" style="fill:#ebebeb"></rect><circle cx="134.05" cy="237.14" r="14.84" style="fill:#fff"></circle><circle cx="167.18" cy="237.14" r="14.84" style="fill:#fff"></circle><circle cx="200.31" cy="237.14" r="14.84" style="fill:#fff"></circle><circle cx="233.43" cy="237.14" r="14.84" style="fill:#fff"></circle><circle cx="266.56" cy="237.14" r="14.84" style="fill:#fff"></circle><circle cx="299.69" cy="237.14" r="14.84" style="fill:#fff"></circle><circle cx="332.82" cy="237.14" r="14.84" style="fill:#fff"></circle><circle cx="365.95" cy="237.14" r="14.84" style="fill:#fff"></circle><circle cx="134.05" cy="270.3" r="14.84" style="fill:#fff"></circle><circle cx="167.18" cy="270.3" r="14.84" style="fill:#fff"></circle><circle cx="200.31" cy="270.3" r="14.84" style="fill:#fff"></circle><circle cx="233.43" cy="270.3" r="14.84" style="fill:#fff"></circle><circle cx="266.56" cy="270.3" r="14.84" style="fill:#fff"></circle><circle cx="299.69" cy="270.3" r="14.84" style="fill:#fff"></circle><circle cx="332.82" cy="270.3" r="14.84" style="fill:#fff"></circle><circle cx="365.95" cy="270.3" r="14.84" style="fill:#fff"></circle><circle cx="134.05" cy="303.47" r="14.84" transform="translate(-106.79 75.3) rotate(-22.72)" style="fill:#fff"></circle><circle cx="167.18" cy="303.47" r="14.84" transform="translate(-167.85 391.76) rotate(-75.92)" style="fill:#fff"></circle><circle cx="200.31" cy="303.47" r="14.84" transform="translate(-155.91 230.52) rotate(-45)" style="fill:#fff"></circle><circle cx="233.43" cy="303.47" r="14.84" transform="translate(-90.81 99.88) rotate(-20.31)" style="fill:#fff"></circle><circle cx="266.56" cy="303.47" r="14.84" transform="translate(-88.07 110.13) rotate(-20.11)" style="fill:#fff"></circle><circle cx="299.69" cy="303.47" r="14.84" transform="translate(-64.18 525.96) rotate(-76.8)" style="fill:#fff"></circle><circle cx="332.82" cy="303.47" r="14.84" transform="translate(-82.86 130.05) rotate(-19.71)" style="fill:#fff"></circle><circle cx="365.95" cy="303.47" r="14.84" transform="translate(-88.8 164.86) rotate(-22.72)" style="fill:#fff"></circle><path d="M390.35,196.28a5,5,0,1,1-3.63-6.13A5,5,0,0,1,390.35,196.28Z" style="fill:#dbdbdb"></path><rect x="389.72" y="170.82" width="3.85" height="25.33" transform="matrix(0.97, 0.25, -0.25, 0.97, 57.91, -91.61)" style="fill:#dbdbdb"></rect><path d="M408,193.24a5,5,0,1,1-3.62-6.14A5,5,0,0,1,408,193.24Z" style="fill:#dbdbdb"></path><rect x="407.34" y="167.77" width="3.85" height="25.33" transform="translate(57.7 -96.07) rotate(14.39)" style="fill:#dbdbdb"></rect><polygon points="414.26 168.7 392.09 174.02 392.93 170.74 415.11 165.42 414.26 168.7" style="fill:#dbdbdb"></polygon><polygon points="412.68 174.88 390.5 180.2 391.34 176.92 413.52 171.6 412.68 174.88" style="fill:#dbdbdb"></polygon><path d="M96.34,240.57a4.26,4.26,0,1,1-3.06-5.19A4.25,4.25,0,0,1,96.34,240.57Z" style="fill:#dbdbdb"></path><rect x="95.82" y="219.03" width="3.25" height="21.42" transform="translate(60.17 -17.01) rotate(14.39)" style="fill:#dbdbdb"></rect><path d="M111.24,238a4.26,4.26,0,1,1-3.06-5.19A4.26,4.26,0,0,1,111.24,238Z" style="fill:#dbdbdb"></path><rect x="110.71" y="216.46" width="3.25" height="21.42" transform="translate(60 -20.8) rotate(14.39)" style="fill:#dbdbdb"></rect><polygon points="116.57 217.24 97.82 221.74 98.53 218.96 117.28 214.47 116.57 217.24" style="fill:#dbdbdb"></polygon><path d="M155.08,313.84a5,5,0,1,1-4.45-5.56A5,5,0,0,1,155.08,313.84Z" style="fill:#dbdbdb"></path><rect x="152.64" y="288.32" width="3.85" height="25.33" transform="translate(33.88 -15.11) rotate(6.29)" style="fill:#dbdbdb"></rect><rect x="167.33" y="283.33" width="3.85" height="7.32" transform="translate(32.44 -16.81) rotate(6.29)" style="fill:#dbdbdb"></rect><polygon points="171.46 284.53 153.67 291.55 154.04 288.19 171.83 281.16 171.46 284.53" style="fill:#dbdbdb"></polygon><polygon points="170.76 290.87 152.97 297.9 153.34 294.53 171.13 287.5 170.76 290.87" style="fill:#dbdbdb"></polygon><path d="M358.54,260.07a3.16,3.16,0,1,1-2.46-3.74A3.16,3.16,0,0,1,358.54,260.07Z" style="fill:#dbdbdb"></path><rect x="357.77" y="244.06" width="2.41" height="15.89" transform="matrix(0.98, 0.2, -0.2, 0.98, 58.73, -67.71)" style="fill:#dbdbdb"></rect><rect x="367.78" y="241.84" width="2.41" height="4.59" transform="translate(57.35 -69.93) rotate(11.73)" style="fill:#dbdbdb"></rect><polygon points="370.51 242.73 358.98 246.06 359.41 243.98 370.95 240.65 370.51 242.73" style="fill:#dbdbdb"></polygon><polygon points="369.7 246.65 358.17 249.98 358.6 247.9 370.13 244.57 369.7 246.65" style="fill:#dbdbdb"></polygon><path d="M78.36,284.9a3.16,3.16,0,1,1-2.61-3.63A3.17,3.17,0,0,1,78.36,284.9Z" style="fill:#dbdbdb"></path><rect x="77.26" y="268.88" width="2.41" height="15.89" transform="translate(45.83 -9.05) rotate(9.31)" style="fill:#dbdbdb"></rect><rect x="86.93" y="266.24" width="2.41" height="4.59" transform="translate(44.63 -10.72) rotate(9.32)" style="fill:#dbdbdb"></rect><polygon points="89.6 267.07 78.21 270.88 78.56 268.79 89.94 264.98 89.6 267.07" style="fill:#dbdbdb"></polygon><polygon points="88.95 271.02 77.56 274.84 77.91 272.74 89.29 268.93 88.95 271.02" style="fill:#dbdbdb"></polygon><path d="M417.26,230.67a3.16,3.16,0,1,1-2.45-3.73A3.17,3.17,0,0,1,417.26,230.67Z" style="fill:#dbdbdb"></path><rect x="416.49" y="214.67" width="2.41" height="15.89" transform="matrix(0.98, 0.2, -0.2, 0.98, 53.98, -80.26)" style="fill:#dbdbdb"></rect><rect x="426.5" y="212.45" width="2.41" height="4.59" transform="translate(52.6 -82.48) rotate(11.73)" style="fill:#dbdbdb"></rect><polygon points="429.24 213.34 417.7 216.67 418.13 214.59 429.67 211.26 429.24 213.34" style="fill:#dbdbdb"></polygon><polygon points="428.42 217.26 416.89 220.59 417.32 218.51 428.85 215.18 428.42 217.26" style="fill:#dbdbdb"></polygon></g><g id="freepik--Floor--inject-126"><polygon points="37.02 455.8 90.27 455.56 143.51 455.47 250 455.31 356.49 455.47 409.74 455.56 462.98 455.8 409.74 456.05 356.49 456.14 250 456.3 143.51 456.13 90.27 456.05 37.02 455.8" style="fill:#263238"></polygon></g><g id="freepik--Speakers--inject-126"><polygon points="159.68 455.77 74.67 455.77 83.31 310.78 149.09 330.19 159.68 455.77" style="fill:#455a64"></polygon><path d="M148.47,415.71c1.16,17.45-13.42,31.37-32.56,31.08s-33.65-16.4-32.41-36,15.83-33.51,32.56-31.08S147.31,398.26,148.47,415.71Z" style="fill:#37474f"></path><path d="M139.54,415c.6,12.87-10,23-23.61,22.54s-24.16-12.1-23.49-26.1,11.23-24.08,23.6-22.53S138.94,402.17,139.54,415Z" style="fill:#263238"></path><path d="M120.19,353c.07,10.43-7.43,17.64-16.76,16.11S87.1,357.36,87.8,346.24s8.21-18.33,16.76-16.11S120.11,342.6,120.19,353Z" style="fill:#37474f"></path><path d="M113.36,351.6c-.06,6.11-4.39,10.28-9.69,9.32s-9.35-6.9-9-13.25,4.65-10.51,9.69-9.31S113.41,345.49,113.36,351.6Z" style="fill:#263238"></path><path d="M144.46,350.6c.38,5.69-3.5,9.45-8.67,8.4s-9.46-6.69-9.59-12.6,3.76-9.68,8.67-8.41S144.08,344.91,144.46,350.6Z" style="fill:#37474f"></path><path d="M140.61,349.71c.19,3.32-2.05,5.49-5,4.86s-5.44-3.9-5.55-7.29,2.14-5.56,5-4.85S140.42,346.4,140.61,349.71Z" style="fill:#263238"></path><polygon points="83.31 310.78 74.67 455.77 44.84 455.77 61.48 322.24 83.31 310.78" style="fill:#37474f"></polygon><polygon points="340.32 455.77 425.33 455.77 416.69 310.78 350.91 330.19 340.32 455.77" style="fill:#455a64"></polygon><path d="M351.53,415.71c-1.16,17.45,13.42,31.37,32.56,31.08s33.65-16.4,32.41-36-15.83-33.51-32.56-31.08S352.69,398.26,351.53,415.71Z" style="fill:#37474f"></path><path d="M360.46,415c-.6,12.87,10,23,23.61,22.54s24.16-12.1,23.49-26.1-11.23-24.08-23.6-22.53S361.06,402.17,360.46,415Z" style="fill:#263238"></path><path d="M379.81,353c-.07,10.43,7.43,17.64,16.76,16.11s16.33-11.78,15.63-22.9-8.21-18.33-16.76-16.11S379.89,342.6,379.81,353Z" style="fill:#37474f"></path><path d="M386.64,351.6c.06,6.11,4.39,10.28,9.69,9.32s9.35-6.9,9-13.25-4.65-10.51-9.69-9.31S386.59,345.49,386.64,351.6Z" style="fill:#263238"></path><path d="M355.54,350.6c-.38,5.69,3.5,9.45,8.67,8.4s9.46-6.69,9.59-12.6-3.76-9.68-8.67-8.41S355.92,344.91,355.54,350.6Z" style="fill:#37474f"></path><path d="M359.39,349.71c-.19,3.32,2.05,5.49,5,4.86s5.44-3.9,5.55-7.29-2.14-5.56-5-4.85S359.58,346.4,359.39,349.71Z" style="fill:#263238"></path><polygon points="416.69 310.78 425.33 455.77 455.16 455.77 438.52 322.24 416.69 310.78" style="fill:#37474f"></polygon><path d="M406.18,308.35c-.21-7-.31-13.91-.39-20.86l-.11-20.87.11-20.87.14-10.43c.08-3.48.13-7,.25-10.43.11,3.47.16,7,.24,10.43l.14,10.43.11,20.87-.11,20.87C406.48,294.44,406.38,301.4,406.18,308.35Z" style="fill:#263238"></path><path d="M386.75,310.39c-1.69-4.1-3.28-8.25-4.86-12.39s-3.07-8.33-4.61-12.49-3-8.36-4.39-12.56l-2.12-6.31c-.67-2.11-1.37-4.22-2-6.34.85,2.05,1.65,4.12,2.48,6.18l2.38,6.21c1.57,4.15,3.07,8.32,4.6,12.49s3,8.36,4.39,12.56S385.45,306.15,386.75,310.39Z" style="fill:#263238"></path><path d="M365.73,315.72a100.21,100.21,0,0,1-7.35-7.66,96.77,96.77,0,0,1-6.6-8.32,100.13,100.13,0,0,1,7.35,7.66A102.08,102.08,0,0,1,365.73,315.72Z" style="fill:#263238"></path><path d="M421,307.86a101.36,101.36,0,0,1,8.23-6.72,99.51,99.51,0,0,1,8.81-5.91,111.83,111.83,0,0,1-17,12.63Z" style="fill:#263238"></path><path d="M93.82,308.35c-.2-7-.3-13.91-.38-20.86l-.11-20.87.11-20.87.14-10.43c.08-3.48.13-7,.24-10.43.12,3.47.17,7,.25,10.43l.14,10.43.11,20.87-.11,20.87C94.13,294.44,94,301.4,93.82,308.35Z" style="fill:#263238"></path><path d="M113.25,310.39c1.3-4.24,2.71-8.45,4.14-12.65s2.93-8.38,4.39-12.56,3-8.34,4.6-12.49l2.38-6.21c.83-2.06,1.63-4.13,2.48-6.18-.64,2.12-1.34,4.23-2,6.34L127.11,273c-1.43,4.2-2.93,8.38-4.39,12.56s-3,8.34-4.61,12.49S114.94,306.29,113.25,310.39Z" style="fill:#263238"></path><path d="M134.27,315.72a102.08,102.08,0,0,1,6.6-8.32,100.13,100.13,0,0,1,7.35-7.66,96.77,96.77,0,0,1-6.6,8.32A100.21,100.21,0,0,1,134.27,315.72Z" style="fill:#263238"></path><path d="M79,307.86a111.83,111.83,0,0,1-17-12.63,99.51,99.51,0,0,1,8.81,5.91A101.36,101.36,0,0,1,79,307.86Z" style="fill:#263238"></path></g><g id="freepik--Character--inject-126"><path d="M296.63,131.84l-7.82-.29a24,24,0,0,1-1.62-14.5c.2-1.12-2.86,5.2-2.35,14.36-8.26-.31-19.49-.72-29.3-1.18,0-3.84-.09-7.4-.09-7.4a43,43,0,0,1-2,7.31l-3.91-.19a148.45,148.45,0,0,0,.26-16.34,52.21,52.21,0,0,1-5.83,16c-6.23-.35-10.32-.7-10-1,10.07-10.22,3.56-16.85,6.81-26.2,3.91-11.19,13.83-12.4,14.06-21,.21-7,.11-19.66,9.06-21.82a17,17,0,0,1,18.6-2.41c13.57,6.17,6.77,27.3,7.45,31.72,1,6.32,3.81,8.7,5.59,16s-1.74,11.91-2.41,16.77S298.2,131.92,296.63,131.84Z" style="fill:#455a64"></path><path d="M233.7,127.11a24.44,24.44,0,0,0,3.39-5.91,12.74,12.74,0,0,0,.37-6.53,67.52,67.52,0,0,1-.72-7,18,18,0,0,1,1.12-7.12A15.89,15.89,0,0,1,242,94.65a42.73,42.73,0,0,1,5.62-4.22,26.1,26.1,0,0,0,5.22-4.27,12.64,12.64,0,0,0,2.87-6.07,11.71,11.71,0,0,1-2.21,6.59,23.86,23.86,0,0,1-5.08,4.86,52.26,52.26,0,0,0-5.25,4.32,15.13,15.13,0,0,0-3.59,5.39,17.9,17.9,0,0,0-1.05,6.45c0,2.23.28,4.5.44,6.82a23.5,23.5,0,0,1,0,3.56,9.89,9.89,0,0,1-1,3.49A19.49,19.49,0,0,1,233.7,127.11Z" style="fill:#455a64"></path><path d="M289.78,65.73a35.29,35.29,0,0,1,1.39,8.42c.18,2.85.22,5.69.24,8.53l0,4.23a21.69,21.69,0,0,0,.39,4.07,22.78,22.78,0,0,0,3.36,7.42,33.52,33.52,0,0,1,2.05,3.85,20.25,20.25,0,0,1,1.29,4.25,30.9,30.9,0,0,1,.35,4.38,18,18,0,0,1-.51,4.38c-.34,1.44-.83,2.79-1.26,4.11a21.81,21.81,0,0,0-.9,4,8.71,8.71,0,0,0,3,7.39,8.82,8.82,0,0,1-3.86-7.44,21.45,21.45,0,0,1,.63-4.31c.33-1.4.77-2.74,1-4.08a22.51,22.51,0,0,0-.16-8.14,19.19,19.19,0,0,0-1.23-3.85,30.59,30.59,0,0,0-2-3.63,41.8,41.8,0,0,1-2.1-3.8,17.93,17.93,0,0,1-1.39-4.23,22.73,22.73,0,0,1-.3-4.4c0-1.43.07-2.85.13-4.27.12-2.83.27-5.65.3-8.47A41.22,41.22,0,0,0,289.78,65.73Z" style="fill:#455a64"></path><path d="M287.36,118c8.1,12.1,16.52,31.44,22.27,47.48,2.52,7,8.86,21.69,10.44,25.5,2.08,5-24.26,10.16-25.31,6.58-.69-2.33-5.37-19.1-7.39-30.63-2.6-14.81-7.7-32.95-8.83-48C277.74,108.22,284.19,113.28,287.36,118Z" style="fill:#ffc4c0"></path><path d="M303.17,207.85c-1-1.21-1.67-.68-1.57,2.14s2.9,13.91-1.05,14.56-7.68-15-7.49-19.76,2.15-12.27,2.15-12.27C296.55,195.43,300.47,202.18,303.17,207.85Z" style="fill:#ffc4c0"></path><path d="M317.31,184.76c3.75,8.43,8.58,18.81,7.18,28.9a5.06,5.06,0,0,1-1.43,3c-.54,4.54-2.85,5.64-2.85,5.64-1.8,4.07-4.31,4.87-4.31,4.87s-.7,5.32-4,5.43c-3.68.13-2-7.36-3.56-12.05-3.63-10.75-11.79-25-13.15-28Z" style="fill:#ffc4c0"></path><path d="M312.47,206.59a72.86,72.86,0,0,1,2.65,9.59,73.36,73.36,0,0,1,.69,10.88.09.09,0,0,0,.18,0,38.61,38.61,0,0,0-3.37-20.53C312.55,206.4,312.42,206.43,312.47,206.59Z" style="fill:#263238"></path><path d="M318.64,203.46c.81,3.15,2.19,8.7,1.47,18.81,0,0,.05,0,.06,0a34.61,34.61,0,0,0-1.38-18.86C318.73,203.23,318.59,203.25,318.64,203.46Z" style="fill:#263238"></path><path d="M322,201.84c1.17,5.41,1.21,9,1.05,14.78,0,0,.06,0,.06,0,.88-6.58.45-9.07-.93-14.86C322.12,201.57,321.94,201.63,322,201.84Z" style="fill:#263238"></path><path d="M320.19,186.84l-28.65,6.94S277,124.94,276.77,117c-.25-7.65,3.33-11.6,11.34-.36C298,130.43,320.19,186.84,320.19,186.84Z" style="fill:#2B9B52"></path><path d="M281.92,110.17c-1.4.3-2.81.6-4.19,1C278.56,109.6,280,109.09,281.92,110.17ZM281.21,143a3.42,3.42,0,0,0-.44-2.28C280.92,141.47,281.06,142.23,281.21,143Zm17.64,7c-2.26-1.44-4.81-2.68-6.43-4.75s-2.1-4.62-.12-6.63a17.52,17.52,0,0,1,5.78-3.58l-.43-.9a23.61,23.61,0,0,0-5.21,3c-1.92,1.48-3,3.48-2.45,5.76,1.19,5.06,7.34,6.63,10.92,10a11.67,11.67,0,0,1,3.21,11.51,10.53,10.53,0,0,1-3.28,5.31,8.7,8.7,0,0,1-6.34,2.18,4.85,4.85,0,0,1-4.23-4.12c-.43-2.21.13-4.4.47-6.58s.51-4.44-.57-6.43a5.6,5.6,0,0,0-4.32-2.87A8.15,8.15,0,0,0,283,152c.06.32.13.64.19,1a6.77,6.77,0,0,1,2.57-.15,4.68,4.68,0,0,1,4,3.86c.49,2.3-.21,4.61-.56,6.88a10.35,10.35,0,0,0,.45,6,5.89,5.89,0,0,0,4.86,3.31c4.63.44,8.57-3,10.15-6.56a12.69,12.69,0,0,0-.87-11.72A15.08,15.08,0,0,0,298.85,150Zm-10.08-32.44c-.22-.34-.44-.66-.65-1a41,41,0,0,1-10.27,8.17c.06.4.13.8.2,1.22A38.69,38.69,0,0,0,288.77,117.56Zm6.5,11.7-.24.07c-5.07,1.35-10.39,1.18-15.61,1.3l-.54,0c.07.36.13.73.2,1.1,1.63-.05,3.26-.05,4.87-.09a49.25,49.25,0,0,0,11.8-1.43Zm23.18,53.22c-1.95,1.13-3.87,2.29-5.9,3.31s-5.21,2.7-7.47,1a4.56,4.56,0,0,1-1.5-5.18c.82-2.19,3-3.72,5.25-4.74a29.87,29.87,0,0,1,6.53-2c-.13-.31-.26-.63-.4-1-4,.82-8.13,2.11-10.8,4.88a6.16,6.16,0,0,0-1.9,5.45,5.35,5.35,0,0,0,3.35,4c2.54.91,5.25-.46,7.43-1.55,2-1,3.89-2.14,5.81-3.25Z" style="opacity:0.1"></path><path d="M316.49,181.63a45.5,45.5,0,0,0-5.92,1c-2,.4-3.94.84-5.91,1.29s-4,.9-6,1.4-4.06,1.15-6.09,1.72c-.12,0-.12.24,0,.22,2-.35,3.94-.62,5.92-1s3.93-.84,5.9-1.29,4-.91,6-1.4a52.32,52.32,0,0,0,6.09-1.73C316.58,181.78,316.59,181.62,316.49,181.63Z" style="fill:#263238"></path><path d="M356.32,456.22c-2.56.83-75.58-.12-78.34-1.92-1.05-.67-1.54-11.32-1.75-24.2v-.4c-.05-2.66-.09-5.39-.09-8.16,0-.38,0-.76,0-1.14-.1-18.6.2-37.89.2-37.89l48.85.49-1.47,37.53-.06,1.48-.29,7.77,0,.8s27.79,12.87,30.61,15.17S358.89,455.41,356.32,456.22Z" style="fill:#ffc4c0"></path><path d="M334.38,435.58c-.19-.06-.29-.11-.3-.17Z" style="fill:#2B9B52"></path><path d="M357.76,456.43c-1.7.53-33.3.26-56.3-.5-5.32-.18-10.19-.39-14.11-.61-5.41-.31-9-.65-9.62-1-1-.66-2.2-30.48-1.89-34L324,421l.09,9.18s28.37,13.21,31.24,15.56S360.37,455.59,357.76,456.43Z" style="fill:#2B9B52"></path><path d="M356,453.42c-12.5-.5-63-1.32-75.35-.86-.1,0-.1.07,0,.07,12.38.77,62.84,1.18,75.35,1C356.3,453.62,356.3,453.43,356,453.42Z" style="fill:#263238"></path><path d="M325.2,427.4c-4.9-1-10.93-.33-14.75,3.12-.14.13.05.34.21.29A69.43,69.43,0,0,1,325.17,428,.31.31,0,0,0,325.2,427.4Z" style="fill:#263238"></path><path d="M328.72,429.59c-4.9-1-10.93-.33-14.75,3.12-.14.14,0,.34.21.3a69.45,69.45,0,0,1,14.51-2.8A.31.31,0,0,0,328.72,429.59Z" style="fill:#263238"></path><path d="M332.24,431.79c-4.91-1-10.93-.33-14.75,3.12-.15.13.05.34.21.29a68.67,68.67,0,0,1,14.51-2.79A.31.31,0,0,0,332.24,431.79Z" style="fill:#263238"></path><path d="M335.76,434c-4.91-1-10.94-.33-14.75,3.12-.15.13.05.34.21.29a70,70,0,0,1,14.51-2.79A.31.31,0,0,0,335.76,434Z" style="fill:#263238"></path><path d="M334.46,416.16c-1.89-2.69-5.51-1.55-7.59.14a26.36,26.36,0,0,0-7.75,11.16.14.14,0,0,0,.12.18.61.61,0,0,0,.76.63c4.08-1.45,8.63-2.48,12.15-5.14C334.21,421.58,336.25,418.71,334.46,416.16Zm-8.71,8.65c-2,.76-4,1.42-6,2.25,1.52-2.17,2.94-4.4,4.67-6.42a30.24,30.24,0,0,1,2.65-2.78c1.48-1.31,7.32-4.05,6.37,1.33C332.94,422.16,328.12,423.91,325.75,424.81Z" style="fill:#263238"></path><path d="M306.64,426c4,1.8,8.69,1.78,13,2.26.44.05.67-.41.6-.78a.14.14,0,0,0,.07-.2,26.24,26.24,0,0,0-10.07-9.12c-2.41-1.18-6.19-1.48-7.43,1.57C301.64,422.6,304.28,424.94,306.64,426Zm-2.17-3.54c-2.14-5,4.17-3.67,5.91-2.73a29.59,29.59,0,0,1,3.21,2.11c2.14,1.57,4,3.42,6,5.19-2.1-.36-4.21-.55-6.32-.84C310.74,425.83,305.65,425.22,304.47,422.44Z" style="fill:#263238"></path><path d="M303.58,456l-2.12-.07c-5.32-.18-10.19-.39-14.11-.61-5.42-.32-9-.66-9.63-1s-1.51-15.56-1.81-25.58Z" style="opacity:0.1"></path><path d="M250.17,172.16S272.29,295.55,274.08,305c.41,2.15.67,13.81.84,28.8.26,22.68-5.52,50.93-5.56,70.45a21.11,21.11,0,0,0,5.71,14.17h51.48a25.69,25.69,0,0,0,3.66-14.17c-.51-28.74-5.72-85.32-7.47-99.77-2.28-18.83-28-132.29-28-132.29Z" style="fill:#37474f"></path><path d="M324.22,408.25c-8-.17-5.72-.23-13.76-.31-3.93,0-29.76-.26-33.43.35a.08.08,0,0,0,0,.16c3.67.61,29.5.38,33.43.34,8-.07,5.73-.14,13.76-.31A.12.12,0,0,0,324.22,408.25Z" style="fill:#263238"></path><path d="M280.82,292.83q-2.11-10.93-4.29-21.86c-2.89-14.42-5.75-28.84-8.83-43.22s-6.38-28.84-9.68-43.24q-.61-2.69-1.25-5.36c0-.18-.31-.1-.28.08,6,28.79,12.25,57.55,18,86.41q2.15,10.82,4.21,21.65c1.35,7,2.94,14,3.43,21.16.49,7.3,0,14.63-.35,21.92s-.66,14.64-1.05,22c-.88,16.37-2.15,32.7-3.68,49,0,.12.2.15.22,0,2.18-14.42,3.3-29,4.18-43.59.45-7.32.83-14.63,1.18-22s.87-14.63.81-21.94A116.68,116.68,0,0,0,280.82,292.83Z" style="fill:#263238"></path><path d="M291.12,172.16,271.05,288.35c-6.51-36-20.88-116.19-20.88-116.19Z" style="fill:#263238"></path><path d="M285.39,460.58c-2.61.64-75.39-5.48-78-7.47-1-.74-.73-11.4,0-24.26,0-.14,0-.27,0-.41.14-2.65.3-5.38.49-8.14,0-.38,0-.76.07-1.14,1.21-18.56,2.87-37.78,2.87-37.78l48.7,3.95-4.13,37.33-.16,1.48-.84,7.73-.09.79s26.81,14.8,29.46,17.3S288,459.94,285.39,460.58Z" style="fill:#ffc4c0"></path><path d="M266.07,438.41c-.16-.06-.25-.12-.26-.16Z" style="fill:#2B9B52"></path><path d="M286.78,461.15c-1.73.42-33.23-2-56.12-4.39-5.3-.55-10.14-1.09-14-1.58-5.37-.69-9-1.28-9.53-1.7-1-.74-.08-30.56.47-34l48,4-.54,9.17s27.38,15.14,30.09,17.68S289.44,460.5,286.78,461.15Z" style="fill:#2B9B52"></path><path d="M285.28,458c-12.44-1.36-62.72-5.68-75.11-6.08-.1,0-.11.07,0,.08,12.3,1.62,62.61,5.52,75.1,6.2C285.53,458.25,285.54,458.06,285.28,458Z" style="fill:#263238"></path><path d="M256.32,429.94c-4.83-1.33-10.89-1.08-14.93,2.09-.16.13,0,.35.18.31a69.65,69.65,0,0,1,14.67-1.78A.32.32,0,0,0,256.32,429.94Z" style="fill:#263238"></path><path d="M259.67,432.38c-4.82-1.33-10.88-1.09-14.92,2.09-.16.12,0,.34.18.3A69.65,69.65,0,0,1,259.6,433,.31.31,0,0,0,259.67,432.38Z" style="fill:#263238"></path><path d="M263,434.81c-4.82-1.33-10.88-1.09-14.93,2.09-.15.12,0,.34.19.31A68.84,68.84,0,0,1,263,435.43.32.32,0,0,0,263,434.81Z" style="fill:#263238"></path><path d="M266.39,437.24c-4.82-1.33-10.89-1.08-14.93,2.09-.15.13,0,.35.19.31a68.84,68.84,0,0,1,14.67-1.78A.32.32,0,0,0,266.39,437.24Z" style="fill:#263238"></path><path d="M266.33,419.37c-1.7-2.82-5.39-1.93-7.58-.38a26.29,26.29,0,0,0-8.5,10.59.13.13,0,0,0,.1.19c0,.37.28.8.71.68,4.18-1.16,8.79-1.88,12.48-4.28C265.7,424.77,267.94,422,266.33,419.37Zm-9.29,8c-2,.62-4.1,1.13-6.12,1.83,1.67-2.06,3.23-4.19,5.1-6.08a30.28,30.28,0,0,1,2.84-2.59c1.57-1.2,7.58-3.54,6.26,1.77C264.4,425.25,259.47,426.66,257,427.4Z" style="fill:#263238"></path><path d="M237.89,427.25c3.9,2.06,8.55,2.37,12.81,3.15.44.08.71-.37.66-.74a.13.13,0,0,0,.08-.19,26.26,26.26,0,0,0-9.41-9.8c-2.32-1.34-6.08-1.9-7.52,1.06C233.14,423.52,235.62,426,237.89,427.25ZM236,423.57c-1.78-5.17,4.42-3.38,6.09-2.32a28.5,28.5,0,0,1,3.05,2.32c2,1.72,3.78,3.7,5.63,5.6-2.08-.51-4.17-.84-6.26-1.28C242,427.38,237,426.41,236,423.57Z" style="fill:#263238"></path><path d="M258.17,418.58l-51.43-2.18s-4.8-5.87-3.59-15.65c3.88-31.44,16-89.17,16.19-94.46.38-10.32,5.33-52.87,9.48-87.33,0,0-7.87-18.66,6.86-46.84h59.1s-4,26.82-10.74,43.82a78.81,78.81,0,0,0-13.14,6s-1.82,77.41-2,87c-.35,14.88-3.49,70-5.6,97.41A21.52,21.52,0,0,1,258.17,418.58Z" style="fill:#37474f"></path><path d="M256.8,408c-8-.51-5.71-.48-13.74-.89-3.92-.21-29.72-1.53-33.42-1.07-.08,0-.08.14,0,.16,3.64.76,29.46,1.63,33.39,1.76,8,.26,5.73.1,13.76.27A.12.12,0,0,0,256.8,408Z" style="fill:#263238"></path><path d="M271.31,221.85a.3.3,0,0,0-.6,0c-.34,3.76-.3,7.59-.4,11.37s-.22,7.68-.33,11.52c-.23,7.62-.49,15.24-.68,22.87-.11,4.26-.22,8.54-.15,12.81,0,.12.17.1.18,0,.83-7.59,1.14-15.25,1.43-22.88s.44-15.25.55-22.88C271.37,230.42,271.58,226.1,271.31,221.85Z" style="fill:#263238"></path><path d="M253.85,175.94a.21.21,0,0,0-.24,0c-.3.14-.39.7-.5,1-.25.63-.5,1.27-.73,1.91-.48,1.28-.93,2.56-1.4,3.84-.84,2.28-1.62,4.56-3.29,6.39a18.09,18.09,0,0,1-5.25,3.74c-2.31,1.19-4.82,1.62-7.27,2.39-.2.06-.16.4.06.38,1.26-.15,2.53-.47,3.77-.72s2.45-.56,3.65-.94a14.2,14.2,0,0,0,5.76-3.38,13.63,13.63,0,0,0,3.29-6.23c.36-1.29.69-2.59,1.05-3.88.18-.65.37-1.3.53-2,.1-.38.19-.75.28-1.13,0-.15.25-.63.18-.86C254,176.36,254.08,176.18,253.85,175.94Z" style="fill:#263238"></path><path d="M237.56,175.77a57.53,57.53,0,0,0-6.21,38,49.88,49.88,0,0,1,.94,11.24c-.19,3.79-.69,7.56-1.09,11.33Q230,247.7,228.79,259c-1.61,15.2-3.1,30.42-4.94,45.6s-3.79,30.19-5.94,45.25-4.63,29.94-7.18,44.87c-.33,1.9-.66,3.79-1,5.69,0,.11.15.16.17,0,3.19-14.79,5.75-29.71,8.08-44.66s4.45-29.76,6-44.71,3.29-30,4.89-45q1.2-11.34,2.41-22.66.6-5.67,1.18-11.33a75,75,0,0,0,.64-11.2c-.17-3.6-1.09-7.09-1.54-10.66a56.36,56.36,0,0,1-.35-9.89,57.64,57.64,0,0,1,4.6-19.78q1-2.32,2.19-4.56A.28.28,0,0,0,237.56,175.77Z" style="fill:#263238"></path><path d="M286.28,214.78a97.19,97.19,0,0,0-15.38,7.16c-.19.11-.07.41.14.32,5.18-2.23,10.47-4.36,15.52-6.87A.34.34,0,0,0,286.28,214.78Z" style="fill:#263238"></path><path d="M287.93,179.22c0-.18-.33-.22-.33,0a173.09,173.09,0,0,1-.87,17.32c-.24,2.67-2.39,17.42-7,16.34-.78-.18-1.17-.94-1.3-2.11a18.93,18.93,0,0,1,.62-4.52c.51-3.09.93-6.19,1.19-9.31a84.12,84.12,0,0,0-.19-17.45.15.15,0,0,0-.3,0,159.07,159.07,0,0,1-1.41,24.09c-.57,3.83-2.51,9.61,1.51,10.2s6.73-9.07,7.23-11.72A88.61,88.61,0,0,0,287.93,179.22Z" style="fill:#263238"></path><path d="M279.84,213.25a23.45,23.45,0,0,0-1,3.06,6.77,6.77,0,0,0-.43,2.51c0,.16.23.18.32.07a8.81,8.81,0,0,0,1.07-2.45c.35-.94.73-1.88,1.05-2.84A.52.52,0,0,0,279.84,213.25Z" style="fill:#263238"></path><path d="M279.27,172.05a5,5,0,0,0-.45,2.28.41.41,0,0,0,.44.38.42.42,0,0,0,.38-.44,4.75,4.75,0,0,1,.18-1.34.56.56,0,0,0,0-.12s.06-.17,0-.05l.06-.18.07-.16a.43.43,0,0,0-.18-.56.43.43,0,0,0-.56.19Z" style="fill:#c7c7c7"></path><path d="M278.84,176.12a5,5,0,0,0-.45,2.28.41.41,0,0,0,.44.38.41.41,0,0,0,.38-.44,4.68,4.68,0,0,1,.18-1.33.65.65,0,0,0,0-.13l0,0,.06-.17c0-.06.05-.11.07-.17a.41.41,0,0,0-.74-.37Z" style="fill:#c7c7c7"></path><path d="M277.93,179.84a4.91,4.91,0,0,0-1.2,2,.41.41,0,0,0,.29.5.4.4,0,0,0,.5-.28,4.45,4.45,0,0,1,.63-1.2l.07-.1s.11-.14,0,0l.12-.15.12-.13a.41.41,0,1,0-.57-.59Z" style="fill:#c7c7c7"></path><path d="M275.76,183.39a5,5,0,0,0-1.65,1.63.41.41,0,0,0,.71.41,4.48,4.48,0,0,1,.9-1l.1-.08.05,0,.15-.1.15-.1a.43.43,0,0,0,.16-.56.43.43,0,0,0-.57-.16Z" style="fill:#c7c7c7"></path><path d="M272.83,186.18a4.9,4.9,0,0,0-1.89,1.35.41.41,0,1,0,.64.52,4.3,4.3,0,0,1,1-.85l.12-.07,0,0L273,187l.16-.07a.43.43,0,0,0,.25-.53.42.42,0,0,0-.53-.24Z" style="fill:#c7c7c7"></path><path d="M269.41,188.45a5,5,0,0,0-2,1.21.41.41,0,0,0,0,.58.42.42,0,0,0,.59,0,4.34,4.34,0,0,1,1.1-.77l.12,0s.16-.07.05,0l.17-.07.17-.05a.43.43,0,0,0,.28-.51.42.42,0,0,0-.51-.29Z" style="fill:#c7c7c7"></path><path d="M265.94,190.48a5,5,0,0,0-2,1.11.41.41,0,1,0,.57.59,4.56,4.56,0,0,1,1.14-.71l.12-.05.06,0,.17-.06.17-.05a.42.42,0,0,0-.19-.81Z" style="fill:#c7c7c7"></path><path d="M262.39,192.42a5,5,0,0,0-2.05,1.1.42.42,0,0,0,0,.58.41.41,0,0,0,.58,0,4.38,4.38,0,0,1,1.15-.72l.12-.05.05,0,.17-.06.17-.05a.41.41,0,0,0-.18-.8Z" style="fill:#c7c7c7"></path><path d="M258.58,194.43a5.07,5.07,0,0,0-2.05,1.11.41.41,0,1,0,.58.59,4.05,4.05,0,0,1,1.14-.71l.12,0,.05,0,.17-.06.17,0a.43.43,0,0,0,.31-.5.42.42,0,0,0-.49-.31Z" style="fill:#c7c7c7"></path><path d="M255,196.65a5.08,5.08,0,0,0-1.71,1.58.41.41,0,1,0,.7.44,4.54,4.54,0,0,1,.93-1l.11-.08,0,0,.16-.1.15-.09a.42.42,0,0,0-.38-.74Z" style="fill:#c7c7c7"></path><path d="M252.1,199.84a5,5,0,0,0-1.37,1.88.43.43,0,0,0,.24.53.42.42,0,0,0,.53-.24,4.43,4.43,0,0,1,.73-1.14l.08-.1,0,0,.13-.13.13-.12a.41.41,0,0,0,.07-.58.42.42,0,0,0-.58-.06Z" style="fill:#c7c7c7"></path><path d="M249.82,203.3a5,5,0,0,0-1,2.09.41.41,0,1,0,.81.15,4.51,4.51,0,0,1,.51-1.25l.07-.11,0-.05.1-.15.11-.14a.41.41,0,1,0-.62-.54Z" style="fill:#c7c7c7"></path><path d="M248.28,207.21a5,5,0,0,0-.76,2.19.42.42,0,0,0,.83.06,4,4,0,0,1,.36-1.3l0-.12s.08-.16,0,0a.8.8,0,0,1,.08-.16,1,1,0,0,1,.09-.15.42.42,0,0,0-.1-.58.42.42,0,0,0-.58.11Z" style="fill:#c7c7c7"></path><path d="M247,211.12a5,5,0,0,0-.89,2.15.41.41,0,0,0,.36.46.42.42,0,0,0,.46-.36,4.26,4.26,0,0,1,.44-1.27l.06-.12,0,0,.09-.16.1-.14a.41.41,0,0,0-.65-.51Z" style="fill:#c7c7c7"></path><path d="M245.47,215a5,5,0,0,0-1.25,2,.41.41,0,1,0,.79.24,4.21,4.21,0,0,1,.65-1.17.76.76,0,0,0,.08-.11l0,0,.12-.14.12-.12a.41.41,0,1,0-.55-.62Z" style="fill:#c7c7c7"></path><path d="M243.11,218.3a4.86,4.86,0,0,0-1.87,1.36.41.41,0,1,0,.64.52,4.34,4.34,0,0,1,1-.86l.11-.07s.15-.08.05,0l.16-.09.16-.07a.41.41,0,1,0-.29-.77Z" style="fill:#c7c7c7"></path><path d="M239.91,220.59a5.06,5.06,0,0,0-2.32.12.42.42,0,0,0,.26.79,4.28,4.28,0,0,1,1.34-.16h.13s.18,0,.06,0l.18,0,.17,0a.41.41,0,1,0,.18-.8Z" style="fill:#c7c7c7"></path><path d="M236.06,220.47a5.09,5.09,0,0,0-1.86-1.39.41.41,0,1,0-.3.77,4.32,4.32,0,0,1,1.13.74l.09.08,0,0,.13.13.12.14a.42.42,0,0,0,.58.07.41.41,0,0,0,.07-.58Z" style="fill:#c7c7c7"></path><path d="M233.13,217.67a5.13,5.13,0,0,0-1.15-2,.42.42,0,0,0-.58,0,.43.43,0,0,0,0,.59,4.3,4.3,0,0,1,.73,1.13l.06.12s.06.16,0,.05l.06.17.06.17a.42.42,0,0,0,.5.3.42.42,0,0,0,.3-.5Z" style="fill:#c7c7c7"></path><path d="M231.16,214.05a5,5,0,0,0-.48-2.28.42.42,0,0,0-.56-.17.41.41,0,0,0-.17.55,4.4,4.4,0,0,1,.36,1.3s0,.09,0,.13,0,.17,0,.06c0,.06,0,.12,0,.18V214a.41.41,0,0,0,.39.43.4.4,0,0,0,.43-.38Z" style="fill:#c7c7c7"></path><path d="M230.3,210a5.05,5.05,0,0,0,0-2.32.42.42,0,0,0-.8.23,4.27,4.27,0,0,1,.11,1.34s0,.09,0,.13,0,.17,0,.06l0,.18,0,.17a.41.41,0,1,0,.8.21Z" style="fill:#c7c7c7"></path><path d="M230.28,205.78a4.92,4.92,0,0,0,.12-2.32.42.42,0,0,0-.5-.31.42.42,0,0,0-.31.49,4.36,4.36,0,0,1,0,1.35.59.59,0,0,0,0,.13s0,.17,0,0a1.29,1.29,0,0,1,0,.19s0,.11,0,.17a.41.41,0,0,0,.26.52.42.42,0,0,0,.52-.27Z" style="fill:#c7c7c7"></path><path d="M230.38,201.63a5,5,0,0,0,.36-2.3.42.42,0,0,0-.46-.36.41.41,0,0,0-.36.46,4.39,4.39,0,0,1-.13,1.34l0,.12s0,.17,0,.06l-.06.17-.06.17a.4.4,0,0,0,.2.54.42.42,0,0,0,.55-.2Z" style="fill:#c7c7c7"></path><path d="M230.94,197.5a5.06,5.06,0,0,0,.15-2.32.41.41,0,1,0-.81.17,4.7,4.7,0,0,1,0,1.35l0,.12s0,.18,0,.06c0,.06,0,.12-.05.18a1,1,0,0,1,0,.17.4.4,0,0,0,.25.52.42.42,0,0,0,.53-.25Z" style="fill:#c7c7c7"></path><path d="M231,193.34a5,5,0,0,0-.36-2.3.41.41,0,0,0-.54-.2.42.42,0,0,0-.21.54,4.22,4.22,0,0,1,.29,1.32s0,.08,0,.13v.24a1,1,0,0,1,0,.17.42.42,0,0,0,.37.46.41.41,0,0,0,.45-.36Z" style="fill:#c7c7c7"></path><path d="M230.36,189.4a4.92,4.92,0,0,0-.58-2.25.41.41,0,0,0-.71.41,4.67,4.67,0,0,1,.41,1.28.69.69,0,0,1,0,.13s0,.17,0,.06c0,.06,0,.12,0,.18s0,.12,0,.18a.41.41,0,1,0,.82,0Z" style="fill:#c7c7c7"></path><path d="M229.91,188.74l-.11,0a1.39,1.39,0,0,0-1.06,1.63l.08.37a1.37,1.37,0,0,0,1.63,1.05l.11,0a1.39,1.39,0,0,0,1.06-1.63l-.08-.37A1.37,1.37,0,0,0,229.91,188.74Zm1.13,1.47a.83.83,0,0,1-.63,1h-.07a.81.81,0,0,1-1-.63l-.05-.22a.82.82,0,0,1,.63-1l.07,0a.82.82,0,0,1,1,.63Z" style="fill:#dbdbdb"></path><path d="M229.91,189.09l-.09,0a1.07,1.07,0,0,0-.82,1.27l.06.28a1.06,1.06,0,0,0,1.27.82h.09a1.08,1.08,0,0,0,.82-1.27l-.06-.29A1.06,1.06,0,0,0,229.91,189.09Zm1.13,1.12a.83.83,0,0,1-.63,1h-.07a.81.81,0,0,1-1-.63l-.05-.22a.82.82,0,0,1,.63-1l.07,0a.82.82,0,0,1,1,.63Z" style="fill:#c7c7c7;opacity:0.4"></path><path d="M230.54,192.62h-.11a1.37,1.37,0,0,0-1.26,1.48l0,.37a1.37,1.37,0,0,0,1.48,1.26h.11a1.37,1.37,0,0,0,1.26-1.48l0-.38A1.38,1.38,0,0,0,230.54,192.62Zm.93,1.6a.81.81,0,0,1-.75.88h-.07a.81.81,0,0,1-.88-.75l0-.22a.82.82,0,0,1,.75-.89h.07a.82.82,0,0,1,.88.75Z" style="fill:#dbdbdb"></path><path d="M230.49,193h-.08a1.07,1.07,0,0,0-1,1.16l0,.29a1.07,1.07,0,0,0,1.15,1h.09a1.07,1.07,0,0,0,1-1.15l0-.29A1.07,1.07,0,0,0,230.49,193Zm1,1.25a.81.81,0,0,1-.75.88h-.07a.81.81,0,0,1-.88-.75l0-.22a.82.82,0,0,1,.75-.89h.07a.82.82,0,0,1,.88.75Z" style="fill:#c7c7c7;opacity:0.4"></path><path d="M230.67,196.89h-.11a1.36,1.36,0,0,0-1.51,1.21l0,.37a1.36,1.36,0,0,0,1.21,1.52h.11a1.36,1.36,0,0,0,1.51-1.21l0-.37A1.37,1.37,0,0,0,230.67,196.89Zm.61,1.75a.83.83,0,0,1-.91.73h-.06a.81.81,0,0,1-.72-.91l0-.22a.81.81,0,0,1,.91-.72h.06a.83.83,0,0,1,.73.91Z" style="fill:#dbdbdb"></path><path d="M230.56,197.22h-.08a1.07,1.07,0,0,0-1.18.95l0,.29a1.07,1.07,0,0,0,1,1.18h.08a1.06,1.06,0,0,0,1.18-.94l0-.29A1.08,1.08,0,0,0,230.56,197.22Zm.72,1.42a.83.83,0,0,1-.91.73h-.06a.81.81,0,0,1-.72-.91l0-.22a.81.81,0,0,1,.91-.72h.06a.83.83,0,0,1,.73.91Z" style="fill:#c7c7c7;opacity:0.4"></path><path d="M230.18,200.85h-.11a1.36,1.36,0,0,0-1.51,1.21l0,.37a1.37,1.37,0,0,0,1.21,1.52h.11a1.36,1.36,0,0,0,1.51-1.21l0-.37A1.36,1.36,0,0,0,230.18,200.85Zm.61,1.75a.82.82,0,0,1-.91.72h-.06a.83.83,0,0,1-.73-.91l0-.22a.83.83,0,0,1,.91-.73h.06a.83.83,0,0,1,.73.91Z" style="fill:#dbdbdb"></path><path d="M230.07,201.18H230a1.07,1.07,0,0,0-1.18,1l0,.29a1.07,1.07,0,0,0,.95,1.18h.08a1.06,1.06,0,0,0,1.18-.94l0-.3A1.08,1.08,0,0,0,230.07,201.18Zm.72,1.42a.82.82,0,0,1-.91.72h-.06a.83.83,0,0,1-.73-.91l0-.22a.83.83,0,0,1,.91-.73h.06a.83.83,0,0,1,.73.91Z" style="fill:#c7c7c7;opacity:0.4"></path><path d="M230,205.09h-.12a1.37,1.37,0,0,0-1.33,1.41v.38a1.36,1.36,0,0,0,1.4,1.33h.12a1.37,1.37,0,0,0,1.33-1.4v-.38A1.37,1.37,0,0,0,230,205.09Zm.83,1.65a.8.8,0,0,1-.79.84H230a.82.82,0,0,1-.84-.8v-.23a.82.82,0,0,1,.8-.84H230a.82.82,0,0,1,.84.8Z" style="fill:#dbdbdb"></path><path d="M229.91,205.44h-.09a1.08,1.08,0,0,0-1,1.1v.29a1.07,1.07,0,0,0,1.1,1H230a1.07,1.07,0,0,0,1-1.1v-.29A1.07,1.07,0,0,0,229.91,205.44Zm.9,1.3a.8.8,0,0,1-.79.84H230a.82.82,0,0,1-.84-.8v-.23a.82.82,0,0,1,.8-.84H230a.82.82,0,0,1,.84.8Z" style="fill:#c7c7c7;opacity:0.4"></path><path d="M230.09,209.27H230a1.37,1.37,0,0,0-1.34,1.41v.38a1.37,1.37,0,0,0,1.4,1.33h.12A1.37,1.37,0,0,0,231.5,211v-.37A1.37,1.37,0,0,0,230.09,209.27Zm.84,1.65a.82.82,0,0,1-.8.84h-.07a.81.81,0,0,1-.84-.79v-.23a.81.81,0,0,1,.79-.84h.07a.82.82,0,0,1,.84.8Z" style="fill:#dbdbdb"></path><path d="M230,209.62h-.08a1.07,1.07,0,0,0-1.05,1.1V211a1.07,1.07,0,0,0,1.1,1h.08a1.09,1.09,0,0,0,1-1.1v-.29A1.07,1.07,0,0,0,230,209.62Zm.91,1.3a.82.82,0,0,1-.8.84h-.07a.81.81,0,0,1-.84-.79v-.23a.81.81,0,0,1,.79-.84h.07a.82.82,0,0,1,.84.8Z" style="fill:#c7c7c7;opacity:0.4"></path><path d="M230.56,213.5l-.1.05a1.36,1.36,0,0,0-.67,1.81l.15.35a1.37,1.37,0,0,0,1.82.67l.11,0a1.38,1.38,0,0,0,.67-1.82l-.16-.35A1.36,1.36,0,0,0,230.56,213.5Zm1.43,1.19a.82.82,0,0,1-.41,1.08l-.06,0a.81.81,0,0,1-1.08-.4l-.1-.21a.81.81,0,0,1,.4-1.08l.07,0a.81.81,0,0,1,1.08.4Z" style="fill:#dbdbdb"></path><path d="M230.64,213.84l-.08,0a1.06,1.06,0,0,0-.52,1.42l.12.26a1.06,1.06,0,0,0,1.42.53l.08,0a1.06,1.06,0,0,0,.52-1.41l-.12-.27A1.08,1.08,0,0,0,230.64,213.84Zm1.35.85a.82.82,0,0,1-.41,1.08l-.06,0a.81.81,0,0,1-1.08-.4l-.1-.21a.81.81,0,0,1,.4-1.08l.07,0a.81.81,0,0,1,1.08.4Z" style="fill:#c7c7c7;opacity:0.4"></path><path d="M232.34,217.41l-.09.07a1.37,1.37,0,0,0-.09,1.94l.26.28a1.37,1.37,0,0,0,1.94.09l.08-.08a1.37,1.37,0,0,0,.09-1.94l-.26-.27A1.36,1.36,0,0,0,232.34,217.41Zm1.71.7a.81.81,0,0,1-.05,1.15l-.05.05a.83.83,0,0,1-1.16-.05l-.15-.17a.82.82,0,0,1,.05-1.16l.05,0a.81.81,0,0,1,1.16.05Z" style="fill:#dbdbdb"></path><path d="M232.51,217.71l-.06.06a1.06,1.06,0,0,0-.07,1.51l.2.22a1.08,1.08,0,0,0,1.51.07l.06-.06a1.06,1.06,0,0,0,.07-1.51l-.2-.22A1.06,1.06,0,0,0,232.51,217.71Zm1.54.4a.81.81,0,0,1-.05,1.15l-.05.05a.83.83,0,0,1-1.16-.05l-.15-.17a.82.82,0,0,1,.05-1.16l.05,0a.81.81,0,0,1,1.16.05Z" style="fill:#c7c7c7;opacity:0.4"></path><path d="M235.06,220.55l0,.11a1.37,1.37,0,0,0,1,1.68l.37.09a1.37,1.37,0,0,0,1.68-1l0-.11a1.36,1.36,0,0,0-1-1.68l-.37-.1A1.37,1.37,0,0,0,235.06,220.55Zm1.82-.34a.81.81,0,0,1,.58,1l0,.06a.82.82,0,0,1-1,.59l-.22-.06a.83.83,0,0,1-.58-1l0-.07a.81.81,0,0,1,1-.58Z" style="fill:#dbdbdb"></path><path d="M235.37,220.71l0,.08a1.07,1.07,0,0,0,.76,1.31l.28.08a1.07,1.07,0,0,0,1.31-.77l0-.08A1.07,1.07,0,0,0,237,220l-.28-.07A1.07,1.07,0,0,0,235.37,220.71Zm1.51-.5a.81.81,0,0,1,.58,1l0,.06a.82.82,0,0,1-1,.59l-.22-.06a.83.83,0,0,1-.58-1l0-.07a.81.81,0,0,1,1-.58Z" style="fill:#c7c7c7;opacity:0.4"></path><path d="M239.26,221.05l0,.11a1.37,1.37,0,0,0,1.78.76l.35-.14a1.37,1.37,0,0,0,.76-1.79l0-.1a1.35,1.35,0,0,0-1.78-.76l-.35.14A1.35,1.35,0,0,0,239.26,221.05Zm1.25-1.36a.82.82,0,0,1,1.07.45l0,.06a.82.82,0,0,1-.45,1.07l-.21.09a.83.83,0,0,1-1.07-.46l0-.06a.82.82,0,0,1,.45-1.07Z" style="fill:#dbdbdb"></path><path d="M239.6,221l0,.08a1.07,1.07,0,0,0,1.39.6l.27-.11a1.08,1.08,0,0,0,.59-1.4l0-.08a1.07,1.07,0,0,0-1.39-.59l-.27.11A1.07,1.07,0,0,0,239.6,221Zm.91-1.3a.82.82,0,0,1,1.07.45l0,.06a.82.82,0,0,1-.45,1.07l-.21.09a.83.83,0,0,1-1.07-.46l0-.06a.82.82,0,0,1,.45-1.07Z" style="fill:#c7c7c7;opacity:0.4"></path><path d="M243,219.2l.1.07a1.36,1.36,0,0,0,1.89-.41l.21-.31a1.38,1.38,0,0,0-.4-1.9l-.1-.06a1.37,1.37,0,0,0-1.9.4l-.2.32A1.37,1.37,0,0,0,243,219.2Zm.24-1.83a.82.82,0,0,1,1.14-.24l.05,0a.84.84,0,0,1,.25,1.14l-.13.19a.82.82,0,0,1-1.13.24l-.06,0a.82.82,0,0,1-.24-1.13Z" style="fill:#dbdbdb"></path><path d="M243.25,219l.07,0a1.07,1.07,0,0,0,1.48-.31l.16-.25a1.08,1.08,0,0,0-.31-1.48l-.07,0a1.07,1.07,0,0,0-1.48.31l-.16.25A1.08,1.08,0,0,0,243.25,219Zm0-1.59a.82.82,0,0,1,1.14-.24l.05,0a.84.84,0,0,1,.25,1.14l-.13.19a.82.82,0,0,1-1.13.24l-.06,0a.82.82,0,0,1-.24-1.13Z" style="fill:#c7c7c7;opacity:0.4"></path><path d="M245.41,215.77l.11,0a1.37,1.37,0,0,0,1.79-.75l.14-.35a1.38,1.38,0,0,0-.75-1.79l-.11,0a1.37,1.37,0,0,0-1.79.75l-.14.35A1.38,1.38,0,0,0,245.41,215.77Zm-.1-1.85a.82.82,0,0,1,1.07-.45l.06,0a.82.82,0,0,1,.45,1.07l-.09.21a.82.82,0,0,1-1.07.45l-.06,0a.82.82,0,0,1-.45-1.07Z" style="fill:#dbdbdb"></path><path d="M245.61,215.48l.08,0a1.08,1.08,0,0,0,1.4-.59l.11-.27a1.06,1.06,0,0,0-.59-1.39l-.08,0a1.07,1.07,0,0,0-1.39.59l-.11.27A1.07,1.07,0,0,0,245.61,215.48Zm-.3-1.56a.82.82,0,0,1,1.07-.45l.06,0a.82.82,0,0,1,.45,1.07l-.09.21a.82.82,0,0,1-1.07.45l-.06,0a.82.82,0,0,1-.45-1.07Z" style="fill:#c7c7c7;opacity:0.4"></path><path d="M247.06,212l.11,0a1.38,1.38,0,0,0,1.75-.84l.12-.36a1.37,1.37,0,0,0-.84-1.75l-.1,0a1.37,1.37,0,0,0-1.75.84l-.13.35A1.38,1.38,0,0,0,247.06,212Zm-.19-1.84a.81.81,0,0,1,1-.5l.06,0a.82.82,0,0,1,.51,1l-.08.21a.82.82,0,0,1-1,.51l-.07,0a.83.83,0,0,1-.5-1.05Z" style="fill:#dbdbdb"></path><path d="M247.25,211.65l.08,0a1.07,1.07,0,0,0,1.36-.66l.1-.27a1.08,1.08,0,0,0-.66-1.37l-.08,0a1.07,1.07,0,0,0-1.36.66l-.1.28A1.07,1.07,0,0,0,247.25,211.65Zm-.38-1.54a.81.81,0,0,1,1-.5l.06,0a.82.82,0,0,1,.51,1l-.08.21a.82.82,0,0,1-1,.51l-.07,0a.83.83,0,0,1-.5-1.05Z" style="fill:#c7c7c7;opacity:0.4"></path><path d="M248.17,207.92l.1,0a1.38,1.38,0,0,0,1.81-.72l.14-.34a1.37,1.37,0,0,0-.71-1.8l-.11,0a1.37,1.37,0,0,0-1.8.72l-.15.35A1.38,1.38,0,0,0,248.17,207.92Zm-.07-1.85a.82.82,0,0,1,1.08-.43l.06,0a.83.83,0,0,1,.43,1.08l-.09.21a.83.83,0,0,1-1.08.43l-.06,0a.82.82,0,0,1-.43-1.08Z" style="fill:#dbdbdb"></path><path d="M248.37,207.63l.08,0a1.07,1.07,0,0,0,1.41-.57l.11-.27a1.05,1.05,0,0,0-.56-1.4l-.08,0a1.05,1.05,0,0,0-1.4.56l-.12.27A1.07,1.07,0,0,0,248.37,207.63Zm-.27-1.56a.82.82,0,0,1,1.08-.43l.06,0a.83.83,0,0,1,.43,1.08l-.09.21a.83.83,0,0,1-1.08.43l-.06,0a.82.82,0,0,1-.43-1.08Z" style="fill:#c7c7c7;opacity:0.4"></path><path d="M249.58,204.07l.1.06a1.37,1.37,0,0,0,1.9-.37l.21-.31a1.37,1.37,0,0,0-.37-1.91l-.09-.06a1.37,1.37,0,0,0-1.9.37l-.22.31A1.38,1.38,0,0,0,249.58,204.07Zm.28-1.84A.83.83,0,0,1,251,202l.05,0a.81.81,0,0,1,.22,1.14l-.12.19a.83.83,0,0,1-1.14.22l-.06,0a.83.83,0,0,1-.22-1.14Z" style="fill:#dbdbdb"></path><path d="M249.84,203.82l.07.05a1.06,1.06,0,0,0,1.48-.29l.17-.24a1.06,1.06,0,0,0-.29-1.48l-.07-.05a1.08,1.08,0,0,0-1.49.28l-.16.25A1.06,1.06,0,0,0,249.84,203.82Zm0-1.59A.83.83,0,0,1,251,202l.05,0a.81.81,0,0,1,.22,1.14l-.12.19a.83.83,0,0,1-1.14.22l-.06,0a.83.83,0,0,1-.22-1.14Z" style="fill:#c7c7c7;opacity:0.4"></path><path d="M251.78,200.51l.09.08a1.37,1.37,0,0,0,1.94-.05l.25-.28a1.37,1.37,0,0,0-.05-1.94l-.08-.08a1.38,1.38,0,0,0-1.94.06l-.26.28A1.36,1.36,0,0,0,251.78,200.51Zm.57-1.76a.82.82,0,0,1,1.16,0l.05,0a.82.82,0,0,1,0,1.16l-.15.17a.83.83,0,0,1-1.16,0l-.05-.05a.82.82,0,0,1,0-1.16Z" style="fill:#dbdbdb"></path><path d="M252.07,200.31l.07.06a1.06,1.06,0,0,0,1.51,0l.2-.21a1.06,1.06,0,0,0,0-1.51l-.07-.06a1.06,1.06,0,0,0-1.51,0l-.2.21A1.07,1.07,0,0,0,252.07,200.31Zm.28-1.56a.82.82,0,0,1,1.16,0l.05,0a.82.82,0,0,1,0,1.16l-.15.17a.83.83,0,0,1-1.16,0l-.05-.05a.82.82,0,0,1,0-1.16Z" style="fill:#c7c7c7;opacity:0.4"></path><path d="M254.5,197.3l.07.1a1.36,1.36,0,0,0,1.9.36l.31-.21a1.37,1.37,0,0,0,.37-1.9l-.06-.1a1.38,1.38,0,0,0-1.91-.36l-.31.21A1.37,1.37,0,0,0,254.5,197.3Zm.94-1.59a.81.81,0,0,1,1.14.22l0,0a.83.83,0,0,1-.22,1.14l-.19.13a.83.83,0,0,1-1.14-.22l0-.06a.82.82,0,0,1,.21-1.14Z" style="fill:#dbdbdb"></path><path d="M254.83,197.17l0,.07a1.06,1.06,0,0,0,1.48.29l.25-.17a1.06,1.06,0,0,0,.28-1.48l-.05-.07a1.06,1.06,0,0,0-1.48-.29l-.24.17A1.06,1.06,0,0,0,254.83,197.17Zm.61-1.46a.81.81,0,0,1,1.14.22l0,0a.83.83,0,0,1-.22,1.14l-.19.13a.83.83,0,0,1-1.14-.22l0-.06a.82.82,0,0,1,.21-1.14Z" style="fill:#c7c7c7;opacity:0.4"></path><path d="M258.08,194.8l.05.1a1.37,1.37,0,0,0,1.79.75l.35-.14a1.37,1.37,0,0,0,.74-1.79l0-.11a1.37,1.37,0,0,0-1.79-.74l-.35.14A1.37,1.37,0,0,0,258.08,194.8Zm1.25-1.37a.81.81,0,0,1,1.07.44l0,.06A.82.82,0,0,1,260,195l-.21.09a.82.82,0,0,1-1.07-.45l0-.06a.82.82,0,0,1,.45-1.07Z" style="fill:#dbdbdb"></path><path d="M258.43,194.74l0,.08a1.08,1.08,0,0,0,1.4.58l.27-.11a1.07,1.07,0,0,0,.58-1.4l0-.08a1.07,1.07,0,0,0-1.4-.58l-.27.11A1.07,1.07,0,0,0,258.43,194.74Zm.9-1.31a.81.81,0,0,1,1.07.44l0,.06A.82.82,0,0,1,260,195l-.21.09a.82.82,0,0,1-1.07-.45l0-.06a.82.82,0,0,1,.45-1.07Z" style="fill:#c7c7c7;opacity:0.4"></path><path d="M261.83,193l0,.1a1.37,1.37,0,0,0,1.79.75l.35-.15a1.36,1.36,0,0,0,.74-1.79l0-.1a1.38,1.38,0,0,0-1.79-.75l-.35.15A1.37,1.37,0,0,0,261.83,193Zm1.24-1.38a.82.82,0,0,1,1.07.45l0,.06a.82.82,0,0,1-.45,1.07l-.21.09a.82.82,0,0,1-1.07-.45l0-.06a.81.81,0,0,1,.44-1.07Z" style="fill:#dbdbdb"></path><path d="M262.17,192.94l0,.08a1.07,1.07,0,0,0,1.39.58l.27-.12a1.05,1.05,0,0,0,.58-1.39l0-.08a1.05,1.05,0,0,0-1.39-.58l-.28.11A1.08,1.08,0,0,0,262.17,192.94Zm.9-1.32a.82.82,0,0,1,1.07.45l0,.06a.82.82,0,0,1-.45,1.07l-.21.09a.82.82,0,0,1-1.07-.45l0-.06a.81.81,0,0,1,.44-1.07Z" style="fill:#c7c7c7;opacity:0.4"></path><path d="M265.36,191.07l.05.1a1.37,1.37,0,0,0,1.86.57l.33-.17a1.38,1.38,0,0,0,.57-1.86l-.05-.1a1.38,1.38,0,0,0-1.86-.57l-.33.18A1.36,1.36,0,0,0,265.36,191.07Zm1.1-1.48a.81.81,0,0,1,1.11.34l0,.06a.8.8,0,0,1-.34,1.1l-.2.11a.81.81,0,0,1-1.1-.34l0-.06a.82.82,0,0,1,.34-1.11Z" style="fill:#dbdbdb"></path><path d="M265.7,191l0,.07a1.05,1.05,0,0,0,1.44.45l.26-.14a1.07,1.07,0,0,0,.45-1.44l0-.08a1.09,1.09,0,0,0-1.45-.45l-.26.14A1.07,1.07,0,0,0,265.7,191Zm.76-1.39a.81.81,0,0,1,1.11.34l0,.06a.8.8,0,0,1-.34,1.1l-.2.11a.81.81,0,0,1-1.1-.34l0-.06a.82.82,0,0,1,.34-1.11Z" style="fill:#c7c7c7;opacity:0.4"></path><path d="M269,189.16l.06.1a1.37,1.37,0,0,0,1.89.41l.32-.21a1.36,1.36,0,0,0,.41-1.89l-.06-.1a1.37,1.37,0,0,0-1.9-.41l-.31.21A1.36,1.36,0,0,0,269,189.16Zm1-1.57a.81.81,0,0,1,1.13.24l0,.06a.81.81,0,0,1-.24,1.13l-.19.12a.82.82,0,0,1-1.14-.24l0-.06a.81.81,0,0,1,.24-1.13Z" style="fill:#dbdbdb"></path><path d="M269.28,189l0,.07a1.07,1.07,0,0,0,1.48.32l.25-.16a1.08,1.08,0,0,0,.32-1.48l-.05-.07a1.07,1.07,0,0,0-1.48-.32l-.24.16A1.07,1.07,0,0,0,269.28,189Zm.64-1.45a.81.81,0,0,1,1.13.24l0,.06a.81.81,0,0,1-.24,1.13l-.19.12a.82.82,0,0,1-1.14-.24l0-.06a.81.81,0,0,1,.24-1.13Z" style="fill:#c7c7c7;opacity:0.4"></path><path d="M272.42,186.91l.08.08a1.36,1.36,0,0,0,1.94,0l.27-.27a1.38,1.38,0,0,0,0-1.94l-.08-.08a1.37,1.37,0,0,0-1.94,0l-.27.26A1.38,1.38,0,0,0,272.42,186.91Zm.62-1.74a.82.82,0,0,1,1.16,0l.05.05a.82.82,0,0,1,0,1.16l-.16.16a.82.82,0,0,1-1.16,0l-.05-.05a.81.81,0,0,1,0-1.15Z" style="fill:#dbdbdb"></path><path d="M272.72,186.72l.06.06a1.06,1.06,0,0,0,1.51,0l.21-.21a1.06,1.06,0,0,0,0-1.51l-.06-.06a1.07,1.07,0,0,0-1.52,0l-.2.21A1.06,1.06,0,0,0,272.72,186.72Zm.32-1.55a.82.82,0,0,1,1.16,0l.05.05a.82.82,0,0,1,0,1.16l-.16.16a.82.82,0,0,1-1.16,0l-.05-.05a.81.81,0,0,1,0-1.15Z" style="fill:#c7c7c7;opacity:0.4"></path><path d="M275.69,184.2l.1.06a1.37,1.37,0,0,0,1.88-.49l.19-.32a1.38,1.38,0,0,0-.49-1.88l-.1-.06a1.37,1.37,0,0,0-1.87.49l-.19.33A1.36,1.36,0,0,0,275.69,184.2Zm.16-1.84a.83.83,0,0,1,1.13-.29l0,0a.82.82,0,0,1,.29,1.12l-.11.2a.82.82,0,0,1-1.12.29l-.06,0a.82.82,0,0,1-.29-1.12Z" style="fill:#dbdbdb"></path><path d="M275.93,183.94l.07.05a1.08,1.08,0,0,0,1.47-.38l.15-.25a1.08,1.08,0,0,0-.38-1.47l-.08,0a1.06,1.06,0,0,0-1.46.38l-.15.25A1.06,1.06,0,0,0,275.93,183.94Zm-.08-1.58a.83.83,0,0,1,1.13-.29l0,0a.82.82,0,0,1,.29,1.12l-.11.2a.82.82,0,0,1-1.12.29l-.06,0a.82.82,0,0,1-.29-1.12Z" style="fill:#c7c7c7;opacity:0.4"></path><path d="M278,180.72l.11,0a1.37,1.37,0,0,0,1.74-.85l.12-.36a1.38,1.38,0,0,0-.86-1.74l-.1,0a1.36,1.36,0,0,0-1.74.85l-.12.36A1.37,1.37,0,0,0,278,180.72Zm-.21-1.84a.81.81,0,0,1,1-.51l.06,0a.81.81,0,0,1,.51,1l-.07.21a.82.82,0,0,1-1,.51l-.07,0a.83.83,0,0,1-.51-1Z" style="fill:#dbdbdb"></path><path d="M278.18,180.42l.08,0a1.06,1.06,0,0,0,1.36-.66l.1-.28a1.07,1.07,0,0,0-.67-1.36l-.08,0a1.07,1.07,0,0,0-1.36.67l-.1.28A1.07,1.07,0,0,0,278.18,180.42Zm-.39-1.54a.81.81,0,0,1,1-.51l.06,0a.81.81,0,0,1,.51,1l-.07.21a.82.82,0,0,1-1,.51l-.07,0a.83.83,0,0,1-.51-1Z" style="fill:#c7c7c7;opacity:0.4"></path><path d="M279.17,176.91h.11a1.37,1.37,0,0,0,1.43-1.31v-.38a1.36,1.36,0,0,0-1.31-1.42h-.12a1.37,1.37,0,0,0-1.42,1.32l0,.37A1.38,1.38,0,0,0,279.17,176.91Zm-.73-1.71a.82.82,0,0,1,.85-.78h.07a.82.82,0,0,1,.78.85v.23a.82.82,0,0,1-.86.78h-.06a.82.82,0,0,1-.79-.85Z" style="fill:#dbdbdb"></path><path d="M279.26,176.57h.08a1.06,1.06,0,0,0,1.11-1l0-.3a1.08,1.08,0,0,0-1-1.11h-.09a1.06,1.06,0,0,0-1.11,1v.3A1.08,1.08,0,0,0,279.26,176.57Zm-.82-1.37a.82.82,0,0,1,.85-.78h.07a.82.82,0,0,1,.78.85v.23a.82.82,0,0,1-.86.78h-.06a.82.82,0,0,1-.79-.85Z" style="fill:#c7c7c7;opacity:0.4"></path><path d="M228.9,187.28a5.41,5.41,0,0,0,.62,2.43.47.47,0,0,0,.61.17.46.46,0,0,0,.17-.61,4.44,4.44,0,0,1-.45-1.39.59.59,0,0,1,0-.14s0-.18,0-.06a1.23,1.23,0,0,1,0-.2,1.15,1.15,0,0,1,0-.19.45.45,0,0,0-.44-.45.45.45,0,0,0-.45.44Z" style="fill:#dbdbdb"></path><path d="M230.35,189.53a.43.43,0,0,1-.22.35.47.47,0,0,1-.61-.17,5.41,5.41,0,0,1-.62-2.43.44.44,0,0,1,.17-.34v0a5.42,5.42,0,0,0,.63,2.43.45.45,0,0,0,.61.16Z" style="fill:#c7c7c7;opacity:0.4"></path><path d="M229.77,191.08a5.44,5.44,0,0,0,.39,2.49.46.46,0,0,0,.59.22.45.45,0,0,0,.22-.59,4.57,4.57,0,0,1-.31-1.43.61.61,0,0,1,0-.14s0-.18,0,0a1.47,1.47,0,0,1,0-.21,1.28,1.28,0,0,1,0-.19.45.45,0,0,0-.89-.1Z" style="fill:#dbdbdb"></path><path d="M231,193.46a.44.44,0,0,1-.25.33.46.46,0,0,1-.59-.22,5.44,5.44,0,0,1-.39-2.49.4.4,0,0,1,.21-.32v0a5.51,5.51,0,0,0,.39,2.48.46.46,0,0,0,.6.22Z" style="fill:#c7c7c7;opacity:0.4"></path><path d="M230.21,195a5.43,5.43,0,0,0-.17,2.5.45.45,0,0,0,.53.35.46.46,0,0,0,.35-.53,4.7,4.7,0,0,1,0-1.45l0-.14s0-.19,0-.06a1.42,1.42,0,0,1,0-.2c0-.06,0-.12.05-.18a.44.44,0,1,0-.84-.29Z" style="fill:#dbdbdb"></path><path d="M230.89,197.62a.45.45,0,0,1-.32.26.45.45,0,0,1-.53-.35,5.43,5.43,0,0,1,.17-2.5.41.41,0,0,1,.27-.27v0a5.3,5.3,0,0,0-.17,2.5.45.45,0,0,0,.53.35Z" style="fill:#c7c7c7;opacity:0.4"></path><path d="M229.87,199.1a5.41,5.41,0,0,0-.38,2.48.44.44,0,0,0,.88-.1,4.77,4.77,0,0,1,.14-1.45l0-.14s.06-.18,0-.06l.06-.19a1.34,1.34,0,0,1,.07-.18.46.46,0,0,0-.23-.59.46.46,0,0,0-.59.23Z" style="fill:#dbdbdb"></path><path d="M230.32,201.74a.41.41,0,0,1-.34.23.45.45,0,0,1-.49-.39,5.41,5.41,0,0,1,.38-2.48.44.44,0,0,1,.3-.25v0a5.41,5.41,0,0,0-.38,2.48.46.46,0,0,0,.49.4Z" style="fill:#c7c7c7;opacity:0.4"></path><path d="M229.51,203.32a5.47,5.47,0,0,0-.12,2.51.45.45,0,0,0,.53.34.45.45,0,0,0,.34-.53,4.76,4.76,0,0,1,0-1.46.59.59,0,0,0,0-.14s0-.18,0-.06c0-.06,0-.13,0-.19s0-.13.05-.19a.45.45,0,0,0-.28-.56.46.46,0,0,0-.57.28Z" style="fill:#dbdbdb"></path><path d="M230.23,205.9a.43.43,0,0,1-.31.27.45.45,0,0,1-.53-.34,5.47,5.47,0,0,1,.12-2.51.45.45,0,0,1,.27-.27v0a5.33,5.33,0,0,0-.13,2.51.45.45,0,0,0,.53.34Z" style="fill:#c7c7c7;opacity:0.4"></path><path d="M229.38,207.61a5.32,5.32,0,0,0,0,2.51.45.45,0,1,0,.86-.24,4.45,4.45,0,0,1-.11-1.46s0-.09,0-.14,0-.18,0-.06l0-.2c0-.06,0-.12,0-.18a.46.46,0,0,0-.32-.55.45.45,0,0,0-.54.32Z" style="fill:#dbdbdb"></path><path d="M230.26,210.14a.44.44,0,0,1-.3.29.45.45,0,0,1-.55-.31,5.32,5.32,0,0,1,0-2.51.41.41,0,0,1,.25-.29v0a5.46,5.46,0,0,0,0,2.51.45.45,0,0,0,.55.31Z" style="fill:#c7c7c7;opacity:0.4"></path><path d="M229.79,211.86a5.47,5.47,0,0,0,.52,2.46.45.45,0,0,0,.6.19.44.44,0,0,0,.19-.6,5.1,5.1,0,0,1-.39-1.4s0-.1,0-.14,0-.19,0-.06c0-.07,0-.14,0-.2v-.19a.45.45,0,1,0-.89-.06Z" style="fill:#dbdbdb"></path><path d="M231.15,214.17a.44.44,0,0,1-.24.34.45.45,0,0,1-.6-.19,5.47,5.47,0,0,1-.52-2.46.42.42,0,0,1,.19-.33v0a5.5,5.5,0,0,0,.52,2.46.45.45,0,0,0,.6.19Z" style="fill:#c7c7c7;opacity:0.4"></path><path d="M231.16,216a5.39,5.39,0,0,0,1.24,2.18.45.45,0,0,0,.63-.63,4.42,4.42,0,0,1-.79-1.22l-.06-.13,0,0a1.07,1.07,0,0,1-.07-.19,1.27,1.27,0,0,1-.06-.18.45.45,0,0,0-.87.22Z" style="fill:#dbdbdb"></path><path d="M233.15,217.79a.41.41,0,0,1-.12.39.44.44,0,0,1-.63,0,5.39,5.39,0,0,1-1.24-2.18.43.43,0,0,1,.08-.38v0a5.41,5.41,0,0,0,1.23,2.19.47.47,0,0,0,.64,0Z" style="fill:#c7c7c7;opacity:0.4"></path><path d="M233.59,219.74a5.5,5.5,0,0,0,2,1.5.45.45,0,0,0,.33-.84,4.4,4.4,0,0,1-1.22-.79l-.11-.09s-.13-.14,0-.05a.93.93,0,0,1-.14-.14l-.13-.14a.45.45,0,0,0-.62-.08.46.46,0,0,0-.08.63Z" style="fill:#dbdbdb"></path><path d="M236.13,220.57a.43.43,0,0,1,.05.41.46.46,0,0,1-.58.26,5.5,5.5,0,0,1-2-1.5.44.44,0,0,1-.08-.38v0a5.54,5.54,0,0,0,2,1.5.46.46,0,0,0,.58-.26A.43.43,0,0,0,236.13,220.57Z" style="fill:#c7c7c7;opacity:0.4"></path><path d="M237.54,221.61a5.46,5.46,0,0,0,2.51-.14.44.44,0,0,0,.28-.56.46.46,0,0,0-.56-.29,4.4,4.4,0,0,1-1.45.17h-.14s-.19,0-.06,0l-.2,0-.19,0a.44.44,0,0,0-.53.34.46.46,0,0,0,.34.53Z" style="fill:#dbdbdb"></path><path d="M240,220.62a.44.44,0,0,1,.3.29.44.44,0,0,1-.28.56,5.46,5.46,0,0,1-2.51.14.43.43,0,0,1-.3-.24h0a5.46,5.46,0,0,0,2.51-.13.45.45,0,0,0,.28-.57S240,220.64,240,220.62Z" style="fill:#c7c7c7;opacity:0.4"></path><path d="M241.68,220.44a5.41,5.41,0,0,0,2-1.48.45.45,0,1,0-.7-.55,4.59,4.59,0,0,1-1.12.92l-.12.08s-.17.09-.05,0l-.18.09-.17.07a.45.45,0,0,0,.31.84Z" style="fill:#dbdbdb"></path><path d="M243.23,218.26a.46.46,0,0,1,.41.07.46.46,0,0,1,.07.63,5.41,5.41,0,0,1-2,1.48.42.42,0,0,1-.38,0h0a5.52,5.52,0,0,0,2-1.48.46.46,0,0,0-.07-.63Z" style="fill:#c7c7c7;opacity:0.4"></path><path d="M244.92,217.55a5.38,5.38,0,0,0,1.35-2.12.44.44,0,0,0-.85-.26,4.54,4.54,0,0,1-.71,1.27l-.09.11s-.12.15,0,0l-.14.15-.13.14a.45.45,0,0,0,.6.66Z" style="fill:#dbdbdb"></path><path d="M245.57,215a.45.45,0,0,1,.41-.07.45.45,0,0,1,.29.55,5.38,5.38,0,0,1-1.35,2.12.4.4,0,0,1-.37.1h0a5.44,5.44,0,0,0,1.36-2.11.45.45,0,0,0-.3-.56Z" style="fill:#c7c7c7;opacity:0.4"></path><path d="M246.87,213.7a5.53,5.53,0,0,0,1-2.32.45.45,0,1,0-.89-.11,4.64,4.64,0,0,1-.47,1.37c0,.05,0,.09-.07.13s-.09.16,0,0l-.1.17-.11.16a.45.45,0,0,0,.7.55Z" style="fill:#dbdbdb"></path><path d="M247.06,211a.44.44,0,0,1,.39-.15.46.46,0,0,1,.39.5,5.53,5.53,0,0,1-1,2.32.39.39,0,0,1-.34.16h0a5.34,5.34,0,0,0,1-2.32.45.45,0,0,0-.38-.5Z" style="fill:#c7c7c7;opacity:0.4"></path><path d="M248.33,209.78a5.25,5.25,0,0,0,.82-2.37.44.44,0,0,0-.41-.47.45.45,0,0,0-.48.41,4.79,4.79,0,0,1-.39,1.41l-.06.12s-.08.17,0,.06a1.62,1.62,0,0,1-.1.18l-.09.16a.45.45,0,0,0,.11.62.46.46,0,0,0,.62-.12Z" style="fill:#dbdbdb"></path><path d="M248.36,207.11a.44.44,0,0,1,.38-.17.44.44,0,0,1,.41.47,5.25,5.25,0,0,1-.82,2.37.4.4,0,0,1-.33.19h0a5.46,5.46,0,0,0,.82-2.38.45.45,0,0,0-.42-.47Z" style="fill:#c7c7c7;opacity:0.4"></path><path d="M249.57,205.86a5.47,5.47,0,0,0,1.09-2.26.45.45,0,0,0-.36-.52.46.46,0,0,0-.52.36,4.63,4.63,0,0,1-.55,1.35l-.07.12s-.11.16,0,.05l-.12.16-.11.16a.44.44,0,0,0,0,.62.45.45,0,0,0,.63,0Z" style="fill:#dbdbdb"></path><path d="M249.91,203.21a.43.43,0,0,1,.39-.13.45.45,0,0,1,.36.52,5.47,5.47,0,0,1-1.09,2.26.43.43,0,0,1-.36.15h0a5.51,5.51,0,0,0,1.09-2.27.46.46,0,0,0-.36-.52Z" style="fill:#c7c7c7;opacity:0.4"></path><path d="M251.39,202.32a5.49,5.49,0,0,0,1.48-2,.46.46,0,0,0-.26-.58.45.45,0,0,0-.57.26,4.61,4.61,0,0,1-.79,1.23l-.09.11s-.13.13,0,0l-.14.14-.14.13a.46.46,0,0,0-.07.63.44.44,0,0,0,.62.07Z" style="fill:#dbdbdb"></path><path d="M252.2,199.77a.43.43,0,0,1,.41-.06.46.46,0,0,1,.26.58,5.49,5.49,0,0,1-1.48,2,.42.42,0,0,1-.37.08h0a5.49,5.49,0,0,0,1.48-2,.46.46,0,0,0-.26-.58Z" style="fill:#c7c7c7;opacity:0.4"></path><path d="M253.81,199a5.48,5.48,0,0,0,1.85-1.7.46.46,0,0,0-.15-.62.45.45,0,0,0-.61.14,4.41,4.41,0,0,1-1,1.06l-.11.08-.05,0-.16.11-.17.1a.46.46,0,0,0-.19.6.45.45,0,0,0,.6.19Z" style="fill:#dbdbdb"></path><path d="M255.1,196.6a.45.45,0,0,1,.56.65,5.39,5.39,0,0,1-1.85,1.7.42.42,0,0,1-.38,0h0a5.38,5.38,0,0,0,1.84-1.71.44.44,0,0,0-.14-.61Z" style="fill:#c7c7c7;opacity:0.4"></path><path d="M256.87,196.36a5.35,5.35,0,0,0,2.21-1.19.44.44,0,0,0,0-.63.45.45,0,0,0-.63,0,4.72,4.72,0,0,1-1.23.77l-.13,0-.06,0-.19.07-.18.05a.46.46,0,0,0-.33.54.44.44,0,0,0,.53.33Z" style="fill:#dbdbdb"></path><path d="M258.7,194.41a.45.45,0,0,1,.38.76,5.35,5.35,0,0,1-2.21,1.19.4.4,0,0,1-.37-.08h0a5.41,5.41,0,0,0,2.21-1.19.45.45,0,0,0,0-.63A.08.08,0,0,0,258.7,194.41Z" style="fill:#c7c7c7;opacity:0.4"></path><path d="M260.68,194.35a5.47,5.47,0,0,0,2.21-1.19.45.45,0,0,0-.62-.65,4.72,4.72,0,0,1-1.23.77l-.13.06s-.18.06-.06,0l-.19.06-.18.06a.46.46,0,0,0-.34.53.47.47,0,0,0,.54.34Z" style="fill:#dbdbdb"></path><path d="M262.51,192.4a.41.41,0,0,1,.39.12.46.46,0,0,1,0,.64,5.47,5.47,0,0,1-2.21,1.19.44.44,0,0,1-.37-.09h0a5.55,5.55,0,0,0,2.21-1.2.45.45,0,0,0,0-.63Z" style="fill:#c7c7c7;opacity:0.4"></path><path d="M264.24,192.41a5.41,5.41,0,0,0,2.21-1.19.45.45,0,0,0-.62-.64,4.62,4.62,0,0,1-1.24.77l-.13.05,0,0-.19.07-.18.06a.45.45,0,0,0-.34.53.45.45,0,0,0,.54.33Z" style="fill:#dbdbdb"></path><path d="M266.07,190.46a.45.45,0,0,1,.38.76,5.41,5.41,0,0,1-2.21,1.19.42.42,0,0,1-.38-.08h0a5.35,5.35,0,0,0,2.21-1.19.45.45,0,0,0,0-.63S266.08,190.47,266.07,190.46Z" style="fill:#c7c7c7;opacity:0.4"></path><path d="M267.8,190.47a5.48,5.48,0,0,0,2.15-1.31.45.45,0,0,0-.65-.61,4.54,4.54,0,0,1-1.19.83l-.13.06s-.17.08-.05,0l-.19.08-.18.06a.46.46,0,0,0-.31.55.47.47,0,0,0,.55.31Z" style="fill:#dbdbdb"></path><path d="M269.53,188.43a.44.44,0,0,1,.42.73,5.48,5.48,0,0,1-2.15,1.31.41.41,0,0,1-.37-.07h0a5.37,5.37,0,0,0,2.14-1.3.44.44,0,0,0,0-.63Z" style="fill:#c7c7c7;opacity:0.4"></path><path d="M271.38,188.31a5.59,5.59,0,0,0,2-1.46.46.46,0,0,0-.07-.63.45.45,0,0,0-.63.07,4.64,4.64,0,0,1-1.13.92l-.12.07-.05,0-.18.09-.17.07a.45.45,0,1,0,.31.84Z" style="fill:#dbdbdb"></path><path d="M273,186.14a.42.42,0,0,1,.4.08.46.46,0,0,1,.07.63,5.59,5.59,0,0,1-2,1.46.42.42,0,0,1-.38,0h0a5.43,5.43,0,0,0,2.05-1.46.47.47,0,0,0-.07-.63Z" style="fill:#c7c7c7;opacity:0.4"></path><path d="M274.66,185.72a5.38,5.38,0,0,0,1.79-1.76.45.45,0,1,0-.77-.45,4.78,4.78,0,0,1-1,1.09l-.11.08-.05,0-.16.12-.16.1a.45.45,0,0,0-.17.61.44.44,0,0,0,.6.17Z" style="fill:#dbdbdb"></path><path d="M275.88,183.34a.4.4,0,0,1,.41,0,.45.45,0,0,1,.16.61,5.38,5.38,0,0,1-1.79,1.76.43.43,0,0,1-.38,0h0a5.38,5.38,0,0,0,1.79-1.76.45.45,0,0,0-.17-.61Z" style="fill:#c7c7c7;opacity:0.4"></path><path d="M277.44,182.37a5.6,5.6,0,0,0,1.3-2.15.46.46,0,0,0-.31-.55.44.44,0,0,0-.55.31,4.81,4.81,0,0,1-.67,1.29l-.09.11s-.12.15,0,.05l-.13.15-.13.14a.44.44,0,0,0,0,.63.45.45,0,0,0,.63,0Z" style="fill:#dbdbdb"></path><path d="M278,179.76a.41.41,0,0,1,.41-.09.46.46,0,0,1,.31.55,5.6,5.6,0,0,1-1.3,2.15.41.41,0,0,1-.36.11h0a5.6,5.6,0,0,0,1.3-2.15.46.46,0,0,0-.31-.55Z" style="fill:#c7c7c7;opacity:0.4"></path><path d="M279.24,178.67a5.34,5.34,0,0,0,.49-2.46.45.45,0,0,0-.47-.42.47.47,0,0,0-.42.48,4.72,4.72,0,0,1-.19,1.44.74.74,0,0,0,0,.14s-.07.18,0,.06l-.07.18-.08.18a.46.46,0,0,0,.2.6.45.45,0,0,0,.6-.2Z" style="fill:#dbdbdb"></path><path d="M278.91,176a.44.44,0,0,1,.35-.23.45.45,0,0,1,.47.42,5.34,5.34,0,0,1-.49,2.46.41.41,0,0,1-.31.23v0a5.48,5.48,0,0,0,.5-2.46A.45.45,0,0,0,279,176Z" style="fill:#c7c7c7;opacity:0.4"></path><path d="M279.67,174.6a5.41,5.41,0,0,0,.49-2.47.44.44,0,0,0-.47-.41.46.46,0,0,0-.42.48,4.76,4.76,0,0,1-.19,1.44.65.65,0,0,0,0,.13s-.07.18,0,.06a1.46,1.46,0,0,0-.07.19c0,.06-.05.12-.08.17a.45.45,0,0,0,.8.41Z" style="fill:#dbdbdb"></path><path d="M279.34,171.94a.43.43,0,0,1,.35-.22.44.44,0,0,1,.47.41,5.41,5.41,0,0,1-.49,2.47.46.46,0,0,1-.31.23v0a5.51,5.51,0,0,0,.5-2.46.46.46,0,0,0-.48-.42Z" style="fill:#c7c7c7;opacity:0.4"></path><path d="M238.11,172.16c.82.43,11.83,44.41,13.47,45s46.54-4.64,47.83-5.38-4.63-39.62-4.63-39.62Z" style="fill:#455a64"></path><path d="M225.87,243.73c-.47,4,12.38,16.07,25.71-26.61l4.93-.23s-9.57,37-25.1,37.71c-5.29.23-7.28-5.19-7.28-5.19Z" style="fill:#455a64"></path><path d="M294.78,212.54l4.63-.8s6.26,31.38,10,26.5l1.79,5.14s-1.33,4.63-5.66,1.11C299.6,239.67,294.78,212.54,294.78,212.54Z" style="fill:#455a64"></path><path d="M294,155l.71,17.14-59.06,0s5.88-39.12,22.43-59.4c8.11-10,16.7-8.31,22.43-2.09,1.45,1.57,16.21,20.32,17.8,29.43C299.72,148.1,294,155,294,155Z" style="fill:#ffc4c0"></path><path d="M280.13,161.53a2.53,2.53,0,0,0-.89,1.45,4.05,4.05,0,0,0-.08,1.66c.09.55.55.66.72.1a2.06,2.06,0,0,0,.08-.83,1.69,1.69,0,0,0-.23-.84,2,2,0,0,1,.52,1.76,1.12,1.12,0,0,1-.22.5.66.66,0,0,1-.6.23.73.73,0,0,1-.54-.32,1.44,1.44,0,0,1-.21-.5,3.61,3.61,0,0,1,.16-1.9A2.15,2.15,0,0,1,280.13,161.53Z" style="fill:#263238"></path><path d="M294,155s2.15,4.11,2.32,5.62a22.31,22.31,0,0,1-.77,4.7l-59.37-3.1s-1.58-3.78-.9-6.56c2.19-9,10.18-27.5,22.8-43,8.11-10,16.7-8.31,22.43-2.09,1.45,1.57,16.21,20.32,17.8,29.43C299.72,148.1,294,155,294,155Z" style="fill:#2B9B52"></path><path d="M236.27,152.32c.75-2.39,1.78-5.18,3.08-8.22a14.33,14.33,0,0,1-.57,2.66,29.51,29.51,0,0,1-1.51,3.76A13.75,13.75,0,0,1,236.27,152.32Z" style="fill:#fff"></path><path d="M261.28,118.22a11,11,0,0,1,1.63,6.78,15.76,15.76,0,0,1-2.51,6.93,12.65,12.65,0,0,1-5.36,4.86,9.37,9.37,0,0,1-7.13.31,6.62,6.62,0,0,1-3.6-3.39l.67-1.26c0,.1.06.19.09.29a5.89,5.89,0,0,0,5,3.9,9.17,9.17,0,0,0,7.21-2.55c3.76-3.49,5.81-9.32,3.81-14a23.17,23.17,0,0,0-4.19-5.88c.21-.27.42-.54.64-.8A34.63,34.63,0,0,1,261.28,118.22Zm10.91-12.46a14.85,14.85,0,0,1-2.29,3.14,7.24,7.24,0,0,1-5.83,2.41,3,3,0,0,1-2.47-1.77c0-.1-.07-.2-.1-.3-.28.23-.55.47-.83.73a3.51,3.51,0,0,0,2,2,7.06,7.06,0,0,0,6-.71,11.82,11.82,0,0,0,4.06-4.17c.21-.33.4-.68.59-1A10.44,10.44,0,0,0,272.19,105.76Zm-6.77,16.61a6.89,6.89,0,0,0,3.21,4.4c2.18,1.27,5,1,7.26.15a32.55,32.55,0,0,0,11.23-7.67l-.68-1a38,38,0,0,1-8.72,6.55c-2.34,1.25-5.47,2.44-8.11,1.16a5.77,5.77,0,0,1-3.1-4.46c-.63-4.6,3.84-7.9,8.16-9.48a43,43,0,0,1,5.74-1.56c-.29-.31-.59-.61-.89-.9a31.15,31.15,0,0,0-8.18,2.74C267.41,114.47,264.43,118.12,265.42,122.37Zm-7.31,32.41c-2.48-.61-4.94.68-6.58,2.26-1.79,1.72-2.78,4-4.47,5.77l1.33.07c1-1.19,1.78-2.53,2.69-3.75,1.4-1.89,3.89-4.06,6.68-3.42,2.15.49,3.16,2.5,3.47,4.3a10.72,10.72,0,0,1-.06,3.53l1.1.06C262.71,160.31,262.28,155.82,258.11,154.78Zm27.74-2.93a7.88,7.88,0,0,0-5.05,1.05,5,5,0,0,0-2.52,4.4,28.57,28.57,0,0,0,.62,4,16.87,16.87,0,0,1,.18,3.17l1.15.06a17.8,17.8,0,0,0-.29-3.87c-.4-2.19-1.19-4.7.82-6.46a6.46,6.46,0,0,1,5-1.38,4.68,4.68,0,0,1,4,3.86c.49,2.3-.21,4.61-.56,6.88-.07.47-.13,1-.17,1.43l1.14.06c.1-1.31.39-2.61.59-3.91.32-2.13.51-4.44-.57-6.43A5.6,5.6,0,0,0,285.85,151.85Zm-6-5.84c1.21-1.57,2.05-3.77.79-5.52s-3.51-1.91-5.52-1.39c-2.44.63-4.17,2.16-6.19,3.44s-5.13,2.61-7.06.44c-1.66-1.86-1-4.4.57-6.11a14.48,14.48,0,0,1,6.39-3.76c4.84-1.51,10.1-1.34,15.14-1.45a53.15,53.15,0,0,0,10.45-1.09l-.54-1c-4.72,1-9.62.91-14.44,1s-10.11.49-14.43,2.85a10.57,10.57,0,0,0-5,4.92,5,5,0,0,0,1.18,5.6c1.8,1.65,4.43,1.44,6.55.46,2.34-1.07,4.07-2.92,6.45-3.91,1.9-.79,5-1.16,5.73,1.17.69,2.14-1.44,4.38-3.09,5.67-4,3.1-9.57,5.35-14.75,3.35a9.55,9.55,0,0,1-4.87-4.44c-1-1.64-2-3.51-4-4.38-4.73-2.08-9.75,2.59-12.14,5.73a18.42,18.42,0,0,0-3.81,12.78,12.7,12.7,0,0,0,.31,1.88l1.11.06a12.7,12.7,0,0,1-.35-3.79A18,18,0,0,1,244,146.13c1.74-1.69,4.13-3.55,6.84-3.61,2.54-.06,3.9,1.86,5,3.63a11,11,0,0,0,10.86,6.41,16.81,16.81,0,0,0,7.35-2A17.49,17.49,0,0,0,279.83,146Zm12.59-.76c-1.62-2.06-2.1-4.62-.12-6.63a16,16,0,0,1,4.59-3.06c-.12-.29-.25-.59-.4-.89a21.68,21.68,0,0,0-4.05,2.44c-1.92,1.48-3,3.48-2.45,5.76.81,3.44,3.92,5.27,6.95,7.14.14-.3.26-.62.38-.95A17.3,17.3,0,0,1,292.42,145.25Z" style="opacity:0.1"></path><path d="M275.08,148.55a58.94,58.94,0,0,1,8.62,1.91c1.4.44,2.76.95,4.13,1.48.68.27,1.36.51,2.05.75a9.49,9.49,0,0,0,2.22.55.05.05,0,1,1,0,.1,15.7,15.7,0,0,1-2.16-.16,14.66,14.66,0,0,1-2-.5c-1.42-.43-2.82-.93-4.24-1.38-2.86-.91-5.71-1.82-8.63-2.52C274.9,148.75,274.94,148.52,275.08,148.55Z" style="fill:#263238"></path><path d="M267.7,150.74a65.49,65.49,0,0,1,7.28,0c1.22.09,2.42.24,3.62.42l1.72.29c.63.12,1.24.32,1.87.43.06,0,.06.11,0,.1-.6-.08-1.21-.07-1.81-.11l-1.81-.15c-1.21-.1-2.42-.18-3.63-.29-2.42-.22-4.82-.41-7.25-.54C267.55,150.93,267.57,150.74,267.7,150.74Z" style="fill:#263238"></path><path d="M296.42,152.5a20.46,20.46,0,0,0,1.51-3.34,16,16,0,0,0,.79-7.72,27.12,27.12,0,0,0-2.34-7.22,60.2,60.2,0,0,0-3.79-7c-.41-.65-.84-1.28-1.27-1.93a5.75,5.75,0,0,0-.2-.71,10,10,0,0,0-.44-1.19c-.34-.77-.83-1.46-1.23-2.2,0-.09-.19,0-.13.08a10.39,10.39,0,0,1,1.11,2.24c.15.34.28.69.41,1-1.09-1.64-2.21-3.26-3.39-4.86-.05-.08-.18,0-.13.08A117.59,117.59,0,0,1,294.65,133c2.15,4.52,4.07,9.34,2.72,14.4a20.72,20.72,0,0,1-1.49,3.88c-.57,1.15-1.31,2.22-1.84,3.38l-.72-1c0-.05-.13,0-.1,0,.39.89.69,1.82,1.1,2.71s.87,1.87,1.26,2.83a10.8,10.8,0,0,1,.5,1.34,4.21,4.21,0,0,1,0,1.62c-.11,1-.24,2.05-.44,3.05,0-.13-.18-.12-.15,0s.08.23.25.28a.09.09,0,0,0,.09,0,14.26,14.26,0,0,0,1.05-3,4.8,4.8,0,0,0-.34-3.1c-.4-1-.84-2-1.32-2.92a10.73,10.73,0,0,0-.86-1.42A9,9,0,0,0,296.42,152.5Z" style="fill:#263238"></path><path d="M262.68,117.06c-4.77,5.31-27.93,27.91-36.12,29.69-14.29,3.1-30.13,3.86-39,4-3.84.07-10.66-27.4-6.56-27.59,9.92-.45,32.1.92,36.87.71,3.07-.14,23-9.9,37.4-15.37C264.91,104.84,271.2,107.58,262.68,117.06Z" style="fill:#ffc4c0"></path><path d="M190,150.87c-.51.12-7.75,1-11.89,1.94-4.69,1.09-14.67.41-15.2-3.05-.37-2.36,7.36-3.14,11.13-3.77,2-.34-.74-2.2-4.35-1.74-7.64,1-16.38,4.95-19.3,1.11-1.11-1.46,1-3.16,3.76-4.65-4.32,1.49-8.8,2.5-10.09.93a2,2,0,0,1,.19-2.8,2.72,2.72,0,0,1-2.81-1.13c-.92-1.56.11-3.32,1.9-5a1.5,1.5,0,0,1-.94-1c-1.68-4.56,14-12.91,18.69-12.93,14-.07,27.75,4.34,27.75,4.34C193.05,128.53,190,150.86,190,150.87Z" style="fill:#ffc4c0"></path><path d="M143.57,133a26.37,26.37,0,0,1,17.71-8.23,29.24,29.24,0,0,1,5.61.37c.11,0,.08.18,0,.16a26.52,26.52,0,0,0-6.23.15,29.48,29.48,0,0,0-6.13,1.42,30.46,30.46,0,0,0-10.81,6.22C143.62,133.18,143.5,133.09,143.57,133Z" style="fill:#263238"></path><path d="M144.33,138.77a17.6,17.6,0,0,1,4.81-4,23.29,23.29,0,0,1,5.73-2.7,27,27,0,0,1,6.24-1.14,24.54,24.54,0,0,1,6.28.56.09.09,0,0,1,0,.17,28.61,28.61,0,0,0-12.29,1.25,32.18,32.18,0,0,0-5.66,2.43,51.35,51.35,0,0,0-5,3.56C144.35,138.93,144.28,138.83,144.33,138.77Z" style="fill:#263238"></path><path d="M153.68,141a18.7,18.7,0,0,1,7.14-2.86,33,33,0,0,1,7.88-.31.09.09,0,0,1,0,.17,69.24,69.24,0,0,0-7.6,1,30.1,30.1,0,0,0-3.77.81c-1.21.38-2.4.88-3.58,1.37C153.66,141.18,153.6,141,153.68,141Z" style="fill:#263238"></path><path d="M190.12,122.19l2.71,34.09s29.3-5.5,37.55-8.84c12.72-5.14,33.56-28.22,35.73-31.42,4.29-6.33,3.85-14.62-12.64-7.93-6.82,2.77-30.88,13.69-34.9,13.77C204.69,122.15,190.12,122.19,190.12,122.19Z" style="fill:#2B9B52"></path><path d="M192.68,125.79a5.47,5.47,0,0,1,.76-3.61h1.06c-.88,1.5-1.39,3.21-.34,4.72,1.78,2.58,5.16.4,6.88-1.07a46.6,46.6,0,0,0,3.69-3.74l1.44,0c-.84.89-1.65,1.8-2.49,2.68-1.66,1.71-3.84,3.79-6.45,4.21A3.89,3.89,0,0,1,192.68,125.79Zm14.19,10.76a9.38,9.38,0,0,0-5.61,3.47c-1.5,1.85-2.45,4-4.1,5.8a6,6,0,0,1-3.52,2.12,2.76,2.76,0,0,1-1.49-.25l.09,1.14a4,4,0,0,0,1.83.1c2.49-.43,4.24-2.52,5.47-4.33,1.34-2,2.35-4.16,4.35-5.67,1.79-1.35,4.63-2.31,6.56-.62,1.45,1.28,1.29,3.37.66,4.94-.86,2.12-2.74,3.47-4.81,4.63a38.2,38.2,0,0,0-6.47,3.9,9.62,9.62,0,0,0-2.66,3.66l1.18-.23a9.41,9.41,0,0,1,2.82-3.32c2.07-1.54,4.56-2.52,6.76-3.89a9.73,9.73,0,0,0,4.13-4.45,5.56,5.56,0,0,0-.09-4.92A5,5,0,0,0,206.87,136.55Zm-12.07-1.87c4.3-3.38,10.15-4.54,15.52-5.88a27.5,27.5,0,0,0,6.89-2.36c1.74-1,3.44-2.4,3.81-4.29a4.11,4.11,0,0,0,.08-.84c-.42.13-.8.23-1.14.32-.17,2-2.23,3.43-4.07,4.32a36.6,36.6,0,0,1-7.42,2.25c-5.33,1.31-10.9,2.71-15,6.18a15.43,15.43,0,0,0-2.18,2.24l.13,1.69A15.18,15.18,0,0,1,194.8,134.68Zm32.61-.4a8.31,8.31,0,0,0-5.13-2.28,5.69,5.69,0,0,0-4.93,1.78,5.81,5.81,0,0,0-.41,6.06c1,2.33,3,4.16,4.35,6.31a10.45,10.45,0,0,1,1.45,3.64l.84-.22a12,12,0,0,0-2.09-4.73c-1.52-2.1-3.48-4-4.1-6.53-.53-2.09.14-4.56,2.65-5.3a7.16,7.16,0,0,1,5.85,1.15,7.67,7.67,0,0,1,2.91,6.12c.12,2.59-.62,5.05-1,7.6,0,.16,0,.32,0,.48l1-.33c0-.15,0-.29.07-.44a35,35,0,0,0,.91-7.33A8.94,8.94,0,0,0,227.41,134.28Zm11.43,5c-.91-2.41-2.69-4.43-4.28-6.51-3.11-4.07-6-8.86-5.16-14q0-.3.12-.6l-1,.41a15.37,15.37,0,0,0,1.76,9.2,40.58,40.58,0,0,0,4.3,6.44c1.65,2.13,3.41,4.34,3.82,7a9.22,9.22,0,0,1,.11,1.48l.94-.69A9.39,9.39,0,0,0,238.84,139.29Zm6.23-6.55c-1.47-4.16.66-8.41,1.26-12.52a10.41,10.41,0,0,0-.66-6.23,6.53,6.53,0,0,0-1.49-1.93l-.89.38a6,6,0,0,1,1.32,1.56c1.19,2,1,4.51.61,6.72-.76,4-2.62,8.11-1.23,12.22a6.77,6.77,0,0,0,2.46,3.36l.81-.71A5.64,5.64,0,0,1,245.07,132.74Zm16.21-14.52a42.51,42.51,0,0,0-4.36-5.45,19.3,19.3,0,0,1-3.23-4.77l-.22.09-.79.32c.09.21.18.4.28.6,2,4.07,6.31,6.94,8.11,11.13a8.53,8.53,0,0,1,.44,1.29q.45-.48.84-.93A11.51,11.51,0,0,0,261.28,118.22Zm2.79-6.91a3,3,0,0,1-2.47-1.77,3.71,3.71,0,0,1,.46-3.08,7.81,7.81,0,0,1,.53-.83c-.41,0-.85.07-1.31.14a6.85,6.85,0,0,0-.67,1.42,3.69,3.69,0,0,0,2,4.73,6.86,6.86,0,0,0,5.58-.48,7.59,7.59,0,0,0,.19-1.29A6.49,6.49,0,0,1,264.07,111.31Z" style="opacity:0.1"></path><path d="M199.11,152.26c.06-2.44-.14-4.74-.28-7s-.32-4.57-.5-6.84-.36-4.58-.57-6.84-.54-4.55-.81-6.82c0-.13-.17,0-.16.13.1,2.34.15,4.72.29,7s.32,4.57.5,6.84.36,4.58.58,6.84.39,4.7.81,6.81C199,152.47,199.11,152.39,199.11,152.26Z" style="fill:#263238"></path><path d="M258.43,124.53c-2.92,2.86-5.84,5.72-8.84,8.5q-2.25,2.07-4.55,4.1c-.77.67-1.52,1.36-2.29,2a16.81,16.81,0,0,0-2.2,2.1c0,.05,0,.15.07.12a13.19,13.19,0,0,0,2.56-1.69c.78-.6,1.56-1.2,2.32-1.83q2.37-1.95,4.6-4c1.49-1.4,2.92-2.83,4.3-4.31l.44-.22a9.94,9.94,0,0,0,1.07-.66,12.65,12.65,0,0,0,1.84-1.59s0-.08,0-.06c-.7.42-1.4.83-2.08,1.27l-.22.14c1.09-1.21,2.15-2.43,3.16-3.71C258.64,124.56,258.52,124.44,258.43,124.53Z" style="fill:#263238"></path><path d="M274.78,119.25s-10.26-11.88-17.57-12.34l-8.09,3.28s-1.63.34-2.13-1c-1.24-3.33.22-9.53,7.32-13.88,6.5-4,18.84-1.83,26.9,1.16,7.73,2.87,11.66,8,8.71,12.91S274.78,119.25,274.78,119.25Z" style="fill:#2B9B52"></path><path d="M255.79,94.55a15.9,15.9,0,0,1,2.71-.86,11,11,0,0,0-1.5,1.07,11.82,11.82,0,0,0-3.7,5.69,11.23,11.23,0,0,0,0,6.57,8.47,8.47,0,0,0,.5,1.26l-1,.41a12.17,12.17,0,0,1,1.05-11.9A12.49,12.49,0,0,1,255.79,94.55Zm12.67-1.15c-.55-.06-1.09-.11-1.63-.14A4.15,4.15,0,0,1,269,97c-.17,2.25-2.39,3.87-4.16,5.22s-3.53,2.89-4.22,5a3.58,3.58,0,0,0-.14.54q.5.21,1,.45a4.84,4.84,0,0,1,.6-1.72c1.13-2,3.2-3.28,5-4.82,1.61-1.37,3.11-3.14,2.92-5.24A4.87,4.87,0,0,0,268.46,93.4ZM277,95.1c-1.66,2.83-2.54,6-3.91,8.93a17.16,17.16,0,0,1-3.17,4.87,8.23,8.23,0,0,1-3.73,2.26c.32.24.64.48.95.74a9.25,9.25,0,0,0,1.53-.69,11.82,11.82,0,0,0,4.06-4.17c2-3.19,3.13-7.92,5.31-11.63Zm10.79,12.5c-5.4,1.78-11.42,2-16.43,4.74a15.62,15.62,0,0,0-2.09,1.36c.3.26.58.52.86.78a17.84,17.84,0,0,1,4.56-2.42c5.2-1.9,11-2.11,16-4.49a5.32,5.32,0,0,0,.2-1.3A19.51,19.51,0,0,1,287.77,107.6Z" style="opacity:0.1"></path><path d="M275.82,116.89s9.74-5.61,11.06-9.38S280.83,99.3,276,97.37c-7.51-3-12.81-3-17.54.69S275.82,116.89,275.82,116.89Z" style="opacity:0.1"></path><path d="M265,108.24c.3,1.16,6,8.62,11.37,8.26,1.74-.12,1.49-9.63,1.49-9.63l.15-.71,2-9.88-11.71-7.17-1.69-.94s-.37,2.74-.79,6.15l-.06.49c0,.19-.06.37-.08.55-.07.51-.13,1-.19,1.55s-.09.78-.13,1.2-.07.83-.12,1.24A64.61,64.61,0,0,0,265,108.24Z" style="fill:#ffc4c0"></path><path d="M265.83,94.32A20.22,20.22,0,0,0,278,106.16l2-9.88-11.71-7.17-1.69-.94S266.25,90.91,265.83,94.32Z" style="fill:#263238"></path><path d="M294.31,82.94c-.5,17.69-11.15,19.39-15,19.28-3.46-.1-15.23-.89-16.57-18.53s7.05-23,15-23.2S294.8,65.25,294.31,82.94Z" style="fill:#ffc4c0"></path><path d="M289.48,81.59c-.41.08-.8.08-1.22.12A2,2,0,0,1,287,81.6a.63.63,0,0,1-.23-.73,1.56,1.56,0,0,1,1.35-.82,2.3,2.3,0,0,1,1.62.34A.67.67,0,0,1,289.48,81.59Z" style="fill:#455a64"></path><path d="M277.58,78.08a11.46,11.46,0,0,0,1.19.28,1.89,1.89,0,0,0,1.26.06.61.61,0,0,0,.33-.69,1.56,1.56,0,0,0-1.23-1,2.29,2.29,0,0,0-1.65.11A.68.68,0,0,0,277.58,78.08Z" style="fill:#455a64"></path><path d="M280.18,82.47s-.1,0-.1.1c-.06,1.2-.32,2.57-1.43,2.89,0,0,0,.07,0,.07C280,85.44,280.32,83.62,280.18,82.47Z" style="fill:#263238"></path><path d="M279.2,81.13c-1.92-.29-2.37,3.58-.59,3.85S280.81,81.38,279.2,81.13Z" style="fill:#263238"></path><path d="M278.42,81.25c-.37.18-.74.53-1.15.52s-.79-.45-1-.87c0-.05-.07,0-.07,0-.1.74.1,1.54.88,1.74s1.31-.42,1.58-1.14C278.66,81.4,278.56,81.18,278.42,81.25Z" style="fill:#263238"></path><path d="M287,82.77s.09.07.08.12c-.18,1.19-.19,2.59.84,3.12,0,0,0,.07,0,.06C286.62,85.72,286.66,83.87,287,82.77Z" style="fill:#263238"></path><path d="M288.24,81.65c1.94.09,1.62,4-.18,3.89S286.61,81.58,288.24,81.65Z" style="fill:#263238"></path><path d="M289,82c.29.23.56.62.92.68s.77-.33,1.08-.71c0,0,.06,0,.06,0,0,.74-.35,1.49-1.08,1.57s-1.08-.6-1.2-1.35C288.79,82.08,288.91,81.88,289,82Z" style="fill:#263238"></path><path d="M279.22,92.25c.24.32.46.75.89.86a3.17,3.17,0,0,0,1.33-.1s.07,0,0,.07a1.63,1.63,0,0,1-1.61.41,1.28,1.28,0,0,1-.77-1.21C279.09,92.21,279.19,92.2,279.22,92.25Z" style="fill:#263238"></path><path d="M284.83,88.2s.06,1.81,0,2.66c0,.08-.21.09-.5.08,0,0,0,0,0,0a4,4,0,0,1-3.75-1.9.09.09,0,0,1,.14-.11,6.05,6.05,0,0,0,3.56,1.43c.08-.23-.22-3.11-.08-3.1a7.36,7.36,0,0,1,1.87.63c0-3.79-.65-7.54-.62-11.31a.12.12,0,0,1,.23,0A61.54,61.54,0,0,1,286.8,88.7C286.82,89.19,285.15,88.37,284.83,88.2Z" style="fill:#263238"></path><path d="M284,90.77a4.67,4.67,0,0,1-2,1.27,2.11,2.11,0,0,1-1.29,0c-.9-.33-.84-1.18-.6-1.89a4.9,4.9,0,0,1,.52-1.07A6.09,6.09,0,0,0,284,90.77Z" style="fill:#263238"></path><path d="M281.94,92a2.11,2.11,0,0,1-1.29,0c-.9-.33-.84-1.18-.6-1.89A2.17,2.17,0,0,1,281.94,92Z" style="fill:#ff9bbc"></path><path d="M263.71,83.7C268,84,270.7,71,271,69.41c-.14,1-.89,6.41-.5,6.67a3.89,3.89,0,0,0,1.37-.1h0a12.47,12.47,0,0,1,.37-1.92c.07-.3,0,.66.07,1.85l.82-.13a16,16,0,0,1,.86-4.07c.18-.5.07,1.82.33,3.88a51.92,51.92,0,0,1,11.42-.74c1.07.08,2,.2,2.8.32.19-1.59.19-3.32.27-2.94a15.88,15.88,0,0,1,.34,3l1.2.22c.36-2.24-.31-6,0-5.37a16.1,16.1,0,0,1,1.56,5.8c1.51.47,1.9.81,2,.42a19,19,0,0,0-4.44-12.3c-4.79-5.63-15.32-8.07-22.19-1,0,0-5.31,2.68-6.66,7.81S261.23,83.51,263.71,83.7Z" style="fill:#455a64"></path><path d="M265.55,85.12s-3.21-5.92-5.86-4.84-.68,9.36,2.12,10.79A3,3,0,0,0,266,89.93Z" style="fill:#ffc4c0"></path><path d="M260.32,82.64a0,0,0,0,0,0,.07c2,1.07,2.82,3.1,3.34,5.15a1.64,1.64,0,0,0-2.4-.73c-.06,0,0,.12,0,.12a1.83,1.83,0,0,1,1.94.87,8.8,8.8,0,0,1,.78,1.74c.07.19.42.13.37-.09a.43.43,0,0,1,0,0C264.7,87.12,263.09,83.22,260.32,82.64Z" style="fill:#263238"></path><path d="M263.47,90.17a.83.83,0,1,1-.66-1A.83.83,0,0,1,263.47,90.17Z" style="fill:#fff"></path><path d="M261.16,88.46a.43.43,0,0,1-.51.34.42.42,0,0,1-.34-.5.43.43,0,0,1,.5-.35A.44.44,0,0,1,261.16,88.46Z" style="fill:#fff"></path><path d="M261.43,90.41c0,.86-2.41-2.11-2.52-2.55s-1.78-1.76-2.19-2.62a20.73,20.73,0,0,1-1.24-3.95c0-.6-1.09-2.12-1-3.17s.82-10.37,7.35-16.39,12.16-6.23,12.16-6.23a40.2,40.2,0,0,1,8.53,0c4.59.49,10.8,11.47,10.81,11.7a3.91,3.91,0,0,0-.14,1.6c.19.66.87,1.35.49,2s.48,2.23.44,2.89-.22.83-.12,1.28-1.61-11.25-15.54-15.82C278.41,59.05,261.35,72,261.43,90.41Z" style="fill:#2B9B52"></path><path d="M293.93,74.74a.69.69,0,0,0,0,.13S294,74.86,293.93,74.74Z" style="fill:#2B9B52"></path><path d="M293.93,74.74a.59.59,0,0,0,0,.13S294,74.86,293.93,74.74Z" style="fill:#2B9B52"></path><path d="M258.91,87.86a12.59,12.59,0,0,1,0-2.53c.07-.84.16-1.68.26-2.52.21-1.67.42-3.35.71-5,.07-.42.14-.84.24-1.24a5.88,5.88,0,0,1,.51-1.12c.41-.73.87-1.44,1.32-2.15s.93-1.42,1.41-2.12l1.43-2.1c-1.06,1.33-2.06,2.69-3,4.09-.48.7-.94,1.41-1.37,2.15a5.79,5.79,0,0,0-.55,1.18c-.1.42-.17.84-.25,1.26-.27,1.67-.49,3.35-.64,5-.08.84-.15,1.69-.18,2.53,0,.42,0,.85,0,1.27A5.42,5.42,0,0,0,258.91,87.86Z" style="fill:#050400;opacity:0.1"></path><path d="M260.39,70.5a22.35,22.35,0,0,0-3.51,5,14.13,14.13,0,0,0-1.12,2.83,8.28,8.28,0,0,0-.28,3c0-.25,0-.51,0-.75a2.45,2.45,0,0,1,0-.38l.06-.37c0-.12,0-.24.06-.37l.1-.36c.07-.24.11-.49.2-.72l.24-.71.29-.69c.09-.24.2-.46.3-.69s.21-.45.34-.67a27,27,0,0,1,1.51-2.6c.26-.43.55-.84.84-1.25S260.08,70.9,260.39,70.5Z" style="fill:#050400;opacity:0.1"></path><path d="M293,68.22a15.93,15.93,0,0,0-1.53-2.45c-.55-.78-1.14-1.54-1.74-2.29a28.11,28.11,0,0,0-1.9-2.19,9.72,9.72,0,0,0-2.36-1.67,12.29,12.29,0,0,1,1.15.86,9.65,9.65,0,0,1,1.05,1c.32.35.62.72.92,1.09l.9,1.12,1.8,2.25c.3.37.59.75.88,1.13A11.94,11.94,0,0,1,293,68.22Z" style="fill:#050400;opacity:0.1"></path><path d="M293.53,71.13a16,16,0,0,0-.87-1.88c-.33-.61-.69-1.21-1.08-1.79a8.35,8.35,0,0,0-.64-.83c-.23-.25-.46-.51-.71-.76l-.72-.75c-.25-.24-.49-.49-.75-.72.21.28.43.55.64.82l.66.8c.22.27.45.53.67.79a9.68,9.68,0,0,1,.61.82c.39.56.75,1.15,1.12,1.73l.54.88C293.18,70.54,293.36,70.83,293.53,71.13Z" style="fill:#050400;opacity:0.1"></path><path d="M263.14,60.55c2.32,1.1,7.64,3.54,8.88,3.5a8.6,8.6,0,0,0,1.25-.2,45.18,45.18,0,0,1,5.14-4.8,27.33,27.33,0,0,1,4.68,2,26.8,26.8,0,0,0,3.85-2.8c-1.49-1.52-3.06-2.66-4.47-2.82a39.78,39.78,0,0,0-8.53.06S269.08,55.68,263.14,60.55Z" style="fill:#050400;opacity:0.1"></path><path d="M277.68,56.44s5-5.85,11.74-5.59c0,0-1.27,6.47-3.92,8.27-1.33.89-6.57.54-7.05-.41A12,12,0,0,1,277.68,56.44Z" style="fill:#2B9B52"></path><path d="M277.68,56.45a13.16,13.16,0,0,0,.77,2.26.44.44,0,0,0,.09.11.58.58,0,0,0,.14.12l.12.07a7.48,7.48,0,0,0,2.84.59,15.18,15.18,0,0,0-.28-2.94,4.32,4.32,0,0,0-1.69-2.09A15.35,15.35,0,0,0,277.68,56.45Z" style="fill:#050400;opacity:0.1"></path><path d="M275.93,57.09s-9-2.82-13.72-1.51c0,0,1.67,5.14,6.1,7,2,.84,8.6-2,8.44-3.09A9.4,9.4,0,0,0,275.93,57.09Z" style="fill:#2B9B52"></path><path d="M273.87,56.52a5.34,5.34,0,0,0-.3,3,4.67,4.67,0,0,0,1,1.69c1.31-.63,2.26-1.31,2.2-1.75a9.4,9.4,0,0,0-.82-2.42S275.13,56.83,273.87,56.52Z" style="fill:#050400;opacity:0.1"></path><path d="M274.64,59a3.07,3.07,0,0,0,3.89,1.9,3,3,0,0,0,1.91-3.85,3.06,3.06,0,0,0-5.8,2Z" style="fill:#2B9B52"></path><path d="M275.82,116.89s-7.52-16.12-18.63-18.73l.13,8.54s6.7.67,17.46,12.55Z" style="fill:#2B9B52"></path><path d="M264.81,102.22c.25.2.5.41.74.63a12.74,12.74,0,0,0-3.49,3.61,4.86,4.86,0,0,0-.61,1.76q-.52-.27-1-.48a5.62,5.62,0,0,1,.15-.55C261.3,105.1,263,103.6,264.81,102.22Zm5.67,6c-.18.22-.37.44-.58.65a8.17,8.17,0,0,1-3.79,2.27l.95.75a9.15,9.15,0,0,0,1.59-.71,9.76,9.76,0,0,0,2.5-2.06Zm2.35,3.37c-.51.21-1,.46-1.49.72a16.07,16.07,0,0,0-2.12,1.38c.29.25.57.51.86.78a16.38,16.38,0,0,1,3.35-1.93Z" style="opacity:0.1"></path><path d="M254.27,106.56a14.47,14.47,0,0,1,6,1.4,26.89,26.89,0,0,1,5.27,3.12,45.48,45.48,0,0,1,4.7,4l2.16,2.2,2.06,2.3.23.26.3-.12a51.6,51.6,0,0,0,6.41-3.06,31.06,31.06,0,0,0,3-1.89,18.61,18.61,0,0,0,2.7-2.31,31.18,31.18,0,0,1-6,3.64c-1.05.52-2.12,1-3.2,1.44s-2.16.9-3.25,1.29l.52.14-2.05-2.37q-1.08-1.14-2.19-2.25c-.78-.7-1.55-1.42-2.35-2.09s-1.64-1.32-2.53-1.88a25,25,0,0,0-5.58-2.93c-.49-.19-1-.33-1.5-.48s-1-.24-1.55-.32A9.34,9.34,0,0,0,254.27,106.56Z" style="fill:#263238"></path><path d="M249.24,110.07a31.69,31.69,0,0,0,4.1-1.34,29.64,29.64,0,0,0,3.87-1.82,31.55,31.55,0,0,0-4.09,1.34A33.37,33.37,0,0,0,249.24,110.07Z" style="fill:#263238"></path><path d="M271.43,112.81a62.31,62.31,0,0,0-3.05,10.31c-.52,2.45-1.25,11.46,1.54,11.66s-.57-6.34-.47-11.14,2-8,2.69-10.73Z" style="fill:#2B9B52"></path><g style="opacity:0.1"><path d="M271.43,112.81a62.31,62.31,0,0,0-3.05,10.31c-.52,2.45-1.25,11.46,1.54,11.66s-.57-6.34-.47-11.14,2-8,2.69-10.73Z"></path></g><path d="M281.53,114.14a56.63,56.63,0,0,1,.26,9.75c-.12,2.27-1.59,10.32-4.09,9.85s2-5.42,3-9.65.12-7.46.16-10Z" style="fill:#2B9B52"></path><g style="opacity:0.1"><path d="M281.53,114.14a56.63,56.63,0,0,1,.26,9.75c-.12,2.27-1.59,10.32-4.09,9.85s2-5.42,3-9.65.12-7.46.16-10Z"></path></g></g><g id="freepik--Microphone--inject-126"><polygon points="179.68 203.41 137 200.19 135.98 209.43 178.34 215.55 179.68 203.41" style="fill:#263238"></polygon><path d="M196.61,211.42h0A9.67,9.67,0,0,1,185.93,220l-3.33-.36a9.07,9.07,0,0,1-8-10l.13-1.21a9.06,9.06,0,0,1,10-8l3.33.37A9.67,9.67,0,0,1,196.61,211.42Z" style="fill:#a6a6a6"></path><rect x="174.54" y="209.04" width="20.58" height="2.11" transform="matrix(0.11, -0.99, 0.99, 0.11, -44.24, 370.81)" style="fill:#c7c7c7"></rect><path d="M143.63,198.53a67,67,0,0,1,0-14.06,65.22,65.22,0,0,1,0,14.06Z" style="fill:#263238"></path><path d="M138.65,198.22a48.51,48.51,0,0,1,0-12.12,49.81,49.81,0,0,1,0,12.12Z" style="fill:#263238"></path><path d="M166.72,198.7a59,59,0,0,1-.37-7,57.1,57.1,0,0,1,.37-7,65.22,65.22,0,0,1,0,14.06Z" style="fill:#263238"></path><path d="M163.62,199.32c-.15-2-.22-4.07-.28-6.1s-.08-4.08-.09-6.11,0-4.08.09-6.11.13-4.08.28-6.11c.16,2,.23,4.07.29,6.11s.08,4.07.09,6.11,0,4.07-.09,6.11S163.78,197.29,163.62,199.32Z" style="fill:#263238"></path><path d="M140.86,198.72a17.8,17.8,0,0,1,0-7.22,17.34,17.34,0,0,1,0,7.22Z" style="fill:#263238"></path><path d="M168.72,200.68a17.75,17.75,0,0,1,0-7.21,17.29,17.29,0,0,1,0,7.21Z" style="fill:#263238"></path><path d="M135.47,198.72a15.82,15.82,0,0,1-.38-3.61,15.28,15.28,0,0,1,.38-3.61,15.27,15.27,0,0,1,.37,3.61A15.81,15.81,0,0,1,135.47,198.72Z" style="fill:#263238"></path><path d="M196.35,204.77a67.07,67.07,0,0,1,0-14.07,65.31,65.31,0,0,1,0,14.07Z" style="fill:#263238"></path><path d="M191.37,199.7a48.51,48.51,0,0,1,0-12.12,49.81,49.81,0,0,1,0,12.12Z" style="fill:#263238"></path><path d="M193.58,201.34a17.75,17.75,0,0,1,0-7.21,17.29,17.29,0,0,1,0,7.21Z" style="fill:#263238"></path><path d="M188.82,199.89a15.87,15.87,0,0,1-.37-3.61,15.27,15.27,0,0,1,.37-3.61,15.28,15.28,0,0,1,.38,3.61A15.88,15.88,0,0,1,188.82,199.89Z" style="fill:#263238"></path></g></svg>