<svg xmlns="http://www.w3.org/2000/svg" viewBox="0 0 750 500"><g id="freepik--background-complete--inject-86"><path d="M236.85,160.11H110.21V73.47H236.85Zm-125.64-1H235.85V74.47H111.21Z" style="fill:#ebebeb"></path><path d="M120.11,79.06a2.52,2.52,0,1,1-2.52-2.52A2.52,2.52,0,0,1,120.11,79.06Z" style="fill:#a6a6a6"></path><path d="M130.4,79.06a2.52,2.52,0,1,1-2.52-2.52A2.52,2.52,0,0,1,130.4,79.06Z" style="fill:#ebebeb"></path><path d="M140.69,79.06a2.52,2.52,0,1,1-2.52-2.52A2.52,2.52,0,0,1,140.69,79.06Z" style="fill:#FBCA12"></path><rect x="110.71" y="83.49" width="125.64" height="1" style="fill:#ebebeb"></rect><path d="M69.34,212.39a2.67,2.67,0,0,1,2.79,0l.71.41.74.37a2.64,2.64,0,0,1,1.55,2.3l.11,3.43,11.16-.35-.1-3.42a2.66,2.66,0,0,1,1.4-2.41,16,16,0,0,0,1.42-.88,2.64,2.64,0,0,1,2.77-.17l3,1.61,5.28-9.84-3-1.62a2.64,2.64,0,0,1-1.39-2.41,15.34,15.34,0,0,0,0-1.66,2.64,2.64,0,0,1,1.23-2.5l2.91-1.81L94,184l-2.93,1.82a2.68,2.68,0,0,1-2.77,0l-.71-.41-.74-.37a2.65,2.65,0,0,1-1.55-2.31l-.11-3.43L74,179.6l.11,3.41a2.66,2.66,0,0,1-1.4,2.41,16,16,0,0,0-1.42.88,2.66,2.66,0,0,1-2.77.18l-3-1.61-5.28,9.84,3,1.62a2.65,2.65,0,0,1,1.38,2.41c0,.55,0,1.11.05,1.67a2.62,2.62,0,0,1-1.23,2.49l-2.91,1.8,5.89,9.49Zm2.8-17.63a9.15,9.15,0,1,1,3.74,12.39A9.16,9.16,0,0,1,72.14,194.76Z" style="fill:#ebebeb"></path><path d="M468.3,108.08a1.87,1.87,0,0,1,.91,1.73c0,.19,0,.39,0,.58s0,.39,0,.58a1.85,1.85,0,0,1-.91,1.72l-2.08,1.2,3.91,6.78,2.08-1.2a1.83,1.83,0,0,1,2,.07c.33.21.66.4,1,.58a1.85,1.85,0,0,1,1,1.65v2.4H484v-2.4a1.86,1.86,0,0,1,1-1.65,11,11,0,0,0,1-.58,1.83,1.83,0,0,1,1.95-.07l2.08,1.2,3.91-6.78-2.09-1.21A1.86,1.86,0,0,1,491,111c0-.19,0-.38,0-.57s0-.39,0-.58a1.85,1.85,0,0,1,.91-1.72l2.08-1.2-3.91-6.78-2.07,1.2a1.85,1.85,0,0,1-1.95-.07,10.29,10.29,0,0,0-1-.58A1.86,1.86,0,0,1,484,99V96.61H476.2V99a1.86,1.86,0,0,1-1,1.66,9.12,9.12,0,0,0-1,.58,1.85,1.85,0,0,1-2,.07l-2.08-1.2-3.91,6.78Zm11.81-4.1a6.41,6.41,0,1,1-6.41,6.41A6.41,6.41,0,0,1,480.11,104Z" style="fill:#ebebeb"></path><path d="M621.58,307.18a30.47,30.47,0,1,0,30.47-30.48A30.47,30.47,0,0,0,621.58,307.18Zm16.23,0a14.24,14.24,0,1,1,14.24,14.22A14.25,14.25,0,0,1,637.81,307.18Z" style="fill:#ebebeb"></path><polygon points="646.19 277.97 657.91 277.97 657.26 269.67 646.84 269.67 646.19 277.97" style="fill:#ebebeb"></polygon><polygon points="668.49 281.92 676.78 290.2 682.19 283.88 674.82 276.51 668.49 281.92" style="fill:#ebebeb"></polygon><polygon points="681.47 300.48 681.47 312.2 689.77 311.55 689.77 301.13 681.47 300.48" style="fill:#ebebeb"></polygon><polygon points="677.52 322.78 669.24 331.07 675.56 336.48 682.93 329.11 677.52 322.78" style="fill:#ebebeb"></polygon><polygon points="658.96 335.76 647.24 335.76 647.89 344.06 658.31 344.06 658.96 335.76" style="fill:#ebebeb"></polygon><polygon points="636.66 331.81 628.37 323.53 622.97 329.85 630.34 337.22 636.66 331.81" style="fill:#ebebeb"></polygon><polygon points="623.68 313.25 623.68 301.53 615.38 302.18 615.38 312.6 623.68 313.25" style="fill:#ebebeb"></polygon><polygon points="627.63 290.95 635.91 282.66 629.59 277.25 622.22 284.62 627.63 290.95" style="fill:#ebebeb"></polygon><path d="M112.92,274.13a30.47,30.47,0,1,0,30.47-30.47A30.47,30.47,0,0,0,112.92,274.13Zm16.24,0a14.23,14.23,0,1,1,14.23,14.23A14.23,14.23,0,0,1,129.16,274.13Z" style="fill:#ebebeb"></path><polygon points="137.53 244.92 149.25 244.92 148.6 236.63 138.18 236.63 137.53 244.92" style="fill:#ebebeb"></polygon><polygon points="159.83 248.87 168.12 257.16 173.53 250.83 166.16 243.47 159.83 248.87" style="fill:#ebebeb"></polygon><polygon points="172.81 267.43 172.81 279.15 181.11 278.5 181.11 268.08 172.81 267.43" style="fill:#ebebeb"></polygon><polygon points="168.87 289.74 160.58 298.02 166.9 303.43 174.27 296.06 168.87 289.74" style="fill:#ebebeb"></polygon><polygon points="150.3 302.72 138.59 302.72 139.23 311.01 149.66 311.01 150.3 302.72" style="fill:#ebebeb"></polygon><polygon points="128 298.77 119.71 290.48 114.31 296.81 121.68 304.18 128 298.77" style="fill:#ebebeb"></polygon><polygon points="115.02 280.21 115.02 268.49 106.72 269.14 106.72 279.56 115.02 280.21" style="fill:#ebebeb"></polygon><polygon points="118.97 257.9 127.25 249.62 120.93 244.21 113.56 251.58 118.97 257.9" style="fill:#ebebeb"></polygon><path d="M692.37,303.22l-13.12.28-6.66.11c-2.23.05-4.47,0-6.7.06h-.44v-.45L665.39,292v-.5h.5l13.24.06c4.42,0,8.83.11,13.24.16h.28V292c0,1.9-.08,3.79-.13,5.66Zm0,0-.14-5.65c-.05-1.86-.11-3.7-.13-5.54l.27.28c-4.41.05-8.82.16-13.24.16l-13.24.06.5-.5,0,11.19-.45-.44c2.18,0,4.36,0,6.55.05L679,303Z" style="fill:#ebebeb"></path><path d="M677.6,317.33l-13.12.28-6.67.11c-2.22,0-4.46,0-6.69.06h-.44v-.45l0-11.19v-.5h.5l13.24.07c4.41,0,8.83.11,13.24.16h.28v.27c0,1.9-.08,3.79-.13,5.66Zm0,0-.14-5.65c-.05-1.86-.11-3.7-.13-5.54l.27.28c-4.41.05-8.83.16-13.24.16l-13.24.06.5-.5,0,11.19-.45-.44c2.18,0,4.36,0,6.55.05l6.57.12Z" style="fill:#ebebeb"></path><path d="M707.14,317.33l-13.12.28-6.66.11c-2.23,0-4.47,0-6.7.06h-.44v-.45l-.06-11.19v-.5h.5l13.24.07c4.42,0,8.83.11,13.24.16h.28v.27c0,1.9-.09,3.79-.13,5.66Zm0,0-.14-5.65c0-1.86-.11-3.7-.13-5.54l.27.28c-4.41.05-8.82.16-13.24.16l-13.24.06.5-.5,0,11.19-.45-.44c2.19,0,4.36,0,6.55.05l6.58.12Z" style="fill:#ebebeb"></path><path d="M314.79,170.07l-13.12.28-6.66.11c-2.23,0-4.47,0-6.7,0h-.44v-.45l-.06-11.19v-.5h.5l13.24.06c4.42,0,8.83.11,13.24.16h.28v.27c0,1.9-.09,3.78-.14,5.65Zm0,0-.14-5.66c0-1.86-.11-3.7-.13-5.53l.27.27c-4.41,0-8.82.16-13.24.16l-13.24.07.5-.5-.05,11.19-.45-.45c2.18,0,4.36,0,6.55.06l6.58.11Z" style="fill:#ebebeb"></path><path d="M300,184.18l-13.12.28-6.67.11c-2.22,0-4.46,0-6.69.05h-.44v-.45L273,173v-.5h.5l13.24.06c4.41,0,8.83.11,13.24.16h.28V173c0,1.9-.08,3.78-.13,5.65Zm0,0-.14-5.66c-.05-1.86-.11-3.7-.13-5.53l.27.27c-4.41.05-8.83.16-13.24.16l-13.24.07.5-.5L274,184.18l-.45-.45c2.18,0,4.36,0,6.55.06l6.57.11Z" style="fill:#ebebeb"></path><path d="M329.56,184.18l-13.12.28-6.66.11c-2.23,0-4.46,0-6.7.05h-.44v-.45L302.58,173v-.5h.5l13.24.06c4.42,0,8.83.11,13.24.16h.28V173c0,1.9-.09,3.78-.13,5.65Zm0,0-.14-5.66c0-1.86-.11-3.7-.13-5.53l.27.27c-4.41.05-8.82.16-13.24.16l-13.24.07.5-.5-.05,11.19-.45-.45c2.19,0,4.36,0,6.55.06l6.58.11Z" style="fill:#ebebeb"></path><path d="M98.88,244.11l-13.12.28-6.67.11c-2.22,0-4.46,0-6.69.05H72v-.45l0-11.19v-.5h.5l13.24.06c4.41,0,8.83.11,13.24.16h.28v.27c0,1.9-.08,3.78-.13,5.65Zm0,0-.14-5.66c0-1.86-.11-3.7-.13-5.53l.27.27c-4.41.05-8.83.16-13.24.16l-13.24.07.5-.5-.05,11.19-.45-.45c2.18,0,4.36,0,6.55.06l6.57.11Z" style="fill:#ebebeb"></path><path d="M537.86,170.06l-13.12.28-6.66.11c-2.23.05-4.47,0-6.7.05h-.44v-.45l-.06-11.19v-.5h.5l13.24.06c4.42,0,8.83.12,13.24.17h.28v.27c0,1.9-.08,3.79-.13,5.65Zm0,0-.14-5.65c-.05-1.87-.11-3.71-.13-5.54l.27.27c-4.41.05-8.82.16-13.24.17l-13.24.06.5-.5-.05,11.19-.45-.45c2.18,0,4.36,0,6.55.06l6.58.11Z" style="fill:#ebebeb"></path><path d="M690.84,61.38l-13.12.28-6.67.11c-2.22,0-4.46,0-6.69.06h-.44v-.45l0-11.19v-.5h.5l13.24.06c4.41,0,8.83.12,13.24.17h.28v.27c0,1.9-.08,3.79-.13,5.65Zm0,0-.14-5.65c-.05-1.87-.11-3.71-.13-5.54l.27.27c-4.41,0-8.83.16-13.24.17l-13.24.06.5-.5-.05,11.19-.45-.45c2.18,0,4.36,0,6.55.06l6.57.11Z" style="fill:#ebebeb"></path><path d="M705.61,75.49l-13.12.28-6.66.11c-2.23.05-4.47,0-6.7.05h-.44v-.45l-.06-11.19v-.5h.5l13.24.06c4.42,0,8.83.12,13.24.17h.28v.27c0,1.9-.09,3.79-.14,5.65Zm0,0-.14-5.65c0-1.87-.11-3.71-.13-5.54l.27.27c-4.41.05-8.82.16-13.24.17l-13.24.06.5-.5,0,11.19-.45-.45c2.18,0,4.36,0,6.55.06l6.58.11Z" style="fill:#ebebeb"></path><path d="M69.34,61.39l-13.13.28-6.66.11c-2.22,0-4.46,0-6.69.06h-.45v-.45l0-11.19v-.5h.51l13.24.07c4.41,0,8.82.11,13.24.16h.27v.27c0,1.9-.09,3.79-.13,5.66Zm0,0-.15-5.65c0-1.87-.11-3.71-.13-5.54l.28.27c-4.42.06-8.83.16-13.24.17l-13.24.06.5-.5L43.3,61.39,42.86,61c2.18,0,4.35,0,6.54,0l6.58.11Z" style="fill:#ebebeb"></path></g><g id="freepik--Plant--inject-86"><path d="M97.79,273.75a87,87,0,0,1,2-14.18c1-4.2,2.42-8.49,5.06-12a15.15,15.15,0,0,1,9.93-6.18c3.89-.48,7.54,1.25,10.45,3.7,3.6,3,6.36,7.06,8.95,10.95a136.3,136.3,0,0,1,7.74,13.54c.07.15-.16.28-.24.13a84,84,0,0,0-6.91-11.33,71.47,71.47,0,0,0-8-9.64c-2.67-2.61-6.06-5-9.93-5.17a12.19,12.19,0,0,0-9.71,5c-2.59,3.31-3.91,7.45-4.9,11.49a86.58,86.58,0,0,0-2,13.49c-.76,9.34-1,18.74-1.18,28.1-.12,5.3-.19,10.6-.24,15.9l-.06,8.06a50.23,50.23,0,0,1-.31,7.76c-.09.52-.94.47-1,0a46.36,46.36,0,0,1-.36-7.36L97,318.4c0-4.95-.07-9.9,0-14.84C97,293.63,97.11,283.66,97.79,273.75Z" style="fill:#263238"></path><path d="M111.14,266.71c.49-2.64,1.38-6.09,2.89-8.13,2.7-3.68,5.62-2.08,2.92,2a24.37,24.37,0,0,0-3.79,10s4.54,6.49,10,9.69c-.24-2.5-.94-6.34-.46-10,1.06-8,5.91-7.57,4.71-1.2a55.47,55.47,0,0,0-1.1,12.89,27.84,27.84,0,0,0,5.86,2.87c-.31-.93-.65-2.05-1-3.4-1.95-7.19,2.84-9.43,3-5.39a56,56,0,0,0,1.86,10.2c2.63.88,4.81,1.49,6.15,2a22.38,22.38,0,0,1,9,6.14,28.3,28.3,0,0,0,6.13-7.93c-1.68-1.44-4.33-3.58-8-6.18-6.89-4.86-4.49-11,1-7.19,3.94,2.76,7,7.87,8.39,10.49a42.52,42.52,0,0,0,3.12-14.35C156.39,264.08,143,257,147,257c3.64,0,11.76,5.33,14.75,7.38a39.39,39.39,0,0,0-.46-4.17c-5.1-3.34-21.67-8.54-19-10,2.9-1.64,14.46,3.71,18,5.41a21,21,0,0,0-3.06-6.35c-7.05-9.43-19.75-12.68-25.3-10.88-3.92,1.27-2.77,11.22-3.61,10.88C112.51,242.89,105.34,247.37,111.14,266.71Zm38.63-1.09c1.11-1.36,6.28,2.62,4.79,4.79S148.32,267.35,149.77,265.62Zm-27-8.49c1.36.86-.65,5.89-2.75,4.37C118.21,260.2,121.37,256.25,122.74,257.13Z" style="fill:#FBCA12"></path><path d="M124.81,258.67c.71-1.41,1.45-2.81,2.26-4.16a24,24,0,0,1,2.6-3.77c-.22-.28-.44-.56-.67-.83-.09-.11.07-.27.16-.16.27.3.52.61.78.92a.22.22,0,0,1,.11.12q1.45,1.76,2.76,3.6a40.62,40.62,0,0,1,4.58,1.33c1.55.51,3.08,1,4.58,1.68.16.07.08.33-.08.26-1.49-.66-3-1.3-4.54-1.82s-2.94-.87-4.42-1.29c.48.68.95,1.37,1.41,2.06a55.12,55.12,0,0,1,8.09,3.3c2.73,1.3,5.37,2.81,8,4.33.15.08,0,.31-.14.22a88.92,88.92,0,0,0-7.94-4.11c-2.53-1.18-5.16-2.16-7.71-3.29,6.43,10,10.29,21.63,15.45,32.36.08.16-.17.29-.23.13-1.58-3.76-3.39-7.43-5.11-11.13-1.54-3.32-3-6.66-4.58-10-.45-1-.92-1.94-1.39-2.91.28,5.37.17,10.82,1.05,16.12a.14.14,0,1,1-.27,0c-.37-5.73-1.38-11.37-1.34-17.14,0,0,0,0,0-.07-1.09-2.19-2.25-4.35-3.51-6.46-2.13,5-4.37,10.12-5.37,15.51,0,.16-.3.09-.25-.08,1.45-5.4,2.79-10.81,5.4-15.81a61.34,61.34,0,0,0-4.54-6.53c-.71,1.34-1.63,2.6-2.44,3.87s-1.58,2.5-2.31,3.78a55.13,55.13,0,0,0-4,8.51c-.05.16-.32.08-.25-.08C122.15,264.32,123.4,261.44,124.81,258.67Z" style="fill:#263238"></path><path d="M74.08,270.88c4.13-4.14,8.93-9.58,15.31-9.57,6.16,0,10.69,5,13.3,10.09,2.72,5.35,3.7,11.41,4.47,17.3A210.29,210.29,0,0,1,108.79,310c.11,3.94.1,7.9,0,11.85a78.46,78.46,0,0,1-.9,12c-.12.64-1.14.66-1.18,0-.19-3.32,0-6.67,0-10s0-6.56-.16-9.84c-.24-6.62-.72-13.24-1.5-19.83-.68-5.75-1.22-11.67-2.94-17.23-1.56-5-4.47-10.74-9.55-12.94-6.93-3-13.71,2.48-18.24,7.12C74.17,271.17,74,271,74.08,270.88Z" style="fill:#263238"></path><path d="M53,280.13h0c0,.85.08,1.68.14,2.5a15,15,0,0,1,6.77-2.8c5.86-.62,5.48,3.83,1.57,4a22.26,22.26,0,0,0-8,1.61c.95,7.74,3.08,14,3.4,14a114.14,114.14,0,0,0,15.49-2c-1.46-3.11-4.78-7.23-3.09-7.57s3.54,3.34,4.48,7.29A74,74,0,0,0,85,294.18c-2.58-2.24-6.56-5-5-6.2s4.69,2.73,6.58,5.57a22.26,22.26,0,0,0,4.87-2.71c-3.47-5.1-11.94-6.14-10.83-9.83s9,1.43,12.58,8.26c4.18-4.33,5.4-10.46,5-15.7-3.64-.42-10.64.34-10.13-2.27s5.56-2.11,9.7-.59A14.55,14.55,0,0,0,95.25,265c-3.83-4.92-15.53,1.34-15.53,1.34S81,254.53,76.51,252.5c-2.57-1.17-7.11-1.16-11.67,1.52,2.56.21,5.65,1,6.89,2.79,1.58,2.26-.92,3.49-2.51,2.45-1.12-.74-3.22-3.07-7-3.37A23.12,23.12,0,0,0,58,260.56c-.43.61-.83,1.25-1.23,1.95a16.06,16.06,0,0,1,13.7.24c5.07,2.52,2.24,7.79-2.13,5.74s-8.52-4.05-13.15-2.9A32.89,32.89,0,0,0,53,278.71a22.84,22.84,0,0,1,7.51-3.61c5.05-1.32,6.57,1.69,1,2.25A22.26,22.26,0,0,0,53,280.13ZM59.15,272c-.35-1.64,3.22-2.11,3.82-.78C63.47,272.39,59.49,273.67,59.15,272Zm30.59,9c.34-.89,2.73.13,2.52,1.24C92,283.8,89.42,282,89.74,281.08Zm-16.89,5.74c1.74-.7,4.47,3.64,2.57,4.63S71.43,287.39,72.85,286.82Z" style="fill:#FBCA12"></path><path d="M57.53,298.62c2.63-4.39,5.23-8.81,8-13.12,1.28-2,2.63-4,4-5.91l-.63-.15-1-.2c-.81-.14-1.63-.26-2.44-.34s-1.54-.12-2.31-.13a11.22,11.22,0,0,0-2.46.13c-.1,0-.12-.14,0-.13.83,0,1.67-.08,2.49-.09s1.6,0,2.39.06,1.5.12,2.24.23c.41.06.82.14,1.23.22a6.31,6.31,0,0,1,.73.15c1.43-2,2.9-3.87,4.43-5.75A52.54,52.54,0,0,0,59.76,269c-.08,0,0-.15,0-.13a48.61,48.61,0,0,1,14.59,4.42c.84-1,1.69-2.05,2.54-3.08s2-2.26,2.83-3.47c0-.08.17,0,.1.08a50.58,50.58,0,0,0-3.33,4.08h0a51.36,51.36,0,0,1,5.35,4.3c1.75,1.55,3.46,3.15,5.11,4.8.06.06,0,.16-.09.1-1.64-1.63-3.34-3.19-5.11-4.66s-3.65-2.84-5.43-4.3l0,0c-.41.54-.81,1.08-1.22,1.61-.21.27-.41.54-.62.8,0,0,0,0,0,.06-.69.89-1.37,1.78-2,2.68a22.2,22.2,0,0,1,2,3.66c.58,1.24,1.1,2.53,1.57,3.81A55.89,55.89,0,0,1,78.23,292c0,.08-.11.12-.13,0a47.7,47.7,0,0,0-2.39-8.08c-.51-1.34-1.09-2.65-1.69-4s-1.21-2.33-1.72-3.53c-.59.79-1.18,1.57-1.75,2.36l-.5.7c0,.05,0,.12,0,.12h0c-1.81,2.52-3.53,5.1-5.2,7.71a2,2,0,0,1,.23.58c.11.31.21.63.3.95a19.2,19.2,0,0,1,.46,2c.11.62.2,1.24.26,1.87a18.9,18.9,0,0,0,.16,2.13c0,.1-.15.11-.13,0a6.94,6.94,0,0,0-.14-2c-.1-.68-.23-1.36-.38-2s-.31-1.21-.49-1.8c-.09-.3-.18-.6-.28-.89s-.13-.32-.19-.49q-1.17,1.85-2.32,3.7l-4.52,7.38A.11.11,0,0,1,57.53,298.62Z" style="fill:#263238"></path><path d="M98.07,332.37c.06-2.49.46-5,.73-7.48s.55-5,.82-7.46c.51-4.8.79-9.7,1.92-14.4a20.92,20.92,0,0,1,5.86-10.77,9.57,9.57,0,0,1,5.74-2.74,9.94,9.94,0,0,1,6.11,1.88,21.48,21.48,0,0,1,5.13,5.41,53.83,53.83,0,0,1,4,6.49c0,.09-.09.14-.14.06a33.19,33.19,0,0,0-8.66-9.7,10.18,10.18,0,0,0-5.45-2.27,7.36,7.36,0,0,0-5.29,2.11c-2.9,2.52-4.59,6.24-5.59,9.88a101.12,101.12,0,0,0-2.16,13.31c-.35,2.63-.69,5.27-1,7.9s-.56,5.31-1.12,7.9A.43.43,0,0,1,98.07,332.37Z" style="fill:#263238"></path><path d="M110.32,313a13.57,13.57,0,0,0,2.71,2.76c-.41-2.43-.91-6.74.32-9,1.9-3.57,4.16-1.79,3,1.31a25.25,25.25,0,0,0-1.83,8.8,38.16,38.16,0,0,0,8.27,3.9,14,14,0,0,1-.27-4.25c.38-3.82,3.3-3.75,2.54.22a24.89,24.89,0,0,0-.4,4.66,86.32,86.32,0,0,0,12.89,2.91,37.2,37.2,0,0,0,5.34-9.5c-3.11-.78-9.4-.95-9.26-3.17.18-3,6.27-.69,9.83,1.48a23.7,23.7,0,0,0,1.08-8,39.87,39.87,0,0,0-8.57-1.42c-6.4-.55-6.08-4.18-1.44-4.1,3.42.07,7.74,2.16,9.79,3.25-1.33-8.7-8-14.28-13.29-14.49-9-.36-5.73,10.77-5.73,10.77s-6.06-4.26-11.78-4.15S104.2,304.52,110.32,313Zm23.89-16.1c-.2-1.25,3.8-1.55,4,.06C138.45,298.79,134.42,298.21,134.21,296.93ZM140.64,310c-.09-.81,1.64-1,2,.07C142.93,310.74,140.71,310.8,140.64,310Zm-21.49.77c1.35.19,2.12,5-.2,4.91C117.18,315.6,118,310.59,119.15,310.76Z" style="fill:#FBCA12"></path><path d="M121,316.11c.22-.6.42-1.21.61-1.82-.17.62-.33,1.24-.44,1.87A.09.09,0,1,1,121,316.11Z" style="fill:#263238"></path><path d="M123.38,308.36c.42-1.23.89-2.45,1.37-3.67.26-.65.52-1.29.81-1.93a8.06,8.06,0,0,1,.8-1.61,11,11,0,0,1-.73-1.56s.05-.09.08,0a19.18,19.18,0,0,1,1.75,2.7l.72,1.28a12.49,12.49,0,0,1,1.51.23c.54.1,1.07.21,1.6.33l1.6.37c.52.13,1.05.3,1.58.38.13,0,.08.22,0,.17a10.64,10.64,0,0,0-1.68-.44c-.51-.11-1-.2-1.54-.27s-1.05-.14-1.57-.19l-1.18-.1.64,1.13a1.62,1.62,0,0,0,.1.18,4.62,4.62,0,0,1,1.28.15c.46.08.93.17,1.38.27.94.21,1.87.43,2.79.68,1.93.54,3.85,1.16,5.76,1.79.1,0,0,.19-.07.16a55.67,55.67,0,0,0-5.78-1.61c-.92-.2-1.83-.41-2.75-.6l-1.38-.3a9.23,9.23,0,0,1-1.07-.23c1,1.81,1.91,3.66,2.76,5.55,1.86,4.1,3.42,8.33,5,12.54,0,.11-.12.18-.16.07a113.8,113.8,0,0,0-5.33-12.26l-1.09-2.18c0,.15-.06.29-.09.44-.09.5-.18,1-.26,1.5-.17,1-.34,2-.49,3a35.41,35.41,0,0,0-.72,6.22c0,.13-.19.12-.17,0,.16-1,.16-2,.22-3s.14-2.09.26-3.13.25-2,.41-3l.27-1.49a2.83,2.83,0,0,1,.28-1.09l-1.58-3.15c-.49-1-1-2-1.51-2.94-.21-.41-.45-.83-.68-1.25a11.52,11.52,0,0,1-.59,1.51l-.69,1.69c-.52,1.25-1,2.51-1.47,3.77-.68,1.79-1.42,3.62-2,5.49C122.31,312,122.77,310.17,123.38,308.36Z" style="fill:#263238"></path><path d="M121.63,314.29c0-.15.09-.29.13-.43C121.72,314,121.67,314.14,121.63,314.29Z" style="fill:#263238"></path><polygon points="83.11 327.52 83.74 340.84 85.36 375.17 120.77 375.17 122.39 340.84 123.02 327.52 83.11 327.52" style="fill:#37474f"></polygon><polygon points="83.11 327.52 83.74 340.84 122.39 340.84 123.02 327.52 83.11 327.52" style="fill:#263238"></polygon><rect x="80.59" y="322.14" width="44.95" height="10.77" transform="translate(206.13 655.05) rotate(180)" style="fill:#37474f"></rect><rect x="111.69" y="375.17" width="6.22" height="5.64" style="fill:#37474f"></rect><rect x="111.69" y="375.17" width="6.22" height="2.82" style="fill:#263238"></rect><rect x="88.22" y="375.17" width="6.21" height="5.64" style="fill:#37474f"></rect><rect x="88.22" y="375.17" width="6.21" height="2.82" style="fill:#263238"></rect></g><g id="freepik--Floor--inject-86"><polygon points="50.72 380.82 131.79 380.58 212.86 380.49 375 380.32 537.14 380.49 618.21 380.58 699.28 380.82 618.21 381.06 537.14 381.15 375 381.32 212.86 381.15 131.79 381.06 50.72 380.82" style="fill:#263238"></polygon></g><g id="freepik--Shadow--inject-86"><ellipse cx="375" cy="429.68" rx="311.79" ry="30.3" style="fill:#ebebeb"></ellipse></g><g id="freepik--device-1--inject-86"><rect x="163.33" y="104.28" width="421.66" height="282.06" style="fill:#dbdbdb"></rect><rect x="166.39" y="107.72" width="415.53" height="275.18" style="fill:#263238"></rect><rect x="108.41" y="407.49" width="531.5" height="19.36" style="fill:#c7c7c7"></rect><polygon points="108.41 407.49 163.33 386.34 584.99 386.34 639.91 407.49 108.41 407.49" style="fill:#dbdbdb"></polygon><polygon points="168.23 399.99 203.67 386.34 544.65 386.34 580.09 399.99 168.23 399.99" style="fill:#263238"></polygon><rect x="189.88" y="128.63" width="368.57" height="233.37" style="fill:#fff"></rect><rect x="189.88" y="137.61" width="362.02" height="56.41" style="fill:#FBCA12"></rect><rect x="189.88" y="128.63" width="368.57" height="8.98" style="fill:#455a64"></rect><path d="M198.33,133.12a1.7,1.7,0,1,1-1.7-1.7A1.7,1.7,0,0,1,198.33,133.12Z" style="fill:#c7c7c7"></path><path d="M205.27,133.12a1.7,1.7,0,1,1-1.7-1.7A1.7,1.7,0,0,1,205.27,133.12Z" style="fill:#fff"></path><path d="M212.21,133.12a1.7,1.7,0,1,1-1.7-1.7A1.7,1.7,0,0,1,212.21,133.12Z" style="fill:#FBCA12"></path><rect x="551.9" y="137.61" width="6.54" height="224.39" style="fill:#dbdbdb"></rect><path d="M555.17,215.4h0a1.69,1.69,0,0,1-1.69-1.69v-73.1a1.69,1.69,0,0,1,1.69-1.69h0a1.69,1.69,0,0,1,1.69,1.69v73.1A1.69,1.69,0,0,1,555.17,215.4Z" style="fill:#a6a6a6"></path><rect x="444.92" y="148.56" width="88.09" height="11.76" style="fill:#fff"></rect><path d="M533.14,160.43H444.8v-12h88.34Zm-88.1-.24H532.9V148.68H445Z" style="fill:#c7c7c7"></path><rect x="521.14" y="148.43" width="12" height="12" style="fill:#455a64"></rect><path d="M530.86,157.73l-1.08.82-2-2.65-.74-1a1.44,1.44,0,0,0,.42-.23A1.8,1.8,0,0,0,528,154l.78,1Z" style="fill:#fff"></path><path d="M528.73,151.47a3,3,0,1,0-1,4.43,3.62,3.62,0,0,0,.41-.27,3.08,3.08,0,0,0,.61-.64A3,3,0,0,0,528.73,151.47Zm-1.28,3.22a1.44,1.44,0,0,1-.42.23,1.77,1.77,0,1,1,1-1A1.8,1.8,0,0,1,527.45,154.69Z" style="fill:#fff"></path><rect x="447.38" y="150.87" width="0.63" height="7.14" style="fill:#c7c7c7"></rect><rect x="237.62" y="148.56" width="202.88" height="11.76" style="fill:#fff"></rect><path d="M440.63,160.43H237.5v-12H440.63Zm-202.89-.24H440.39V148.68H237.74Z" style="fill:#c7c7c7"></path><rect x="240.08" y="150.87" width="0.63" height="7.14" style="fill:#c7c7c7"></rect><polygon points="215.43 158.46 211.15 154.52 215.42 150.42 216.09 151.11 212.55 154.5 216.08 157.75 215.43 158.46" style="fill:#fff"></polygon><polygon points="225.77 150.41 230.05 154.35 225.77 158.45 225.11 157.76 228.65 154.37 225.12 151.12 225.77 150.41" style="fill:#fff"></polygon><rect x="365.05" y="209.47" width="172.01" height="131.98" transform="translate(902.12 550.91) rotate(180)" style="fill:#ebebeb"></rect><path d="M382.17,238.33a15.63,15.63,0,1,0,12.27-12.27A15.64,15.64,0,0,0,382.17,238.33Z" style="fill:#fff"></path><polygon points="421.8 313.01 537.06 313.01 479.43 241.98 421.8 313.01" style="fill:#c7c7c7"></polygon><polygon points="365.05 313.07 467.27 313.07 416.16 266.82 365.05 313.07" style="fill:#dbdbdb"></polygon><rect x="365.05" y="313.01" width="172.01" height="28.43" style="fill:#dbdbdb"></rect><rect x="207.8" y="291.06" width="49.4" height="4.16" style="fill:#a6a6a6"></rect><rect x="207.8" y="300.7" width="142.97" height="4.16" style="fill:#ebebeb"></rect><rect x="207.8" y="309.85" width="142.97" height="4.16" style="fill:#ebebeb"></rect><rect x="207.8" y="318.99" width="142.97" height="4.16" style="fill:#ebebeb"></rect><rect x="207.8" y="328.14" width="142.97" height="4.16" style="fill:#ebebeb"></rect><rect x="207.8" y="337.28" width="142.97" height="4.16" style="fill:#ebebeb"></rect><rect x="207.8" y="209.47" width="49.4" height="11.12" style="fill:#a6a6a6"></rect><rect x="207.8" y="228.25" width="101.5" height="4.16" style="fill:#ebebeb"></rect><rect x="207.8" y="237.4" width="101.5" height="4.16" style="fill:#ebebeb"></rect><rect x="207.8" y="246.54" width="101.5" height="4.16" style="fill:#ebebeb"></rect><rect x="207.8" y="255.69" width="101.5" height="4.16" style="fill:#ebebeb"></rect><rect x="207.8" y="267.85" width="101.5" height="4.16" style="fill:#ebebeb"></rect><rect x="207.8" y="277" width="101.5" height="4.16" style="fill:#ebebeb"></rect><rect x="189.88" y="128.63" width="368.57" height="233.37" style="fill:#fff;opacity:0.7000000000000001"></rect><rect x="290.72" y="184.43" width="168.57" height="133.37" style="fill:#fff"></rect><path d="M459.28,317.79l-168.56.27h-.27v-.27l-.11-133.36v-.38h.38l168.56.14h.24v.24Zm0,0-.23-133.36.23.23-168.56.14.37-.37L291,317.79l-.26-.26Z" style="fill:#263238"></path><rect x="290.72" y="184.43" width="168.57" height="8.98" style="fill:#455a64"></rect><circle cx="297.47" cy="188.92" r="1.7" style="fill:#c7c7c7"></circle><path d="M306.11,188.92a1.7,1.7,0,1,1-1.7-1.7A1.7,1.7,0,0,1,306.11,188.92Z" style="fill:#fff"></path><circle cx="311.35" cy="188.92" r="1.7" style="fill:#FBCA12"></circle><path d="M353.24,235.28,346.81,229A38.77,38.77,0,0,1,413,251.94l-9,1a29.77,29.77,0,0,0-50.85-17.64Z" style="fill:#FBCA12"></path><polygon points="395.74 247.22 405.69 270.3 420.7 250.15 395.74 247.22" style="fill:#FBCA12"></polygon><g style="opacity:0.2"><path d="M353.24,235.28,346.81,229A38.77,38.77,0,0,1,413,251.94l-9,1a29.77,29.77,0,0,0-50.85-17.64Z"></path><polygon points="395.74 247.22 405.69 270.3 420.7 250.15 395.74 247.22"></polygon></g><path d="M359.46,289.41A39,39,0,0,1,337,258.3l9-1A29.77,29.77,0,0,0,398,273.58l6.81,5.88A39,39,0,0,1,359.46,289.41Z" style="fill:#FBCA12"></path><polygon points="354.26 263.02 344.31 239.94 329.3 260.09 354.26 263.02" style="fill:#FBCA12"></polygon></g><g id="freepik--Files--inject-86"><polygon points="580.23 109.41 527.83 113.39 522.73 46.12 561.63 43.17 575.13 42.15 576.1 54.96 580.23 109.41" style="fill:#ebebeb"></polygon><rect x="528.7" y="55.4" width="42.81" height="1.73" transform="translate(1102.89 70.74) rotate(175.66)" style="fill:#dbdbdb"></rect><rect x="529.03" y="59.76" width="42.81" height="1.73" transform="translate(1103.88 79.42) rotate(175.66)" style="fill:#dbdbdb"></rect><rect x="529.36" y="64.12" width="42.81" height="1.73" transform="translate(1104.87 88.1) rotate(175.66)" style="fill:#dbdbdb"></rect><rect x="529.69" y="68.48" width="42.81" height="1.73" transform="translate(1105.86 96.78) rotate(175.66)" style="fill:#dbdbdb"></rect><rect x="530.02" y="72.84" width="42.81" height="1.73" transform="translate(1106.85 105.47) rotate(175.66)" style="fill:#dbdbdb"></rect><rect x="530.35" y="77.2" width="42.81" height="1.73" transform="translate(1107.84 114.15) rotate(175.66)" style="fill:#dbdbdb"></rect><rect x="530.68" y="81.56" width="42.81" height="1.73" transform="matrix(-1, 0.08, -0.08, -1, 1108.83, 122.83)" style="fill:#dbdbdb"></rect><rect x="531.02" y="85.92" width="42.81" height="1.73" transform="translate(1109.82 131.51) rotate(175.66)" style="fill:#dbdbdb"></rect><rect x="531.35" y="90.28" width="42.81" height="1.73" transform="matrix(-1, 0.08, -0.08, -1, 1110.82, 140.19)" style="fill:#dbdbdb"></rect><rect x="531.68" y="94.64" width="42.81" height="1.73" transform="translate(1111.81 148.88) rotate(175.66)" style="fill:#dbdbdb"></rect><rect x="532.01" y="99" width="42.81" height="1.73" transform="translate(1112.8 157.56) rotate(175.66)" style="fill:#dbdbdb"></rect><rect x="532.34" y="103.36" width="42.81" height="1.73" transform="translate(1113.79 166.24) rotate(175.66)" style="fill:#dbdbdb"></rect><polygon points="590.23 135.75 542.7 113.33 571.47 52.31 606.76 68.96 613.52 86.35 590.23 135.75" style="fill:#ebebeb"></polygon><polygon points="606.76 68.96 613.52 86.35 601.28 80.58 606.76 68.96" style="fill:#dbdbdb"></polygon><rect x="569.51" y="70.89" width="29.22" height="1.73" transform="translate(1081.85 385.77) rotate(-154.76)" style="fill:#dbdbdb"></rect><rect x="567.65" y="74.84" width="29.22" height="1.73" transform="translate(1076.62 392.51) rotate(-154.76)" style="fill:#dbdbdb"></rect><rect x="565.78" y="78.8" width="29.22" height="1.73" transform="translate(1071.38 399.25) rotate(-154.76)" style="fill:#dbdbdb"></rect><rect x="563.27" y="85.65" width="42.81" height="1.73" transform="translate(1076.61 414.12) rotate(-154.76)" style="fill:#dbdbdb"></rect><rect x="561.4" y="89.6" width="42.81" height="1.73" transform="translate(1071.37 420.86) rotate(-154.76)" style="fill:#dbdbdb"></rect><rect x="559.54" y="93.56" width="42.81" height="1.73" transform="translate(1066.13 427.6) rotate(-154.76)" style="fill:#dbdbdb"></rect><rect x="557.67" y="97.51" width="42.81" height="1.73" transform="translate(1060.9 434.33) rotate(-154.76)" style="fill:#dbdbdb"></rect><rect x="555.81" y="101.47" width="42.81" height="1.73" transform="translate(1055.66 441.07) rotate(-154.76)" style="fill:#dbdbdb"></rect><rect x="553.95" y="105.42" width="42.81" height="1.73" transform="translate(1050.42 447.81) rotate(-154.76)" style="fill:#dbdbdb"></rect><rect x="552.08" y="109.38" width="42.81" height="1.73" transform="translate(1045.18 454.54) rotate(-154.76)" style="fill:#dbdbdb"></rect><rect x="550.22" y="113.33" width="42.81" height="1.73" transform="translate(1039.95 461.28) rotate(-154.76)" style="fill:#dbdbdb"></rect><rect x="548.35" y="117.29" width="42.81" height="1.73" transform="translate(1034.71 468.02) rotate(-154.76)" style="fill:#dbdbdb"></rect><rect x="531.02" y="68.9" width="59.52" height="70.16" transform="translate(777.86 -423.43) rotate(101.87)" style="fill:#FBCA12"></rect><polygon points="553.39 115.75 592.42 123.95 577.96 95.8 553.39 115.75" style="fill:#FBCA12"></polygon><g style="opacity:0.30000000000000004"><polygon points="553.39 115.75 592.42 123.95 577.96 95.8 553.39 115.75" style="fill:#fff"></polygon></g><polygon points="534.17 111.73 568.78 119 554.77 99.71 534.17 111.73" style="fill:#FBCA12"></polygon><g style="opacity:0.5"><polygon points="534.17 111.73 568.78 119 554.77 99.71 534.17 111.73" style="fill:#fff"></polygon></g><rect x="521.29" y="116.56" width="70.16" height="16.73" transform="translate(37.59 -111.75) rotate(11.87)" style="fill:#FBCA12"></rect><g style="opacity:0.5"><rect x="521.29" y="116.56" width="70.16" height="16.73" transform="translate(37.59 -111.75) rotate(11.87)" style="fill:#fff"></rect></g><path d="M539.66,94.22a5.41,5.41,0,1,0-3.28-5A5.42,5.42,0,0,0,539.66,94.22Z" style="fill:#fff;opacity:0.9"></path><path d="M521.1,80.86l-1-.08.07-1,1,.07Z" style="fill:#263238"></path><path d="M466.9,98.68l-.69-.72c.45-.42.93-.86,1.45-1.32l.66.75C467.81,97.84,467.34,98.27,466.9,98.68Zm2.88-2.54-.63-.77c.48-.4,1-.81,1.52-1.23l.61.79C470.76,95.34,470.26,95.74,469.78,96.14Zm3-2.37-.59-.8c.51-.38,1-.75,1.59-1.13l.57.82C473.85,93,473.32,93.41,472.82,93.77ZM476,91.6l-.55-.85c.54-.34,1.09-.69,1.66-1l.52.86C477.07,90.91,476.52,91.25,476,91.6Zm3.29-2-.5-.87,1.72-.93.47.88C480.4,89,479.84,89.29,479.29,89.6Zm3.4-1.8-.44-.89c.57-.29,1.16-.57,1.76-.84l.42.91C483.84,87.25,483.26,87.52,482.69,87.8Zm3.5-1.6-.39-.92c.59-.25,1.19-.5,1.81-.74l.36.93C487.37,85.71,486.77,86,486.19,86.2Zm3.58-1.41-.33-.94c.6-.21,1.22-.43,1.84-.63l.31,1Zm3.66-1.2-.29-1c.62-.19,1.25-.37,1.88-.54l.26,1Zm3.72-1-.23-1c.62-.15,1.26-.29,1.9-.42l.21,1Zm3.77-.8-.18-1q.94-.18,1.92-.33l.15,1Zm3.8-.59-.13-1c.64-.08,1.29-.16,1.94-.22l.1,1Zm3.83-.39-.08-1q1-.07,1.95-.12l.05,1Q509.51,80.75,508.55,80.82Zm9.63-.14-1.93-.07,0-1,2,.07Zm-5.78-.06,0-1c.64,0,1.3,0,2,0v1C513.67,80.6,513,80.6,512.4,80.62Z" style="fill:#263238"></path><path d="M464.83,100.74l-.72-.68c.21-.23.44-.47.7-.73l.71.7Z" style="fill:#263238"></path><polygon points="466.41 94.04 467.32 94.45 464.64 100.42 470.54 97.57 470.97 98.47 462.61 102.52 466.41 94.04" style="fill:#263238"></polygon><path d="M624.72,165.84l-1-.06a8.48,8.48,0,0,0,0-1h1C624.75,165.49,624.72,165.84,624.72,165.84Z" style="fill:#263238"></path><path d="M623.69,162.84c0-.59-.08-1.25-.15-2l1-.1c.07.76.12,1.43.15,2Zm-.38-4c-.09-.63-.19-1.28-.31-2l1-.17c.12.71.22,1.38.31,2Zm-.68-3.94c-.13-.63-.27-1.28-.43-2l1-.23c.16.68.31,1.34.44,2Zm-.93-3.88c-.17-.63-.35-1.27-.55-1.92l1-.29c.2.66.39,1.31.56,1.94Zm-1.16-3.83c-.21-.61-.43-1.24-.67-1.88l.94-.35c.24.65.47,1.29.68,1.92Zm-1.39-3.74c-.24-.61-.5-1.23-.77-1.85l.92-.4c.27.63.53,1.26.78,1.87Zm-1.59-3.67q-.42-.9-.87-1.8l.89-.45c.31.62.6,1.22.89,1.83Zm-1.79-3.58c-.31-.58-.63-1.16-1-1.75l.87-.49c.34.59.67,1.19,1,1.77Zm-2-3.47c-.33-.57-.69-1.13-1-1.7l.84-.54c.37.58.73,1.15,1.07,1.72Zm-2.15-3.38c-.36-.54-.74-1.09-1.13-1.64l.81-.58c.4.56.78,1.11,1.15,1.67Zm-2.31-3.26c-.39-.53-.8-1.06-1.21-1.59l.78-.62,1.23,1.61ZM606.86,123c-.41-.51-.84-1-1.28-1.53l.76-.66,1.3,1.55Z" style="fill:#263238"></path><path d="M604.25,119.92l-.67-.74.73-.67.68.74Z" style="fill:#263238"></path><polygon points="610.2 121.18 609.73 122.06 603.95 118.97 606.39 125.05 605.46 125.42 602 116.79 610.2 121.18" style="fill:#263238"></polygon></g><g id="freepik--device-2--inject-86"><path d="M657.3,171.06H542.08a11.77,11.77,0,0,0-11.66,11.87v237.2A11.78,11.78,0,0,0,542.08,432H657.3A11.78,11.78,0,0,0,669,420.13V182.93A11.77,11.77,0,0,0,657.3,171.06Zm4.38,241.74c0,6.24-4.67,11.29-10.44,11.29H548.16c-5.78,0-10.46-5-10.46-11.29V191.92c0-12.71,4.68-13.33,10.46-13.33H568.8c1.2,0,2.19,1.36,2.19,3v.73c0,4,2.16,4,4.83,4h47.75c2.68,0,4.83,0,4.83-4v-.73c0-1.69,1-3,2.19-3h20.65c5.77,0,10.44,1.69,10.44,13.33Z" style="fill:#455a64"></path><path d="M606.21,181.4h-13a.8.8,0,0,1-.8-.81h0a.8.8,0,0,1,.8-.8h13a.8.8,0,0,1,.8.8h0A.8.8,0,0,1,606.21,181.4Z" style="fill:#263238"></path><path d="M661.69,191.92V412.8c0,6.24-4.68,11.29-10.45,11.29H548.16c-5.78,0-10.45-5-10.45-11.29V191.92c0-12.71,4.67-13.33,10.45-13.33h20.65c1.2,0,2.18,1.36,2.18,3v.73c0,4,2.16,4,4.83,4h47.75c2.69,0,4.83,0,4.83-4v-.73c0-1.69,1-3,2.19-3h20.65C657,178.59,661.69,180.28,661.69,191.92Z" style="fill:#fff"></path><path d="M661.68,191.92v16.49h-124V191.92c0-12.71,4.68-13.33,10.46-13.33h20.65c1.2,0,2.18,1.36,2.18,3v.73c0,4,2.17,4,4.83,4h47.75c2.68,0,4.84,0,4.84-4v-.73c0-1.69,1-3,2.18-3h20.65C657,178.59,661.68,180.28,661.68,191.92Z" style="fill:#FBCA12"></path><g id="freepik--u5Zjqx--inject-86"><path d="M565.24,183.55l-.2.19-.11.12a2.66,2.66,0,0,0-1.92-.8,2.7,2.7,0,0,0-1.93.8l-.1-.11-.2-.2h0l.25-.22a3,3,0,0,1,.58-.37,2.47,2.47,0,0,1,.78-.26l.38-.06h.34l.27,0a2.54,2.54,0,0,1,.71.17,3.41,3.41,0,0,1,.48.22,2.83,2.83,0,0,1,.45.32l.21.19Z" style="fill:#fff"></path><path d="M561.72,184.49l-.32-.32a2.27,2.27,0,0,1,1.29-.64,2.22,2.22,0,0,1,1.92.64c-.1.11-.21.21-.31.31A1.83,1.83,0,0,0,563,184,1.8,1.8,0,0,0,561.72,184.49Z" style="fill:#fff"></path><path d="M564,184.8l-.31.31a.94.94,0,0,0-.66-.27.91.91,0,0,0-.66.28l-.32-.32A1.38,1.38,0,0,1,564,184.8Z" style="fill:#fff"></path><path d="M563.29,185.4a.28.28,0,0,1-.28.28.28.28,0,0,1,0-.56A.28.28,0,0,1,563.29,185.4Z" style="fill:#fff"></path></g><path d="M545.79,184.15a.82.82,0,1,1,.82.82A.82.82,0,0,1,545.79,184.15Z" style="fill:#fff"></path><path d="M548.38,184.15a.82.82,0,1,1,.82.82A.82.82,0,0,1,548.38,184.15Z" style="fill:#fff"></path><path d="M551,184.15a.82.82,0,1,1,.82.82A.82.82,0,0,1,551,184.15Z" style="fill:#fff"></path><path d="M553.55,184.15a.83.83,0,1,1,.82.82A.82.82,0,0,1,553.55,184.15Z" style="fill:#fff"></path><path d="M556.14,184.15a.82.82,0,1,1,.82.82A.82.82,0,0,1,556.14,184.15Z" style="fill:#fff"></path><path d="M652.39,186h-6.7v-3.11h6.7ZM646,185.6h6v-2.41h-6Z" style="fill:#fff"></path><rect x="646.25" y="183.37" width="4.31" height="2.05" style="fill:#fff"></rect><rect x="652.39" y="183.57" width="0.59" height="1.66" style="fill:#fff"></rect><path d="M577.93,286.32,571.5,280a38.78,38.78,0,0,1,66.24,23l-9,1a29.77,29.77,0,0,0-50.86-17.63Z" style="fill:#FBCA12"></path><polygon points="620.44 298.25 630.38 321.33 645.4 301.18 620.44 298.25" style="fill:#FBCA12"></polygon><g style="opacity:0.2"><path d="M577.93,286.32,571.5,280a38.78,38.78,0,0,1,66.24,23l-9,1a29.77,29.77,0,0,0-50.86-17.63Z"></path><polygon points="620.44 298.25 630.38 321.33 645.4 301.18 620.44 298.25"></polygon></g><path d="M584.16,340.44a39,39,0,0,1-22.5-31.11l8.94-1a29.77,29.77,0,0,0,52.12,16.26l6.82,5.88A39,39,0,0,1,584.16,340.44Z" style="fill:#FBCA12"></path><polygon points="578.95 314.05 569.01 290.98 553.99 311.13 578.95 314.05" style="fill:#FBCA12"></polygon></g><g id="freepik--Character--inject-86"><path d="M284.45,396.19c2.27.84,68,2.88,70.58,1.38.28-.18,2-9.88,2.88-17.39,0-.09,1.81-1.3,4.54-3.09,8.63-5.68,26.58-17.18,26.58-17.18l-33.19-28.05-31.36,31.68L323,365.05l-6.66,6.73S289.65,384.9,287,386.85,282.16,395.36,284.45,396.19Z" style="fill: rgb(247, 169, 160);"></path><path d="M284.45,396.19c2.27.84,68,2.88,70.58,1.38.28-.18,2-9.88,2.88-17.39,0-.09,1.81-1.3,4.54-3.09l-39.46-12-6.66,6.73S289.65,384.9,287,386.85,282.16,395.36,284.45,396.19Z" style="fill:#fff"></path><path d="M283.6,396.27c2.33.85,69.53,2.6,72.14,1.05,1-.59,1.51-5.3,2.17-17.14l-42.76-7.67s-26.29,12.2-29,14.21S281.27,395.42,283.6,396.27Z" style="fill:#FBCA12"></path><path d="M291.37,396.84c18.24.84,62.26,1.73,64.37.48,1-.58,1.51-5.3,2.17-17.14l-26-4.68C323.29,379.84,301.6,391.38,291.37,396.84Z" style="opacity:0.1"></path><path d="M284.63,393.61c11.28,0,56.74,1.15,67.88,2,.09,0,.09.07,0,.07-11.17.23-56.63-1.27-67.88-1.91C284.39,393.78,284.4,393.61,284.63,393.61Z" style="fill:#263238"></path><path d="M290.57,384.41a9.05,9.05,0,0,1,6.67,2.93,8.75,8.75,0,0,1,2.36,6.08c0,.07-.13.06-.14,0a10.45,10.45,0,0,0-8.89-8.86A.07.07,0,0,1,290.57,384.41Z" style="fill:#263238"></path><path d="M310.49,374.87c4.51.06,9.7,1.79,12.41,5.55.1.14-.11.29-.24.22a61.89,61.89,0,0,0-12.26-5.21A.29.29,0,0,1,310.49,374.87Z" style="fill:#263238"></path><path d="M307,376.14c4.51.06,9.69,1.78,12.4,5.54.1.15-.11.3-.24.22a62.83,62.83,0,0,0-12.26-5.21A.28.28,0,0,1,307,376.14Z" style="fill:#263238"></path><path d="M303.46,377.41c4.51,0,9.7,1.78,12.4,5.54.11.15-.1.29-.23.22A62.49,62.49,0,0,0,303.37,378,.28.28,0,0,1,303.46,377.41Z" style="fill:#263238"></path><path d="M299.94,378.67c4.51.06,9.7,1.79,12.41,5.55.1.14-.11.29-.24.22a61.89,61.89,0,0,0-12.26-5.21A.29.29,0,0,1,299.94,378.67Z" style="fill:#263238"></path><path d="M349.92,384.86c5.06.14,4.84,8-.22,7.86S344.86,384.71,349.92,384.86Z" style="fill:#fff"></path><path d="M306.12,369.33c2.35,3.21,6,5.28,9.16,7.58a.55.55,0,0,0,.82-.34.11.11,0,0,0,.14-.12,23.7,23.7,0,0,0-3.79-11.64c-1.36-2-4.19-3.93-6.52-2.09S304.75,367.46,306.12,369.33Zm-.11-3.74c.58-4.89,4.9-1,5.84.51a24.11,24.11,0,0,1,1.57,3.08,70.1,70.1,0,0,1,2.37,6.75c-1.48-1.23-3.05-2.32-4.57-3.49C309.4,371.05,305.69,368.29,306,365.59Z" style="fill:#263238"></path><path d="M332.33,374c-.27-3-3.62-3.68-6-3.28A23.69,23.69,0,0,0,315.27,376a.12.12,0,0,0,0,.19.55.55,0,0,0,.32.83c3.84.7,7.86,1.92,11.8,1.42C329.71,378.12,332.59,376.78,332.33,374Zm-10.69,2.87c-1.9-.3-3.77-.69-5.68-.92a70.7,70.7,0,0,1,6.53-2.93,26.83,26.83,0,0,1,3.31-1c1.75-.36,7.54.11,4.39,3.89C328.46,378,323.9,377.21,321.64,376.86Z" style="fill:#263238"></path><path d="M304.51,377.82c2.65-1.46,5.29-2.95,8-4.32a14.38,14.38,0,0,0,3.53-2.27c1.1-1,2.14-2.12,3.21-3.17,4.35-4.27,8.68-8.56,13.07-12.79q3.56-3.43,7.07-6.92c.06-.05.16,0,.11.09-.15.23-4.09,4.57-6,6.53-2.13,2.21-4.31,4.38-6.47,6.55L320.58,368q-1.62,1.63-3.26,3.25a12.79,12.79,0,0,1-3.32,2.43c-3.09,1.51-6.24,2.9-9.39,4.31C304.5,378,304.4,377.88,304.51,377.82Z" style="fill:#263238"></path><path d="M332.56,348.83l4.8,6,23.94,29.91s35.83-23.69,46.39-31.56c.34-.26,39.17,29.87,68.23,36.64,22.28,5.2,37.94-2.6,47.68-23.16l-36.41-18.09c-30.45-16.72-64.43-42.69-85.75-41.06C378.28,309.27,332.56,348.83,332.56,348.83Z" style="fill:#37474f"></path><path d="M340.58,347.08c4.93,5.83,3.59,4.1,8.46,10,2.38,2.88,14.38,17.32,16.16,20.38a.08.08,0,0,1-.12.09c-2.62-2.36-14.31-17.06-16.64-20-4.76-6-3.33-4.3-8-10.32A.11.11,0,1,1,340.58,347.08Z" style="fill:#263238"></path><path d="M341.17,359.58l20.12,25.15s35.84-23.69,46.4-31.56c.34-.26,39.17,29.87,68.23,36.65,22.28,5.19,37.95-2.61,47.67-23.17l-36.4-18.09c-4-2.21-8.12-4.59-12.24-7C442.07,346,370,355.71,341.17,359.58Z" style="fill:#263238"></path><path d="M293,406.55c2.27.81,68.05,2.29,70.59.77.27-.18,1.94-9.9,2.73-17.42,0-.08,1.8-1.31,4.51-3.13,8.58-5.75,26.43-17.4,26.43-17.4L363.85,341.6l-31.08,31.95-1.48,1.52-6.6,6.79s-26.57,13.35-29.19,15.32S290.72,405.73,293,406.55Z" style="fill: rgb(247, 169, 160);"></path><path d="M293,406.55c2.27.81,68.05,2.29,70.59.77.27-.18,1.94-9.9,2.73-17.42,0-.08,1.8-1.31,4.51-3.13l-39.56-11.7-6.6,6.79s-26.57,13.35-29.19,15.32S290.72,405.73,293,406.55Z" style="fill:#fff"></path><path d="M292.17,406.63c2.33.83,69.55,2,72.14.43,1-.59,1.47-5.31,2-17.16l-42.82-7.3S297.33,395,294.67,397.06,289.83,405.81,292.17,406.63Z" style="fill:#FBCA12"></path><path d="M293.18,404c11.27-.08,56.75.66,67.89,1.44.1,0,.09.07,0,.07-11.17.33-56.63-.78-67.89-1.32C292.94,404.14,292.94,404,293.18,404Z" style="fill:#263238"></path><path d="M299,394.71a9.09,9.09,0,0,1,6.69,2.87,8.8,8.8,0,0,1,2.41,6.06c0,.07-.12.07-.13,0a10.46,10.46,0,0,0-9-8.78A.08.08,0,0,1,299,394.71Z" style="fill:#263238"></path><path d="M318.88,385c4.51,0,9.71,1.7,12.45,5.43.1.15-.1.3-.24.23a62.12,62.12,0,0,0-12.3-5.11A.28.28,0,0,1,318.88,385Z" style="fill:#263238"></path><path d="M315.37,386.3c4.51,0,9.71,1.7,12.45,5.44.11.15-.1.29-.23.22a62.53,62.53,0,0,0-12.31-5.1A.29.29,0,0,1,315.37,386.3Z" style="fill:#263238"></path><path d="M311.87,387.6c4.51,0,9.71,1.7,12.45,5.44.1.14-.11.29-.24.22a62.73,62.73,0,0,0-12.3-5.11A.28.28,0,0,1,311.87,387.6Z" style="fill:#263238"></path><path d="M308.36,388.9c4.51,0,9.71,1.7,12.45,5.43.11.15-.1.3-.23.23a62,62,0,0,0-12.31-5.11A.28.28,0,0,1,308.36,388.9Z" style="fill:#263238"></path><path d="M358.39,394.65c5.06.1,4.91,8-.16,7.86S353.32,394.55,358.39,394.65Z" style="fill:#fff"></path><path d="M314.46,379.5c2.38,3.19,6.05,5.23,9.22,7.51a.56.56,0,0,0,.82-.35c.07,0,.15,0,.14-.13a23.71,23.71,0,0,0-3.89-11.61c-1.38-2-4.22-3.89-6.54-2S313.07,377.65,314.46,379.5Zm-.15-3.74c.54-4.89,4.9-1.05,5.85.46a25.56,25.56,0,0,1,1.6,3.07,70.06,70.06,0,0,1,2.42,6.73c-1.49-1.22-3.07-2.29-4.6-3.45C317.75,381.19,314,378.47,314.31,375.76Z" style="fill:#263238"></path><path d="M340.71,383.93c-.3-2.95-3.65-3.64-6-3.23a23.69,23.69,0,0,0-11,5.36.12.12,0,0,0,0,.19.55.55,0,0,0,.32.83c3.85.66,7.88,1.85,11.82,1.32C338.12,388.08,341,386.72,340.71,383.93Zm-10.67,3c-1.9-.28-3.77-.65-5.68-.86a70.48,70.48,0,0,1,6.49-3,25.76,25.76,0,0,1,3.31-1c1.74-.38,7.54,0,4.43,3.85C336.87,388,332.31,387.23,330,386.89Z" style="fill:#263238"></path><path d="M312.92,388c2.64-1.48,5.27-3,7.95-4.38a14.93,14.93,0,0,0,3.52-2.3c1.09-1,2.11-2.14,3.18-3.2,4.31-4.31,8.61-8.63,13-12.9,2.35-2.31,4.68-4.65,7-7a.07.07,0,0,1,.11.08c-.15.24-4.06,4.61-5.93,6.59-2.12,2.22-4.27,4.41-6.42,6.6l-6.4,6.54-3.23,3.27a12.63,12.63,0,0,1-3.3,2.46c-3.08,1.54-6.21,3-9.35,4.39C312.91,388.22,312.81,388.06,312.92,388Z" style="fill:#263238"></path><path d="M529.93,360.4s3.66,26.58-10.63,37.24c-10.3,7.68-23.37,7.91-34.58,5.8-31-5.82-55.75-44.66-66-47.13-5.27-1.27-48.95,38.26-48.95,38.26l-31.11-32.9c8.59-6.82,60.1-54.48,85-53.38,17,.76,58.65,38.06,59.71,37.69,1.73-.6,9.45-3.9,9.45-3.9Z" style="fill:#37474f"></path><path d="M345.35,358.62c3.91,3.6,7.55,7.5,11.24,11.32s7.31,7.63,10.89,11.5c2,2.2,4.06,4.4,6,6.67.05.05,0,.12-.09.07-3.87-3.66-7.56-7.49-11.25-11.31s-7.31-7.63-10.9-11.49c-2-2.19-4.11-4.38-6-6.66A.08.08,0,0,1,345.35,358.62Z" style="fill:#263238"></path><path d="M504.27,355.18c.06-.14.27,0,.23.11a17.32,17.32,0,0,0,.86,11.8c1.93,4.13,5.63,7.18,8.91,10.2.32.29-.12.79-.47.57a35.4,35.4,0,0,1-5.94-4.84,17,17,0,0,1-3.89-5.67A15.12,15.12,0,0,1,504.27,355.18Z" style="fill:#263238"></path><path d="M482.6,348.6c1-.67,2-1.27,3-1.9,2.4-1.5,4.8-3,7.25-4.41.24-.13.49.24.26.4-1.73,1.2-3.52,2.33-5.3,3.47l-2.73,1.75a15.15,15.15,0,0,0-2.58,1.74,1.22,1.22,0,0,0,.5,2.08,3.35,3.35,0,0,0,2.47-.1,31,31,0,0,0,5-2.79c1-.59,2-1.17,3-1.74s2.17-1.15,3.23-1.76c.07,0,.14.07.08.12-1,.72-1.94,1.49-2.93,2.21s-2,1.43-3,2.12-1.92,1.29-2.9,1.9a9.1,9.1,0,0,1-2.72,1.21c-1.56.35-3.9-.22-4.05-2.15A2.54,2.54,0,0,1,482.6,348.6Z" style="fill:#263238"></path><path d="M340.89,359.25c2.14-2,4.39-3.94,6.62-5.86s4.45-3.8,6.7-5.68c4.52-3.76,9.09-7.47,13.74-11.06s9.45-7,14.34-10.3,9.8-6.3,14.93-9.05c2.58-1.37,5.19-2.7,7.86-3.89a81.38,81.38,0,0,1,8-3.26c.73-.24,1.47-.47,2.2-.74.11,0,.19.12.08.17-1.36.53-2.68,1.19-4,1.79s-2.62,1.19-3.92,1.81c-2.61,1.24-5.2,2.55-7.76,3.91q-7.71,4.13-15,8.9c-4.9,3.18-9.67,6.57-14.33,10.09S361,343.26,356.4,347s-9,7.46-13.55,11.16c-.57.47-1.14.93-1.73,1.38A.18.18,0,0,1,340.89,359.25Z" style="fill:#263238"></path><path d="M371.9,383.83c10.44-9.09,38.65-32.16,45-35.95a5.42,5.42,0,0,1,4.27-.51,11.51,11.51,0,0,1,4,2.73l4.31,3.73,8.84,7.67c5.52,4.8,11,9.64,16.59,14.37a131.49,131.49,0,0,0,15.67,11.72c10.62,6.53,24.21,11,36.43,6.32a24.59,24.59,0,0,0,12.85-11.65c2.84-5.29,4.19-11.25,5.12-17.13.22-1.42.42-2.85.59-4.28a.06.06,0,0,1,.12,0c-1.06,11.13-3.4,24-13.16,30.9-10.38,7.35-24.43,5.37-35.31.33-12.2-5.66-22.22-15-32.26-23.76l-17.55-15.26c-1.41-1.24-2.8-2.52-4.26-3.7s-3.21-2.1-5-1.17c-5.9,3.09-44.64,34.79-46,35.89C372,384.22,371.73,384,371.9,383.83Z" style="fill:#263238"></path><path d="M494.12,290.69c-4.17,17-14.28,43.35-23.22,43.21-8.16-.13-26.35-14.6-34-19.33s9.47-23.42,13.84-20.4c6.77,4.69,16.91,13,18.62,12.5,2.13-.69,4.85-5.94,17-21.41C491.38,278.92,495.9,283.46,494.12,290.69Z" style="fill: rgb(247, 169, 160);"></path><path d="M442.58,287C439,285.71,435,284,431,284s-7.31,5.34-7.31,6.85,1.51,10.93,5.5,10.92,1.59-7.23,1.74-8.06.3-1.88,1.05-1.81,13.94,6.33,13.94,6.33Z" style="fill: rgb(247, 169, 160);"></path><path d="M442.32,287.53c-.22,0-10.92-4.22-14.91-4.15s-7.31,5.35-7.31,6.86,1.51,10.92,5.5,10.92,1.58-7.23,1.73-8.06.3-1.89,1.06-1.81,13.93,6.33,13.93,6.33Z" style="fill: rgb(247, 169, 160);"></path><path d="M427,300.66a4.69,4.69,0,0,0,.67-2.36,8.39,8.39,0,0,0-.15-2.55,13.93,13.93,0,0,1-.48-2.2,4.34,4.34,0,0,1,.55-2.11c.31-.56.9-.37,1.4-.19a18.44,18.44,0,0,1,2.17,1c.77.38,1.52.78,2.28,1.17a20,20,0,0,1,2.32,1.27c.05,0,0,.13,0,.11a21.68,21.68,0,0,1-2-.91l-2.28-1.05c-.72-.32-1.42-.67-2.13-1-.26-.11-.77-.38-1.06-.31s-.45.81-.52,1.06a3.8,3.8,0,0,0,.14,2.16,11.49,11.49,0,0,1,.41,2.18A5.81,5.81,0,0,1,428,299a8.05,8.05,0,0,1-1,1.72C427,300.81,426.9,300.73,427,300.66Z" style="fill:#263238"></path><path d="M455,298s-11.07-10.09-13.37-12.09c-4.62-4-24.08-12-26.79-12.25s-3.69,5.27,9.51,11.05c7,3,8.2,7,8.07,9.24s-2.24,6.32-6,6.22-6.12-5.52-9.54-6.12-1.16,5.65,1.25,9.27a22.8,22.8,0,0,0,10,7.8c3.21,1.21,13.16,5.49,13.16,5.49Z" style="fill: rgb(247, 169, 160);"></path><path d="M421.84,297.57c1.4,1.08,3,2.49,4.83,2.56s3.14-1.17,4-2.72a7.06,7.06,0,0,0,1-5.14,8.64,8.64,0,0,0-2.55-4.17,21.52,21.52,0,0,0-5-3.35c-.08,0,0-.15.07-.12,1.71.77,7,2.95,8.09,7.64a7.22,7.22,0,0,1-1,5.24c-.83,1.48-2,2.91-3.83,3.05-2.19.18-4.08-1.61-5.66-2.94C421.66,297.56,421.77,297.51,421.84,297.57Z" style="fill:#263238"></path><path d="M455,296.6l-16.56,25.69s26.26,14.71,33.69,12.34,18.65-23.67,23.27-42.36-6.85-11.53-11.3-5.75-14.11,19.12-14.64,19S455,296.6,455,296.6Z" style="fill:#FBCA12"></path><path d="M447.81,307.73a26.85,26.85,0,0,1,3.13,1.31,32.54,32.54,0,0,1,6.13,4c.5.42,1,.85,1.51,1.31a1.45,1.45,0,0,1,.19.17,115.63,115.63,0,0,1,8.53,8.91,110.13,110.13,0,0,0,8.5,8.77,5.3,5.3,0,0,1-.46.39,116.68,116.68,0,0,1-8.5-8.73,119,119,0,0,0-8.8-9.15,1.51,1.51,0,0,0-.2-.17q-.57-.52-1.17-1a32.16,32.16,0,0,0-6-4,24.87,24.87,0,0,0-3.2-1.34Zm-6.38,9.9c1.39,1.47,2.73,3,4.08,4.46,2.22,2.46,4.47,4.92,6.88,7.2.55.26,1.1.5,1.65.74a113.82,113.82,0,0,1-8.07-8.36c-1.22-1.37-2.44-2.74-3.69-4.09l-.24-.25a2.84,2.84,0,0,0-.24-.26l-.19.29-.17.26Zm0,0a7.75,7.75,0,0,0,.84,0c1.39-.07,2.76-.2,4.14-.38A97.06,97.06,0,0,0,458,314.76l.73-.19,1.89-.5a110.5,110.5,0,0,1,14.18-3.23,35.76,35.76,0,0,1,7.23-.28,27.34,27.34,0,0,1,6.53,1.26l.19-.41a27.08,27.08,0,0,0-6.68-1.25,36.43,36.43,0,0,0-7.31.35,113,113,0,0,0-14.2,3.33l-2,.56-.74.19A80.4,80.4,0,0,1,446.4,317c-1.45.19-2.9.32-4.36.37-.14,0-.28,0-.43,0Zm42.23-30.56c2.76,1.09,5.55,2.15,8.41,3a1.25,1.25,0,0,0,.25.09c.65.18,1.29.35,1.94.51.47.11,1,.22,1.44.3.05-.21.09-.4.13-.6-.48-.09-.95-.19-1.43-.31s-1-.25-1.51-.4l-.25-.06a89,89,0,0,1-8.57-3C484,286.7,483.82,286.88,483.67,287.06ZM469.5,305.45a27,27,0,0,0,3.55-1.22,35.85,35.85,0,0,0,6.41-3.5,115.22,115.22,0,0,0,11.3-9.24c.53-.46,1-.93,1.57-1.38l.57-.5q1.73-1.5,3.5-3a2,2,0,0,0,0-.25c-1.28,1-2.52,2.07-3.77,3.15l-.57.47-1.48,1.29a113.27,113.27,0,0,1-11.31,9.14,35.65,35.65,0,0,1-6.39,3.41,26.13,26.13,0,0,1-2.74,1A3.2,3.2,0,0,1,469.5,305.45Zm-19.61-.95c.52.17,1,.32,1.57.46A36.53,36.53,0,0,0,466,306.15a27.12,27.12,0,0,0,3.46-.68l-.56-.32a22.8,22.8,0,0,1-2.95.53,36.68,36.68,0,0,1-14.32-1.27c-.47-.12-.93-.26-1.39-.42Z" style="fill:#fff"></path><path d="M456.94,331.26c6,2.44,11.85,4.21,14.92,3.44l.26-.07c7.43-2.38,18.65-23.67,23.28-42.36a28.93,28.93,0,0,0,1.06-7.68c0-.09,0-.18,0-.27s0-.3,0-.44a1,1,0,0,0,0-.18c0-.14,0-.28-.05-.41Z" style="opacity:0.1"></path><path d="M447.67,319.76l1.59-2.72c1.07-1.82,7.48-12.58,10-15.84.07-.09.2,0,.16.1-1.77,3.76-8.41,14.33-9.52,16.07-.57.89-1.13,1.77-1.71,2.66s-1.26,1.71-1.84,2.6c-.05.08-.2,0-.14-.08C446.74,321.65,447.15,320.67,447.67,319.76Z" style="fill:#263238"></path><path d="M531.67,363.66c-.15.17-57.81-17.91-58.41-18.6-.84-1,8.71-54.68,15.64-63.54,1.49-1.89,11.12-5.4,16,.05C523.93,302.78,532.23,363,531.67,363.66Z" style="fill:#FBCA12"></path><path d="M475.12,331.64c.78.74,1.59,1.45,2.42,2.13a41.11,41.11,0,0,0,8.56,5.57l.45.22a33.4,33.4,0,0,0,3.47,1.38,26.22,26.22,0,0,0,7.07,1.38,30.48,30.48,0,0,0,7.2-.48A86.4,86.4,0,0,0,517.48,338l.65-.22.1,0c2.81-1,5.64-1.93,8.51-2.71,0,.06,0,.13,0,.19-2.86.78-5.68,1.75-8.47,2.75l-.64.23a89.61,89.61,0,0,1-13.31,4,31.29,31.29,0,0,1-7.29.55,26.47,26.47,0,0,1-7.2-1.34,32,32,0,0,1-4.09-1.64l-.45-.21a41.71,41.71,0,0,1-8.16-5.31c-.74-.62-1.46-1.24-2.16-1.89C475,332.1,475.08,331.87,475.12,331.64Zm-1.49,9.07c.7.1,1.4.16,2.11.19a31,31,0,0,0,7.27-.55c.93-.16,1.86-.38,2.77-.61.27-.05.52-.11.77-.18,3.54-.94,7-2.21,10.42-3.41a84.34,84.34,0,0,1,14-4c.48-.09,1-.16,1.47-.22a5.83,5.83,0,0,1,.73-.1,40.52,40.52,0,0,1,12.24.29l.7.12a3.47,3.47,0,0,0-.1-.37l-.54-.1a41.12,41.12,0,0,0-12.48-.16l-.73.09c-.45.08-.89.14-1.33.23a93.23,93.23,0,0,0-14,4c-3.57,1.22-7.15,2.5-10.8,3.41-.25.07-.51.14-.77.19-.78.19-1.58.35-2.37.5a31.68,31.68,0,0,1-7.2.47,20,20,0,0,1-2.06-.21C473.68,340.44,473.65,340.58,473.63,340.71Zm5.81-30.21c.88,0,1.76,0,2.63.06a27.43,27.43,0,0,1,7.07,1.44,36.53,36.53,0,0,1,12.31,7.43,82.24,82.24,0,0,1,9.64,10.84c.38.48.76,1,1.15,1.45a1.21,1.21,0,0,0,.18.23c1.61,2.06,3.26,4.12,5.06,6.05a.93.93,0,0,0,.19.21,41.68,41.68,0,0,0,3.07,3,28.55,28.55,0,0,0,6,4.18c.77.36,1.55.72,2.35,1,0-.23-.1-.48-.14-.72-.65-.26-1.3-.56-1.93-.86a27.89,27.89,0,0,1-5.91-4.1c-1-.88-1.93-1.81-2.84-2.78l-.18-.2c-1.76-1.88-3.38-3.9-5-5.93l-.18-.22-1.39-1.76A83.67,83.67,0,0,0,501.83,319a36.28,36.28,0,0,0-12.54-7.43,27,27,0,0,0-7.18-1.41q-1.31-.07-2.58,0C479.5,310.26,479.46,310.38,479.44,310.5Zm6.33-22.62c2.07.79,4.18,1.53,6.31,2.14a1.25,1.25,0,0,0,.25.09c.65.18,1.29.35,1.94.51a32.86,32.86,0,0,0,7.28.94,25,25,0,0,0,3.67-.24c.6-.08,1.21-.21,1.81-.32s1.2-.19,1.79-.36,1.41-.35,2.1-.55a5,5,0,0,0-.29-.5c-.64.18-1.29.34-1.93.49-1.19.25-2.38.43-3.56.64a25.44,25.44,0,0,1-3.59.22,32.58,32.58,0,0,1-7.14-.93c-.5-.12-1-.25-1.51-.4l-.25-.06c-2.25-.63-4.46-1.43-6.66-2.27Zm-3.37,10.71c2.91-2.23,5.62-4.68,8.36-7.1.53-.46,1-.93,1.57-1.38l.57-.5a81.86,81.86,0,0,1,9.25-7.16c.74-.49,1.49-.95,2.25-1.4l-.19-.17c-.74.43-1.47.89-2.19,1.37a94.5,94.5,0,0,0-9.37,7.3l-.57.47-1.48,1.29c-2.65,2.32-5.28,4.66-8.06,6.8C482.5,298.26,482.45,298.43,482.4,298.59Z" style="fill:#fff"></path><path d="M509.8,298.7c-2.95,17.31-17.48,49.68-26.94,52.73-11,3.52-49-8.64-56.47-14.1-3-2.18,12.87-21.35,16.57-20,15.49,5.7,29.22,8.63,31.21,7.27,3.06-2.08,15.56-20,23.68-31.09C508.06,279.57,511.13,290.94,509.8,298.7Z" style="fill: rgb(247, 169, 160);"></path><path d="M427.37,337.85c-1.69-.61-13.34-9.07-16.78-13a51.05,51.05,0,0,1-9-13.89c-3.45-8.05-5.08-13.94-4.25-16.58,1-3.07,1.25-3.56,9.3,9.8,4.56,7.56,8.91,8.41,12.68,8.34a57.93,57.93,0,0,1,26.76,6S433.88,340.17,427.37,337.85Z" style="fill: rgb(247, 169, 160);"></path><path d="M408.09,281.09l19.47,25.09a1,1,0,0,1-.42,1.71l-13.81,4.43a2.31,2.31,0,0,1-2.36-.81l-19.48-25.08a1,1,0,0,1,.42-1.71l13.81-4.43A2.34,2.34,0,0,1,408.09,281.09Z" style="fill:#263238"></path><path d="M406.91,279.9l-13.8,4.44a1,1,0,0,0-.42,1.7l19.47,25.09a2.37,2.37,0,0,0,2.37.81l13.8-4.44a1,1,0,0,0,.43-1.7l-19.47-25.09A2.34,2.34,0,0,0,406.91,279.9Zm20.37,25.4c.52.66.37,1.38-.32,1.6l-12.35,4a2.19,2.19,0,0,1-2.18-.8L394.3,286.71c-1-1.34-.53-1.59.16-1.81l2.47-.8a.56.56,0,0,1,.51.24l.06.08a.67.67,0,0,0,.91.23l5.72-1.83c.32-.11.58-.19.25-.61l-.06-.08c-.14-.18-.13-.36,0-.4l2.48-.8c.69-.22,1.38-.22,2.34,1Z" style="fill:#455a64"></path><path d="M401.64,283l-1.56.5a.15.15,0,0,1-.16,0h0a.07.07,0,0,1,0-.12l1.56-.5a.15.15,0,0,1,.16.06h0S401.7,282.94,401.64,283Z" style="fill:#263238"></path><line x1="411.28" y1="308.59" x2="411.24" y2="308.61" style="fill:none"></line><path d="M409.15,281.94l18.13,23.36c.52.66.37,1.38-.32,1.6l-12.35,4a2.19,2.19,0,0,1-2.18-.8L394.3,286.71c-1-1.34-.53-1.59.16-1.81l2.47-.8a.55.55,0,0,1,.51.24l.06.08a.67.67,0,0,0,.91.23l5.72-1.83c.32-.11.58-.19.25-.61l-.06-.08c-.14-.18-.13-.36,0-.4l2.48-.8C407.5,280.71,408.2,280.71,409.15,281.94Z" style="fill:#fff"></path><path d="M409.15,281.94l1.35,1.74-14.85,4.78-1.35-1.75c-1-1.34-.53-1.59.16-1.81l2.47-.8a.54.54,0,0,1,.51.24l.06.08a.67.67,0,0,0,.91.23l5.72-1.83c.32-.11.58-.19.25-.61l-.06-.08c-.14-.18-.13-.36,0-.4l2.48-.8C407.5,280.71,408.19,280.71,409.15,281.94Z" style="fill:#FBCA12"></path><g id="freepik--u5zjqx--inject-86"><path d="M396.91,284.77v0a.52.52,0,0,0-.3,0,.22.22,0,0,0-.16.16h-.06s0,0,0,0l0-.06.07-.06,0,0h.33l0,0Z" style="fill:#fff"></path><path d="M396.57,285l-.07,0a.23.23,0,0,1,.1-.12.36.36,0,0,1,.29,0v0a.46.46,0,0,0-.2,0A.15.15,0,0,0,396.57,285Z" style="fill:#fff"></path><path d="M396.86,285v0h-.1a.1.1,0,0,0-.06.05l-.06,0C396.65,285,396.75,284.91,396.86,285Z" style="fill:#fff"></path><path d="M396.83,285a0,0,0,0,1,0,0,.07.07,0,0,1-.06,0s0,0,0,0A0,0,0,0,1,396.83,285Z" style="fill:#fff"></path></g><path d="M394.63,285.58a.07.07,0,0,1,0-.12.16.16,0,0,1,.17.06.06.06,0,0,1,0,.11A.16.16,0,0,1,394.63,285.58Z" style="fill:#fff"></path><path d="M394.94,285.48a.07.07,0,0,1,0-.12.16.16,0,0,1,.17.06.06.06,0,0,1,0,.11A.16.16,0,0,1,394.94,285.48Z" style="fill:#fff"></path><path d="M395.25,285.38a.07.07,0,0,1,0-.12.16.16,0,0,1,.17.06.06.06,0,0,1,0,.11A.16.16,0,0,1,395.25,285.38Z" style="fill:#fff"></path><path d="M395.56,285.28a.07.07,0,0,1,0-.12.16.16,0,0,1,.17.06.07.07,0,0,1,0,.12A.18.18,0,0,1,395.56,285.28Z" style="fill:#fff"></path><path d="M395.87,285.18a.07.07,0,0,1,0-.12.16.16,0,0,1,.17.06.07.07,0,0,1,0,.12A.18.18,0,0,1,395.87,285.18Z" style="fill:#fff"></path><path d="M407.55,281.67l-.81.25-.25-.33.8-.25Zm-.79.2.72-.23-.2-.25-.72.23Z" style="fill:#fff"></path><polygon points="407.12 281.46 406.6 281.63 406.77 281.85 407.29 281.68 407.12 281.46" style="fill:#fff"></polygon><polygon points="407.56 281.57 407.49 281.59 407.35 281.41 407.42 281.39 407.56 281.57" style="fill:#fff"></polygon><path d="M406.87,295.15l-1.29-.42c.41-1.67,2.25-2.69,4.57-2.55a8.12,8.12,0,0,1,5.25,2.43l-1,.45a6.24,6.24,0,0,0-4-1.87C408.59,293.08,407.18,293.87,406.87,295.15Z" style="fill:#FBCA12"></path><polygon points="412.94 294.77 416.02 296.83 416.17 294.12 412.94 294.77" style="fill:#FBCA12"></polygon><g style="opacity:0.2"><path d="M406.87,295.15l-1.29-.42c.41-1.67,2.25-2.69,4.57-2.55a8.12,8.12,0,0,1,5.25,2.43l-1,.45a6.24,6.24,0,0,0-4-1.87C408.59,293.08,407.18,293.87,406.87,295.15Z"></path><polygon points="412.94 294.77 416.02 296.83 416.17 294.12 412.94 294.77"></polygon></g><path d="M412.06,300.63a8.16,8.16,0,0,1-5.25-2.42l1-.45a6.2,6.2,0,0,0,4,1.86c1.88.12,3.34-.77,3.55-2.15l1.3.36C416.4,299.63,414.5,300.78,412.06,300.63Z" style="fill:#FBCA12"></path><polygon points="409.27 298.04 406.18 295.98 406.04 298.69 409.27 298.04" style="fill:#FBCA12"></polygon><path d="M417.48,312.42c3.89.05-8.77-7.84-9-12.27s4.13-3,7.53-.54c11.82,8.68,20.73,8.26,26.73,16.56S417.48,312.42,417.48,312.42Z" style="fill: rgb(247, 169, 160);"></path><path d="M429.25,307a30.53,30.53,0,0,1,7.27,2.85,18.86,18.86,0,0,1,5.27,4.92c.06.09-.05.2-.12.12-3.19-3.92-7.92-5.89-12.46-7.78A.06.06,0,0,1,429.25,307Z" style="fill:#263238"></path><path d="M473.34,323.54c-3,.83-24.11-5-24.11-5l-11.86,28.66s36.73,8.54,45.3,5.58,21.92-32.1,26.23-49c4.06-15.91-1.35-26.29-12.71-9.81C496.19,294,474.92,323.12,473.34,323.54Z" style="fill:#FBCA12"></path><path d="M466.69,322.81c.21.22.41.45.61.67a97.55,97.55,0,0,0,10.24,10.29,41.11,41.11,0,0,0,8.56,5.57l.45.22a33.4,33.4,0,0,0,3.47,1.38,27.23,27.23,0,0,0,2.81.79,4.23,4.23,0,0,0-.24.4,25.44,25.44,0,0,1-2.72-.75,32,32,0,0,1-4.09-1.64l-.45-.21a41.71,41.71,0,0,1-8.16-5.31,99.55,99.55,0,0,1-10.33-10.31l-1.18-1.31Zm-19.63,1a86.85,86.85,0,0,0,8.78,8.59,39.15,39.15,0,0,0,12.7,7.17,27.1,27.1,0,0,0,7.2,1.34,31,31,0,0,0,7.27-.55c.93-.16,1.86-.38,2.77-.61.27-.05.52-.11.77-.18,3.14-.83,6.19-1.92,9.25-3l.17-.31c-3.26,1.13-6.53,2.27-9.87,3.09-.25.07-.51.14-.77.19-.78.19-1.58.35-2.37.5a31.68,31.68,0,0,1-7.2.47,26.61,26.61,0,0,1-7.07-1.38A39.26,39.26,0,0,1,456.21,332a87.62,87.62,0,0,1-8.88-8.78Zm36.7-13.07a27.19,27.19,0,0,1,5.38,1.27,36.53,36.53,0,0,1,12.31,7.43c.56.49,1.1,1,1.63,1.54l.24-.58c-.49-.48-1-.93-1.49-1.39a36.28,36.28,0,0,0-12.54-7.43,26.07,26.07,0,0,0-5.24-1.22Zm14.39-19.41a29.73,29.73,0,0,0,3.4.24,25,25,0,0,0,3.67-.24c.6-.08,1.21-.21,1.81-.32s1.2-.19,1.79-.36c.36-.09.72-.17,1.07-.28,0-.19-.07-.37-.11-.55-.36.1-.72.18-1.08.27-1.19.25-2.38.43-3.56.64a25.44,25.44,0,0,1-3.59.22,26.07,26.07,0,0,1-2.94-.19Z" style="fill:#fff"></path><path d="M455.56,350.91l2.66.47" style="fill:#ebebeb"></path><path d="M469,323.24q-1.22-.21-2.58-.48" style="fill:#ebebeb"></path><path d="M483.12,351.94c7.18-3.68,16-22.93,17.74-26.71,1.1-2.42,2.09-4.88,3.07-7.34,2-4.94,3.76-9.93,5.48-15a.07.07,0,0,1,.13,0c-.94,3.88-2.08,7.72-3.39,11.5a41.6,41.6,0,0,0,2.34-4.37c0-.07.16,0,.13,0a24.22,24.22,0,0,1-2.73,5.06c-1.35,3.8-2.87,7.54-4.57,11.18-.49,1.05-10.73,24.63-18.76,26.82-2.79.76-12.34.07-14.37-.39-.09,0-.11-.13,0-.13C470.94,352.62,480.55,353.25,483.12,351.94Z" style="fill:#263238"></path><path d="M445.31,343.77c.35-1,.71-2,1.08-3,.73-2,5.15-13.69,7.07-17.36.05-.09.2,0,.17.08-1.08,4-5.76,15.58-6.54,17.49-.4,1-.81,2-1.22,2.92s-.94,1.9-1.35,2.88c0,.1-.2.05-.16-.05C444.72,345.79,445,344.76,445.31,343.77Z" style="fill:#263238"></path><path d="M449.22,318.63c1.75.08,17.53,3.74,21,4.53a7.13,7.13,0,0,0,2.58.35,3.74,3.74,0,0,0,2.07-1.54c1.13-1.3,13.47-17.62,14.37-18.42.34-.3.6-.36.28.16-.55.88-12.55,17-13.64,18.26s-2,2.41-3.66,2.34c-.75,0-22-4.8-23.08-5.24A.22.22,0,0,1,449.22,318.63Z" style="fill:#263238"></path><path d="M490.6,291.31c3.21-.06,10.36-5.32,11.4-10.19.07-.34-1.27-3.23-2.74-6.83-.89-2.18-1.82-4.64-2.51-6.94-.14-.47-13.38,7.83-13.38,7.83a38.05,38.05,0,0,1,4,8.41,5.13,5.13,0,0,1,.19,1,1.15,1.15,0,0,0,0,.16C487.87,286.61,487.17,291.39,490.6,291.31Z" style="fill: rgb(247, 169, 160);"></path><path d="M487.59,284.57s0,.1,0,.16a9.62,9.62,0,0,0,1.5-.37c8.44-2.73,7.5-14,7.12-16.85-2.45,1.13-12.87,7.67-12.87,7.67a38.29,38.29,0,0,1,4.05,8.42A5.82,5.82,0,0,1,487.59,284.57Z" style="fill:#263238"></path><path d="M494.06,248.64c2.95,4.75,4.18,20.38,1.39,24.68-4.05,6.23-12.64,9-18.43,3.69-5.61-5.15-6.86-25.55-3.56-29.66C478.32,241.3,489.72,241.63,494.06,248.64Z" style="fill: rgb(247, 169, 160);"></path><path d="M481.63,261.66s.09,0,.09.09c0,1.05.29,2.25,1.27,2.52,0,0,0,.06,0,.06C481.81,264.26,481.51,262.67,481.63,261.66Z" style="fill:#263238"></path><path d="M482.48,260.48c1.68-.27,2.1,3.12.54,3.37S481.07,260.71,482.48,260.48Z" style="fill:#263238"></path><path d="M475.84,262.34s-.08.06-.07.11c.16,1,.17,2.26-.74,2.73,0,0,0,.07,0,.06C476.19,264.93,476.16,263.31,475.84,262.34Z" style="fill:#263238"></path><path d="M474.77,261.36c-1.71.08-1.42,3.48.15,3.41S476.19,261.3,474.77,261.36Z" style="fill:#263238"></path><path d="M483.62,258.77a13.43,13.43,0,0,1-1.37-.3,2.23,2.23,0,0,1-1.33-.57.71.71,0,0,1,0-.88,1.79,1.79,0,0,1,1.76-.41,2.61,2.61,0,0,1,1.64.95A.76.76,0,0,1,483.62,258.77Z" style="fill:#263238"></path><path d="M473.25,259.82a12.08,12.08,0,0,0,1.3-.51,2.36,2.36,0,0,0,1.23-.78.72.72,0,0,0-.15-.87,1.8,1.8,0,0,0-1.81-.12,2.65,2.65,0,0,0-1.47,1.2A.77.77,0,0,0,473.25,259.82Z" style="fill:#263238"></path><path d="M484.05,271c-.22.27-.43.64-.8.72a2.68,2.68,0,0,1-1.16-.12s-.07,0,0,.06a1.42,1.42,0,0,0,1.4.4,1.13,1.13,0,0,0,.71-1C484.17,271,484.08,271,484.05,271Z" style="fill:#263238"></path><path d="M482.56,268a3.58,3.58,0,0,1-2.18,1.89,4.63,4.63,0,0,1-1.28.21h-.48a.27.27,0,0,1-.24-.21h0a.41.41,0,0,1,0-.11h0v-.09c-.12-.8-.19-2-.19-2-.28.18-1.7,1-1.73.62a54.36,54.36,0,0,1,.06-11,.1.1,0,0,1,.19,0c.35,3.37.1,6.78.39,10.17a6.17,6.17,0,0,1,1.63-.71c.12,0,.09,2.39.18,2.75v0a5,5,0,0,0,3.55-1.6C482.52,267.88,482.62,267.94,482.56,268Z" style="fill:#263238"></path><path d="M479.53,269.66a4.25,4.25,0,0,0,1.85,1.11,1.89,1.89,0,0,0,1.17-.07c.81-.32.74-1.09.5-1.73a4.37,4.37,0,0,0-.5-1A5.51,5.51,0,0,1,479.53,269.66Z" style="fill:#263238"></path><path d="M481.38,270.77a1.89,1.89,0,0,0,1.17-.07c.81-.32.74-1.09.5-1.73A2,2,0,0,0,481.38,270.77Z" style="fill:#ff9bbc"></path><path d="M496.5,261.08c-3.89.64-5.83-6.3-5.83-6.3s-6.86,0-8.68-4.84c0,0-5.66,5.11-10.95,4.13s-5.18-6.79-4.83-8.09,3.49.48,3.49.48-.22-3.24.58-3.71,2.05,1.31,2.05,1.31a41.78,41.78,0,0,1,11.92-4c5.85-.81,9.72,4.58,9.72,4.58s3.22.14,4.6,2.15S499,260.67,496.5,261.08Z" style="fill:#263238"></path><path d="M492.25,254.57c-5.05,1.55-9.05-1.31-10.63-6.14a.05.05,0,0,0-.1,0c.92,4.58,6.09,9,10.82,6.33C492.45,254.72,492.38,254.53,492.25,254.57Z" style="fill:#263238"></path><path d="M493.81,244.54c-.06,0-.07.09,0,.11,1.55.42,3.29.65,4.53,1.8,1.49,1.38,1.58,3.52,1.42,5.4-.24,2.92-1.07,6.81-3.3,8.87a.13.13,0,0,0,.18.2c2.71-2.28,3.67-7.29,3.54-10.66C500,246.48,497.36,244.76,493.81,244.54Z" style="fill:#263238"></path><path d="M476.58,252.33a7.73,7.73,0,0,1-7.91,1.18c-3-1.44-3-4.67-2.24-7.48,0-.13-.17-.24-.24-.1-1.22,2.56-.77,6.07,1.78,7.68s6.62.92,8.88-1C477,252.44,476.76,252.16,476.58,252.33Z" style="fill:#263238"></path><path d="M484.12,266.85a5,5,0,0,1-5-4.92h0a5,5,0,1,1,6.26,4.75A4.49,4.49,0,0,1,484.12,266.85Zm-4.38-4.92a4.32,4.32,0,1,0,4.26-4.37,4.67,4.67,0,0,0-1.06.15A4.31,4.31,0,0,0,479.74,261.93Z" style="fill:#455a64"></path><path d="M473.71,268.33c-2,.3-4-1.67-4.39-4.39a6,6,0,0,1,.54-3.6,3.11,3.11,0,0,1,5.26-.76,6,6,0,0,1,1.54,3.29c.37,2.57-.79,4.91-2.63,5.4A1.8,1.8,0,0,1,473.71,268.33Zm-3.26-7.68a5.29,5.29,0,0,0-.47,3.19c.34,2.36,2,4.08,3.63,3.83s2.73-2.35,2.39-4.7a5.3,5.3,0,0,0-1.36-2.93,2.66,2.66,0,0,0-2.27-.9l-.25.05A2.74,2.74,0,0,0,470.45,260.65Z" style="fill:#455a64"></path><path d="M479.33,262.48l.35-.57c-.84-.52-2.69-1.11-3.71.35l.55.38C477.43,261.33,479.25,262.43,479.33,262.48Z" style="fill:#455a64"></path><path d="M501.46,260.56l.54-.39c-.18-.25-1.8-2.47-3.31-2.49s-10.12,2.09-10.49,2.18l.16.65c2.5-.61,9.23-2.18,10.32-2.17S501,260,501.46,260.56Z" style="fill:#455a64"></path><path d="M493.56,262s2.21-5.67,4.7-5,1.66,8.32-.69,9.91a2.7,2.7,0,0,1-3.86-.55Z" style="fill: rgb(247, 169, 160);"></path><path d="M498,259.15s.06,0,0,.06c-1.63,1.18-2.18,3.09-2.42,5a1.49,1.49,0,0,1,2.07-.92c.06,0,0,.11,0,.11a1.66,1.66,0,0,0-1.64,1,7.31,7.31,0,0,0-.5,1.65c-.05.18-.36.17-.35,0V266C494.54,263.65,495.55,260,498,259.15Z" style="fill:#263238"></path><path d="M486.47,284.42s0,0,0,0c-.4,3-1.12,10,3.49,9.9a9.66,9.66,0,0,0,5.11-2.21,26.11,26.11,0,0,0,4.18-3.83,40.13,40.13,0,0,0,4-5c0-.08.15,0,.1.09-1.22,1.77-2.26,3.64-3.64,5.3a22.92,22.92,0,0,1-4.51,4.24,9.64,9.64,0,0,1-5.43,2.14,3.7,3.7,0,0,1-3.55-3.14A17.53,17.53,0,0,1,486.47,284.42Z" style="fill:#263238"></path></g></svg>